%FSLAX44Y44*%
%MOMM*%
G71*
G01*
G75*
G04 Layer_Color=8421504*
G04:AMPARAMS|DCode=10|XSize=2.4mm|YSize=2.8mm|CornerRadius=0mm|HoleSize=0mm|Usage=FLASHONLY|Rotation=135.000|XOffset=0mm|YOffset=0mm|HoleType=Round|Shape=Rectangle|*
%AMROTATEDRECTD10*
4,1,4,1.8385,0.1414,-0.1414,-1.8385,-1.8385,-0.1414,0.1414,1.8385,1.8385,0.1414,0.0*
%
%ADD10ROTATEDRECTD10*%

%ADD11R,0.5000X0.6000*%
%ADD12R,0.8890X1.0160*%
%ADD13R,0.6000X0.5000*%
%ADD14R,0.8000X2.4000*%
%ADD15R,5.3000X5.0000*%
%ADD16R,1.2500X2.4000*%
%ADD17R,1.2500X1.2000*%
%ADD18R,1.2000X1.4000*%
G04:AMPARAMS|DCode=19|XSize=1.5mm|YSize=1.4mm|CornerRadius=0mm|HoleSize=0mm|Usage=FLASHONLY|Rotation=315.000|XOffset=0mm|YOffset=0mm|HoleType=Round|Shape=Rectangle|*
%AMROTATEDRECTD19*
4,1,4,-1.0253,0.0354,-0.0354,1.0253,1.0253,-0.0354,0.0354,-1.0253,-1.0253,0.0354,0.0*
%
%ADD19ROTATEDRECTD19*%

%ADD20R,1.3970X1.3970*%
%ADD21C,1.0000*%
%ADD22R,1.1000X0.5000*%
%ADD23R,1.2000X1.6000*%
%ADD24R,1.0668X0.8128*%
%ADD25R,0.7600X1.5600*%
%ADD26R,0.8128X0.8128*%
%ADD27R,1.6000X1.2000*%
%ADD28R,1.2954X1.6002*%
%ADD29R,2.0320X0.6096*%
%ADD30O,2.0320X0.6096*%
%ADD31R,3.7000X3.7000*%
%ADD32R,0.8000X0.2000*%
%ADD33R,0.8000X0.1990*%
%ADD34R,0.2000X0.8000*%
%ADD35R,0.1990X0.8000*%
%ADD36R,2.4000X0.8000*%
%ADD37R,5.0000X5.3000*%
%ADD38R,1.2000X1.2000*%
G04:AMPARAMS|DCode=39|XSize=1.5mm|YSize=1.4mm|CornerRadius=0mm|HoleSize=0mm|Usage=FLASHONLY|Rotation=45.000|XOffset=0mm|YOffset=0mm|HoleType=Round|Shape=Rectangle|*
%AMROTATEDRECTD39*
4,1,4,-0.0354,-1.0253,-1.0253,-0.0354,0.0354,1.0253,1.0253,0.0354,-0.0354,-1.0253,0.0*
%
%ADD39ROTATEDRECTD39*%

%ADD40R,2.4000X1.2500*%
%ADD41R,1.2000X1.2500*%
%ADD42R,2.6200X3.5100*%
%ADD43C,0.2000*%
%ADD44C,0.1780*%
%ADD45C,0.2540*%
%ADD46C,0.6000*%
%ADD47C,4.1200*%
%ADD48C,0.3000*%
%ADD49C,0.4000*%
%ADD50C,0.1270*%
%ADD51C,0.1800*%
%ADD52C,1.0000*%
%ADD53C,0.8000*%
%ADD54C,0.2543*%
%ADD55R,1.0668X1.5240*%
%ADD56O,1.0160X1.5240*%
%ADD57C,2.5400*%
%ADD58C,1.3500*%
%ADD59R,1.3500X1.3500*%
G04:AMPARAMS|DCode=60|XSize=4mm|YSize=4mm|CornerRadius=2mm|HoleSize=0mm|Usage=FLASHONLY|Rotation=0.000|XOffset=0mm|YOffset=0mm|HoleType=Round|Shape=RoundedRectangle|*
%AMROUNDEDRECTD60*
21,1,4.0000,0.0000,0,0,0.0*
21,1,0.0000,4.0000,0,0,0.0*
1,1,4.0000,0.0000,0.0000*
1,1,4.0000,0.0000,0.0000*
1,1,4.0000,0.0000,0.0000*
1,1,4.0000,0.0000,0.0000*
%
%ADD60ROUNDEDRECTD60*%
%ADD61R,1.0000X1.0000*%
%ADD62C,1.8000*%
%ADD63R,1.8000X1.8000*%
%ADD64C,4.5000*%
%ADD65C,2.8000*%
%ADD66C,1.2540*%
%ADD67C,0.5000*%
%ADD68R,1.0729X7.6713*%
%ADD69C,2.0000*%
%ADD70R,8.9783X5.0800*%
%ADD71R,0.8128X1.0668*%
%ADD72R,0.8128X0.8128*%
%ADD73C,1.6000*%
%ADD74C,3.0000*%
%ADD75R,9.1983X4.5380*%
%ADD76C,0.1200*%
%ADD77C,0.1250*%
%ADD78C,0.1524*%
%ADD79C,0.1999*%
%ADD80C,0.2032*%
G36*
X151726Y215599D02*
Y213599D01*
X143726D01*
Y215599D01*
X151726Y215599D01*
D02*
G37*
G36*
X187520Y213800D02*
X157920D01*
Y243400D01*
X187520D01*
Y213800D01*
D02*
G37*
G36*
X201714Y213598D02*
X193714Y213598D01*
Y215598D01*
X201714D01*
Y213598D01*
D02*
G37*
G36*
Y209597D02*
X193714D01*
Y211597D01*
X201714D01*
Y209597D01*
D02*
G37*
G36*
X151726Y209599D02*
X143726D01*
Y211599D01*
X151726D01*
X151726Y209599D01*
D02*
G37*
G36*
X151727Y221600D02*
X143726D01*
Y223601D01*
X151727D01*
Y221600D01*
D02*
G37*
G36*
X201714Y225599D02*
X193714Y225599D01*
Y227599D01*
X201714D01*
Y225599D01*
D02*
G37*
G36*
X201715Y221599D02*
X193714D01*
Y223599D01*
X201715D01*
Y221599D01*
D02*
G37*
G36*
X201714Y217599D02*
X193714D01*
X193714Y219599D01*
X201714D01*
Y217599D01*
D02*
G37*
G36*
X151726Y217600D02*
X143726D01*
Y219600D01*
X151726D01*
Y217600D01*
D02*
G37*
G36*
X159719Y199606D02*
X157719D01*
Y207606D01*
X159719Y207606D01*
Y199606D01*
D02*
G37*
G36*
X163720D02*
X161720D01*
Y207606D01*
X163720D01*
Y199606D01*
D02*
G37*
G36*
X155719Y207606D02*
Y199606D01*
X153719D01*
Y207606D01*
X155719Y207606D01*
D02*
G37*
G36*
X167721Y199606D02*
X165721D01*
X165721Y207606D01*
X167721D01*
Y199606D01*
D02*
G37*
G36*
X183720D02*
X181720D01*
X181720Y207606D01*
X183720D01*
Y199606D01*
D02*
G37*
G36*
X187721Y207606D02*
Y199606D01*
X185721D01*
Y207606D01*
X187721Y207606D01*
D02*
G37*
G36*
X191721Y199606D02*
X189721D01*
Y207606D01*
X191721D01*
X191721Y199606D01*
D02*
G37*
G36*
X179719D02*
X177719D01*
Y207606D01*
X179719D01*
Y199606D01*
D02*
G37*
G36*
X171721D02*
X169720D01*
Y207606D01*
X171721D01*
Y199606D01*
D02*
G37*
G36*
X175719Y207606D02*
Y199606D01*
X173719D01*
Y207606D01*
X175719Y207606D01*
D02*
G37*
G36*
X151726Y225600D02*
X143726Y225600D01*
Y227600D01*
X151726D01*
Y225600D01*
D02*
G37*
G36*
X179719Y249593D02*
X177719D01*
Y257593D01*
X179719D01*
Y249593D01*
D02*
G37*
G36*
X187721D02*
X185721D01*
Y257594D01*
X187721D01*
Y249593D01*
D02*
G37*
G36*
X175719D02*
X173719D01*
Y257594D01*
X175719D01*
Y249593D01*
D02*
G37*
G36*
X167721Y249593D02*
X165721D01*
Y257593D01*
X167721D01*
Y249593D01*
D02*
G37*
G36*
X183720D02*
X181720D01*
Y257594D01*
X183720D01*
Y249593D01*
D02*
G37*
G36*
X171721Y249594D02*
X169720D01*
Y257594D01*
X171721D01*
Y249594D01*
D02*
G37*
G36*
X191721D02*
X189721D01*
Y257594D01*
X191721D01*
X191721Y249594D01*
D02*
G37*
G36*
X163720D02*
X161720D01*
Y257594D01*
X163720D01*
Y249594D01*
D02*
G37*
G36*
X155719D02*
X153719Y249594D01*
Y257594D01*
X155719D01*
Y249594D01*
D02*
G37*
G36*
X159719Y249594D02*
X157719Y249594D01*
Y257594D01*
X159719D01*
Y249594D01*
D02*
G37*
G36*
X151726Y233598D02*
X143726D01*
Y235599D01*
X151726D01*
X151726Y233598D01*
D02*
G37*
G36*
X201715Y237599D02*
X193714D01*
Y239599D01*
X201715Y239599D01*
Y237599D01*
D02*
G37*
G36*
X201714Y233598D02*
X193714D01*
Y235598D01*
X201714D01*
Y233598D01*
D02*
G37*
G36*
Y229598D02*
X193714D01*
Y231598D01*
X201714D01*
Y229598D01*
D02*
G37*
G36*
X151726Y229599D02*
X143726D01*
Y231599D01*
X151726D01*
X151726Y229599D01*
D02*
G37*
G36*
X201714Y245600D02*
X193714Y245600D01*
Y247600D01*
X201714D01*
Y245600D01*
D02*
G37*
G36*
X151726Y245600D02*
X143726Y245600D01*
Y247601D01*
X151726D01*
Y245600D01*
D02*
G37*
G36*
X151726Y241600D02*
X143726Y241600D01*
Y243600D01*
X151726D01*
Y241600D01*
D02*
G37*
G36*
X151727Y237600D02*
X143726D01*
Y239600D01*
X151727D01*
Y237600D01*
D02*
G37*
G36*
X201714Y241599D02*
X193714D01*
Y243599D01*
X201714D01*
Y241599D01*
D02*
G37*
D10*
X592257Y88840D02*
D03*
X536257Y144840D02*
D03*
D11*
X376500Y251460D02*
D03*
X385500D02*
D03*
X142930Y448310D02*
D03*
X133930D02*
D03*
X142980Y435030D02*
D03*
X133980D02*
D03*
X210625Y257810D02*
D03*
X219625D02*
D03*
X100910Y246380D02*
D03*
X109910D02*
D03*
X551035Y60960D02*
D03*
X542035D02*
D03*
X266120Y276020D02*
D03*
X257120D02*
D03*
X214612Y314960D02*
D03*
X223612D02*
D03*
X252800Y157125D02*
D03*
X243800D02*
D03*
X109800Y229870D02*
D03*
X118800D02*
D03*
X109800Y215900D02*
D03*
X118800D02*
D03*
X252800Y169825D02*
D03*
X243800D02*
D03*
X385500Y236560D02*
D03*
X376500D02*
D03*
X564601Y234950D02*
D03*
X573601D02*
D03*
X61650Y162560D02*
D03*
X52650D02*
D03*
X61650Y203835D02*
D03*
X52650D02*
D03*
X523820Y270510D02*
D03*
X532820D02*
D03*
Y257810D02*
D03*
X523820D02*
D03*
X532820Y245110D02*
D03*
X523820D02*
D03*
X310570Y420710D02*
D03*
X301570D02*
D03*
X310570Y433410D02*
D03*
X301570D02*
D03*
D12*
X597281Y173990D02*
D03*
X581279D02*
D03*
X597281Y191770D02*
D03*
X581279D02*
D03*
Y209550D02*
D03*
X597281D02*
D03*
D13*
X156210Y426030D02*
D03*
Y435030D02*
D03*
X168910Y426030D02*
D03*
Y435030D02*
D03*
X678930Y82197D02*
D03*
Y91197D02*
D03*
X666230D02*
D03*
Y82197D02*
D03*
X653530Y91197D02*
D03*
Y82197D02*
D03*
X360680Y245800D02*
D03*
Y236800D02*
D03*
X257810Y212780D02*
D03*
Y203780D02*
D03*
X174719Y128850D02*
D03*
Y137850D02*
D03*
X527050Y178490D02*
D03*
Y169490D02*
D03*
X70045Y109650D02*
D03*
Y100649D02*
D03*
X52070Y109650D02*
D03*
Y100649D02*
D03*
X105410Y163140D02*
D03*
Y172140D02*
D03*
X123190Y163140D02*
D03*
Y172140D02*
D03*
X132080Y107260D02*
D03*
Y116260D02*
D03*
X105410Y68000D02*
D03*
Y59000D02*
D03*
X69850D02*
D03*
Y68000D02*
D03*
X52070Y59000D02*
D03*
Y68000D02*
D03*
X166721Y177110D02*
D03*
Y186110D02*
D03*
X148590Y178380D02*
D03*
Y187380D02*
D03*
X87630Y172140D02*
D03*
Y163140D02*
D03*
X371310Y139010D02*
D03*
Y148010D02*
D03*
X386080Y139010D02*
D03*
Y148010D02*
D03*
X398780Y139010D02*
D03*
Y148010D02*
D03*
X411480D02*
D03*
Y139010D02*
D03*
X87630Y59000D02*
D03*
Y68000D02*
D03*
X161290Y128735D02*
D03*
Y137735D02*
D03*
X257810Y224100D02*
D03*
Y233100D02*
D03*
Y244420D02*
D03*
Y253420D02*
D03*
X78050Y224210D02*
D03*
Y215210D02*
D03*
X91440D02*
D03*
Y224210D02*
D03*
X287020Y431220D02*
D03*
Y422220D02*
D03*
X274320Y431220D02*
D03*
Y422220D02*
D03*
X358140Y320730D02*
D03*
Y311730D02*
D03*
X370840Y320730D02*
D03*
Y311730D02*
D03*
X383540Y320730D02*
D03*
Y311730D02*
D03*
X396240Y320730D02*
D03*
Y311730D02*
D03*
X408940Y320730D02*
D03*
Y311730D02*
D03*
X421640Y320730D02*
D03*
Y311730D02*
D03*
X434340Y320730D02*
D03*
Y311730D02*
D03*
X447040Y320730D02*
D03*
Y311730D02*
D03*
X459740Y311730D02*
D03*
Y320730D02*
D03*
X485140Y311730D02*
D03*
Y320730D02*
D03*
D14*
X623050Y129787D02*
D03*
X635750D02*
D03*
X648450D02*
D03*
X661150D02*
D03*
X673850D02*
D03*
D15*
X648450Y213787D02*
D03*
D16*
X635750Y96407D02*
D03*
D17*
Y65657D02*
D03*
D18*
X243126Y298020D02*
D03*
Y276020D02*
D03*
X228126D02*
D03*
Y298020D02*
D03*
D19*
X217091Y156325D02*
D03*
X190091Y183325D02*
D03*
X344970Y104610D02*
D03*
X317970Y131610D02*
D03*
D20*
X506095Y161579D02*
D03*
X484505D02*
D03*
D21*
X346595Y190500D02*
D03*
X368300Y191041D02*
D03*
X508000Y182880D02*
D03*
X281940Y152400D02*
D03*
D22*
X371310Y123800D02*
D03*
Y114300D02*
D03*
Y104800D02*
D03*
X398310D02*
D03*
Y123800D02*
D03*
D23*
X472950Y60960D02*
D03*
X504950D02*
D03*
Y86360D02*
D03*
X472950D02*
D03*
Y137160D02*
D03*
X504950D02*
D03*
Y111760D02*
D03*
X472950D02*
D03*
D24*
X424142Y226652D02*
D03*
X401206Y217114D02*
D03*
Y236189D02*
D03*
D25*
X194310Y409740D02*
D03*
X181610D02*
D03*
X194310Y319240D02*
D03*
X168910Y409740D02*
D03*
X156210D02*
D03*
X118110D02*
D03*
X130810D02*
D03*
X143510D02*
D03*
X80010D02*
D03*
X92710D02*
D03*
X105410D02*
D03*
X54610D02*
D03*
X67310D02*
D03*
X181610Y319240D02*
D03*
X168910D02*
D03*
X156210D02*
D03*
X143510D02*
D03*
X130810D02*
D03*
X118110D02*
D03*
X105410D02*
D03*
X92710D02*
D03*
X80010D02*
D03*
X67310D02*
D03*
X54610D02*
D03*
D26*
X163830Y104830D02*
D03*
X148590D02*
D03*
X58071Y146050D02*
D03*
X73310D02*
D03*
D27*
X198120Y132840D02*
D03*
Y100840D02*
D03*
X223520Y132840D02*
D03*
Y100840D02*
D03*
X249500Y132840D02*
D03*
Y100840D02*
D03*
X549910Y385320D02*
D03*
Y417320D02*
D03*
D28*
X274320Y132080D02*
D03*
Y106680D02*
D03*
D29*
X279540Y249261D02*
D03*
X335420Y446110D02*
D03*
D30*
X279540Y236560D02*
D03*
Y223860D02*
D03*
Y211161D02*
D03*
X335420D02*
D03*
Y223860D02*
D03*
Y236560D02*
D03*
Y249261D02*
D03*
Y433410D02*
D03*
Y420710D02*
D03*
Y408010D02*
D03*
X391300D02*
D03*
Y420710D02*
D03*
Y433410D02*
D03*
Y446110D02*
D03*
D36*
X570140Y308245D02*
D03*
Y295545D02*
D03*
Y282845D02*
D03*
Y270145D02*
D03*
Y257445D02*
D03*
D37*
X654140Y282845D02*
D03*
D38*
X598380Y339446D02*
D03*
Y364846D02*
D03*
X660380D02*
D03*
Y339446D02*
D03*
D39*
X537680Y330670D02*
D03*
X564680Y357670D02*
D03*
D40*
X537137Y295545D02*
D03*
D41*
X506387D02*
D03*
D42*
X363220Y426720D02*
D03*
M02*
