%FSLAX44Y44*%
%MOMM*%
G71*
G01*
G75*
G04 Layer_Color=16711935*
G04:AMPARAMS|DCode=10|XSize=2.4mm|YSize=2.8mm|CornerRadius=0mm|HoleSize=0mm|Usage=FLASHONLY|Rotation=135.000|XOffset=0mm|YOffset=0mm|HoleType=Round|Shape=Rectangle|*
%AMROTATEDRECTD10*
4,1,4,1.8385,0.1414,-0.1414,-1.8385,-1.8385,-0.1414,0.1414,1.8385,1.8385,0.1414,0.0*
%
%ADD10ROTATEDRECTD10*%

%ADD11R,0.5000X0.6000*%
%ADD12R,0.8890X1.0160*%
%ADD13R,0.6000X0.5000*%
%ADD14R,0.8000X2.4000*%
%ADD15R,5.3000X5.0000*%
%ADD16R,1.2500X2.4000*%
%ADD17R,1.2500X1.2000*%
%ADD18R,1.2000X1.4000*%
G04:AMPARAMS|DCode=19|XSize=1.5mm|YSize=1.4mm|CornerRadius=0mm|HoleSize=0mm|Usage=FLASHONLY|Rotation=315.000|XOffset=0mm|YOffset=0mm|HoleType=Round|Shape=Rectangle|*
%AMROTATEDRECTD19*
4,1,4,-1.0253,0.0354,-0.0354,1.0253,1.0253,-0.0354,0.0354,-1.0253,-1.0253,0.0354,0.0*
%
%ADD19ROTATEDRECTD19*%

%ADD20R,1.3970X1.3970*%
%ADD21C,1.0000*%
%ADD22R,1.1000X0.5000*%
%ADD23R,1.2000X1.6000*%
%ADD24R,1.0668X0.8128*%
%ADD25R,0.7600X1.5600*%
%ADD26R,0.8128X0.8128*%
%ADD27R,1.6000X1.2000*%
%ADD28R,1.2954X1.6002*%
%ADD29R,2.0320X0.6096*%
%ADD30O,2.0320X0.6096*%
%ADD31R,3.7000X3.7000*%
%ADD32R,0.8000X0.2000*%
%ADD33R,0.8000X0.1990*%
%ADD34R,0.2000X0.8000*%
%ADD35R,0.1990X0.8000*%
%ADD36R,2.4000X0.8000*%
%ADD37R,5.0000X5.3000*%
%ADD38R,1.2000X1.2000*%
G04:AMPARAMS|DCode=39|XSize=1.5mm|YSize=1.4mm|CornerRadius=0mm|HoleSize=0mm|Usage=FLASHONLY|Rotation=45.000|XOffset=0mm|YOffset=0mm|HoleType=Round|Shape=Rectangle|*
%AMROTATEDRECTD39*
4,1,4,-0.0354,-1.0253,-1.0253,-0.0354,0.0354,1.0253,1.0253,0.0354,-0.0354,-1.0253,0.0*
%
%ADD39ROTATEDRECTD39*%

%ADD40R,2.4000X1.2500*%
%ADD41R,1.2000X1.2500*%
%ADD42R,2.6200X3.5100*%
%ADD43C,0.2000*%
%ADD44C,0.1780*%
%ADD45C,0.2540*%
%ADD46C,0.6000*%
%ADD47C,4.1200*%
%ADD48C,0.3000*%
%ADD49C,0.4000*%
%ADD50C,0.1270*%
%ADD51C,0.1800*%
%ADD52C,1.0000*%
%ADD53C,0.8000*%
%ADD54C,0.2543*%
%ADD55R,1.0668X1.5240*%
%ADD56O,1.0160X1.5240*%
%ADD57C,2.5400*%
%ADD58C,1.3500*%
%ADD59R,1.3500X1.3500*%
G04:AMPARAMS|DCode=60|XSize=4mm|YSize=4mm|CornerRadius=2mm|HoleSize=0mm|Usage=FLASHONLY|Rotation=0.000|XOffset=0mm|YOffset=0mm|HoleType=Round|Shape=RoundedRectangle|*
%AMROUNDEDRECTD60*
21,1,4.0000,0.0000,0,0,0.0*
21,1,0.0000,4.0000,0,0,0.0*
1,1,4.0000,0.0000,0.0000*
1,1,4.0000,0.0000,0.0000*
1,1,4.0000,0.0000,0.0000*
1,1,4.0000,0.0000,0.0000*
%
%ADD60ROUNDEDRECTD60*%
%ADD61R,1.0000X1.0000*%
%ADD62C,1.8000*%
%ADD63R,1.8000X1.8000*%
%ADD64C,4.5000*%
%ADD65C,2.8000*%
%ADD66C,1.2540*%
%ADD67C,0.5000*%
%ADD68R,1.0729X7.6713*%
%ADD69C,2.0000*%
%ADD70R,8.9783X5.0800*%
%ADD71R,0.8128X1.0668*%
%ADD72R,0.8128X0.8128*%
%ADD73C,1.6000*%
%ADD74C,3.0000*%
%ADD75R,9.1983X4.5380*%
%ADD76C,0.1200*%
%ADD77C,0.1250*%
%ADD78C,0.1524*%
%ADD79C,0.1999*%
%ADD80C,0.2032*%
G04:AMPARAMS|DCode=81|XSize=2.6032mm|YSize=3.0032mm|CornerRadius=0mm|HoleSize=0mm|Usage=FLASHONLY|Rotation=135.000|XOffset=0mm|YOffset=0mm|HoleType=Round|Shape=Rectangle|*
%AMROTATEDRECTD81*
4,1,4,1.9822,0.1414,-0.1414,-1.9822,-1.9822,-0.1414,0.1414,1.9822,1.9822,0.1414,0.0*
%
%ADD81ROTATEDRECTD81*%

%ADD82R,0.7032X0.8032*%
%ADD83R,1.0922X1.2192*%
%ADD84R,0.8032X0.7032*%
%ADD85R,1.0032X2.6032*%
%ADD86R,5.5032X5.2032*%
%ADD87R,1.4532X2.6032*%
%ADD88R,1.4532X1.4032*%
%ADD89R,1.4032X1.6032*%
G04:AMPARAMS|DCode=90|XSize=1.7032mm|YSize=1.6032mm|CornerRadius=0mm|HoleSize=0mm|Usage=FLASHONLY|Rotation=315.000|XOffset=0mm|YOffset=0mm|HoleType=Round|Shape=Rectangle|*
%AMROTATEDRECTD90*
4,1,4,-1.1690,0.0354,-0.0354,1.1690,1.1690,-0.0354,0.0354,-1.1690,-1.1690,0.0354,0.0*
%
%ADD90ROTATEDRECTD90*%

%ADD91R,1.6002X1.6002*%
%ADD92C,1.2032*%
%ADD93R,1.3032X0.7032*%
%ADD94R,1.4032X1.8032*%
%ADD95R,1.2700X1.0160*%
%ADD96R,0.9632X1.7632*%
%ADD97R,1.0160X1.0160*%
%ADD98R,1.8032X1.4032*%
%ADD99R,1.4986X1.8034*%
%ADD100R,2.2352X0.8128*%
%ADD101O,2.2352X0.8128*%
%ADD102R,3.8000X3.8000*%
%ADD103R,0.9000X0.3000*%
%ADD104R,0.9000X0.3000*%
%ADD105R,0.9000X0.2990*%
%ADD106R,0.9000X0.2990*%
%ADD107R,0.3000X0.9000*%
%ADD108R,0.2990X0.9000*%
%ADD109R,2.6032X1.0032*%
%ADD110R,5.2032X5.5032*%
%ADD111R,1.4032X1.4032*%
G04:AMPARAMS|DCode=112|XSize=1.7032mm|YSize=1.6032mm|CornerRadius=0mm|HoleSize=0mm|Usage=FLASHONLY|Rotation=45.000|XOffset=0mm|YOffset=0mm|HoleType=Round|Shape=Rectangle|*
%AMROTATEDRECTD112*
4,1,4,-0.0354,-1.1690,-1.1690,-0.0354,0.0354,1.1690,1.1690,0.0354,-0.0354,-1.1690,0.0*
%
%ADD112ROTATEDRECTD112*%

%ADD113R,2.6032X1.4532*%
%ADD114R,1.4032X1.4532*%
%ADD115R,2.8232X3.7132*%
%ADD116R,1.1668X1.6240*%
%ADD117O,1.1160X1.6240*%
%ADD118C,2.6400*%
%ADD119C,1.5532*%
%ADD120R,1.5532X1.5532*%
G04:AMPARAMS|DCode=121|XSize=4.2032mm|YSize=4.2032mm|CornerRadius=2.1016mm|HoleSize=0mm|Usage=FLASHONLY|Rotation=0.000|XOffset=0mm|YOffset=0mm|HoleType=Round|Shape=RoundedRectangle|*
%AMROUNDEDRECTD121*
21,1,4.2032,0.0000,0,0,0.0*
21,1,0.0000,4.2032,0,0,0.0*
1,1,4.2032,0.0000,0.0000*
1,1,4.2032,0.0000,0.0000*
1,1,4.2032,0.0000,0.0000*
1,1,4.2032,0.0000,0.0000*
%
%ADD121ROUNDEDRECTD121*%
%ADD122R,1.2032X1.2032*%
%ADD123C,2.0032*%
%ADD124R,2.0032X2.0032*%
%ADD125C,4.7032*%
%ADD126C,3.0032*%
%ADD127C,1.4572*%
%ADD128C,0.7032*%
%ADD129R,1.0160X1.2700*%
%ADD130R,1.0160X1.0160*%
D82*
X198700Y238600D02*
D03*
X207700D02*
D03*
X198700Y224790D02*
D03*
X207700D02*
D03*
X75620Y341630D02*
D03*
X66620D02*
D03*
X156790Y271051D02*
D03*
X165790D02*
D03*
X305380Y281940D02*
D03*
X314380D02*
D03*
X305380Y294520D02*
D03*
X314380D02*
D03*
X112340Y274320D02*
D03*
X121340D02*
D03*
X112340Y302260D02*
D03*
X121340D02*
D03*
X112340Y289560D02*
D03*
X121340D02*
D03*
X112340Y314960D02*
D03*
X121340D02*
D03*
D84*
X80010Y328350D02*
D03*
Y319350D02*
D03*
X168910Y329620D02*
D03*
Y320620D02*
D03*
X156210Y329620D02*
D03*
Y320620D02*
D03*
X92710Y328350D02*
D03*
Y319350D02*
D03*
X673850Y147077D02*
D03*
Y138077D02*
D03*
X187960Y231830D02*
D03*
Y222830D02*
D03*
X133886Y236910D02*
D03*
Y227910D02*
D03*
X184150Y254580D02*
D03*
Y263580D02*
D03*
X110490Y233100D02*
D03*
Y224100D02*
D03*
X97790D02*
D03*
Y233100D02*
D03*
X150266Y238070D02*
D03*
Y247070D02*
D03*
X80010Y390470D02*
D03*
Y399470D02*
D03*
X92806Y390470D02*
D03*
Y399470D02*
D03*
Y409520D02*
D03*
Y418520D02*
D03*
X80010Y409520D02*
D03*
Y418520D02*
D03*
D92*
X461010Y220411D02*
D03*
D94*
X574180Y364170D02*
D03*
X542180D02*
D03*
X607820Y226045D02*
D03*
X575820D02*
D03*
X608840Y321310D02*
D03*
X640840D02*
D03*
X607820Y251460D02*
D03*
X575820D02*
D03*
D97*
X38790Y341630D02*
D03*
X54030D02*
D03*
X690880Y382270D02*
D03*
X675640D02*
D03*
D111*
X170180Y359418D02*
D03*
Y384818D02*
D03*
X108180D02*
D03*
Y359418D02*
D03*
X201910Y416568D02*
D03*
Y441968D02*
D03*
X139910D02*
D03*
Y416568D02*
D03*
D116*
X123191Y86360D02*
D03*
D117*
X105411D02*
D03*
X87631D02*
D03*
X69849D02*
D03*
X52070D02*
D03*
X52071Y187960D02*
D03*
X69849D02*
D03*
X87629Y187959D02*
D03*
X105409Y187960D02*
D03*
X123189Y187961D02*
D03*
D118*
X300991Y86359D02*
D03*
X300989Y187959D02*
D03*
X16511Y86359D02*
D03*
X255271Y70486D02*
D03*
X16511Y187960D02*
D03*
X229871Y203834D02*
D03*
D119*
X332740Y294640D02*
D03*
Y269240D02*
D03*
X358140Y294640D02*
D03*
Y269240D02*
D03*
X434340D02*
D03*
X485140D02*
D03*
X383540D02*
D03*
Y294640D02*
D03*
X434340D02*
D03*
X408940Y269240D02*
D03*
Y294640D02*
D03*
X459740D02*
D03*
Y269240D02*
D03*
D120*
X485140Y294640D02*
D03*
D121*
X22000Y478000D02*
D03*
X708000Y250000D02*
D03*
X22000D02*
D03*
X365000Y478000D02*
D03*
X708000D02*
D03*
X193500D02*
D03*
X22000Y22000D02*
D03*
X193500D02*
D03*
X365000D02*
D03*
X536500D02*
D03*
X708000D02*
D03*
X536500Y478000D02*
D03*
D122*
X486410Y220411D02*
D03*
D123*
X398540Y387580D02*
D03*
X370840D02*
D03*
X343140D02*
D03*
X315440D02*
D03*
X412390Y359180D02*
D03*
X384690D02*
D03*
X356990D02*
D03*
X329290D02*
D03*
D124*
X426240Y387580D02*
D03*
D125*
X495790Y373380D02*
D03*
X245890D02*
D03*
D126*
X673100Y436880D02*
D03*
X635000D02*
D03*
X596900D02*
D03*
D127*
X92710Y441919D02*
D03*
X41910Y441919D02*
D03*
D128*
X653877Y321310D02*
D03*
D129*
X85788Y259507D02*
D03*
X66713D02*
D03*
X76251Y282443D02*
D03*
D130*
X659130Y38100D02*
D03*
Y53340D02*
D03*
X138430Y38100D02*
D03*
Y53340D02*
D03*
M02*
