M48
;Layer_Color=9474304
;FILE_FORMAT=4:4
METRIC,LZ
;TYPE=PLATED
T1F00S00C0.2500
T2F00S00C0.7000
T3F00S00C0.7620
T4F00S00C0.8128
T5F00S00C1.0200
T6F00S00C1.3970
T7F00S00C1.4000
T8F00S00C2.2000
T9F00S00C3.0500
%
T01
X0005207Y000508
X0006985
X0010549
X00102464Y0002667
Y00014238
X00114987Y0001397
Y0002667
X0008994
Y0001397
X00275943
Y0002667
X00288467
Y00014238
X00300991Y0001397
Y0002667
X00444491
X00457015
Y00014238
X00469538Y0001397
Y0002667
X00444491Y0001397
X00613763
Y0002667
X00626286
Y00014238
X0063881Y0001397
Y0002667
X0063373Y0005207
X0067691Y0005334
X0065353Y00072498
X0067385Y00114637
X0070104Y0014224
X0071374
Y00154764
X00701308
X0070104Y00167287
X0071374
X00662587Y00207672
X00650064
Y00220104
X0063754Y00220372
Y00207672
X0060706Y0020701
Y0018923
Y0017399
X0061341Y0013843
Y0012827
X00551469Y0015494
X00551094Y0018034
Y00192864
X00563526
X00563794Y00205387
X00551094
X00563794Y0018034
X0052705Y00189519
X0051816Y0016129
Y0012954
Y0011811
Y0010668
Y0009525
Y0008382
Y0007366
Y0006223
X0056669Y0006096
X0045461
Y0008636
Y0011176
Y0013716
X00466165Y00161579
X00432428Y0018034
Y0019304
X00419905
Y00180608
X00407381Y0018034
Y0019304
X0041148Y00159039
X0040828Y001048
X00410613Y0007747
X00398089
Y00065038
X00410613Y0006477
X00385566
Y0007747
X0038481Y001143
X0036195Y0014801
X00390177Y00217114
X0039243Y0025146
X0051689Y0025781
X0048514Y0032766
X0045974
X0044704
X00409869Y0040801
X0036957Y0041402
Y00426544
Y00439067
X0035687
Y00426544
Y0041402
X0054991Y0042926
X0057277Y0034925
X0057023Y0031877
X0060833Y00364846
X00644246Y0034544
X0065024Y00339446
X00653877Y0032131
X0065913Y00294275
X0064643
Y00281751
X00658862
X0065913Y00269228
X0064643
X00662587Y00220372
X00701686Y0033655
X00714386
Y00349074
X00701955
X00701686Y00361597
X00714386
X0032004Y00308156
X0027559Y0031231
X0027051Y0028575
X0023864Y0031127
X00205616Y0031496
X00197722Y0029075
X001905Y0028615
X0018415Y0028165
Y0027178
X00174719Y00271051
X0014478Y00270695
X00150266Y00253594
X0016637Y00235303
Y0022606
X001778
Y00235303
X0021463Y002386
X0022352
X00234135
X0024511
X0024003Y0024511
X002286
X00218064Y0027602
X00204058Y00272036
X00207679Y0021463
X002032Y00198661
X00166721Y0019177
Y0017018
X0014859
Y0019558
X00133886Y002226
X0012446Y002159
Y0022987
X001016Y002159
X0009144Y0024638
X00085788Y00267398
X0010796Y0026358
X0010418Y0028956
X0009271Y0030861
X0008001
X00082581Y0029972
X00028045Y00304976
X00015614
Y003175
X00028314
Y00330553
X00015614
Y00343076
X00028045
X00028314Y003556
X00015614
X0001524Y00368653
Y00381176
X00027672
X0002794Y003937
X0001524
X0002413Y00410245
X0005461Y0039751
X0006731
X0008001Y0038481
X00092806Y00384906
X0013081Y0039751
X0014351
X0015621Y0042037
X0016891
X0019177Y0044196
X00215086Y0041656
X0030099Y0044611
X0031797Y00249261
X0030861Y00226997
X00295569Y00211161
X0026162Y00169825
Y00157074
X00231476Y0016129
X0023271Y0017145
X0022352Y00168102
Y0008734
X0019812
X0016383Y0009652
X0017145Y0010461
X00174719Y00122461
X00154475Y00128735
X00121051Y0011626
X0010033Y0012446
Y0014097
X00085001Y0014605
X0008763Y0015621
X0006985Y0016256
X0007331Y00135296
X0008128Y0012446
X0005842
X0002624Y00123543
X0001354
Y00136066
X00025972
X0002624Y0014859
X0001354
X00072679Y00203835
X0007805Y002331
X00064013Y0023876
X00028314Y00292453
X00015614
X0002794Y00368653
X00125588Y003556
X00141788
X0015621Y0030988
X0016891
X00161973Y0030226
X0015621Y0007874
X0027432Y0009017
X00276796Y0047244
Y00484872
X0028932Y0048514
Y0047244
X00264273
Y0048514
X00119219
Y0047244
X00106695
Y00484872
X00094171Y0048514
Y0047244
X00442865Y0047117
X00455388
Y00483602
X00467912Y0048387
Y0047117
X00442865Y0048387
X0061087
Y0047117
X00623394
Y00483602
X00635917Y0048387
Y0047117
T02
X0035814Y0026924
Y0029464
X0038354
Y0026924
X0040894
X0043434
Y0029464
X0040894
X0045974
X0048514
Y0026924
X0045974
X0033274
Y0029464
T03
X0046101Y00220411
X0048641
X0009271Y00441919
X0004191Y00441919
T04
X0005207Y0008636
X0006985
X0008763
X0010541
X0012319
Y0018796
X0010541
X0008763
X0006985
X0005207
T05
X0035699Y0035918
X0038469
X0041239
X0039854Y0038758
X0042624
X0037084
X0034314
X0031544
X0032929Y0035918
T06
X0001651Y0008636
Y0018796
X0022987Y00203835
X0030099Y0018796
Y0008636
X0025527Y00070485
T07
X005969Y0043688
X00635
X006731
T08
X00022Y00022
X001935
X00365
X005365
X00708
Y0025
X00022
Y00478
X001935
X00365
X005365
X00708
T09
X0049579Y0037338
X0024589
M30
