%FSLAX44Y44*%
%MOMM*%
G71*
G01*
G75*
G04 Layer_Color=8421504*
%ADD10R,0.6000X0.5000*%
%ADD11R,1.6000X1.2000*%
%ADD12R,0.5000X0.6000*%
%ADD13R,2.6200X3.5100*%
%ADD14O,2.0320X0.6096*%
%ADD15R,2.0320X0.6096*%
%ADD16R,1.2000X1.2500*%
%ADD17R,2.4000X1.2500*%
G04:AMPARAMS|DCode=18|XSize=1.5mm|YSize=1.4mm|CornerRadius=0mm|HoleSize=0mm|Usage=FLASHONLY|Rotation=45.000|XOffset=0mm|YOffset=0mm|HoleType=Round|Shape=Rectangle|*
%AMROTATEDRECTD18*
4,1,4,-0.0354,-1.0253,-1.0253,-0.0354,0.0354,1.0253,1.0253,0.0354,-0.0354,-1.0253,0.0*
%
%ADD18ROTATEDRECTD18*%

%ADD19R,1.2000X1.2000*%
%ADD20R,2.4000X0.8000*%
%ADD21R,5.0000X5.3000*%
%ADD22R,0.2000X0.8000*%
%ADD23R,0.1990X0.8000*%
%ADD24R,0.8000X0.2000*%
%ADD25R,0.8000X0.1990*%
%ADD26R,3.7000X3.7000*%
%ADD27R,0.8128X0.8128*%
%ADD28C,1.0000*%
%ADD29R,1.2954X1.6002*%
%ADD30R,0.7600X1.5600*%
%ADD31R,1.0668X0.8128*%
%ADD32R,1.2000X1.6000*%
G04:AMPARAMS|DCode=33|XSize=1.5mm|YSize=1.4mm|CornerRadius=0mm|HoleSize=0mm|Usage=FLASHONLY|Rotation=135.000|XOffset=0mm|YOffset=0mm|HoleType=Round|Shape=Rectangle|*
%AMROTATEDRECTD33*
4,1,4,1.0253,-0.0354,0.0354,-1.0253,-1.0253,0.0354,-0.0354,1.0253,1.0253,-0.0354,0.0*
%
%ADD33ROTATEDRECTD33*%

%ADD34R,1.1000X0.5000*%
%ADD35R,0.8890X1.0160*%
%ADD36R,1.3970X1.3970*%
%ADD37R,1.2000X1.4000*%
%ADD38R,1.2500X1.2000*%
%ADD39R,1.2500X2.4000*%
%ADD40R,0.8000X2.4000*%
%ADD41R,5.3000X5.0000*%
G04:AMPARAMS|DCode=42|XSize=2.4mm|YSize=2.8mm|CornerRadius=0mm|HoleSize=0mm|Usage=FLASHONLY|Rotation=135.000|XOffset=0mm|YOffset=0mm|HoleType=Round|Shape=Rectangle|*
%AMROTATEDRECTD42*
4,1,4,1.8385,0.1414,-0.1414,-1.8385,-1.8385,-0.1414,0.1414,1.8385,1.8385,0.1414,0.0*
%
%ADD42ROTATEDRECTD42*%

%ADD43C,0.2540*%
%ADD44C,0.1780*%
%ADD45C,0.6000*%
%ADD46C,4.1200*%
%ADD47C,0.4000*%
%ADD48C,0.3000*%
%ADD49C,0.2000*%
%ADD50C,0.2543*%
%ADD51C,1.0000*%
%ADD52C,0.1270*%
%ADD53C,0.8000*%
%ADD54C,0.1800*%
%ADD55C,1.2540*%
%ADD56C,2.8000*%
%ADD57C,4.5000*%
%ADD58C,1.8000*%
%ADD59R,1.8000X1.8000*%
G04:AMPARAMS|DCode=60|XSize=4mm|YSize=4mm|CornerRadius=2mm|HoleSize=0mm|Usage=FLASHONLY|Rotation=0.000|XOffset=0mm|YOffset=0mm|HoleType=Round|Shape=RoundedRectangle|*
%AMROUNDEDRECTD60*
21,1,4.0000,0.0000,0,0,0.0*
21,1,0.0000,4.0000,0,0,0.0*
1,1,4.0000,0.0000,0.0000*
1,1,4.0000,0.0000,0.0000*
1,1,4.0000,0.0000,0.0000*
1,1,4.0000,0.0000,0.0000*
%
%ADD60ROUNDEDRECTD60*%
%ADD61R,1.0000X1.0000*%
%ADD62C,1.3500*%
%ADD63R,1.3500X1.3500*%
%ADD64C,2.5400*%
%ADD65O,1.0160X1.5240*%
%ADD66R,1.0668X1.5240*%
%ADD67C,0.5000*%
%ADD68R,1.0729X7.6713*%
%ADD69C,2.0000*%
%ADD70R,8.9783X5.0800*%
%ADD71R,0.8128X0.8128*%
%ADD72R,0.8128X1.0668*%
%ADD73C,3.0000*%
%ADD74C,1.6000*%
%ADD75R,9.1983X4.5380*%
%ADD76C,0.1200*%
%ADD77C,0.1999*%
%ADD78C,0.1250*%
%ADD79C,0.1524*%
%ADD80C,0.2032*%
G36*
X151726Y215599D02*
Y213599D01*
X143726D01*
Y215599D01*
X151726Y215599D01*
D02*
G37*
G36*
X187520Y213800D02*
X157920D01*
Y243400D01*
X187520D01*
Y213800D01*
D02*
G37*
G36*
X201714Y213598D02*
X193714Y213598D01*
Y215598D01*
X201714D01*
Y213598D01*
D02*
G37*
G36*
Y209597D02*
X193714D01*
Y211597D01*
X201714D01*
Y209597D01*
D02*
G37*
G36*
X151726Y209599D02*
X143726D01*
Y211599D01*
X151726D01*
X151726Y209599D01*
D02*
G37*
G36*
X151727Y221600D02*
X143726D01*
Y223601D01*
X151727D01*
Y221600D01*
D02*
G37*
G36*
X201714Y225599D02*
X193714Y225599D01*
Y227599D01*
X201714D01*
Y225599D01*
D02*
G37*
G36*
X201715Y221599D02*
X193714D01*
Y223599D01*
X201715D01*
Y221599D01*
D02*
G37*
G36*
X201714Y217599D02*
X193714D01*
X193714Y219599D01*
X201714D01*
Y217599D01*
D02*
G37*
G36*
X151726Y217600D02*
X143726D01*
Y219600D01*
X151726D01*
Y217600D01*
D02*
G37*
G36*
X159719Y199606D02*
X157719D01*
Y207606D01*
X159719Y207606D01*
Y199606D01*
D02*
G37*
G36*
X163720D02*
X161720D01*
Y207606D01*
X163720D01*
Y199606D01*
D02*
G37*
G36*
X155719Y207606D02*
Y199606D01*
X153719D01*
Y207606D01*
X155719Y207606D01*
D02*
G37*
G36*
X167721Y199606D02*
X165721D01*
X165721Y207606D01*
X167721D01*
Y199606D01*
D02*
G37*
G36*
X183720D02*
X181720D01*
X181720Y207606D01*
X183720D01*
Y199606D01*
D02*
G37*
G36*
X187721Y207606D02*
Y199606D01*
X185721D01*
Y207606D01*
X187721Y207606D01*
D02*
G37*
G36*
X191721Y199606D02*
X189721D01*
Y207606D01*
X191721D01*
X191721Y199606D01*
D02*
G37*
G36*
X179719D02*
X177719D01*
Y207606D01*
X179719D01*
Y199606D01*
D02*
G37*
G36*
X171721D02*
X169720D01*
Y207606D01*
X171721D01*
Y199606D01*
D02*
G37*
G36*
X175719Y207606D02*
Y199606D01*
X173719D01*
Y207606D01*
X175719Y207606D01*
D02*
G37*
G36*
X151726Y225600D02*
X143726Y225600D01*
Y227600D01*
X151726D01*
Y225600D01*
D02*
G37*
G36*
X179719Y249593D02*
X177719D01*
Y257593D01*
X179719D01*
Y249593D01*
D02*
G37*
G36*
X187721D02*
X185721D01*
Y257594D01*
X187721D01*
Y249593D01*
D02*
G37*
G36*
X175719D02*
X173719D01*
Y257594D01*
X175719D01*
Y249593D01*
D02*
G37*
G36*
X167721Y249593D02*
X165721D01*
Y257593D01*
X167721D01*
Y249593D01*
D02*
G37*
G36*
X183720D02*
X181720D01*
Y257594D01*
X183720D01*
Y249593D01*
D02*
G37*
G36*
X171721Y249594D02*
X169720D01*
Y257594D01*
X171721D01*
Y249594D01*
D02*
G37*
G36*
X191721D02*
X189721D01*
Y257594D01*
X191721D01*
X191721Y249594D01*
D02*
G37*
G36*
X163720D02*
X161720D01*
Y257594D01*
X163720D01*
Y249594D01*
D02*
G37*
G36*
X155719D02*
X153719Y249594D01*
Y257594D01*
X155719D01*
Y249594D01*
D02*
G37*
G36*
X159719Y249594D02*
X157719Y249594D01*
Y257594D01*
X159719D01*
Y249594D01*
D02*
G37*
G36*
X151726Y233598D02*
X143726D01*
Y235599D01*
X151726D01*
X151726Y233598D01*
D02*
G37*
G36*
X201715Y237599D02*
X193714D01*
Y239599D01*
X201715Y239599D01*
Y237599D01*
D02*
G37*
G36*
X201714Y233598D02*
X193714D01*
Y235598D01*
X201714D01*
Y233598D01*
D02*
G37*
G36*
Y229598D02*
X193714D01*
Y231598D01*
X201714D01*
Y229598D01*
D02*
G37*
G36*
X151726Y229599D02*
X143726D01*
Y231599D01*
X151726D01*
X151726Y229599D01*
D02*
G37*
G36*
X201714Y245600D02*
X193714Y245600D01*
Y247600D01*
X201714D01*
Y245600D01*
D02*
G37*
G36*
X151726Y245600D02*
X143726Y245600D01*
Y247601D01*
X151726D01*
Y245600D01*
D02*
G37*
G36*
X151726Y241600D02*
X143726Y241600D01*
Y243600D01*
X151726D01*
Y241600D01*
D02*
G37*
G36*
X151727Y237600D02*
X143726D01*
Y239600D01*
X151727D01*
Y237600D01*
D02*
G37*
G36*
X201714Y241599D02*
X193714D01*
Y243599D01*
X201714D01*
Y241599D01*
D02*
G37*
D10*
X485140Y320730D02*
D03*
Y311730D02*
D03*
X459740Y320730D02*
D03*
Y311730D02*
D03*
X447040Y311730D02*
D03*
Y320730D02*
D03*
X434340Y311730D02*
D03*
Y320730D02*
D03*
X421640Y311730D02*
D03*
Y320730D02*
D03*
X408940Y311730D02*
D03*
Y320730D02*
D03*
X396240Y311730D02*
D03*
Y320730D02*
D03*
X383540Y311730D02*
D03*
Y320730D02*
D03*
X370840Y311730D02*
D03*
Y320730D02*
D03*
X358140Y311730D02*
D03*
Y320730D02*
D03*
X274320Y422220D02*
D03*
Y431220D02*
D03*
X287020Y422220D02*
D03*
Y431220D02*
D03*
X91440Y224210D02*
D03*
Y215210D02*
D03*
X78050D02*
D03*
Y224210D02*
D03*
X257810Y253420D02*
D03*
Y244420D02*
D03*
Y233100D02*
D03*
Y224100D02*
D03*
X161290Y137735D02*
D03*
Y128735D02*
D03*
X87630Y68000D02*
D03*
Y59000D02*
D03*
X411480Y139010D02*
D03*
Y148010D02*
D03*
X398780D02*
D03*
Y139010D02*
D03*
X386080Y148010D02*
D03*
Y139010D02*
D03*
X371310Y148010D02*
D03*
Y139010D02*
D03*
X87630Y163140D02*
D03*
Y172140D02*
D03*
X148590Y187380D02*
D03*
Y178380D02*
D03*
X166721Y186110D02*
D03*
Y177110D02*
D03*
X52070Y68000D02*
D03*
Y59000D02*
D03*
X69850Y68000D02*
D03*
Y59000D02*
D03*
X105410D02*
D03*
Y68000D02*
D03*
X132080Y116260D02*
D03*
Y107260D02*
D03*
X123190Y172140D02*
D03*
Y163140D02*
D03*
X105410Y172140D02*
D03*
Y163140D02*
D03*
X52070Y100649D02*
D03*
Y109650D02*
D03*
X70045Y100649D02*
D03*
Y109650D02*
D03*
X527050Y169490D02*
D03*
Y178490D02*
D03*
X174719Y137850D02*
D03*
Y128850D02*
D03*
X257810Y203780D02*
D03*
Y212780D02*
D03*
X360680Y236800D02*
D03*
Y245800D02*
D03*
X653530Y82197D02*
D03*
Y91197D02*
D03*
X666230Y82197D02*
D03*
Y91197D02*
D03*
X678930D02*
D03*
Y82197D02*
D03*
X168910Y435030D02*
D03*
Y426030D02*
D03*
X156210Y435030D02*
D03*
Y426030D02*
D03*
D11*
X549910Y417320D02*
D03*
Y385320D02*
D03*
X249500Y100840D02*
D03*
Y132840D02*
D03*
X223520Y100840D02*
D03*
Y132840D02*
D03*
X198120Y100840D02*
D03*
Y132840D02*
D03*
D12*
X301570Y433410D02*
D03*
X310570D02*
D03*
X301570Y420710D02*
D03*
X310570D02*
D03*
X523820Y245110D02*
D03*
X532820D02*
D03*
X523820Y257810D02*
D03*
X532820D02*
D03*
Y270510D02*
D03*
X523820D02*
D03*
X52650Y203835D02*
D03*
X61650D02*
D03*
X52650Y162560D02*
D03*
X61650D02*
D03*
X573601Y234950D02*
D03*
X564601D02*
D03*
X376500Y236560D02*
D03*
X385500D02*
D03*
X243800Y169825D02*
D03*
X252800D02*
D03*
X118800Y215900D02*
D03*
X109800D02*
D03*
X118800Y229870D02*
D03*
X109800D02*
D03*
X243800Y157125D02*
D03*
X252800D02*
D03*
X223612Y314960D02*
D03*
X214612D02*
D03*
X257120Y276020D02*
D03*
X266120D02*
D03*
X542035Y60960D02*
D03*
X551035D02*
D03*
X109910Y246380D02*
D03*
X100910D02*
D03*
X219625Y257810D02*
D03*
X210625D02*
D03*
X133980Y435030D02*
D03*
X142980D02*
D03*
X133930Y448310D02*
D03*
X142930D02*
D03*
X385500Y251460D02*
D03*
X376500D02*
D03*
D13*
X363220Y426720D02*
D03*
D14*
X391300Y446110D02*
D03*
Y433410D02*
D03*
Y420710D02*
D03*
Y408010D02*
D03*
X335420D02*
D03*
Y420710D02*
D03*
Y433410D02*
D03*
Y249261D02*
D03*
Y236560D02*
D03*
Y223860D02*
D03*
Y211161D02*
D03*
X279540D02*
D03*
Y223860D02*
D03*
Y236560D02*
D03*
D15*
X335420Y446110D02*
D03*
X279540Y249261D02*
D03*
D16*
X506387Y295545D02*
D03*
D17*
X537137D02*
D03*
D18*
X564680Y357670D02*
D03*
X537680Y330670D02*
D03*
D19*
X660380Y339446D02*
D03*
Y364846D02*
D03*
X598380D02*
D03*
Y339446D02*
D03*
D20*
X570140Y257445D02*
D03*
Y270145D02*
D03*
Y282845D02*
D03*
Y295545D02*
D03*
Y308245D02*
D03*
D21*
X654140Y282845D02*
D03*
D27*
X73310Y146050D02*
D03*
X58071D02*
D03*
X148590Y104830D02*
D03*
X163830D02*
D03*
D28*
X281940Y152400D02*
D03*
X508000Y182880D02*
D03*
X368300Y191041D02*
D03*
X346595Y190500D02*
D03*
D29*
X274320Y106680D02*
D03*
Y132080D02*
D03*
D30*
X54610Y319240D02*
D03*
X67310D02*
D03*
X80010D02*
D03*
X92710D02*
D03*
X105410D02*
D03*
X118110D02*
D03*
X130810D02*
D03*
X143510D02*
D03*
X156210D02*
D03*
X168910D02*
D03*
X181610D02*
D03*
X67310Y409740D02*
D03*
X54610D02*
D03*
X105410D02*
D03*
X92710D02*
D03*
X80010D02*
D03*
X143510D02*
D03*
X130810D02*
D03*
X118110D02*
D03*
X156210D02*
D03*
X168910D02*
D03*
X194310Y319240D02*
D03*
X181610Y409740D02*
D03*
X194310D02*
D03*
D31*
X401206Y236189D02*
D03*
Y217114D02*
D03*
X424142Y226652D02*
D03*
D32*
X472950Y111760D02*
D03*
X504950D02*
D03*
Y137160D02*
D03*
X472950D02*
D03*
Y86360D02*
D03*
X504950D02*
D03*
Y60960D02*
D03*
X472950D02*
D03*
D33*
X317970Y131610D02*
D03*
X344970Y104610D02*
D03*
X190091Y183325D02*
D03*
X217091Y156325D02*
D03*
D34*
X398310Y123800D02*
D03*
Y104800D02*
D03*
X371310D02*
D03*
Y114300D02*
D03*
Y123800D02*
D03*
D35*
X597281Y209550D02*
D03*
X581279D02*
D03*
Y191770D02*
D03*
X597281D02*
D03*
X581279Y173990D02*
D03*
X597281D02*
D03*
D36*
X484505Y161579D02*
D03*
X506095D02*
D03*
D37*
X228126Y298020D02*
D03*
Y276020D02*
D03*
X243126D02*
D03*
Y298020D02*
D03*
D38*
X635750Y65657D02*
D03*
D39*
Y96407D02*
D03*
D40*
X673850Y129787D02*
D03*
X661150D02*
D03*
X648450D02*
D03*
X635750D02*
D03*
X623050D02*
D03*
D41*
X648450Y213787D02*
D03*
D42*
X536257Y144840D02*
D03*
X592257Y88840D02*
D03*
M02*
