%FSLAX44Y44*%
%MOMM*%
G71*
G01*
G75*
G04 Layer_Physical_Order=3*
G04 Layer_Color=16440176*
%ADD10R,0.6000X0.5000*%
%ADD11R,1.6000X1.2000*%
%ADD12R,0.5000X0.6000*%
%ADD13R,2.6200X3.5100*%
%ADD14O,2.0320X0.6096*%
%ADD15R,2.0320X0.6096*%
%ADD16R,1.2000X1.2500*%
%ADD17R,2.4000X1.2500*%
G04:AMPARAMS|DCode=18|XSize=1.5mm|YSize=1.4mm|CornerRadius=0mm|HoleSize=0mm|Usage=FLASHONLY|Rotation=45.000|XOffset=0mm|YOffset=0mm|HoleType=Round|Shape=Rectangle|*
%AMROTATEDRECTD18*
4,1,4,-0.0354,-1.0253,-1.0253,-0.0354,0.0354,1.0253,1.0253,0.0354,-0.0354,-1.0253,0.0*
%
%ADD18ROTATEDRECTD18*%

%ADD19R,1.2000X1.2000*%
%ADD20R,2.4000X0.8000*%
%ADD21R,5.0000X5.3000*%
%ADD22R,0.2000X0.8000*%
%ADD23R,0.1990X0.8000*%
%ADD24R,0.8000X0.2000*%
%ADD25R,0.8000X0.1990*%
%ADD26R,3.7000X3.7000*%
%ADD27R,0.8128X0.8128*%
%ADD28C,1.0000*%
%ADD29R,1.2954X1.6002*%
%ADD30R,0.7600X1.5600*%
%ADD31R,1.0668X0.8128*%
%ADD32R,1.2000X1.6000*%
G04:AMPARAMS|DCode=33|XSize=1.5mm|YSize=1.4mm|CornerRadius=0mm|HoleSize=0mm|Usage=FLASHONLY|Rotation=135.000|XOffset=0mm|YOffset=0mm|HoleType=Round|Shape=Rectangle|*
%AMROTATEDRECTD33*
4,1,4,1.0253,-0.0354,0.0354,-1.0253,-1.0253,0.0354,-0.0354,1.0253,1.0253,-0.0354,0.0*
%
%ADD33ROTATEDRECTD33*%

%ADD34R,1.1000X0.5000*%
%ADD35R,0.8890X1.0160*%
%ADD36R,1.3970X1.3970*%
%ADD37R,1.2000X1.4000*%
%ADD38R,1.2500X1.2000*%
%ADD39R,1.2500X2.4000*%
%ADD40R,0.8000X2.4000*%
%ADD41R,5.3000X5.0000*%
G04:AMPARAMS|DCode=42|XSize=2.4mm|YSize=2.8mm|CornerRadius=0mm|HoleSize=0mm|Usage=FLASHONLY|Rotation=135.000|XOffset=0mm|YOffset=0mm|HoleType=Round|Shape=Rectangle|*
%AMROTATEDRECTD42*
4,1,4,1.8385,0.1414,-0.1414,-1.8385,-1.8385,-0.1414,0.1414,1.8385,1.8385,0.1414,0.0*
%
%ADD42ROTATEDRECTD42*%

%ADD43C,0.2540*%
%ADD44C,0.1780*%
%ADD45C,0.6000*%
%ADD46C,4.1200*%
%ADD47C,0.4000*%
%ADD48C,0.3000*%
%ADD49C,0.2000*%
%ADD50C,0.2543*%
%ADD51C,1.0000*%
%ADD52C,0.1270*%
%ADD53C,0.8000*%
%ADD54C,0.1800*%
%ADD55C,1.2540*%
%ADD56C,2.8000*%
%ADD57C,4.5000*%
%ADD58C,1.8000*%
%ADD59R,1.8000X1.8000*%
G04:AMPARAMS|DCode=60|XSize=4mm|YSize=4mm|CornerRadius=2mm|HoleSize=0mm|Usage=FLASHONLY|Rotation=0.000|XOffset=0mm|YOffset=0mm|HoleType=Round|Shape=RoundedRectangle|*
%AMROUNDEDRECTD60*
21,1,4.0000,0.0000,0,0,0.0*
21,1,0.0000,4.0000,0,0,0.0*
1,1,4.0000,0.0000,0.0000*
1,1,4.0000,0.0000,0.0000*
1,1,4.0000,0.0000,0.0000*
1,1,4.0000,0.0000,0.0000*
%
%ADD60ROUNDEDRECTD60*%
%ADD61R,1.0000X1.0000*%
%ADD62C,1.3500*%
%ADD63R,1.3500X1.3500*%
%ADD64C,2.5400*%
%ADD65O,1.0160X1.5240*%
%ADD66R,1.0668X1.5240*%
%ADD67C,0.5000*%
%ADD68R,1.0729X7.6713*%
%ADD69C,2.0000*%
%ADD70R,8.9783X5.0800*%
G36*
X688742Y495518D02*
X686277Y492515D01*
X683863Y487998D01*
X682376Y483097D01*
X681874Y478000D01*
X682376Y472903D01*
X683863Y468002D01*
X686277Y463485D01*
X689526Y459526D01*
X693485Y456277D01*
X698002Y453863D01*
X702903Y452376D01*
X708000Y451874D01*
X713097Y452376D01*
X717998Y453863D01*
X722515Y456277D01*
X725518Y458742D01*
X726666Y458199D01*
Y269801D01*
X725518Y269258D01*
X722515Y271723D01*
X717998Y274137D01*
X713097Y275624D01*
X708000Y276126D01*
X702903Y275624D01*
X698002Y274137D01*
X693485Y271723D01*
X689526Y268474D01*
X686277Y264515D01*
X683863Y259998D01*
X682376Y255097D01*
X681874Y250000D01*
X682376Y244903D01*
X683863Y240002D01*
X686277Y235485D01*
X689526Y231526D01*
X693485Y228277D01*
X698002Y225863D01*
X702903Y224376D01*
X708000Y223874D01*
X713097Y224376D01*
X717998Y225863D01*
X722515Y228277D01*
X725518Y230742D01*
X726666Y230199D01*
Y41801D01*
X725518Y41258D01*
X722515Y43723D01*
X717998Y46137D01*
X713097Y47624D01*
X708000Y48126D01*
X702903Y47624D01*
X698002Y46137D01*
X693485Y43723D01*
X689526Y40474D01*
X686277Y36515D01*
X683863Y31998D01*
X682376Y27097D01*
X681874Y22000D01*
X682376Y16903D01*
X683863Y12002D01*
X686277Y7485D01*
X688742Y4482D01*
X688199Y3334D01*
X556301D01*
X555758Y4482D01*
X558223Y7485D01*
X560637Y12002D01*
X562124Y16903D01*
X562626Y22000D01*
X562124Y27097D01*
X560637Y31998D01*
X558223Y36515D01*
X554974Y40474D01*
X551015Y43723D01*
X546498Y46137D01*
X541597Y47624D01*
X536500Y48126D01*
X531403Y47624D01*
X526502Y46137D01*
X521985Y43723D01*
X518026Y40474D01*
X514777Y36515D01*
X512363Y31998D01*
X510876Y27097D01*
X510374Y22000D01*
X510876Y16903D01*
X512363Y12002D01*
X514777Y7485D01*
X517242Y4482D01*
X516699Y3334D01*
X384801D01*
X384258Y4482D01*
X386723Y7485D01*
X389137Y12002D01*
X390624Y16903D01*
X391126Y22000D01*
X390624Y27097D01*
X389137Y31998D01*
X386723Y36515D01*
X383474Y40474D01*
X379515Y43723D01*
X374998Y46137D01*
X370097Y47624D01*
X365000Y48126D01*
X359903Y47624D01*
X355002Y46137D01*
X350485Y43723D01*
X346526Y40474D01*
X343277Y36515D01*
X340863Y31998D01*
X339376Y27097D01*
X338874Y22000D01*
X339376Y16903D01*
X340863Y12002D01*
X343277Y7485D01*
X345742Y4482D01*
X345199Y3334D01*
X213301D01*
X212758Y4482D01*
X215223Y7485D01*
X217637Y12002D01*
X219124Y16903D01*
X219626Y22000D01*
X219124Y27097D01*
X217637Y31998D01*
X215223Y36515D01*
X211974Y40474D01*
X208015Y43723D01*
X203498Y46137D01*
X198597Y47624D01*
X193500Y48126D01*
X188403Y47624D01*
X183502Y46137D01*
X178985Y43723D01*
X175026Y40474D01*
X171777Y36515D01*
X169363Y31998D01*
X167876Y27097D01*
X167374Y22000D01*
X167876Y16903D01*
X169363Y12002D01*
X171777Y7485D01*
X174242Y4482D01*
X173699Y3334D01*
X41801D01*
X41258Y4482D01*
X43723Y7485D01*
X46137Y12002D01*
X47624Y16903D01*
X48126Y22000D01*
X47624Y27097D01*
X46137Y31998D01*
X43723Y36515D01*
X40474Y40474D01*
X36515Y43723D01*
X31998Y46137D01*
X27097Y47624D01*
X22000Y48126D01*
X16903Y47624D01*
X12002Y46137D01*
X7485Y43723D01*
X4482Y41258D01*
X3334Y41801D01*
Y71497D01*
X4482Y72040D01*
X6072Y70735D01*
X9320Y68999D01*
X12845Y67930D01*
X16511Y67568D01*
X20177Y67930D01*
X23702Y68999D01*
X26950Y70735D01*
X29798Y73072D01*
X32135Y75920D01*
X33871Y79168D01*
X34940Y82693D01*
X35301Y86359D01*
X34940Y90025D01*
X33871Y93550D01*
X32135Y96798D01*
X29798Y99646D01*
X26950Y101983D01*
X23702Y103719D01*
X20177Y104788D01*
X16511Y105149D01*
X12845Y104788D01*
X9320Y103719D01*
X6072Y101983D01*
X4482Y100678D01*
X3334Y101221D01*
Y173097D01*
X4482Y173640D01*
X6071Y172336D01*
X9320Y170600D01*
X12845Y169531D01*
X16511Y169170D01*
X20177Y169531D01*
X23702Y170600D01*
X26950Y172336D01*
X29798Y174673D01*
X32134Y177521D01*
X33871Y180769D01*
X34940Y184294D01*
X35301Y187960D01*
X34940Y191626D01*
X33871Y195151D01*
X32134Y198399D01*
X29798Y201247D01*
X26950Y203584D01*
X23702Y205320D01*
X20177Y206389D01*
X16511Y206751D01*
X12845Y206389D01*
X9320Y205320D01*
X6071Y203584D01*
X4482Y202279D01*
X3334Y202822D01*
Y230199D01*
X4482Y230742D01*
X7485Y228277D01*
X12002Y225863D01*
X16903Y224376D01*
X22000Y223874D01*
X27097Y224376D01*
X31998Y225863D01*
X36515Y228277D01*
X40474Y231526D01*
X43723Y235485D01*
X46137Y240002D01*
X47624Y244903D01*
X48126Y250000D01*
X47624Y255097D01*
X46137Y259998D01*
X43723Y264515D01*
X40474Y268474D01*
X36515Y271723D01*
X31998Y274137D01*
X27097Y275624D01*
X22000Y276126D01*
X16903Y275624D01*
X12002Y274137D01*
X7485Y271723D01*
X4482Y269258D01*
X3334Y269801D01*
Y458199D01*
X4482Y458742D01*
X7485Y456277D01*
X12002Y453863D01*
X16903Y452376D01*
X17827Y452285D01*
X27833Y434152D01*
X29619Y431555D01*
X31878Y429356D01*
X34521Y427640D01*
X37449Y426473D01*
X40548Y425900D01*
X43699Y425942D01*
X46782Y426598D01*
X49678Y427843D01*
X52274Y429629D01*
X54473Y431887D01*
X56189Y434531D01*
X57356Y437458D01*
X57930Y440557D01*
X57888Y443709D01*
X57231Y446791D01*
X55986Y449687D01*
X46010Y467765D01*
X46137Y468002D01*
X47624Y472903D01*
X48126Y478000D01*
X47624Y483097D01*
X46137Y487998D01*
X43723Y492515D01*
X41258Y495518D01*
X41801Y496666D01*
X173699D01*
X174242Y495518D01*
X171777Y492515D01*
X169363Y487998D01*
X167876Y483097D01*
X167374Y478000D01*
X167876Y472903D01*
X169363Y468002D01*
X171777Y463485D01*
X175026Y459526D01*
X178985Y456277D01*
X183502Y453863D01*
X188403Y452376D01*
X193500Y451874D01*
X198597Y452376D01*
X203498Y453863D01*
X208015Y456277D01*
X211974Y459526D01*
X215223Y463485D01*
X217637Y468002D01*
X219124Y472903D01*
X219626Y478000D01*
X219124Y483097D01*
X217637Y487998D01*
X215223Y492515D01*
X212758Y495518D01*
X213301Y496666D01*
X345199D01*
X345742Y495518D01*
X343277Y492515D01*
X340863Y487998D01*
X339376Y483097D01*
X338874Y478000D01*
X339376Y472903D01*
X340863Y468002D01*
X343277Y463485D01*
X346526Y459526D01*
X350062Y456625D01*
X349634Y455429D01*
X308856D01*
X308076Y455274D01*
X307414Y454832D01*
X306972Y454170D01*
X306817Y453390D01*
Y402590D01*
X306972Y401810D01*
X307414Y401148D01*
X308076Y400706D01*
X308856Y400551D01*
X398639D01*
X399419Y400706D01*
X400081Y401148D01*
X400523Y401810D01*
X400678Y402590D01*
Y453390D01*
X400523Y454170D01*
X400081Y454832D01*
X399419Y455274D01*
X398639Y455429D01*
X380366D01*
X379938Y456625D01*
X383474Y459526D01*
X386723Y463485D01*
X389137Y468002D01*
X390624Y472903D01*
X391126Y478000D01*
X390624Y483097D01*
X389137Y487998D01*
X386723Y492515D01*
X384258Y495518D01*
X384801Y496666D01*
X516699D01*
X517242Y495518D01*
X514777Y492515D01*
X512363Y487998D01*
X510876Y483097D01*
X510374Y478000D01*
X510876Y472903D01*
X512363Y468002D01*
X514777Y463485D01*
X518026Y459526D01*
X521985Y456277D01*
X526502Y453863D01*
X531403Y452376D01*
X536500Y451874D01*
X541597Y452376D01*
X546498Y453863D01*
X551015Y456277D01*
X554974Y459526D01*
X558223Y463485D01*
X560637Y468002D01*
X562124Y472903D01*
X562626Y478000D01*
X562124Y483097D01*
X560637Y487998D01*
X558223Y492515D01*
X555758Y495518D01*
X556301Y496666D01*
X688199D01*
X688742Y495518D01*
D02*
G37*
%LPC*%
G36*
X260350Y161960D02*
X259653Y161821D01*
X257986Y160707D01*
X256872Y159040D01*
X256734Y158344D01*
X260350D01*
Y161960D01*
D02*
G37*
G36*
X231476Y164859D02*
X230111Y164587D01*
X228953Y163813D01*
X228179Y162656D01*
X227908Y161290D01*
X228179Y159924D01*
X228953Y158767D01*
X230111Y157993D01*
X231476Y157721D01*
X232842Y157993D01*
X234000Y158767D01*
X234773Y159924D01*
X235045Y161290D01*
X234773Y162656D01*
X234000Y163813D01*
X232842Y164587D01*
X231476Y164859D01*
D02*
G37*
G36*
X518160D02*
X516794Y164587D01*
X515637Y163813D01*
X514863Y162656D01*
X514591Y161290D01*
X514863Y159924D01*
X515637Y158767D01*
X516794Y157993D01*
X518160Y157721D01*
X519526Y157993D01*
X520683Y158767D01*
X521457Y159924D01*
X521729Y161290D01*
X521457Y162656D01*
X520683Y163813D01*
X519526Y164587D01*
X518160Y164859D01*
D02*
G37*
G36*
X412750Y163925D02*
Y160309D01*
X416366D01*
X416228Y161005D01*
X415114Y162673D01*
X413447Y163787D01*
X412750Y163925D01*
D02*
G37*
G36*
X464895Y166465D02*
X464198Y166327D01*
X462531Y165213D01*
X461417Y163545D01*
X461279Y162849D01*
X464895D01*
Y166465D01*
D02*
G37*
G36*
X262890Y161960D02*
Y158344D01*
X266506D01*
X266368Y159040D01*
X265254Y160707D01*
X263587Y161821D01*
X262890Y161960D01*
D02*
G37*
G36*
X410210Y163925D02*
X409514Y163787D01*
X407846Y162673D01*
X406732Y161005D01*
X406594Y160309D01*
X410210D01*
Y163925D01*
D02*
G37*
G36*
X471051Y160309D02*
X467435D01*
Y156693D01*
X468131Y156831D01*
X469799Y157945D01*
X470913Y159613D01*
X471051Y160309D01*
D02*
G37*
G36*
X464895D02*
X461279D01*
X461417Y159613D01*
X462531Y157945D01*
X464198Y156831D01*
X464895Y156693D01*
Y160309D01*
D02*
G37*
G36*
X552739Y159826D02*
Y156210D01*
X556355D01*
X556216Y156906D01*
X555103Y158574D01*
X553435Y159688D01*
X552739Y159826D01*
D02*
G37*
G36*
X86360Y161096D02*
X85663Y160958D01*
X83996Y159844D01*
X82882Y158176D01*
X82744Y157480D01*
X86360D01*
Y161096D01*
D02*
G37*
G36*
X74736Y161290D02*
X71120D01*
Y157674D01*
X71817Y157812D01*
X73484Y158926D01*
X74598Y160593D01*
X74736Y161290D01*
D02*
G37*
G36*
X68580D02*
X64964D01*
X65102Y160593D01*
X66216Y158926D01*
X67884Y157812D01*
X68580Y157674D01*
Y161290D01*
D02*
G37*
G36*
X88900Y161096D02*
Y157480D01*
X92516D01*
X92378Y158176D01*
X91264Y159844D01*
X89597Y160958D01*
X88900Y161096D01*
D02*
G37*
G36*
X171607Y168910D02*
X167990D01*
Y165294D01*
X168687Y165432D01*
X170354Y166546D01*
X171468Y168214D01*
X171607Y168910D01*
D02*
G37*
G36*
X165450D02*
X161834D01*
X161973Y168214D01*
X163087Y166546D01*
X164754Y165432D01*
X165450Y165294D01*
Y168910D01*
D02*
G37*
G36*
X153476D02*
X149860D01*
Y165294D01*
X150556Y165432D01*
X152224Y166546D01*
X153338Y168214D01*
X153476Y168910D01*
D02*
G37*
G36*
X232710Y175019D02*
X231344Y174747D01*
X230187Y173973D01*
X229413Y172816D01*
X229142Y171450D01*
X229413Y170084D01*
X230187Y168927D01*
X231344Y168153D01*
X232710Y167881D01*
X234076Y168153D01*
X235233Y168927D01*
X236007Y170084D01*
X236279Y171450D01*
X236007Y172816D01*
X235233Y173973D01*
X234076Y174747D01*
X232710Y175019D01*
D02*
G37*
G36*
X262890Y174711D02*
Y171095D01*
X266506D01*
X266368Y171791D01*
X265254Y173459D01*
X263587Y174573D01*
X262890Y174711D01*
D02*
G37*
G36*
X260350D02*
X259653Y174573D01*
X257986Y173459D01*
X256872Y171791D01*
X256734Y171095D01*
X260350D01*
Y174711D01*
D02*
G37*
G36*
X607060Y177559D02*
X605694Y177287D01*
X604537Y176513D01*
X603763Y175356D01*
X603491Y173990D01*
X603763Y172624D01*
X604537Y171467D01*
X605694Y170693D01*
X607060Y170421D01*
X608426Y170693D01*
X609583Y171467D01*
X610357Y172624D01*
X610629Y173990D01*
X610357Y175356D01*
X609583Y176513D01*
X608426Y177287D01*
X607060Y177559D01*
D02*
G37*
G36*
X71120Y167446D02*
Y163830D01*
X74736D01*
X74598Y164527D01*
X73484Y166194D01*
X71817Y167308D01*
X71120Y167446D01*
D02*
G37*
G36*
X68580D02*
X67884Y167308D01*
X66216Y166194D01*
X65102Y164527D01*
X64964Y163830D01*
X68580D01*
Y167446D01*
D02*
G37*
G36*
X467435Y166465D02*
Y162849D01*
X471051D01*
X470913Y163545D01*
X469799Y165213D01*
X468131Y166327D01*
X467435Y166465D01*
D02*
G37*
G36*
X223520Y171671D02*
X222154Y171399D01*
X220997Y170626D01*
X220223Y169468D01*
X219951Y168102D01*
X220223Y166737D01*
X220997Y165579D01*
X222154Y164806D01*
X223520Y164534D01*
X224886Y164806D01*
X226043Y165579D01*
X226817Y166737D01*
X227089Y168102D01*
X226817Y169468D01*
X226043Y170626D01*
X224886Y171399D01*
X223520Y171671D01*
D02*
G37*
G36*
X147320Y168910D02*
X143704D01*
X143842Y168214D01*
X144956Y166546D01*
X146623Y165432D01*
X147320Y165294D01*
Y168910D01*
D02*
G37*
G36*
X266506Y168555D02*
X262890D01*
Y164939D01*
X263587Y165077D01*
X265254Y166191D01*
X266368Y167859D01*
X266506Y168555D01*
D02*
G37*
G36*
X260350D02*
X256734D01*
X256872Y167859D01*
X257986Y166191D01*
X259653Y165077D01*
X260350Y164939D01*
Y168555D01*
D02*
G37*
G36*
X550199Y159826D02*
X549502Y159688D01*
X547835Y158574D01*
X546721Y156906D01*
X546583Y156210D01*
X550199D01*
Y159826D01*
D02*
G37*
G36*
X459496Y135890D02*
X455880D01*
Y132274D01*
X456576Y132412D01*
X458244Y133526D01*
X459358Y135194D01*
X459496Y135890D01*
D02*
G37*
G36*
X453340D02*
X449724D01*
X449862Y135194D01*
X450976Y133526D01*
X452644Y132412D01*
X453340Y132274D01*
Y135890D01*
D02*
G37*
G36*
X73310Y138864D02*
X71945Y138593D01*
X70787Y137819D01*
X70014Y136661D01*
X69742Y135296D01*
X70014Y133930D01*
X70787Y132772D01*
X71945Y131999D01*
X73310Y131727D01*
X74676Y131999D01*
X75834Y132772D01*
X76607Y133930D01*
X76879Y135296D01*
X76607Y136661D01*
X75834Y137819D01*
X74676Y138593D01*
X73310Y138864D01*
D02*
G37*
G36*
X613410Y141999D02*
X612044Y141727D01*
X610887Y140953D01*
X610113Y139796D01*
X609841Y138430D01*
X610113Y137064D01*
X610887Y135907D01*
X612044Y135133D01*
X613410Y134861D01*
X614776Y135133D01*
X615933Y135907D01*
X616707Y137064D01*
X616979Y138430D01*
X616707Y139796D01*
X615933Y140953D01*
X614776Y141727D01*
X613410Y141999D01*
D02*
G37*
G36*
X453340Y142046D02*
X452644Y141908D01*
X450976Y140794D01*
X449862Y139127D01*
X449724Y138430D01*
X453340D01*
Y142046D01*
D02*
G37*
G36*
X105216Y139700D02*
X101600D01*
Y136084D01*
X102296Y136222D01*
X103964Y137336D01*
X105078Y139003D01*
X105216Y139700D01*
D02*
G37*
G36*
X99060D02*
X95444D01*
X95582Y139003D01*
X96696Y137336D01*
X98364Y136222D01*
X99060Y136084D01*
Y139700D01*
D02*
G37*
G36*
X82550Y129346D02*
Y125730D01*
X86166D01*
X86028Y126426D01*
X84914Y128094D01*
X83246Y129208D01*
X82550Y129346D01*
D02*
G37*
G36*
X80010D02*
X79314Y129208D01*
X77646Y128094D01*
X76532Y126426D01*
X76394Y125730D01*
X80010D01*
Y129346D01*
D02*
G37*
G36*
X59690D02*
Y125730D01*
X63306D01*
X63168Y126426D01*
X62054Y128094D01*
X60387Y129208D01*
X59690Y129346D01*
D02*
G37*
G36*
X99060D02*
X98364Y129208D01*
X96696Y128094D01*
X95582Y126426D01*
X95444Y125730D01*
X99060D01*
Y129346D01*
D02*
G37*
G36*
X155745Y133621D02*
Y130005D01*
X159361D01*
X159223Y130702D01*
X158109Y132369D01*
X156441Y133483D01*
X155745Y133621D01*
D02*
G37*
G36*
X153205D02*
X152508Y133483D01*
X150841Y132369D01*
X149727Y130702D01*
X149589Y130005D01*
X153205D01*
Y133621D01*
D02*
G37*
G36*
X101600Y129346D02*
Y125730D01*
X105216D01*
X105078Y126426D01*
X103964Y128094D01*
X102296Y129208D01*
X101600Y129346D01*
D02*
G37*
G36*
X260350Y155804D02*
X256734D01*
X256872Y155107D01*
X257986Y153440D01*
X259653Y152326D01*
X260350Y152188D01*
Y155804D01*
D02*
G37*
G36*
X92516Y154940D02*
X88900D01*
Y151324D01*
X89597Y151462D01*
X91264Y152576D01*
X92378Y154243D01*
X92516Y154940D01*
D02*
G37*
G36*
X86360D02*
X82744D01*
X82882Y154243D01*
X83996Y152576D01*
X85663Y151462D01*
X86360Y151324D01*
Y154940D01*
D02*
G37*
G36*
X266506Y155804D02*
X262890D01*
Y152188D01*
X263587Y152326D01*
X265254Y153440D01*
X266368Y155107D01*
X266506Y155804D01*
D02*
G37*
G36*
X26240Y157163D02*
X24021Y156871D01*
X21953Y156015D01*
X20178Y154652D01*
X19602D01*
X17827Y156015D01*
X15759Y156871D01*
X13540Y157163D01*
X11321Y156871D01*
X9254Y156015D01*
X7478Y154652D01*
X6115Y152877D01*
X5259Y150809D01*
X4967Y148590D01*
X5259Y146371D01*
X6115Y144303D01*
X7478Y142528D01*
Y142129D01*
X6115Y140353D01*
X5259Y138285D01*
X4967Y136066D01*
X5259Y133847D01*
X6115Y131780D01*
X7478Y130004D01*
Y129605D01*
X6115Y127829D01*
X5259Y125762D01*
X4967Y123543D01*
X5259Y121324D01*
X6115Y119256D01*
X7478Y117480D01*
X9254Y116118D01*
X11321Y115261D01*
X13540Y114969D01*
X15759Y115261D01*
X17827Y116118D01*
X19602Y117480D01*
X20178D01*
X21953Y116118D01*
X24021Y115261D01*
X26240Y114969D01*
X28459Y115261D01*
X30527Y116118D01*
X32302Y117480D01*
X33665Y119256D01*
X34521Y121324D01*
X34813Y123543D01*
X34521Y125762D01*
X33665Y127829D01*
X32302Y129605D01*
X32302Y129605D01*
X32034Y130004D01*
X33396Y131780D01*
X34253Y133847D01*
X34545Y136066D01*
X34253Y138285D01*
X33396Y140353D01*
X32034Y142129D01*
X32302Y142528D01*
X32302Y142528D01*
X33665Y144303D01*
X34521Y146371D01*
X34813Y148590D01*
X34521Y150809D01*
X33665Y152877D01*
X32302Y154652D01*
X30527Y156015D01*
X28459Y156871D01*
X26240Y157163D01*
D02*
G37*
G36*
X416366Y157769D02*
X412750D01*
Y154153D01*
X413447Y154291D01*
X415114Y155405D01*
X416228Y157072D01*
X416366Y157769D01*
D02*
G37*
G36*
X410210D02*
X406594D01*
X406732Y157072D01*
X407846Y155405D01*
X409514Y154291D01*
X410210Y154153D01*
Y157769D01*
D02*
G37*
G36*
X101600Y145856D02*
Y142240D01*
X105216D01*
X105078Y142936D01*
X103964Y144604D01*
X102296Y145718D01*
X101600Y145856D01*
D02*
G37*
G36*
X99060D02*
X98364Y145718D01*
X96696Y144604D01*
X95582Y142936D01*
X95444Y142240D01*
X99060D01*
Y145856D01*
D02*
G37*
G36*
X455880Y142046D02*
Y138430D01*
X459496D01*
X459358Y139127D01*
X458244Y140794D01*
X456576Y141908D01*
X455880Y142046D01*
D02*
G37*
G36*
X85001Y149619D02*
X83636Y149347D01*
X82478Y148573D01*
X81705Y147416D01*
X81433Y146050D01*
X81705Y144684D01*
X82478Y143527D01*
X83636Y142753D01*
X85001Y142481D01*
X86367Y142753D01*
X87525Y143527D01*
X88298Y144684D01*
X88570Y146050D01*
X88298Y147416D01*
X87525Y148573D01*
X86367Y149347D01*
X85001Y149619D01*
D02*
G37*
G36*
X556355Y153670D02*
X552739D01*
Y150054D01*
X553435Y150192D01*
X555103Y151306D01*
X556216Y152973D01*
X556355Y153670D01*
D02*
G37*
G36*
X550199D02*
X546583D01*
X546721Y152973D01*
X547835Y151306D01*
X549502Y150192D01*
X550199Y150054D01*
Y153670D01*
D02*
G37*
G36*
X361950Y151579D02*
X360584Y151307D01*
X359427Y150533D01*
X358653Y149376D01*
X358381Y148010D01*
X358653Y146644D01*
X359427Y145487D01*
X360584Y144713D01*
X361950Y144441D01*
X363316Y144713D01*
X364473Y145487D01*
X365247Y146644D01*
X365519Y148010D01*
X365247Y149376D01*
X364473Y150533D01*
X363316Y151307D01*
X361950Y151579D01*
D02*
G37*
G36*
X406111Y191770D02*
X402495D01*
X402633Y191073D01*
X403747Y189406D01*
X405414Y188292D01*
X406111Y188154D01*
Y191770D01*
D02*
G37*
G36*
X568412Y191594D02*
X564795D01*
Y187978D01*
X565492Y188116D01*
X567159Y189230D01*
X568273Y190897D01*
X568412Y191594D01*
D02*
G37*
G36*
X562256D02*
X558639D01*
X558778Y190897D01*
X559892Y189230D01*
X561559Y188116D01*
X562256Y187978D01*
Y191594D01*
D02*
G37*
G36*
X412267Y191770D02*
X408651D01*
Y188154D01*
X409347Y188292D01*
X411015Y189406D01*
X412128Y191073D01*
X412267Y191770D01*
D02*
G37*
G36*
X431158D02*
X427542D01*
X427681Y191073D01*
X428795Y189406D01*
X430462Y188292D01*
X431158Y188154D01*
Y191770D01*
D02*
G37*
G36*
X424791D02*
X421175D01*
Y188154D01*
X421871Y188292D01*
X423538Y189406D01*
X424652Y191073D01*
X424791Y191770D01*
D02*
G37*
G36*
X418634D02*
X415018D01*
X415157Y191073D01*
X416271Y189406D01*
X417938Y188292D01*
X418634Y188154D01*
Y191770D01*
D02*
G37*
G36*
X525780Y188249D02*
X522164D01*
X522302Y187552D01*
X523416Y185885D01*
X525084Y184771D01*
X525780Y184633D01*
Y188249D01*
D02*
G37*
G36*
X421175Y185494D02*
Y181878D01*
X424791D01*
X424652Y182575D01*
X423538Y184242D01*
X421871Y185356D01*
X421175Y185494D01*
D02*
G37*
G36*
X418634D02*
X417938Y185356D01*
X416271Y184242D01*
X415157Y182575D01*
X415018Y181878D01*
X418634D01*
Y185494D01*
D02*
G37*
G36*
X531936Y188249D02*
X528320D01*
Y184633D01*
X529016Y184771D01*
X530684Y185885D01*
X531798Y187552D01*
X531936Y188249D01*
D02*
G37*
G36*
X555980Y191594D02*
X552364D01*
Y187978D01*
X553060Y188116D01*
X554728Y189230D01*
X555841Y190897D01*
X555980Y191594D01*
D02*
G37*
G36*
X549824D02*
X546208D01*
X546346Y190897D01*
X547460Y189230D01*
X549127Y188116D01*
X549824Y187978D01*
Y191594D01*
D02*
G37*
G36*
X607060Y192799D02*
X605694Y192527D01*
X604537Y191753D01*
X603763Y190596D01*
X603491Y189230D01*
X603763Y187864D01*
X604537Y186707D01*
X605694Y185933D01*
X607060Y185661D01*
X608426Y185933D01*
X609583Y186707D01*
X610357Y187864D01*
X610629Y189230D01*
X610357Y190596D01*
X609583Y191753D01*
X608426Y192527D01*
X607060Y192799D01*
D02*
G37*
G36*
X564795Y197750D02*
Y194134D01*
X568412D01*
X568273Y194830D01*
X567159Y196497D01*
X565492Y197611D01*
X564795Y197750D01*
D02*
G37*
G36*
X562256D02*
X561559Y197611D01*
X559892Y196497D01*
X558778Y194830D01*
X558639Y194134D01*
X562256D01*
Y197750D01*
D02*
G37*
G36*
X552364D02*
Y194134D01*
X555980D01*
X555841Y194830D01*
X554728Y196497D01*
X553060Y197611D01*
X552364Y197750D01*
D02*
G37*
G36*
X406111Y197926D02*
X405414Y197788D01*
X403747Y196674D01*
X402633Y195007D01*
X402495Y194310D01*
X406111D01*
Y197926D01*
D02*
G37*
G36*
X421175D02*
Y194310D01*
X424791D01*
X424652Y195007D01*
X423538Y196674D01*
X421871Y197788D01*
X421175Y197926D01*
D02*
G37*
G36*
X418634D02*
X417938Y197788D01*
X416271Y196674D01*
X415157Y195007D01*
X415018Y194310D01*
X418634D01*
Y197926D01*
D02*
G37*
G36*
X408651D02*
Y194310D01*
X412267D01*
X412128Y195007D01*
X411015Y196674D01*
X409347Y197788D01*
X408651Y197926D01*
D02*
G37*
G36*
X77565Y202565D02*
X67793D01*
X67931Y201868D01*
X69045Y200201D01*
X70028Y199545D01*
X69849Y198186D01*
X67860Y197924D01*
X66006Y197156D01*
X64415Y195935D01*
X63193Y194343D01*
X62425Y192489D01*
X62164Y190500D01*
Y189230D01*
X77535D01*
Y190500D01*
X77273Y192489D01*
X76505Y194343D01*
X75284Y195935D01*
X73692Y197156D01*
X72872Y197496D01*
X72997Y198759D01*
X74646Y199087D01*
X76313Y200201D01*
X77427Y201868D01*
X77565Y202565D01*
D02*
G37*
G36*
X166721Y195339D02*
X165355Y195067D01*
X164197Y194293D01*
X163424Y193136D01*
X163152Y191770D01*
X163424Y190404D01*
X164197Y189247D01*
X165355Y188473D01*
X166721Y188201D01*
X168086Y188473D01*
X169244Y189247D01*
X170017Y190404D01*
X170289Y191770D01*
X170017Y193136D01*
X169244Y194293D01*
X168086Y195067D01*
X166721Y195339D01*
D02*
G37*
G36*
X437314Y191770D02*
X433698D01*
Y188154D01*
X434395Y188292D01*
X436062Y189406D01*
X437176Y191073D01*
X437314Y191770D01*
D02*
G37*
G36*
X525780Y194405D02*
X525084Y194266D01*
X523416Y193153D01*
X522302Y191485D01*
X522164Y190789D01*
X525780D01*
Y194405D01*
D02*
G37*
G36*
X549824Y197750D02*
X549127Y197611D01*
X547460Y196497D01*
X546346Y194830D01*
X546208Y194134D01*
X549824D01*
Y197750D01*
D02*
G37*
G36*
X148590Y199149D02*
X147224Y198877D01*
X146067Y198103D01*
X145293Y196946D01*
X145021Y195580D01*
X145293Y194214D01*
X146067Y193057D01*
X147224Y192283D01*
X148590Y192011D01*
X149956Y192283D01*
X151113Y193057D01*
X151887Y194214D01*
X152159Y195580D01*
X151887Y196946D01*
X151113Y198103D01*
X149956Y198877D01*
X148590Y199149D01*
D02*
G37*
G36*
X528320Y194405D02*
Y190789D01*
X531936D01*
X531798Y191485D01*
X530684Y193153D01*
X529016Y194266D01*
X528320Y194405D01*
D02*
G37*
G36*
X565064Y185226D02*
Y181610D01*
X568680D01*
X568541Y182306D01*
X567427Y183974D01*
X565760Y185088D01*
X565064Y185226D01*
D02*
G37*
G36*
X549824Y179070D02*
X546208D01*
X546346Y178374D01*
X547460Y176706D01*
X549127Y175592D01*
X549824Y175454D01*
Y179070D01*
D02*
G37*
G36*
X437314D02*
X433698D01*
Y175454D01*
X434395Y175592D01*
X436062Y176706D01*
X437176Y178374D01*
X437314Y179070D01*
D02*
G37*
G36*
X431158D02*
X427542D01*
X427681Y178374D01*
X428795Y176706D01*
X430462Y175592D01*
X431158Y175454D01*
Y179070D01*
D02*
G37*
G36*
X555980D02*
X552364D01*
Y175454D01*
X553060Y175592D01*
X554728Y176706D01*
X555841Y178374D01*
X555980Y179070D01*
D02*
G37*
G36*
X418634Y179338D02*
X415018D01*
X415157Y178642D01*
X416271Y176975D01*
X417938Y175861D01*
X418634Y175722D01*
Y179338D01*
D02*
G37*
G36*
X568680Y179070D02*
X565064D01*
Y175454D01*
X565760Y175592D01*
X567427Y176706D01*
X568541Y178374D01*
X568680Y179070D01*
D02*
G37*
G36*
X562524D02*
X558908D01*
X559046Y178374D01*
X560160Y176706D01*
X561827Y175592D01*
X562524Y175454D01*
Y179070D01*
D02*
G37*
G36*
X165450Y175066D02*
X164754Y174928D01*
X163087Y173814D01*
X161973Y172146D01*
X161834Y171450D01*
X165450D01*
Y175066D01*
D02*
G37*
G36*
X149860D02*
Y171450D01*
X153476D01*
X153338Y172146D01*
X152224Y173814D01*
X150556Y174928D01*
X149860Y175066D01*
D02*
G37*
G36*
X147320D02*
X146623Y174928D01*
X144956Y173814D01*
X143842Y172146D01*
X143704Y171450D01*
X147320D01*
Y175066D01*
D02*
G37*
G36*
X167990D02*
Y171450D01*
X171607D01*
X171468Y172146D01*
X170354Y173814D01*
X168687Y174928D01*
X167990Y175066D01*
D02*
G37*
G36*
X412267Y179070D02*
X408651D01*
Y175454D01*
X409347Y175592D01*
X411015Y176706D01*
X412128Y178374D01*
X412267Y179070D01*
D02*
G37*
G36*
X406111D02*
X402495D01*
X402633Y178374D01*
X403747Y176706D01*
X405414Y175592D01*
X406111Y175454D01*
Y179070D01*
D02*
G37*
G36*
X713740Y175861D02*
X711521Y175569D01*
X709453Y174712D01*
X707678Y173349D01*
X707102D01*
X705327Y174712D01*
X703259Y175569D01*
X701040Y175861D01*
X698821Y175569D01*
X696753Y174712D01*
X694978Y173349D01*
X693615Y171574D01*
X692759Y169506D01*
X692467Y167287D01*
X692759Y165068D01*
X693615Y163001D01*
X694978Y161225D01*
X694978Y161225D01*
X695246Y160826D01*
X693884Y159050D01*
X693027Y156983D01*
X692735Y154764D01*
X693027Y152545D01*
X693884Y150477D01*
X695246Y148701D01*
X694978Y148302D01*
X694978Y148302D01*
X693615Y146527D01*
X692759Y144459D01*
X692467Y142240D01*
X692759Y140021D01*
X693615Y137953D01*
X694978Y136178D01*
X696753Y134815D01*
X698821Y133959D01*
X701040Y133667D01*
X703259Y133959D01*
X705327Y134815D01*
X707102Y136178D01*
X707678D01*
X709453Y134815D01*
X711521Y133959D01*
X713740Y133667D01*
X715959Y133959D01*
X718027Y134815D01*
X719802Y136178D01*
X721165Y137953D01*
X722021Y140021D01*
X722313Y142240D01*
X722021Y144459D01*
X721165Y146527D01*
X719802Y148302D01*
Y148701D01*
X721165Y150477D01*
X722021Y152545D01*
X722313Y154764D01*
X722021Y156983D01*
X721165Y159050D01*
X719802Y160826D01*
Y161225D01*
X721165Y163001D01*
X722021Y165068D01*
X722313Y167287D01*
X722021Y169506D01*
X721165Y171574D01*
X719802Y173349D01*
X718027Y174712D01*
X715959Y175569D01*
X713740Y175861D01*
D02*
G37*
G36*
X431158Y185226D02*
X430462Y185088D01*
X428795Y183974D01*
X427681Y182306D01*
X427542Y181610D01*
X431158D01*
Y185226D01*
D02*
G37*
G36*
X408651D02*
Y181610D01*
X412267D01*
X412128Y182306D01*
X411015Y183974D01*
X409347Y185088D01*
X408651Y185226D01*
D02*
G37*
G36*
X406111D02*
X405414Y185088D01*
X403747Y183974D01*
X402633Y182306D01*
X402495Y181610D01*
X406111D01*
Y185226D01*
D02*
G37*
G36*
X433698D02*
Y181610D01*
X437314D01*
X437176Y182306D01*
X436062Y183974D01*
X434395Y185088D01*
X433698Y185226D01*
D02*
G37*
G36*
X562524D02*
X561827Y185088D01*
X560160Y183974D01*
X559046Y182306D01*
X558908Y181610D01*
X562524D01*
Y185226D01*
D02*
G37*
G36*
X552364D02*
Y181610D01*
X555980D01*
X555841Y182306D01*
X554728Y183974D01*
X553060Y185088D01*
X552364Y185226D01*
D02*
G37*
G36*
X549824D02*
X549127Y185088D01*
X547460Y183974D01*
X546346Y182306D01*
X546208Y181610D01*
X549824D01*
Y185226D01*
D02*
G37*
G36*
X77535Y186690D02*
X71120D01*
Y177901D01*
X71838Y177996D01*
X73692Y178764D01*
X75284Y179985D01*
X76505Y181577D01*
X77273Y183431D01*
X77535Y185420D01*
Y186690D01*
D02*
G37*
G36*
X68580D02*
X62164D01*
Y185420D01*
X62425Y183431D01*
X63193Y181577D01*
X64415Y179985D01*
X66006Y178764D01*
X67860Y177996D01*
X68580Y177901D01*
Y186690D01*
D02*
G37*
G36*
X424791Y179338D02*
X421175D01*
Y175722D01*
X421871Y175861D01*
X423538Y176975D01*
X424652Y178642D01*
X424791Y179338D01*
D02*
G37*
G36*
X87629Y197641D02*
X85780Y197397D01*
X84058Y196684D01*
X82579Y195549D01*
X81444Y194070D01*
X80731Y192348D01*
X80488Y190499D01*
Y185420D01*
X80731Y183571D01*
X81444Y181849D01*
X82579Y180370D01*
X84058Y179235D01*
X85780Y178522D01*
X87629Y178278D01*
X89477Y178522D01*
X91199Y179235D01*
X92678Y180370D01*
X93813Y181849D01*
X94527Y183571D01*
X94770Y185420D01*
Y190499D01*
X94527Y192348D01*
X93813Y194070D01*
X92678Y195549D01*
X91199Y196684D01*
X89477Y197397D01*
X87629Y197641D01*
D02*
G37*
G36*
X123189Y197642D02*
X121341Y197399D01*
X119618Y196686D01*
X118139Y195551D01*
X117004Y194072D01*
X116291Y192349D01*
X116048Y190501D01*
Y185421D01*
X116291Y183573D01*
X117004Y181851D01*
X118139Y180372D01*
X119618Y179237D01*
X121341Y178524D01*
X123189Y178280D01*
X125037Y178524D01*
X126759Y179237D01*
X128238Y180372D01*
X129373Y181851D01*
X130086Y183573D01*
X130330Y185421D01*
Y190501D01*
X130086Y192349D01*
X129373Y194072D01*
X128238Y195551D01*
X126759Y196686D01*
X125037Y197399D01*
X123189Y197642D01*
D02*
G37*
G36*
X105409Y197641D02*
X103560Y197398D01*
X101838Y196685D01*
X100359Y195550D01*
X99224Y194071D01*
X98511Y192348D01*
X98268Y190500D01*
Y185420D01*
X98511Y183572D01*
X99224Y181850D01*
X100359Y180371D01*
X101838Y179236D01*
X103560Y178522D01*
X105409Y178279D01*
X107257Y178522D01*
X108979Y179236D01*
X110458Y180371D01*
X111593Y181850D01*
X112306Y183572D01*
X112550Y185420D01*
Y190500D01*
X112306Y192348D01*
X111593Y194071D01*
X110458Y195550D01*
X108979Y196685D01*
X107257Y197398D01*
X105409Y197641D01*
D02*
G37*
G36*
X52071Y197641D02*
X50223Y197398D01*
X48500Y196684D01*
X47021Y195550D01*
X45886Y194070D01*
X45173Y192348D01*
X44930Y190500D01*
Y185420D01*
X45173Y183572D01*
X45886Y181849D01*
X47021Y180371D01*
X48500Y179236D01*
X50223Y178522D01*
X52071Y178279D01*
X53919Y178522D01*
X55641Y179236D01*
X57120Y180371D01*
X58255Y181849D01*
X58969Y183572D01*
X59212Y185420D01*
Y190500D01*
X58969Y192348D01*
X58255Y194070D01*
X57120Y195550D01*
X55641Y196684D01*
X53919Y197398D01*
X52071Y197641D01*
D02*
G37*
G36*
X57150Y129346D02*
X56453Y129208D01*
X54786Y128094D01*
X53672Y126426D01*
X53534Y125730D01*
X57150D01*
Y129346D01*
D02*
G37*
G36*
X565420Y65846D02*
X564724Y65708D01*
X563056Y64594D01*
X561942Y62927D01*
X561804Y62230D01*
X565420D01*
Y65846D01*
D02*
G37*
G36*
X455880D02*
Y62230D01*
X459496D01*
X459358Y62927D01*
X458244Y64594D01*
X456576Y65708D01*
X455880Y65846D01*
D02*
G37*
G36*
X453340D02*
X452644Y65708D01*
X450976Y64594D01*
X449862Y62927D01*
X449724Y62230D01*
X453340D01*
Y65846D01*
D02*
G37*
G36*
X567960D02*
Y62230D01*
X571576D01*
X571438Y62927D01*
X570324Y64594D01*
X568657Y65708D01*
X567960Y65846D01*
D02*
G37*
G36*
X409343Y69656D02*
X408646Y69518D01*
X406979Y68404D01*
X405865Y66736D01*
X405727Y66040D01*
X409343D01*
Y69656D01*
D02*
G37*
G36*
X386836D02*
Y66040D01*
X390452D01*
X390313Y66736D01*
X389199Y68404D01*
X387532Y69518D01*
X386836Y69656D01*
D02*
G37*
G36*
X384296D02*
X383599Y69518D01*
X381932Y68404D01*
X380818Y66736D01*
X380680Y66040D01*
X384296D01*
Y69656D01*
D02*
G37*
G36*
X390452Y63500D02*
X386836D01*
Y59884D01*
X387532Y60022D01*
X389199Y61136D01*
X390313Y62804D01*
X390452Y63500D01*
D02*
G37*
G36*
X384296D02*
X380680D01*
X380818Y62804D01*
X381932Y61136D01*
X383599Y60022D01*
X384296Y59884D01*
Y63500D01*
D02*
G37*
G36*
X571576Y59690D02*
X567960D01*
Y56074D01*
X568657Y56212D01*
X570324Y57326D01*
X571438Y58994D01*
X571576Y59690D01*
D02*
G37*
G36*
X409343Y63500D02*
X405727D01*
X405865Y62804D01*
X406979Y61136D01*
X408646Y60022D01*
X409343Y59884D01*
Y63500D01*
D02*
G37*
G36*
X402975Y63768D02*
X399359D01*
Y60152D01*
X400056Y60291D01*
X401723Y61405D01*
X402837Y63072D01*
X402975Y63768D01*
D02*
G37*
G36*
X396819D02*
X393203D01*
X393342Y63072D01*
X394456Y61405D01*
X396123Y60291D01*
X396819Y60152D01*
Y63768D01*
D02*
G37*
G36*
X415499Y63500D02*
X411883D01*
Y59884D01*
X412579Y60022D01*
X414246Y61136D01*
X415360Y62804D01*
X415499Y63500D01*
D02*
G37*
G36*
X409343Y76200D02*
X405727D01*
X405865Y75504D01*
X406979Y73836D01*
X408646Y72722D01*
X409343Y72584D01*
Y76200D01*
D02*
G37*
G36*
X402975D02*
X399359D01*
Y72584D01*
X400056Y72722D01*
X401723Y73836D01*
X402837Y75504D01*
X402975Y76200D01*
D02*
G37*
G36*
X396819D02*
X393203D01*
X393342Y75504D01*
X394456Y73836D01*
X396123Y72722D01*
X396819Y72584D01*
Y76200D01*
D02*
G37*
G36*
X415499D02*
X411883D01*
Y72584D01*
X412579Y72722D01*
X414246Y73836D01*
X415360Y75504D01*
X415499Y76200D01*
D02*
G37*
G36*
X121920Y85090D02*
X115317D01*
Y76200D01*
X121920D01*
Y85090D01*
D02*
G37*
G36*
X161096Y77470D02*
X157480D01*
Y73854D01*
X158176Y73992D01*
X159844Y75106D01*
X160958Y76774D01*
X161096Y77470D01*
D02*
G37*
G36*
X154940D02*
X151324D01*
X151462Y76774D01*
X152576Y75106D01*
X154243Y73992D01*
X154940Y73854D01*
Y77470D01*
D02*
G37*
G36*
X399359Y69925D02*
Y66308D01*
X402975D01*
X402837Y67005D01*
X401723Y68672D01*
X400056Y69786D01*
X399359Y69925D01*
D02*
G37*
G36*
X396819D02*
X396123Y69786D01*
X394456Y68672D01*
X393342Y67005D01*
X393203Y66308D01*
X396819D01*
Y69925D01*
D02*
G37*
G36*
X411883Y69656D02*
Y66040D01*
X415499D01*
X415360Y66736D01*
X414246Y68404D01*
X412579Y69518D01*
X411883Y69656D01*
D02*
G37*
G36*
X229871Y222625D02*
X226205Y222264D01*
X222680Y221195D01*
X219431Y219458D01*
X216584Y217121D01*
X214247Y214274D01*
X212511Y211025D01*
X211441Y207500D01*
X211080Y203834D01*
X211441Y200169D01*
X212511Y196644D01*
X214247Y193395D01*
X216584Y190548D01*
X219431Y188211D01*
X222680Y186474D01*
X226205Y185405D01*
X229871Y185044D01*
X233537Y185405D01*
X235699Y186061D01*
X284913Y175076D01*
Y95949D01*
X283630Y93550D01*
X282561Y90025D01*
X282200Y86359D01*
X282561Y82693D01*
X283630Y79168D01*
X285367Y75920D01*
X287704Y73072D01*
X290551Y70735D01*
X293800Y68999D01*
X297325Y67930D01*
X300991Y67568D01*
X304656Y67930D01*
X308181Y68999D01*
X311430Y70735D01*
X314277Y73072D01*
X316614Y75920D01*
X318351Y79168D01*
X319420Y82693D01*
X319781Y86359D01*
X319420Y90025D01*
X318351Y93550D01*
X317067Y95950D01*
Y178370D01*
X318349Y180768D01*
X319419Y184293D01*
X319780Y187959D01*
X319419Y191625D01*
X318349Y195150D01*
X316613Y198398D01*
X314276Y201246D01*
X311429Y203583D01*
X308180Y205319D01*
X304655Y206388D01*
X300989Y206749D01*
X299999Y206652D01*
X299346Y207741D01*
X300317Y209194D01*
X300456Y209890D01*
X290683D01*
X290822Y209194D01*
X291830Y207686D01*
X291112Y206638D01*
X242788Y217425D01*
X240310Y219458D01*
X237062Y221195D01*
X233537Y222264D01*
X229871Y222625D01*
D02*
G37*
G36*
X390452Y76200D02*
X386836D01*
Y72584D01*
X387532Y72722D01*
X389199Y73836D01*
X390313Y75504D01*
X390452Y76200D01*
D02*
G37*
G36*
X384296D02*
X380680D01*
X380818Y75504D01*
X381932Y73836D01*
X383599Y72722D01*
X384296Y72584D01*
Y76200D01*
D02*
G37*
G36*
X653530Y76066D02*
X652164Y75795D01*
X651007Y75021D01*
X650233Y73863D01*
X649961Y72498D01*
X650233Y71132D01*
X651007Y69974D01*
X652164Y69201D01*
X653530Y68929D01*
X654896Y69201D01*
X656053Y69974D01*
X656827Y71132D01*
X657099Y72498D01*
X656827Y73863D01*
X656053Y75021D01*
X654896Y75795D01*
X653530Y76066D01*
D02*
G37*
G36*
X565420Y59690D02*
X561804D01*
X561942Y58994D01*
X563056Y57326D01*
X564724Y56212D01*
X565420Y56074D01*
Y59690D01*
D02*
G37*
G36*
X110376Y49530D02*
X106760D01*
Y45914D01*
X107457Y46052D01*
X109124Y47166D01*
X110238Y48833D01*
X110376Y49530D01*
D02*
G37*
G36*
X104220D02*
X100604D01*
X100742Y48833D01*
X101856Y47166D01*
X103524Y46052D01*
X104220Y45914D01*
Y49530D01*
D02*
G37*
G36*
X74736D02*
X71120D01*
Y45914D01*
X71817Y46052D01*
X73484Y47166D01*
X74598Y48833D01*
X74736Y49530D01*
D02*
G37*
G36*
X632460Y50800D02*
X628844D01*
X628982Y50104D01*
X630096Y48436D01*
X631763Y47322D01*
X632460Y47184D01*
Y50800D01*
D02*
G37*
G36*
X681796Y52070D02*
X678180D01*
Y48454D01*
X678876Y48592D01*
X680544Y49706D01*
X681658Y51374D01*
X681796Y52070D01*
D02*
G37*
G36*
X675640D02*
X672024D01*
X672162Y51374D01*
X673276Y49706D01*
X674943Y48592D01*
X675640Y48454D01*
Y52070D01*
D02*
G37*
G36*
X638616Y50800D02*
X635000D01*
Y47184D01*
X635696Y47322D01*
X637364Y48436D01*
X638478Y50104D01*
X638616Y50800D01*
D02*
G37*
G36*
X469538Y35243D02*
X467319Y34951D01*
X465252Y34095D01*
X463476Y32732D01*
X463077D01*
X461301Y34095D01*
X459234Y34951D01*
X457015Y35243D01*
X454796Y34951D01*
X452728Y34095D01*
X450952Y32732D01*
X450553D01*
X448778Y34095D01*
X446710Y34951D01*
X444491Y35243D01*
X442272Y34951D01*
X440205Y34095D01*
X438429Y32732D01*
X437066Y30957D01*
X436210Y28889D01*
X435918Y26670D01*
X436210Y24451D01*
X437066Y22383D01*
X438429Y20608D01*
Y20032D01*
X437066Y18257D01*
X436210Y16189D01*
X435918Y13970D01*
X436210Y11751D01*
X437066Y9683D01*
X438429Y7908D01*
X440205Y6545D01*
X442272Y5689D01*
X444491Y5397D01*
X446710Y5689D01*
X448778Y6545D01*
X450553Y7908D01*
X450553Y7908D01*
X450952Y8176D01*
X452728Y6814D01*
X454796Y5957D01*
X457015Y5665D01*
X459234Y5957D01*
X461301Y6814D01*
X463077Y8176D01*
X463476Y7908D01*
X463476Y7908D01*
X465252Y6545D01*
X467319Y5689D01*
X469538Y5397D01*
X471757Y5689D01*
X473825Y6545D01*
X475601Y7908D01*
X476963Y9683D01*
X477820Y11751D01*
X478112Y13970D01*
X477820Y16189D01*
X476963Y18257D01*
X475601Y20032D01*
Y20608D01*
X476963Y22383D01*
X477820Y24451D01*
X478112Y26670D01*
X477820Y28889D01*
X476963Y30957D01*
X475601Y32732D01*
X473825Y34095D01*
X471757Y34951D01*
X469538Y35243D01*
D02*
G37*
G36*
X300991D02*
X298772Y34951D01*
X296704Y34095D01*
X294928Y32732D01*
X294529D01*
X292754Y34095D01*
X290686Y34951D01*
X288467Y35243D01*
X286248Y34951D01*
X284180Y34095D01*
X282405Y32732D01*
X282006D01*
X280230Y34095D01*
X278162Y34951D01*
X275943Y35243D01*
X273724Y34951D01*
X271657Y34095D01*
X269881Y32732D01*
X268519Y30957D01*
X267662Y28889D01*
X267370Y26670D01*
X267662Y24451D01*
X268519Y22383D01*
X269881Y20608D01*
Y20032D01*
X268519Y18257D01*
X267662Y16189D01*
X267370Y13970D01*
X267662Y11751D01*
X268519Y9683D01*
X269881Y7908D01*
X271657Y6545D01*
X273724Y5689D01*
X275943Y5397D01*
X278162Y5689D01*
X280230Y6545D01*
X282006Y7908D01*
X282006Y7908D01*
X282405Y8176D01*
X284180Y6814D01*
X286248Y5957D01*
X288467Y5665D01*
X290686Y5957D01*
X292754Y6814D01*
X294529Y8176D01*
X294928Y7908D01*
X294928Y7908D01*
X296704Y6545D01*
X298772Y5689D01*
X300991Y5397D01*
X303209Y5689D01*
X305277Y6545D01*
X307053Y7908D01*
X308415Y9683D01*
X309272Y11751D01*
X309564Y13970D01*
X309272Y16189D01*
X308415Y18257D01*
X307053Y20032D01*
Y20608D01*
X308415Y22383D01*
X309272Y24451D01*
X309564Y26670D01*
X309272Y28889D01*
X308415Y30957D01*
X307053Y32732D01*
X305277Y34095D01*
X303209Y34951D01*
X300991Y35243D01*
D02*
G37*
G36*
X114987D02*
X112768Y34951D01*
X110701Y34095D01*
X108925Y32732D01*
X108526D01*
X106750Y34095D01*
X104683Y34951D01*
X102464Y35243D01*
X100245Y34951D01*
X98177Y34095D01*
X96401Y32732D01*
X96002D01*
X94227Y34095D01*
X92159Y34951D01*
X89940Y35243D01*
X87721Y34951D01*
X85653Y34095D01*
X83878Y32732D01*
X82515Y30957D01*
X81659Y28889D01*
X81367Y26670D01*
X81659Y24451D01*
X82515Y22383D01*
X83878Y20608D01*
Y20032D01*
X82515Y18257D01*
X81659Y16189D01*
X81367Y13970D01*
X81659Y11751D01*
X82515Y9683D01*
X83878Y7908D01*
X85653Y6545D01*
X87721Y5689D01*
X89940Y5397D01*
X92159Y5689D01*
X94227Y6545D01*
X96002Y7908D01*
X96002Y7908D01*
X96401Y8176D01*
X98177Y6814D01*
X100245Y5957D01*
X102464Y5665D01*
X104683Y5957D01*
X106750Y6814D01*
X108526Y8176D01*
X108925Y7908D01*
X108925Y7908D01*
X110701Y6545D01*
X112768Y5689D01*
X114987Y5397D01*
X117206Y5689D01*
X119274Y6545D01*
X121049Y7908D01*
X122412Y9683D01*
X123268Y11751D01*
X123561Y13970D01*
X123268Y16189D01*
X122412Y18257D01*
X121049Y20032D01*
Y20608D01*
X122412Y22383D01*
X123268Y24451D01*
X123561Y26670D01*
X123268Y28889D01*
X122412Y30957D01*
X121049Y32732D01*
X119274Y34095D01*
X117206Y34951D01*
X114987Y35243D01*
D02*
G37*
G36*
X638810D02*
X636591Y34951D01*
X634523Y34095D01*
X632748Y32732D01*
X632349D01*
X630573Y34095D01*
X628505Y34951D01*
X626286Y35243D01*
X624067Y34951D01*
X622000Y34095D01*
X620224Y32732D01*
X619825D01*
X618049Y34095D01*
X615982Y34951D01*
X613763Y35243D01*
X611544Y34951D01*
X609476Y34095D01*
X607701Y32732D01*
X606338Y30957D01*
X605481Y28889D01*
X605189Y26670D01*
X605481Y24451D01*
X606338Y22383D01*
X607701Y20608D01*
Y20032D01*
X606338Y18257D01*
X605481Y16189D01*
X605189Y13970D01*
X605481Y11751D01*
X606338Y9683D01*
X607701Y7908D01*
X609476Y6545D01*
X611544Y5689D01*
X613763Y5397D01*
X615982Y5689D01*
X618049Y6545D01*
X619825Y7908D01*
X619825Y7908D01*
X620224Y8176D01*
X622000Y6814D01*
X624067Y5957D01*
X626286Y5665D01*
X628505Y5957D01*
X630573Y6814D01*
X632349Y8176D01*
X632748Y7908D01*
X632748Y7908D01*
X634523Y6545D01*
X636591Y5689D01*
X638810Y5397D01*
X641029Y5689D01*
X643097Y6545D01*
X644872Y7908D01*
X646235Y9683D01*
X647091Y11751D01*
X647383Y13970D01*
X647091Y16189D01*
X646235Y18257D01*
X644872Y20032D01*
Y20608D01*
X646235Y22383D01*
X647091Y24451D01*
X647383Y26670D01*
X647091Y28889D01*
X646235Y30957D01*
X644872Y32732D01*
X643097Y34095D01*
X641029Y34951D01*
X638810Y35243D01*
D02*
G37*
G36*
X68580Y49530D02*
X64964D01*
X65102Y48833D01*
X66216Y47166D01*
X67884Y46052D01*
X68580Y45914D01*
Y49530D01*
D02*
G37*
G36*
X56956D02*
X53340D01*
Y45914D01*
X54036Y46052D01*
X55704Y47166D01*
X56818Y48833D01*
X56956Y49530D01*
D02*
G37*
G36*
X50800D02*
X47184D01*
X47322Y48833D01*
X48436Y47166D01*
X50104Y46052D01*
X50800Y45914D01*
Y49530D01*
D02*
G37*
G36*
X635000Y56956D02*
Y53340D01*
X638616D01*
X638478Y54036D01*
X637364Y55704D01*
X635696Y56818D01*
X635000Y56956D01*
D02*
G37*
G36*
X632460D02*
X631763Y56818D01*
X630096Y55704D01*
X628982Y54036D01*
X628844Y53340D01*
X632460D01*
Y56956D01*
D02*
G37*
G36*
X525084Y137160D02*
X511175D01*
Y52730D01*
X525084D01*
Y137160D01*
D02*
G37*
G36*
X675640Y58226D02*
X674943Y58088D01*
X673276Y56974D01*
X672162Y55307D01*
X672024Y54610D01*
X675640D01*
Y58226D01*
D02*
G37*
G36*
X459496Y59690D02*
X455880D01*
Y56074D01*
X456576Y56212D01*
X458244Y57326D01*
X459358Y58994D01*
X459496Y59690D01*
D02*
G37*
G36*
X453340D02*
X449724D01*
X449862Y58994D01*
X450976Y57326D01*
X452644Y56212D01*
X453340Y56074D01*
Y59690D01*
D02*
G37*
G36*
X678180Y58226D02*
Y54610D01*
X681796D01*
X681658Y55307D01*
X680544Y56974D01*
X678876Y58088D01*
X678180Y58226D01*
D02*
G37*
G36*
X53340Y55686D02*
Y52070D01*
X56956D01*
X56818Y52766D01*
X55704Y54434D01*
X54036Y55548D01*
X53340Y55686D01*
D02*
G37*
G36*
X50800D02*
X50104Y55548D01*
X48436Y54434D01*
X47322Y52766D01*
X47184Y52070D01*
X50800D01*
Y55686D01*
D02*
G37*
G36*
X255271Y89277D02*
X251605Y88916D01*
X248081Y87846D01*
X244832Y86110D01*
X241984Y83773D01*
X239648Y80926D01*
X237911Y77677D01*
X236842Y74152D01*
X236481Y70486D01*
X236842Y66820D01*
X237911Y63295D01*
X239648Y60047D01*
X241984Y57199D01*
X244832Y54863D01*
X248081Y53126D01*
X251605Y52057D01*
X255271Y51696D01*
X258937Y52057D01*
X262462Y53126D01*
X265711Y54863D01*
X268558Y57199D01*
X270895Y60047D01*
X272631Y63295D01*
X273701Y66820D01*
X274062Y70486D01*
X273701Y74152D01*
X272631Y77677D01*
X270895Y80926D01*
X268558Y83773D01*
X265711Y86110D01*
X262462Y87846D01*
X258937Y88916D01*
X255271Y89277D01*
D02*
G37*
G36*
X68580Y55686D02*
X67884Y55548D01*
X66216Y54434D01*
X65102Y52766D01*
X64964Y52070D01*
X68580D01*
Y55686D01*
D02*
G37*
G36*
X106760D02*
Y52070D01*
X110376D01*
X110238Y52766D01*
X109124Y54434D01*
X107457Y55548D01*
X106760Y55686D01*
D02*
G37*
G36*
X104220D02*
X103524Y55548D01*
X101856Y54434D01*
X100742Y52766D01*
X100604Y52070D01*
X104220D01*
Y55686D01*
D02*
G37*
G36*
X71120D02*
Y52070D01*
X74736D01*
X74598Y52766D01*
X73484Y54434D01*
X71817Y55548D01*
X71120Y55686D01*
D02*
G37*
G36*
X673850Y118206D02*
X672484Y117934D01*
X671327Y117161D01*
X670553Y116003D01*
X670281Y114637D01*
X670553Y113272D01*
X671327Y112114D01*
X672484Y111340D01*
X673850Y111069D01*
X675216Y111340D01*
X676373Y112114D01*
X677147Y113272D01*
X677419Y114637D01*
X677147Y116003D01*
X676373Y117161D01*
X675216Y117934D01*
X673850Y118206D01*
D02*
G37*
G36*
X389696Y113030D02*
X386080D01*
Y109414D01*
X386777Y109552D01*
X388444Y110666D01*
X389558Y112333D01*
X389696Y113030D01*
D02*
G37*
G36*
X383540D02*
X379924D01*
X380062Y112333D01*
X381176Y110666D01*
X382844Y109552D01*
X383540Y109414D01*
Y113030D01*
D02*
G37*
G36*
X119781Y114990D02*
X116165D01*
X116304Y114293D01*
X117417Y112626D01*
X119085Y111512D01*
X119781Y111374D01*
Y114990D01*
D02*
G37*
G36*
X455880Y116646D02*
Y113030D01*
X459496D01*
X459358Y113727D01*
X458244Y115394D01*
X456576Y116508D01*
X455880Y116646D01*
D02*
G37*
G36*
X453340D02*
X452644Y116508D01*
X450976Y115394D01*
X449862Y113727D01*
X449724Y113030D01*
X453340D01*
Y116646D01*
D02*
G37*
G36*
X125937Y114990D02*
X122321D01*
Y111374D01*
X123018Y111512D01*
X124685Y112626D01*
X125799Y114293D01*
X125937Y114990D01*
D02*
G37*
G36*
X163830Y100089D02*
X162464Y99817D01*
X161307Y99043D01*
X160533Y97886D01*
X160261Y96520D01*
X160533Y95154D01*
X161307Y93997D01*
X162464Y93223D01*
X163830Y92951D01*
X165196Y93223D01*
X166353Y93997D01*
X167127Y95154D01*
X167399Y96520D01*
X167127Y97886D01*
X166353Y99043D01*
X165196Y99817D01*
X163830Y100089D01*
D02*
G37*
G36*
X275590Y95056D02*
Y91440D01*
X279206D01*
X279068Y92136D01*
X277954Y93804D01*
X276287Y94918D01*
X275590Y95056D01*
D02*
G37*
G36*
X273050D02*
X272353Y94918D01*
X270686Y93804D01*
X269572Y92136D01*
X269434Y91440D01*
X273050D01*
Y95056D01*
D02*
G37*
G36*
X171450Y108179D02*
X170084Y107907D01*
X168927Y107133D01*
X168153Y105976D01*
X167881Y104610D01*
X168153Y103244D01*
X168927Y102087D01*
X170084Y101313D01*
X171450Y101041D01*
X172816Y101313D01*
X173973Y102087D01*
X174747Y103244D01*
X175019Y104610D01*
X174747Y105976D01*
X173973Y107133D01*
X172816Y107907D01*
X171450Y108179D01*
D02*
G37*
G36*
X459496Y110490D02*
X455880D01*
Y106874D01*
X456576Y107012D01*
X458244Y108126D01*
X459358Y109794D01*
X459496Y110490D01*
D02*
G37*
G36*
X453340D02*
X449724D01*
X449862Y109794D01*
X450976Y108126D01*
X452644Y107012D01*
X453340Y106874D01*
Y110490D01*
D02*
G37*
G36*
X408280Y108369D02*
X406914Y108097D01*
X405757Y107323D01*
X404983Y106166D01*
X404711Y104800D01*
X404983Y103434D01*
X405757Y102277D01*
X406914Y101503D01*
X408280Y101231D01*
X409646Y101503D01*
X410803Y102277D01*
X411577Y103434D01*
X411849Y104800D01*
X411577Y106166D01*
X410803Y107323D01*
X409646Y108097D01*
X408280Y108369D01*
D02*
G37*
G36*
X99060Y123190D02*
X95444D01*
X95582Y122493D01*
X96696Y120826D01*
X98364Y119712D01*
X99060Y119574D01*
Y123190D01*
D02*
G37*
G36*
X86166D02*
X82550D01*
Y119574D01*
X83246Y119712D01*
X84914Y120826D01*
X86028Y122493D01*
X86166Y123190D01*
D02*
G37*
G36*
X80010D02*
X76394D01*
X76532Y122493D01*
X77646Y120826D01*
X79314Y119712D01*
X80010Y119574D01*
Y123190D01*
D02*
G37*
G36*
X105216D02*
X101600D01*
Y119574D01*
X102296Y119712D01*
X103964Y120826D01*
X105078Y122493D01*
X105216Y123190D01*
D02*
G37*
G36*
X613410Y131839D02*
X612044Y131567D01*
X610887Y130793D01*
X610113Y129636D01*
X609841Y128270D01*
X610113Y126904D01*
X610887Y125747D01*
X612044Y124973D01*
X613410Y124701D01*
X614776Y124973D01*
X615933Y125747D01*
X616707Y126904D01*
X616979Y128270D01*
X616707Y129636D01*
X615933Y130793D01*
X614776Y131567D01*
X613410Y131839D01*
D02*
G37*
G36*
X159361Y127465D02*
X155745D01*
Y123849D01*
X156441Y123987D01*
X158109Y125101D01*
X159223Y126769D01*
X159361Y127465D01*
D02*
G37*
G36*
X153205D02*
X149589D01*
X149727Y126769D01*
X150841Y125101D01*
X152508Y123987D01*
X153205Y123849D01*
Y127465D01*
D02*
G37*
G36*
X119781Y121146D02*
X119085Y121007D01*
X117417Y119894D01*
X116304Y118226D01*
X116165Y117530D01*
X119781D01*
Y121146D01*
D02*
G37*
G36*
X386080Y119186D02*
Y115570D01*
X389696D01*
X389558Y116266D01*
X388444Y117934D01*
X386777Y119048D01*
X386080Y119186D01*
D02*
G37*
G36*
X383540D02*
X382844Y119048D01*
X381176Y117934D01*
X380062Y116266D01*
X379924Y115570D01*
X383540D01*
Y119186D01*
D02*
G37*
G36*
X122321Y121146D02*
Y117530D01*
X125937D01*
X125799Y118226D01*
X124685Y119894D01*
X123018Y121007D01*
X122321Y121146D01*
D02*
G37*
G36*
X63306Y123190D02*
X59690D01*
Y119574D01*
X60387Y119712D01*
X62054Y120826D01*
X63168Y122493D01*
X63306Y123190D01*
D02*
G37*
G36*
X57150D02*
X53534D01*
X53672Y122493D01*
X54786Y120826D01*
X56453Y119712D01*
X57150Y119574D01*
Y123190D01*
D02*
G37*
G36*
X174719Y126030D02*
X173353Y125758D01*
X172196Y124984D01*
X171422Y123827D01*
X171150Y122461D01*
X171422Y121095D01*
X172196Y119938D01*
X173353Y119164D01*
X174719Y118892D01*
X176085Y119164D01*
X177242Y119938D01*
X178016Y121095D01*
X178288Y122461D01*
X178016Y123827D01*
X177242Y124984D01*
X176085Y125758D01*
X174719Y126030D01*
D02*
G37*
G36*
X224790Y92226D02*
Y88610D01*
X228406D01*
X228268Y89306D01*
X227154Y90974D01*
X225487Y92088D01*
X224790Y92226D01*
D02*
G37*
G36*
X409343Y82356D02*
X408646Y82218D01*
X406979Y81104D01*
X405865Y79436D01*
X405727Y78740D01*
X409343D01*
Y82356D01*
D02*
G37*
G36*
X399359D02*
Y78740D01*
X402975D01*
X402837Y79436D01*
X401723Y81104D01*
X400056Y82218D01*
X399359Y82356D01*
D02*
G37*
G36*
X396819D02*
X396123Y82218D01*
X394456Y81104D01*
X393342Y79436D01*
X393203Y78740D01*
X396819D01*
Y82356D01*
D02*
G37*
G36*
X411883D02*
Y78740D01*
X415499D01*
X415360Y79436D01*
X414246Y81104D01*
X412579Y82218D01*
X411883Y82356D01*
D02*
G37*
G36*
X453340Y85090D02*
X449724D01*
X449862Y84394D01*
X450976Y82726D01*
X452644Y81612D01*
X453340Y81474D01*
Y85090D01*
D02*
G37*
G36*
X157480Y83626D02*
Y80010D01*
X161096D01*
X160958Y80707D01*
X159844Y82374D01*
X158176Y83488D01*
X157480Y83626D01*
D02*
G37*
G36*
X154940D02*
X154243Y83488D01*
X152576Y82374D01*
X151462Y80707D01*
X151324Y80010D01*
X154940D01*
Y83626D01*
D02*
G37*
G36*
X69849Y96041D02*
X68001Y95798D01*
X66279Y95084D01*
X64800Y93949D01*
X63665Y92471D01*
X62951Y90748D01*
X62708Y88900D01*
Y83820D01*
X62951Y81972D01*
X63665Y80250D01*
X64800Y78770D01*
X66279Y77636D01*
X68001Y76922D01*
X69849Y76679D01*
X71698Y76922D01*
X73420Y77636D01*
X74899Y78770D01*
X76034Y80250D01*
X76747Y81972D01*
X76990Y83820D01*
Y88900D01*
X76747Y90748D01*
X76034Y92471D01*
X74899Y93949D01*
X73420Y95084D01*
X71698Y95798D01*
X69849Y96041D01*
D02*
G37*
G36*
X52070D02*
X50221Y95798D01*
X48499Y95084D01*
X47020Y93949D01*
X45885Y92471D01*
X45172Y90748D01*
X44928Y88900D01*
Y83820D01*
X45172Y81972D01*
X45885Y80250D01*
X47020Y78770D01*
X48499Y77636D01*
X50221Y76922D01*
X52070Y76679D01*
X53918Y76922D01*
X55640Y77636D01*
X57119Y78770D01*
X58254Y80250D01*
X58967Y81972D01*
X59211Y83820D01*
Y88900D01*
X58967Y90748D01*
X58254Y92471D01*
X57119Y93949D01*
X55640Y95084D01*
X53918Y95798D01*
X52070Y96041D01*
D02*
G37*
G36*
X131065Y85090D02*
X124460D01*
Y76200D01*
X131065D01*
Y85090D01*
D02*
G37*
G36*
X87631Y96041D02*
X85782Y95798D01*
X84060Y95084D01*
X82581Y93949D01*
X81446Y92471D01*
X80733Y90748D01*
X80490Y88900D01*
Y83820D01*
X80733Y81972D01*
X81446Y80250D01*
X82581Y78770D01*
X84060Y77636D01*
X85782Y76922D01*
X87631Y76679D01*
X89479Y76922D01*
X91201Y77636D01*
X92680Y78770D01*
X93815Y80250D01*
X94529Y81972D01*
X94772Y83820D01*
Y88900D01*
X94529Y90748D01*
X93815Y92471D01*
X92680Y93949D01*
X91201Y95084D01*
X89479Y95798D01*
X87631Y96041D01*
D02*
G37*
G36*
X386836Y82356D02*
Y78740D01*
X390452D01*
X390313Y79436D01*
X389199Y81104D01*
X387532Y82218D01*
X386836Y82356D01*
D02*
G37*
G36*
X384296D02*
X383599Y82218D01*
X381932Y81104D01*
X380818Y79436D01*
X380680Y78740D01*
X384296D01*
Y82356D01*
D02*
G37*
G36*
X105411Y96041D02*
X103563Y95798D01*
X101840Y95084D01*
X100361Y93949D01*
X99227Y92471D01*
X98513Y90748D01*
X98270Y88900D01*
Y83820D01*
X98513Y81972D01*
X99227Y80250D01*
X100361Y78770D01*
X101840Y77636D01*
X103563Y76922D01*
X105411Y76679D01*
X107259Y76922D01*
X108982Y77636D01*
X110461Y78770D01*
X111595Y80250D01*
X112309Y81972D01*
X112552Y83820D01*
Y88900D01*
X112309Y90748D01*
X111595Y92471D01*
X110461Y93949D01*
X108982Y95084D01*
X107259Y95798D01*
X105411Y96041D01*
D02*
G37*
G36*
X453340Y91246D02*
X452644Y91108D01*
X450976Y89994D01*
X449862Y88327D01*
X449724Y87630D01*
X453340D01*
Y91246D01*
D02*
G37*
G36*
X131065Y96520D02*
X124460D01*
Y87630D01*
X131065D01*
Y96520D01*
D02*
G37*
G36*
X121920D02*
X115317D01*
Y87630D01*
X121920D01*
Y96520D01*
D02*
G37*
G36*
X455880Y91246D02*
Y87630D01*
X459496D01*
X459358Y88327D01*
X458244Y89994D01*
X456576Y91108D01*
X455880Y91246D01*
D02*
G37*
G36*
X222250Y92226D02*
X221553Y92088D01*
X219886Y90974D01*
X218772Y89306D01*
X218634Y88610D01*
X222250D01*
Y92226D01*
D02*
G37*
G36*
X199390D02*
Y88610D01*
X203006D01*
X202868Y89306D01*
X201754Y90974D01*
X200086Y92088D01*
X199390Y92226D01*
D02*
G37*
G36*
X196850D02*
X196154Y92088D01*
X194486Y90974D01*
X193372Y89306D01*
X193234Y88610D01*
X196850D01*
Y92226D01*
D02*
G37*
G36*
X203006Y86070D02*
X199390D01*
Y82454D01*
X200086Y82592D01*
X201754Y83706D01*
X202868Y85373D01*
X203006Y86070D01*
D02*
G37*
G36*
X196850D02*
X193234D01*
X193372Y85373D01*
X194486Y83706D01*
X196154Y82592D01*
X196850Y82454D01*
Y86070D01*
D02*
G37*
G36*
X459496Y85090D02*
X455880D01*
Y81474D01*
X456576Y81612D01*
X458244Y82726D01*
X459358Y84394D01*
X459496Y85090D01*
D02*
G37*
G36*
X222250Y86070D02*
X218634D01*
X218772Y85373D01*
X219886Y83706D01*
X221553Y82592D01*
X222250Y82454D01*
Y86070D01*
D02*
G37*
G36*
X279206Y88900D02*
X275590D01*
Y85284D01*
X276287Y85422D01*
X277954Y86536D01*
X279068Y88203D01*
X279206Y88900D01*
D02*
G37*
G36*
X273050D02*
X269434D01*
X269572Y88203D01*
X270686Y86536D01*
X272353Y85422D01*
X273050Y85284D01*
Y88900D01*
D02*
G37*
G36*
X228406Y86070D02*
X224790D01*
Y82454D01*
X225487Y82592D01*
X227154Y83706D01*
X228268Y85373D01*
X228406Y86070D01*
D02*
G37*
G36*
X657860Y299161D02*
X657163Y299022D01*
X655496Y297908D01*
X654382Y296241D01*
X654244Y295545D01*
X657860D01*
Y299161D01*
D02*
G37*
G36*
X647700D02*
Y295545D01*
X651316D01*
X651178Y296241D01*
X650064Y297908D01*
X648397Y299022D01*
X647700Y299161D01*
D02*
G37*
G36*
X645160D02*
X644464Y299022D01*
X642796Y297908D01*
X641682Y296241D01*
X641544Y295545D01*
X645160D01*
Y299161D01*
D02*
G37*
G36*
X660400D02*
Y295545D01*
X664016D01*
X663878Y296241D01*
X662764Y297908D01*
X661096Y299022D01*
X660400Y299161D01*
D02*
G37*
G36*
X80010Y312179D02*
X78644Y311907D01*
X77487Y311133D01*
X76713Y309976D01*
X76441Y308610D01*
X76713Y307244D01*
X77487Y306087D01*
X78644Y305313D01*
X79510Y305141D01*
X79758Y303895D01*
X78948Y303354D01*
X77834Y301686D01*
X77695Y300990D01*
X87467D01*
X87329Y301686D01*
X86215Y303354D01*
X84548Y304468D01*
X82756Y304824D01*
X82508Y306070D01*
X82533Y306087D01*
X83307Y307244D01*
X83579Y308610D01*
X83307Y309976D01*
X82533Y311133D01*
X81376Y311907D01*
X80010Y312179D01*
D02*
G37*
G36*
X166859Y300990D02*
X163243D01*
Y297374D01*
X163939Y297512D01*
X165607Y298626D01*
X166721Y300294D01*
X166859Y300990D01*
D02*
G37*
G36*
X160703D02*
X157087D01*
X157225Y300294D01*
X158339Y298626D01*
X160007Y297512D01*
X160703Y297374D01*
Y300990D01*
D02*
G37*
G36*
X651316Y293005D02*
X647700D01*
Y289389D01*
X648397Y289527D01*
X650064Y290641D01*
X651178Y292308D01*
X651316Y293005D01*
D02*
G37*
G36*
X645160D02*
X641544D01*
X641682Y292308D01*
X642796Y290641D01*
X644464Y289527D01*
X645160Y289389D01*
Y293005D01*
D02*
G37*
G36*
X197722Y294319D02*
X196357Y294047D01*
X195199Y293273D01*
X194425Y292116D01*
X194154Y290750D01*
X194425Y289384D01*
X195199Y288227D01*
X196357Y287453D01*
X197722Y287181D01*
X199088Y287453D01*
X200245Y288227D01*
X201019Y289384D01*
X201291Y290750D01*
X201019Y292116D01*
X200245Y293273D01*
X199088Y294047D01*
X197722Y294319D01*
D02*
G37*
G36*
X657860Y293005D02*
X654244D01*
X654382Y292308D01*
X655496Y290641D01*
X657163Y289527D01*
X657860Y289389D01*
Y293005D01*
D02*
G37*
G36*
X87467Y298450D02*
X83851D01*
Y294834D01*
X84548Y294972D01*
X86215Y296086D01*
X87329Y297754D01*
X87467Y298450D01*
D02*
G37*
G36*
X81311D02*
X77695D01*
X77834Y297754D01*
X78948Y296086D01*
X80615Y294972D01*
X81311Y294834D01*
Y298450D01*
D02*
G37*
G36*
X664016Y293005D02*
X660400D01*
Y289389D01*
X661096Y289527D01*
X662764Y290641D01*
X663878Y292308D01*
X664016Y293005D01*
D02*
G37*
G36*
X280476Y311040D02*
X276860D01*
Y307424D01*
X277556Y307563D01*
X279224Y308676D01*
X280338Y310344D01*
X280476Y311040D01*
D02*
G37*
G36*
X274320D02*
X270704D01*
X270842Y310344D01*
X271956Y308676D01*
X273624Y307563D01*
X274320Y307424D01*
Y311040D01*
D02*
G37*
G36*
X243526Y310000D02*
X239910D01*
Y306384D01*
X240607Y306522D01*
X242274Y307636D01*
X243388Y309303D01*
X243526Y310000D01*
D02*
G37*
G36*
X318770Y313043D02*
X318074Y312904D01*
X316406Y311790D01*
X315292Y310123D01*
X315154Y309426D01*
X318770D01*
Y313043D01*
D02*
G37*
G36*
X210502Y313690D02*
X206886D01*
Y310074D01*
X207583Y310212D01*
X209250Y311326D01*
X210364Y312994D01*
X210502Y313690D01*
D02*
G37*
G36*
X204346D02*
X200730D01*
X200869Y312994D01*
X201983Y311326D01*
X203650Y310212D01*
X204346Y310074D01*
Y313690D01*
D02*
G37*
G36*
X321310Y313043D02*
Y309426D01*
X324926D01*
X324788Y310123D01*
X323674Y311790D01*
X322006Y312904D01*
X321310Y313043D01*
D02*
G37*
G36*
X156210Y313449D02*
X154844Y313177D01*
X153687Y312403D01*
X152913Y311246D01*
X152641Y309880D01*
X152913Y308514D01*
X153687Y307357D01*
X154844Y306583D01*
X156210Y306311D01*
X157360Y306540D01*
X158066Y305484D01*
X157225Y304226D01*
X157087Y303530D01*
X160703D01*
Y307146D01*
X160007Y307008D01*
X159992Y306998D01*
X159094Y307896D01*
X159507Y308514D01*
X159779Y309880D01*
X159507Y311246D01*
X158733Y312403D01*
X157576Y313177D01*
X156210Y313449D01*
D02*
G37*
G36*
X324926Y306886D02*
X321310D01*
Y303270D01*
X322006Y303409D01*
X323674Y304523D01*
X324788Y306190D01*
X324926Y306886D01*
D02*
G37*
G36*
X318770D02*
X315154D01*
X315292Y306190D01*
X316406Y304523D01*
X318074Y303409D01*
X318770Y303270D01*
Y306886D01*
D02*
G37*
G36*
X163243Y307146D02*
Y303530D01*
X166859D01*
X166721Y304226D01*
X165607Y305894D01*
X163939Y307008D01*
X163243Y307146D01*
D02*
G37*
G36*
X237370Y310000D02*
X233754D01*
X233892Y309303D01*
X235007Y307636D01*
X236674Y306522D01*
X237370Y306384D01*
Y310000D01*
D02*
G37*
G36*
X168910Y313449D02*
X167544Y313177D01*
X166387Y312403D01*
X165613Y311246D01*
X165341Y309880D01*
X165613Y308514D01*
X166387Y307357D01*
X167544Y306583D01*
X168910Y306311D01*
X170276Y306583D01*
X171433Y307357D01*
X172207Y308514D01*
X172479Y309880D01*
X172207Y311246D01*
X171433Y312403D01*
X170276Y313177D01*
X168910Y313449D01*
D02*
G37*
G36*
X92710Y312179D02*
X91344Y311907D01*
X90187Y311133D01*
X89413Y309976D01*
X89141Y308610D01*
X89413Y307244D01*
X90187Y306087D01*
X91344Y305313D01*
X92710Y305041D01*
X94076Y305313D01*
X95233Y306087D01*
X96007Y307244D01*
X96279Y308610D01*
X96007Y309976D01*
X95233Y311133D01*
X94076Y311907D01*
X92710Y312179D01*
D02*
G37*
G36*
X271780Y290636D02*
Y287020D01*
X275396D01*
X275258Y287717D01*
X274144Y289384D01*
X272477Y290498D01*
X271780Y290636D01*
D02*
G37*
G36*
X663748Y280481D02*
X660132D01*
Y276865D01*
X660828Y277004D01*
X662495Y278118D01*
X663609Y279785D01*
X663748Y280481D01*
D02*
G37*
G36*
X657592D02*
X653976D01*
X654114Y279785D01*
X655228Y278118D01*
X656895Y277004D01*
X657592Y276865D01*
Y280481D01*
D02*
G37*
G36*
X651316D02*
X647700D01*
Y276865D01*
X648397Y277004D01*
X650064Y278118D01*
X651178Y279785D01*
X651316Y280481D01*
D02*
G37*
G36*
X216794Y280906D02*
X216097Y280767D01*
X214430Y279653D01*
X213316Y277986D01*
X213178Y277290D01*
X216794D01*
Y280906D01*
D02*
G37*
G36*
X275396Y284480D02*
X271780D01*
Y280864D01*
X272477Y281002D01*
X274144Y282116D01*
X275258Y283783D01*
X275396Y284480D01*
D02*
G37*
G36*
X269240D02*
X265624D01*
X265762Y283783D01*
X266876Y282116D01*
X268543Y281002D01*
X269240Y280864D01*
Y284480D01*
D02*
G37*
G36*
X219334Y280906D02*
Y277290D01*
X222950D01*
X222812Y277986D01*
X221698Y279653D01*
X220030Y280767D01*
X219334Y280906D01*
D02*
G37*
G36*
X143510Y275581D02*
X142814Y275443D01*
X141146Y274329D01*
X140032Y272662D01*
X139894Y271965D01*
X143510D01*
Y275581D01*
D02*
G37*
G36*
X222950Y274750D02*
X219334D01*
Y271134D01*
X220030Y271272D01*
X221698Y272386D01*
X222812Y274053D01*
X222950Y274750D01*
D02*
G37*
G36*
X216794D02*
X213178D01*
X213316Y274053D01*
X214430Y272386D01*
X216097Y271272D01*
X216794Y271134D01*
Y274750D01*
D02*
G37*
G36*
X146050Y275581D02*
Y271965D01*
X149666D01*
X149528Y272662D01*
X148414Y274329D01*
X146747Y275443D01*
X146050Y275581D01*
D02*
G37*
G36*
X645160Y280481D02*
X641544D01*
X641682Y279785D01*
X642796Y278118D01*
X644464Y277004D01*
X645160Y276865D01*
Y280481D01*
D02*
G37*
G36*
X205328Y276922D02*
Y273306D01*
X208944D01*
X208806Y274002D01*
X207692Y275669D01*
X206024Y276783D01*
X205328Y276922D01*
D02*
G37*
G36*
X202788D02*
X202092Y276783D01*
X200424Y275669D01*
X199310Y274002D01*
X199172Y273306D01*
X202788D01*
Y276922D01*
D02*
G37*
G36*
X434340Y303465D02*
X432056Y303165D01*
X429927Y302283D01*
X428099Y300881D01*
X426697Y299053D01*
X425815Y296924D01*
X425514Y294640D01*
X425815Y292356D01*
X426697Y290227D01*
X428099Y288399D01*
X429927Y286997D01*
X432056Y286115D01*
X434340Y285814D01*
X436624Y286115D01*
X438753Y286997D01*
X440581Y288399D01*
X441983Y290227D01*
X442865Y292356D01*
X443166Y294640D01*
X442865Y296924D01*
X441983Y299053D01*
X440581Y300881D01*
X438753Y302283D01*
X436624Y303165D01*
X434340Y303465D01*
D02*
G37*
G36*
X408940D02*
X406656Y303165D01*
X404527Y302283D01*
X402699Y300881D01*
X401297Y299053D01*
X400415Y296924D01*
X400115Y294640D01*
X400415Y292356D01*
X401297Y290227D01*
X402699Y288399D01*
X404527Y286997D01*
X406656Y286115D01*
X408940Y285814D01*
X411224Y286115D01*
X413353Y286997D01*
X415181Y288399D01*
X416583Y290227D01*
X417465Y292356D01*
X417766Y294640D01*
X417465Y296924D01*
X416583Y299053D01*
X415181Y300881D01*
X413353Y302283D01*
X411224Y303165D01*
X408940Y303465D01*
D02*
G37*
G36*
X383540D02*
X381256Y303165D01*
X379127Y302283D01*
X377299Y300881D01*
X375897Y299053D01*
X375015Y296924D01*
X374715Y294640D01*
X375015Y292356D01*
X375897Y290227D01*
X377299Y288399D01*
X379127Y286997D01*
X381256Y286115D01*
X383540Y285814D01*
X385824Y286115D01*
X387953Y286997D01*
X389781Y288399D01*
X391183Y290227D01*
X392065Y292356D01*
X392365Y294640D01*
X392065Y296924D01*
X391183Y299053D01*
X389781Y300881D01*
X387953Y302283D01*
X385824Y303165D01*
X383540Y303465D01*
D02*
G37*
G36*
X459740D02*
X457456Y303165D01*
X455327Y302283D01*
X453499Y300881D01*
X452097Y299053D01*
X451215Y296924D01*
X450914Y294640D01*
X451215Y292356D01*
X452097Y290227D01*
X453499Y288399D01*
X455327Y286997D01*
X457456Y286115D01*
X459740Y285814D01*
X462024Y286115D01*
X464153Y286997D01*
X465981Y288399D01*
X467383Y290227D01*
X468265Y292356D01*
X468565Y294640D01*
X468265Y296924D01*
X467383Y299053D01*
X465981Y300881D01*
X464153Y302283D01*
X462024Y303165D01*
X459740Y303465D01*
D02*
G37*
G36*
X269240Y290636D02*
X268543Y290498D01*
X266876Y289384D01*
X265762Y287717D01*
X265624Y287020D01*
X269240D01*
Y290636D01*
D02*
G37*
G36*
X104180Y293129D02*
X102814Y292857D01*
X101657Y292083D01*
X100883Y290926D01*
X100611Y289560D01*
X100883Y288194D01*
X101657Y287037D01*
X102814Y286263D01*
X104180Y285991D01*
X105546Y286263D01*
X106703Y287037D01*
X107477Y288194D01*
X107748Y289560D01*
X107477Y290926D01*
X106703Y292083D01*
X105546Y292857D01*
X104180Y293129D01*
D02*
G37*
G36*
X493890Y303390D02*
X476390D01*
Y285890D01*
X493890D01*
Y303390D01*
D02*
G37*
G36*
X657592Y286637D02*
X656895Y286499D01*
X655228Y285385D01*
X654114Y283718D01*
X653976Y283021D01*
X657592D01*
Y286637D01*
D02*
G37*
G36*
X647700D02*
Y283021D01*
X651316D01*
X651178Y283718D01*
X650064Y285385D01*
X648397Y286499D01*
X647700Y286637D01*
D02*
G37*
G36*
X645160D02*
X644464Y286499D01*
X642796Y285385D01*
X641682Y283718D01*
X641544Y283021D01*
X645160D01*
Y286637D01*
D02*
G37*
G36*
X660132D02*
Y283021D01*
X663748D01*
X663609Y283718D01*
X662495Y285385D01*
X660828Y286499D01*
X660132Y286637D01*
D02*
G37*
G36*
X358140Y303465D02*
X355856Y303165D01*
X353727Y302283D01*
X351899Y300881D01*
X350497Y299053D01*
X349615Y296924D01*
X349314Y294640D01*
X349615Y292356D01*
X350497Y290227D01*
X351899Y288399D01*
X353727Y286997D01*
X355856Y286115D01*
X358140Y285814D01*
X360424Y286115D01*
X362553Y286997D01*
X364381Y288399D01*
X365783Y290227D01*
X366665Y292356D01*
X366965Y294640D01*
X366665Y296924D01*
X365783Y299053D01*
X364381Y300881D01*
X362553Y302283D01*
X360424Y303165D01*
X358140Y303465D01*
D02*
G37*
G36*
X332740D02*
X330456Y303165D01*
X328327Y302283D01*
X326499Y300881D01*
X325097Y299053D01*
X324215Y296924D01*
X323914Y294640D01*
X324215Y292356D01*
X325097Y290227D01*
X326499Y288399D01*
X328327Y286997D01*
X330456Y286115D01*
X332740Y285814D01*
X335024Y286115D01*
X337153Y286997D01*
X338981Y288399D01*
X340383Y290227D01*
X341265Y292356D01*
X341566Y294640D01*
X341265Y296924D01*
X340383Y299053D01*
X338981Y300881D01*
X337153Y302283D01*
X335024Y303165D01*
X332740Y303465D01*
D02*
G37*
G36*
X190500Y289718D02*
X189134Y289447D01*
X187977Y288673D01*
X187203Y287516D01*
X186931Y286150D01*
X187101Y285299D01*
X186045Y284593D01*
X185516Y284947D01*
X184150Y285218D01*
X182784Y284947D01*
X181627Y284173D01*
X180853Y283015D01*
X180581Y281650D01*
X180853Y280284D01*
X181627Y279126D01*
X182784Y278353D01*
X184150Y278081D01*
X185516Y278353D01*
X186673Y279126D01*
X187447Y280284D01*
X187719Y281650D01*
X187549Y282501D01*
X188605Y283206D01*
X189134Y282853D01*
X190500Y282581D01*
X191866Y282853D01*
X193023Y283626D01*
X193797Y284784D01*
X194069Y286150D01*
X193797Y287516D01*
X193023Y288673D01*
X191866Y289447D01*
X190500Y289718D01*
D02*
G37*
G36*
X408600Y412897D02*
X407903Y412758D01*
X406236Y411644D01*
X405122Y409977D01*
X404983Y409281D01*
X408600D01*
Y412897D01*
D02*
G37*
G36*
X414756Y406740D02*
X411139D01*
Y403124D01*
X411836Y403263D01*
X413503Y404377D01*
X414617Y406044D01*
X414756Y406740D01*
D02*
G37*
G36*
X408600D02*
X404983D01*
X405122Y406044D01*
X406236Y404377D01*
X407903Y403263D01*
X408600Y403124D01*
Y406740D01*
D02*
G37*
G36*
X411139Y412897D02*
Y409281D01*
X414756D01*
X414617Y409977D01*
X413503Y411644D01*
X411836Y412758D01*
X411139Y412897D01*
D02*
G37*
G36*
X156210Y423939D02*
X154844Y423667D01*
X153687Y422893D01*
X152913Y421736D01*
X152641Y420370D01*
X152913Y419004D01*
X153687Y417847D01*
X154844Y417073D01*
X156210Y416801D01*
X157576Y417073D01*
X158733Y417847D01*
X159507Y419004D01*
X159779Y420370D01*
X159507Y421736D01*
X158733Y422893D01*
X157576Y423667D01*
X156210Y423939D01*
D02*
G37*
G36*
X673100Y456977D02*
X669179Y456591D01*
X665409Y455447D01*
X661935Y453590D01*
X658889Y451091D01*
X656390Y448045D01*
X654533Y444571D01*
X653389Y440801D01*
X653003Y436880D01*
X653389Y432959D01*
X654533Y429189D01*
X656390Y425715D01*
X658889Y422669D01*
X661935Y420170D01*
X665409Y418313D01*
X669179Y417169D01*
X673100Y416783D01*
X677021Y417169D01*
X680791Y418313D01*
X684265Y420170D01*
X687311Y422669D01*
X689810Y425715D01*
X691667Y429189D01*
X692811Y432959D01*
X693197Y436880D01*
X692811Y440801D01*
X691667Y444571D01*
X689810Y448045D01*
X687311Y451091D01*
X684265Y453590D01*
X680791Y455447D01*
X677021Y456591D01*
X673100Y456977D01*
D02*
G37*
G36*
X215086Y420129D02*
X213721Y419857D01*
X212563Y419083D01*
X211789Y417926D01*
X211518Y416560D01*
X211789Y415194D01*
X212563Y414037D01*
X213721Y413263D01*
X215086Y412991D01*
X216452Y413263D01*
X217610Y414037D01*
X218383Y415194D01*
X218655Y416560D01*
X218383Y417926D01*
X217610Y419083D01*
X216452Y419857D01*
X215086Y420129D01*
D02*
G37*
G36*
X437240Y398580D02*
X415240D01*
Y376580D01*
X437240D01*
Y398580D01*
D02*
G37*
G36*
X370840Y398675D02*
X367968Y398297D01*
X365293Y397188D01*
X362995Y395425D01*
X361231Y393127D01*
X360123Y390452D01*
X359745Y387580D01*
X360123Y384708D01*
X361231Y382033D01*
X362995Y379735D01*
X365293Y377971D01*
X367968Y376863D01*
X370840Y376485D01*
X373712Y376863D01*
X376387Y377971D01*
X378685Y379735D01*
X380448Y382033D01*
X381557Y384708D01*
X381935Y387580D01*
X381557Y390452D01*
X380448Y393127D01*
X378685Y395425D01*
X376387Y397188D01*
X373712Y398297D01*
X370840Y398675D01*
D02*
G37*
G36*
X315440D02*
X312568Y398297D01*
X309893Y397188D01*
X307595Y395425D01*
X305832Y393127D01*
X304723Y390452D01*
X304345Y387580D01*
X304723Y384708D01*
X305832Y382033D01*
X307595Y379735D01*
X309893Y377971D01*
X312568Y376863D01*
X315440Y376485D01*
X318312Y376863D01*
X320988Y377971D01*
X323285Y379735D01*
X325048Y382033D01*
X326157Y384708D01*
X326535Y387580D01*
X326157Y390452D01*
X325048Y393127D01*
X323285Y395425D01*
X320988Y397188D01*
X318312Y398297D01*
X315440Y398675D01*
D02*
G37*
G36*
X67310Y401079D02*
X65944Y400807D01*
X64787Y400033D01*
X64013Y398876D01*
X63741Y397510D01*
X63976Y396331D01*
Y388752D01*
X63951D01*
X64305Y384254D01*
X65359Y379865D01*
X65554Y379393D01*
X64499Y378688D01*
X64407Y378779D01*
X64283Y378862D01*
X61627Y382099D01*
X59584Y385921D01*
X58325Y390069D01*
X57915Y394236D01*
X57944Y394382D01*
Y396331D01*
X58179Y397510D01*
X57907Y398876D01*
X57133Y400033D01*
X55976Y400807D01*
X54610Y401079D01*
X53244Y400807D01*
X52087Y400033D01*
X51313Y398876D01*
X51041Y397510D01*
X51276Y396331D01*
Y394382D01*
X51251D01*
X51605Y389883D01*
X52659Y385495D01*
X54386Y381326D01*
X56744Y377478D01*
X59675Y374047D01*
X59692Y374064D01*
X103554Y330202D01*
X103537Y330185D01*
X106968Y327254D01*
X110816Y324896D01*
X114985Y323169D01*
X119373Y322115D01*
X123872Y321761D01*
Y321786D01*
X380257D01*
Y321761D01*
X384755Y322115D01*
X389143Y323169D01*
X393313Y324896D01*
X397160Y327254D01*
X398051Y328015D01*
X399030Y328209D01*
X400111Y328932D01*
X408096Y336916D01*
X408096Y336917D01*
X408282Y337195D01*
X410256Y339506D01*
X412614Y343354D01*
X414341Y347523D01*
X414544Y348369D01*
X415262Y348463D01*
X417937Y349571D01*
X420235Y351335D01*
X421998Y353633D01*
X423107Y356308D01*
X423485Y359180D01*
X423107Y362052D01*
X421998Y364727D01*
X420235Y367025D01*
X417937Y368788D01*
X415262Y369897D01*
X412390Y370275D01*
X409518Y369897D01*
X406842Y368788D01*
X404545Y367025D01*
X403077Y365112D01*
X401874Y365520D01*
Y377055D01*
X404087Y377971D01*
X406385Y379735D01*
X408148Y382033D01*
X409257Y384708D01*
X409635Y387580D01*
X409257Y390452D01*
X408148Y393127D01*
X406385Y395425D01*
X404087Y397188D01*
X401412Y398297D01*
X398540Y398675D01*
X395668Y398297D01*
X392993Y397188D01*
X390695Y395425D01*
X388932Y393127D01*
X387823Y390452D01*
X387445Y387580D01*
X387823Y384708D01*
X388932Y382033D01*
X390695Y379735D01*
X392993Y377971D01*
X395206Y377055D01*
Y365520D01*
X394003Y365112D01*
X392535Y367025D01*
X390237Y368788D01*
X387562Y369897D01*
X384690Y370275D01*
X381818Y369897D01*
X379142Y368788D01*
X376845Y367025D01*
X375081Y364727D01*
X373973Y362052D01*
X373595Y359180D01*
X373973Y356308D01*
X375081Y353633D01*
X376845Y351335D01*
X379142Y349571D01*
X381818Y348463D01*
X384690Y348085D01*
X387562Y348463D01*
X390237Y349571D01*
X392535Y351335D01*
X394003Y353248D01*
X395206Y352840D01*
Y352820D01*
X395239Y352651D01*
X394789Y349230D01*
X393403Y345885D01*
X391303Y343147D01*
X391160Y343052D01*
X389134Y341026D01*
X389051Y340902D01*
X385814Y338245D01*
X381992Y336202D01*
X377844Y334944D01*
X373973Y334563D01*
X124834D01*
X124687Y334534D01*
X120520Y334944D01*
X116373Y336202D01*
X112550Y338245D01*
X109314Y340902D01*
X109231Y341026D01*
X77107Y373149D01*
X76983Y373232D01*
X74327Y376469D01*
X72284Y380291D01*
X71025Y384439D01*
X70615Y388606D01*
X70644Y388752D01*
Y396331D01*
X70879Y397510D01*
X70607Y398876D01*
X69833Y400033D01*
X68676Y400807D01*
X67310Y401079D01*
D02*
G37*
G36*
X24130Y418819D02*
X21911Y418527D01*
X19843Y417670D01*
X18068Y416308D01*
X16705Y414532D01*
X15849Y412464D01*
X15557Y410245D01*
X15849Y408026D01*
X16705Y405959D01*
X18068Y404183D01*
X19843Y402821D01*
X21911Y401964D01*
X22687Y401862D01*
X23015Y400635D01*
X21878Y399762D01*
X21302D01*
X19527Y401125D01*
X17459Y401981D01*
X15240Y402273D01*
X13021Y401981D01*
X10953Y401125D01*
X9178Y399762D01*
X7815Y397987D01*
X6959Y395919D01*
X6667Y393700D01*
X6959Y391481D01*
X7815Y389413D01*
X9178Y387638D01*
Y387239D01*
X7815Y385463D01*
X6959Y383395D01*
X6667Y381176D01*
X6959Y378957D01*
X7815Y376890D01*
X9178Y375114D01*
Y374715D01*
X7815Y372939D01*
X6959Y370872D01*
X6667Y368653D01*
X6959Y366434D01*
X7815Y364366D01*
X9178Y362590D01*
X9551Y362304D01*
X9551Y361662D01*
X8189Y359887D01*
X7333Y357819D01*
X7040Y355600D01*
X7333Y353381D01*
X8189Y351313D01*
X9551Y349538D01*
Y349139D01*
X8189Y347363D01*
X7333Y345295D01*
X7040Y343076D01*
X7333Y340857D01*
X8189Y338790D01*
X9551Y337014D01*
Y336615D01*
X8189Y334839D01*
X7333Y332772D01*
X7040Y330553D01*
X7333Y328334D01*
X8189Y326266D01*
X9551Y324491D01*
Y323562D01*
X8189Y321787D01*
X7333Y319719D01*
X7040Y317500D01*
X7333Y315281D01*
X8189Y313213D01*
X9551Y311438D01*
Y311039D01*
X8189Y309263D01*
X7333Y307195D01*
X7040Y304976D01*
X7333Y302757D01*
X8189Y300690D01*
X9551Y298914D01*
Y298515D01*
X8189Y296739D01*
X7333Y294672D01*
X7040Y292453D01*
X7333Y290234D01*
X8189Y288166D01*
X9551Y286390D01*
X11327Y285028D01*
X13395Y284172D01*
X15614Y283879D01*
X17833Y284172D01*
X19900Y285028D01*
X21676Y286390D01*
X22252D01*
X24027Y285028D01*
X26095Y284172D01*
X28314Y283879D01*
X30533Y284172D01*
X32600Y285028D01*
X34376Y286390D01*
X35738Y288166D01*
X36595Y290234D01*
X36887Y292453D01*
X36595Y294672D01*
X35738Y296739D01*
X34376Y298515D01*
X34376Y298515D01*
X34108Y298914D01*
X35470Y300690D01*
X36326Y302757D01*
X36619Y304976D01*
X36326Y307195D01*
X35470Y309263D01*
X34108Y311039D01*
X34376Y311438D01*
X34376Y311438D01*
X35738Y313213D01*
X36595Y315281D01*
X36887Y317500D01*
X36595Y319719D01*
X35738Y321787D01*
X34376Y323562D01*
Y324491D01*
X35738Y326266D01*
X36595Y328334D01*
X36887Y330553D01*
X36595Y332772D01*
X35738Y334839D01*
X34376Y336615D01*
X34376Y336615D01*
X34108Y337014D01*
X35470Y338790D01*
X36326Y340857D01*
X36619Y343076D01*
X36326Y345295D01*
X35470Y347363D01*
X34108Y349139D01*
X34376Y349538D01*
X34376Y349538D01*
X35738Y351313D01*
X36595Y353381D01*
X36887Y355600D01*
X36595Y357819D01*
X35738Y359887D01*
X34376Y361662D01*
X34002Y362590D01*
D01*
X35365Y364366D01*
X36221Y366434D01*
X36513Y368653D01*
X36221Y370872D01*
X35365Y372939D01*
X34002Y374715D01*
X34002Y374715D01*
X33734Y375114D01*
X35096Y376890D01*
X35953Y378957D01*
X36245Y381176D01*
X35953Y383395D01*
X35096Y385463D01*
X33734Y387239D01*
X34002Y387638D01*
X34002Y387638D01*
X35365Y389413D01*
X36221Y391481D01*
X36513Y393700D01*
X36221Y395919D01*
X35365Y397987D01*
X34002Y399762D01*
X32227Y401125D01*
X30159Y401981D01*
X29383Y402083D01*
X29055Y403310D01*
X30192Y404183D01*
X31555Y405959D01*
X32411Y408026D01*
X32703Y410245D01*
X32411Y412464D01*
X31555Y414532D01*
X30192Y416308D01*
X28417Y417670D01*
X26349Y418527D01*
X24130Y418819D01*
D02*
G37*
G36*
X92806Y388474D02*
X91440Y388203D01*
X90282Y387429D01*
X89509Y386271D01*
X89237Y384906D01*
X89509Y383540D01*
X90282Y382382D01*
X91440Y381609D01*
X92806Y381337D01*
X94171Y381609D01*
X95329Y382382D01*
X96103Y383540D01*
X96374Y384906D01*
X96103Y386271D01*
X95329Y387429D01*
X94171Y388203D01*
X92806Y388474D01*
D02*
G37*
G36*
X80010Y388379D02*
X78644Y388107D01*
X77487Y387333D01*
X76713Y386176D01*
X76441Y384810D01*
X76713Y383444D01*
X77487Y382287D01*
X78644Y381513D01*
X80010Y381241D01*
X81376Y381513D01*
X82533Y382287D01*
X83307Y383444D01*
X83579Y384810D01*
X83307Y386176D01*
X82533Y387333D01*
X81376Y388107D01*
X80010Y388379D01*
D02*
G37*
G36*
X300990Y449679D02*
X299624Y449407D01*
X298467Y448634D01*
X297693Y447476D01*
X297421Y446110D01*
X297693Y444745D01*
X298467Y443587D01*
X299624Y442814D01*
X300990Y442542D01*
X302356Y442814D01*
X303513Y443587D01*
X304287Y444745D01*
X304559Y446110D01*
X304287Y447476D01*
X303513Y448634D01*
X302356Y449407D01*
X300990Y449679D01*
D02*
G37*
G36*
X191770Y445529D02*
X190404Y445257D01*
X189247Y444483D01*
X188473Y443326D01*
X188201Y441960D01*
X188473Y440594D01*
X189247Y439437D01*
X190404Y438663D01*
X191770Y438391D01*
X193136Y438663D01*
X194293Y439437D01*
X195067Y440594D01*
X195339Y441960D01*
X195067Y443326D01*
X194293Y444483D01*
X193136Y445257D01*
X191770Y445529D01*
D02*
G37*
G36*
X636270Y453375D02*
Y438150D01*
X651495D01*
X651301Y440122D01*
X650355Y443240D01*
X648819Y446114D01*
X646752Y448632D01*
X644234Y450699D01*
X641360Y452235D01*
X638242Y453181D01*
X636270Y453375D01*
D02*
G37*
G36*
X467912Y492443D02*
X465693Y492151D01*
X463625Y491295D01*
X461850Y489932D01*
X461850Y489932D01*
X461451Y489664D01*
X459675Y491026D01*
X457607Y491883D01*
X455388Y492175D01*
X453170Y491883D01*
X451102Y491026D01*
X449326Y489664D01*
X448927Y489932D01*
X448927Y489932D01*
X447151Y491295D01*
X445084Y492151D01*
X442865Y492443D01*
X440646Y492151D01*
X438578Y491295D01*
X436802Y489932D01*
X435440Y488157D01*
X434584Y486089D01*
X434291Y483870D01*
X434584Y481651D01*
X435440Y479583D01*
X436802Y477808D01*
Y477232D01*
X435440Y475457D01*
X434584Y473389D01*
X434291Y471170D01*
X434584Y468951D01*
X435440Y466883D01*
X436802Y465108D01*
X438578Y463745D01*
X440646Y462889D01*
X442865Y462597D01*
X445084Y462889D01*
X447151Y463745D01*
X448927Y465108D01*
X449326D01*
X451102Y463745D01*
X453170Y462889D01*
X455388Y462597D01*
X457607Y462889D01*
X459675Y463745D01*
X461451Y465108D01*
X461850D01*
X463625Y463745D01*
X465693Y462889D01*
X467912Y462597D01*
X470131Y462889D01*
X472199Y463745D01*
X473974Y465108D01*
X475337Y466883D01*
X476193Y468951D01*
X476485Y471170D01*
X476193Y473389D01*
X475337Y475457D01*
X473974Y477232D01*
Y477808D01*
X475337Y479583D01*
X476193Y481651D01*
X476485Y483870D01*
X476193Y486089D01*
X475337Y488157D01*
X473974Y489932D01*
X472199Y491295D01*
X470131Y492151D01*
X467912Y492443D01*
D02*
G37*
G36*
X289320Y493713D02*
X287101Y493421D01*
X285033Y492565D01*
X283258Y491202D01*
X283258Y491202D01*
X282858Y490934D01*
X281083Y492296D01*
X279015Y493153D01*
X276796Y493445D01*
X274577Y493153D01*
X272509Y492296D01*
X270734Y490934D01*
X270335Y491202D01*
X270335Y491202D01*
X268559Y492565D01*
X266492Y493421D01*
X264273Y493713D01*
X262054Y493421D01*
X259986Y492565D01*
X258210Y491202D01*
X256848Y489427D01*
X255991Y487359D01*
X255699Y485140D01*
X255991Y482921D01*
X256848Y480853D01*
X258210Y479078D01*
Y478502D01*
X256848Y476727D01*
X255991Y474659D01*
X255699Y472440D01*
X255991Y470221D01*
X256848Y468153D01*
X258210Y466378D01*
X259986Y465015D01*
X262054Y464159D01*
X264273Y463867D01*
X266492Y464159D01*
X268559Y465015D01*
X270335Y466378D01*
X270734D01*
X272509Y465015D01*
X274577Y464159D01*
X276796Y463867D01*
X279015Y464159D01*
X281083Y465015D01*
X282858Y466378D01*
X283258D01*
X285033Y465015D01*
X287101Y464159D01*
X289320Y463867D01*
X291539Y464159D01*
X293606Y465015D01*
X295382Y466378D01*
X296744Y468153D01*
X297601Y470221D01*
X297893Y472440D01*
X297601Y474659D01*
X296744Y476727D01*
X295382Y478502D01*
Y479078D01*
X296744Y480853D01*
X297601Y482921D01*
X297893Y485140D01*
X297601Y487359D01*
X296744Y489427D01*
X295382Y491202D01*
X293606Y492565D01*
X291539Y493421D01*
X289320Y493713D01*
D02*
G37*
G36*
X119219D02*
X117000Y493421D01*
X114932Y492565D01*
X113156Y491202D01*
X113156Y491202D01*
X112757Y490934D01*
X110982Y492296D01*
X108914Y493153D01*
X106695Y493445D01*
X104476Y493153D01*
X102408Y492296D01*
X100633Y490934D01*
X100233Y491202D01*
X100233Y491202D01*
X98458Y492565D01*
X96390Y493421D01*
X94171Y493713D01*
X91952Y493421D01*
X89885Y492565D01*
X88109Y491202D01*
X86747Y489427D01*
X85890Y487359D01*
X85598Y485140D01*
X85890Y482921D01*
X86747Y480853D01*
X88109Y479078D01*
Y478502D01*
X86747Y476727D01*
X85890Y474659D01*
X85598Y472440D01*
X85890Y470221D01*
X86747Y468153D01*
X88109Y466378D01*
X89885Y465015D01*
X91952Y464159D01*
X94171Y463867D01*
X96390Y464159D01*
X98458Y465015D01*
X100233Y466378D01*
X100633D01*
X102408Y465015D01*
X104476Y464159D01*
X106695Y463867D01*
X108914Y464159D01*
X110982Y465015D01*
X112757Y466378D01*
X113156D01*
X114932Y465015D01*
X117000Y464159D01*
X119219Y463867D01*
X121438Y464159D01*
X123505Y465015D01*
X125281Y466378D01*
X126643Y468153D01*
X127500Y470221D01*
X127792Y472440D01*
X127500Y474659D01*
X126643Y476727D01*
X125281Y478502D01*
Y479078D01*
X126643Y480853D01*
X127500Y482921D01*
X127792Y485140D01*
X127500Y487359D01*
X126643Y489427D01*
X125281Y491202D01*
X123505Y492565D01*
X121438Y493421D01*
X119219Y493713D01*
D02*
G37*
G36*
X635917Y492443D02*
X633698Y492151D01*
X631631Y491295D01*
X629855Y489932D01*
X629855Y489932D01*
X629456Y489664D01*
X627680Y491026D01*
X625613Y491883D01*
X623394Y492175D01*
X621175Y491883D01*
X619107Y491026D01*
X617331Y489664D01*
X616932Y489932D01*
X616932Y489932D01*
X615157Y491295D01*
X613089Y492151D01*
X610870Y492443D01*
X608651Y492151D01*
X606583Y491295D01*
X604808Y489932D01*
X603445Y488157D01*
X602589Y486089D01*
X602297Y483870D01*
X602589Y481651D01*
X603445Y479583D01*
X604808Y477808D01*
Y477232D01*
X603445Y475457D01*
X602589Y473389D01*
X602297Y471170D01*
X602589Y468951D01*
X603445Y466883D01*
X604808Y465108D01*
X606583Y463745D01*
X608651Y462889D01*
X610870Y462597D01*
X613089Y462889D01*
X615157Y463745D01*
X616932Y465108D01*
X617331D01*
X619107Y463745D01*
X621175Y462889D01*
X623394Y462597D01*
X625613Y462889D01*
X627680Y463745D01*
X629456Y465108D01*
X629855D01*
X631631Y463745D01*
X633698Y462889D01*
X635917Y462597D01*
X638136Y462889D01*
X640204Y463745D01*
X641980Y465108D01*
X643342Y466883D01*
X644199Y468951D01*
X644491Y471170D01*
X644199Y473389D01*
X643342Y475457D01*
X641980Y477232D01*
Y477808D01*
X643342Y479583D01*
X644199Y481651D01*
X644491Y483870D01*
X644199Y486089D01*
X643342Y488157D01*
X641980Y489932D01*
X640204Y491295D01*
X638136Y492151D01*
X635917Y492443D01*
D02*
G37*
G36*
X651495Y435610D02*
X636270D01*
Y420385D01*
X638242Y420579D01*
X641360Y421525D01*
X644234Y423061D01*
X646752Y425128D01*
X648819Y427646D01*
X650355Y430520D01*
X651301Y433638D01*
X651495Y435610D01*
D02*
G37*
G36*
X633730D02*
X618505D01*
X618699Y433638D01*
X619645Y430520D01*
X621181Y427646D01*
X623248Y425128D01*
X625766Y423061D01*
X628640Y421525D01*
X631758Y420579D01*
X633730Y420385D01*
Y435610D01*
D02*
G37*
G36*
X168910Y423939D02*
X167544Y423667D01*
X166387Y422893D01*
X165613Y421736D01*
X165341Y420370D01*
X165613Y419004D01*
X166387Y417847D01*
X167544Y417073D01*
X168910Y416801D01*
X170276Y417073D01*
X171433Y417847D01*
X172207Y419004D01*
X172479Y420370D01*
X172207Y421736D01*
X171433Y422893D01*
X170276Y423667D01*
X168910Y423939D01*
D02*
G37*
G36*
X596900Y452957D02*
X593764Y452649D01*
X590747Y451734D01*
X587968Y450248D01*
X585532Y448248D01*
X583532Y445812D01*
X582046Y443033D01*
X581132Y440017D01*
X580823Y436880D01*
X581132Y433744D01*
X582046Y430727D01*
X583532Y427948D01*
X585532Y425512D01*
X587968Y423512D01*
X590747Y422026D01*
X593764Y421111D01*
X596900Y420803D01*
X600037Y421111D01*
X603053Y422026D01*
X605832Y423512D01*
X608269Y425512D01*
X610268Y427948D01*
X611754Y430727D01*
X612668Y433744D01*
X612977Y436880D01*
X612668Y440017D01*
X611754Y443033D01*
X610268Y445812D01*
X608269Y448248D01*
X605832Y450248D01*
X603053Y451734D01*
X600037Y452649D01*
X596900Y452957D01*
D02*
G37*
G36*
X633730Y453375D02*
X631758Y453181D01*
X628640Y452235D01*
X625766Y450699D01*
X623248Y448632D01*
X621181Y446114D01*
X619645Y443240D01*
X618699Y440122D01*
X618505Y438150D01*
X633730D01*
Y453375D01*
D02*
G37*
G36*
X92710Y450261D02*
X90551Y449977D01*
X88539Y449143D01*
X86812Y447818D01*
X85486Y446090D01*
X84653Y444078D01*
X84369Y441919D01*
X84653Y439761D01*
X85486Y437749D01*
X86812Y436021D01*
X88539Y434696D01*
X90551Y433862D01*
X92710Y433578D01*
X94869Y433862D01*
X96881Y434696D01*
X98608Y436021D01*
X99934Y437749D01*
X100767Y439761D01*
X101051Y441919D01*
X100767Y444078D01*
X99934Y446090D01*
X98608Y447818D01*
X96881Y449143D01*
X94869Y449977D01*
X92710Y450261D01*
D02*
G37*
G36*
X549910Y432829D02*
X548544Y432557D01*
X547387Y431783D01*
X546613Y430626D01*
X546341Y429260D01*
X546613Y427894D01*
X547387Y426737D01*
X548544Y425963D01*
X549910Y425691D01*
X551276Y425963D01*
X552433Y426737D01*
X553207Y427894D01*
X553479Y429260D01*
X553207Y430626D01*
X552433Y431783D01*
X551276Y432557D01*
X549910Y432829D01*
D02*
G37*
G36*
X714386Y370171D02*
X712167Y369879D01*
X710100Y369022D01*
X708324Y367659D01*
X707748D01*
X705973Y369022D01*
X703905Y369879D01*
X701686Y370171D01*
X699467Y369879D01*
X697400Y369022D01*
X695624Y367659D01*
X694262Y365884D01*
X693405Y363816D01*
X693113Y361597D01*
X693405Y359378D01*
X694262Y357311D01*
X695624Y355535D01*
X695624Y355535D01*
X695892Y355136D01*
X694530Y353360D01*
X693673Y351293D01*
X693381Y349074D01*
X693673Y346855D01*
X694530Y344787D01*
X695892Y343011D01*
X695624Y342612D01*
X695624Y342612D01*
X694262Y340837D01*
X693405Y338769D01*
X693113Y336550D01*
X693405Y334331D01*
X694262Y332263D01*
X695624Y330488D01*
X697400Y329125D01*
X699467Y328269D01*
X701686Y327977D01*
X703905Y328269D01*
X705973Y329125D01*
X707748Y330488D01*
X708324D01*
X710100Y329125D01*
X712167Y328269D01*
X714386Y327977D01*
X716605Y328269D01*
X718673Y329125D01*
X720449Y330488D01*
X721811Y332263D01*
X722667Y334331D01*
X722960Y336550D01*
X722667Y338769D01*
X721811Y340837D01*
X720449Y342612D01*
Y343011D01*
X721811Y344787D01*
X722667Y346855D01*
X722960Y349074D01*
X722667Y351293D01*
X721811Y353360D01*
X720449Y355136D01*
Y355535D01*
X721811Y357311D01*
X722667Y359378D01*
X722960Y361597D01*
X722667Y363816D01*
X721811Y365884D01*
X720449Y367659D01*
X718673Y369022D01*
X716605Y369879D01*
X714386Y370171D01*
D02*
G37*
G36*
X652607Y326196D02*
X651910Y326058D01*
X650243Y324944D01*
X649129Y323276D01*
X648990Y322580D01*
X652607D01*
Y326196D01*
D02*
G37*
G36*
X658763Y320040D02*
X655147D01*
Y316424D01*
X655843Y316562D01*
X657510Y317676D01*
X658624Y319343D01*
X658763Y320040D01*
D02*
G37*
G36*
X652607D02*
X648990D01*
X649129Y319343D01*
X650243Y317676D01*
X651910Y316562D01*
X652607Y316424D01*
Y320040D01*
D02*
G37*
G36*
X655147Y326196D02*
Y322580D01*
X658763D01*
X658624Y323276D01*
X657510Y324944D01*
X655843Y326058D01*
X655147Y326196D01*
D02*
G37*
G36*
X485140Y331229D02*
X483774Y330957D01*
X482617Y330183D01*
X481843Y329026D01*
X481571Y327660D01*
X481843Y326294D01*
X482617Y325137D01*
X483774Y324363D01*
X485140Y324091D01*
X486506Y324363D01*
X487663Y325137D01*
X488437Y326294D01*
X488709Y327660D01*
X488437Y329026D01*
X487663Y330183D01*
X486506Y330957D01*
X485140Y331229D01*
D02*
G37*
G36*
X459740D02*
X458374Y330957D01*
X457217Y330183D01*
X456443Y329026D01*
X456171Y327660D01*
X456443Y326294D01*
X457217Y325137D01*
X458374Y324363D01*
X459740Y324091D01*
X461106Y324363D01*
X462263Y325137D01*
X463037Y326294D01*
X463309Y327660D01*
X463037Y329026D01*
X462263Y330183D01*
X461106Y330957D01*
X459740Y331229D01*
D02*
G37*
G36*
X447040D02*
X445674Y330957D01*
X444517Y330183D01*
X443743Y329026D01*
X443471Y327660D01*
X443743Y326294D01*
X444517Y325137D01*
X445674Y324363D01*
X447040Y324091D01*
X448406Y324363D01*
X449563Y325137D01*
X450337Y326294D01*
X450609Y327660D01*
X450337Y329026D01*
X449563Y330183D01*
X448406Y330957D01*
X447040Y331229D01*
D02*
G37*
G36*
X274320Y317196D02*
X273624Y317058D01*
X271956Y315944D01*
X270842Y314277D01*
X270704Y313580D01*
X274320D01*
Y317196D01*
D02*
G37*
G36*
X239910Y316156D02*
Y312540D01*
X243526D01*
X243388Y313236D01*
X242274Y314904D01*
X240607Y316017D01*
X239910Y316156D01*
D02*
G37*
G36*
X237370D02*
X236674Y316017D01*
X235007Y314904D01*
X233892Y313236D01*
X233754Y312540D01*
X237370D01*
Y316156D01*
D02*
G37*
G36*
X276860Y317196D02*
Y313580D01*
X280476D01*
X280338Y314277D01*
X279224Y315944D01*
X277556Y317058D01*
X276860Y317196D01*
D02*
G37*
G36*
X206886Y319846D02*
Y316230D01*
X210502D01*
X210364Y316926D01*
X209250Y318594D01*
X207583Y319708D01*
X206886Y319846D01*
D02*
G37*
G36*
X204346D02*
X203650Y319708D01*
X201983Y318594D01*
X200869Y316926D01*
X200730Y316230D01*
X204346D01*
Y319846D01*
D02*
G37*
G36*
X570230Y322339D02*
X568864Y322067D01*
X567707Y321293D01*
X566933Y320136D01*
X566661Y318770D01*
X566933Y317404D01*
X567707Y316247D01*
X568864Y315473D01*
X570230Y315201D01*
X571596Y315473D01*
X572753Y316247D01*
X573527Y317404D01*
X573799Y318770D01*
X573527Y320136D01*
X572753Y321293D01*
X571596Y322067D01*
X570230Y322339D01*
D02*
G37*
G36*
X124318Y360486D02*
X123621Y360348D01*
X121954Y359234D01*
X120840Y357566D01*
X120702Y356870D01*
X124318D01*
Y360486D01*
D02*
G37*
G36*
X146674Y354330D02*
X143058D01*
Y350714D01*
X143755Y350852D01*
X145422Y351966D01*
X146536Y353633D01*
X146674Y354330D01*
D02*
G37*
G36*
X140518D02*
X136902D01*
X137041Y353633D01*
X138155Y351966D01*
X139822Y350852D01*
X140518Y350714D01*
Y354330D01*
D02*
G37*
G36*
X126858Y360486D02*
Y356870D01*
X130474D01*
X130335Y357566D01*
X129221Y359234D01*
X127554Y360348D01*
X126858Y360486D01*
D02*
G37*
G36*
X608330Y368415D02*
X606964Y368143D01*
X605807Y367369D01*
X605033Y366212D01*
X604761Y364846D01*
X605033Y363480D01*
X605807Y362323D01*
X606964Y361549D01*
X608330Y361278D01*
X609696Y361549D01*
X610853Y362323D01*
X611627Y363480D01*
X611899Y364846D01*
X611627Y366212D01*
X610853Y367369D01*
X609696Y368143D01*
X608330Y368415D01*
D02*
G37*
G36*
X143058Y360486D02*
Y356870D01*
X146674D01*
X146536Y357566D01*
X145422Y359234D01*
X143755Y360348D01*
X143058Y360486D01*
D02*
G37*
G36*
X140518D02*
X139822Y360348D01*
X138155Y359234D01*
X137041Y357566D01*
X136902Y356870D01*
X140518D01*
Y360486D01*
D02*
G37*
G36*
X495790Y401968D02*
X491318Y401616D01*
X486956Y400569D01*
X482811Y398852D01*
X478986Y396508D01*
X475575Y393595D01*
X472662Y390184D01*
X470318Y386359D01*
X468601Y382214D01*
X467554Y377852D01*
X467202Y373380D01*
X467554Y368908D01*
X468601Y364546D01*
X470318Y360401D01*
X472662Y356576D01*
X475575Y353165D01*
X478986Y350252D01*
X482811Y347908D01*
X486956Y346191D01*
X491318Y345144D01*
X495790Y344792D01*
X500262Y345144D01*
X504624Y346191D01*
X508769Y347908D01*
X512594Y350252D01*
X516005Y353165D01*
X518918Y356576D01*
X521262Y360401D01*
X522979Y364546D01*
X524026Y368908D01*
X524378Y373380D01*
X524026Y377852D01*
X522979Y382214D01*
X521262Y386359D01*
X518918Y390184D01*
X516005Y393595D01*
X512594Y396508D01*
X508769Y398852D01*
X504624Y400569D01*
X500262Y401616D01*
X495790Y401968D01*
D02*
G37*
G36*
X644246Y349009D02*
X642880Y348737D01*
X641723Y347963D01*
X640949Y346806D01*
X640677Y345440D01*
X640949Y344074D01*
X641723Y342917D01*
X642880Y342143D01*
X644246Y341871D01*
X645612Y342143D01*
X646769Y342917D01*
X647543Y344074D01*
X647815Y345440D01*
X647543Y346806D01*
X646769Y347963D01*
X645612Y348737D01*
X644246Y349009D01*
D02*
G37*
G36*
X650240Y343015D02*
X648874Y342743D01*
X647717Y341969D01*
X646943Y340812D01*
X646671Y339446D01*
X646943Y338080D01*
X647717Y336923D01*
X648874Y336149D01*
X650240Y335877D01*
X651606Y336149D01*
X652763Y336923D01*
X653537Y338080D01*
X653809Y339446D01*
X653537Y340812D01*
X652763Y341969D01*
X651606Y342743D01*
X650240Y343015D01*
D02*
G37*
G36*
X572770Y352819D02*
X571404Y352547D01*
X570247Y351773D01*
X569473Y350616D01*
X569201Y349250D01*
X569473Y347884D01*
X570247Y346727D01*
X571404Y345953D01*
X572770Y345681D01*
X574136Y345953D01*
X575293Y346727D01*
X576067Y347884D01*
X576339Y349250D01*
X576067Y350616D01*
X575293Y351773D01*
X574136Y352547D01*
X572770Y352819D01*
D02*
G37*
G36*
X130474Y354330D02*
X126858D01*
Y350714D01*
X127554Y350852D01*
X129221Y351966D01*
X130335Y353633D01*
X130474Y354330D01*
D02*
G37*
G36*
X124318D02*
X120702D01*
X120840Y353633D01*
X121954Y351966D01*
X123621Y350852D01*
X124318Y350714D01*
Y354330D01*
D02*
G37*
G36*
X245890Y401968D02*
X241418Y401616D01*
X237056Y400569D01*
X232911Y398852D01*
X229086Y396508D01*
X225675Y393595D01*
X222762Y390184D01*
X220418Y386359D01*
X218701Y382214D01*
X217654Y377852D01*
X217302Y373380D01*
X217654Y368908D01*
X218701Y364546D01*
X220418Y360401D01*
X222762Y356576D01*
X225675Y353165D01*
X228965Y350356D01*
X228525Y349164D01*
X190899D01*
X190781Y349223D01*
X190781Y349223D01*
X190762Y349231D01*
X190742Y349239D01*
X190742Y349239D01*
X190659D01*
X147651Y392248D01*
X147658Y392255D01*
X147641Y392281D01*
Y392281D01*
X147640Y392281D01*
X147063Y393145D01*
X146854Y394195D01*
X146844D01*
Y396331D01*
X147079Y397510D01*
X146807Y398876D01*
X146033Y400033D01*
X144876Y400807D01*
X143510Y401079D01*
X142144Y400807D01*
X140987Y400033D01*
X140213Y398876D01*
X139941Y397510D01*
X140176Y396331D01*
Y394519D01*
X139003Y394032D01*
X134001Y399034D01*
X133333Y400033D01*
X132176Y400807D01*
X130810Y401079D01*
X129444Y400807D01*
X128287Y400033D01*
X127513Y398876D01*
X127241Y397510D01*
X127513Y396144D01*
X128287Y394987D01*
X129286Y394319D01*
X182219Y341386D01*
X182219Y341386D01*
X182193Y341360D01*
X184626Y339493D01*
X187459Y338320D01*
X190500Y337920D01*
Y337956D01*
X338520D01*
X338967Y337867D01*
X339011D01*
X339428Y337950D01*
X343248Y338326D01*
X347237Y339536D01*
X350913Y341501D01*
X354135Y344145D01*
X356779Y347367D01*
X357176Y348110D01*
X359862Y348463D01*
X362537Y349571D01*
X364835Y351335D01*
X366599Y353633D01*
X367707Y356308D01*
X368085Y359180D01*
X367707Y362052D01*
X366599Y364727D01*
X364835Y367025D01*
X362537Y368788D01*
X359862Y369897D01*
X356990Y370275D01*
X354118Y369897D01*
X351442Y368788D01*
X349145Y367025D01*
X347677Y365112D01*
X346474Y365520D01*
Y377055D01*
X348687Y377971D01*
X350985Y379735D01*
X352748Y382033D01*
X353857Y384708D01*
X354235Y387580D01*
X353857Y390452D01*
X352748Y393127D01*
X350985Y395425D01*
X348687Y397188D01*
X346012Y398297D01*
X343140Y398675D01*
X340268Y398297D01*
X337593Y397188D01*
X335295Y395425D01*
X333531Y393127D01*
X332423Y390452D01*
X332045Y387580D01*
X332423Y384708D01*
X333531Y382033D01*
X335295Y379735D01*
X337593Y377971D01*
X339806Y377055D01*
Y365520D01*
X338603Y365112D01*
X337135Y367025D01*
X334837Y368788D01*
X332162Y369897D01*
X329290Y370275D01*
X326418Y369897D01*
X323743Y368788D01*
X321445Y367025D01*
X319681Y364727D01*
X318573Y362052D01*
X318195Y359180D01*
X318573Y356308D01*
X319681Y353633D01*
X321445Y351335D01*
X322706Y350367D01*
X322298Y349164D01*
X263255D01*
X262815Y350356D01*
X266105Y353165D01*
X269018Y356576D01*
X271362Y360401D01*
X273079Y364546D01*
X274126Y368908D01*
X274478Y373380D01*
X274126Y377852D01*
X273079Y382214D01*
X271362Y386359D01*
X269018Y390184D01*
X266105Y393595D01*
X262694Y396508D01*
X258869Y398852D01*
X254724Y400569D01*
X250362Y401616D01*
X245890Y401968D01*
D02*
G37*
G36*
X486410Y278443D02*
Y270510D01*
X494343D01*
X494191Y271665D01*
X493255Y273925D01*
X491766Y275866D01*
X489825Y277355D01*
X487565Y278291D01*
X486410Y278443D01*
D02*
G37*
G36*
X654950Y218834D02*
X651334D01*
Y215218D01*
X652030Y215356D01*
X653697Y216470D01*
X654811Y218137D01*
X654950Y218834D01*
D02*
G37*
G36*
X648794D02*
X645178D01*
X645316Y218137D01*
X646430Y216470D01*
X648097Y215356D01*
X648794Y215218D01*
Y218834D01*
D02*
G37*
G36*
X493410Y227411D02*
X479410D01*
Y213411D01*
X493410D01*
Y227411D01*
D02*
G37*
G36*
X636270Y219102D02*
X632654D01*
X632792Y218406D01*
X633906Y216739D01*
X635574Y215625D01*
X636270Y215486D01*
Y219102D01*
D02*
G37*
G36*
X667473D02*
X663857D01*
Y215486D01*
X664554Y215625D01*
X666221Y216739D01*
X667335Y218406D01*
X667473Y219102D01*
D02*
G37*
G36*
X661317D02*
X657701D01*
X657840Y218406D01*
X658954Y216739D01*
X660621Y215625D01*
X661317Y215486D01*
Y219102D01*
D02*
G37*
G36*
X642426D02*
X638810D01*
Y215486D01*
X639506Y215625D01*
X641174Y216739D01*
X642288Y218406D01*
X642426Y219102D01*
D02*
G37*
G36*
X124460Y219469D02*
X123094Y219197D01*
X121937Y218423D01*
X121163Y217266D01*
X120891Y215900D01*
X121163Y214534D01*
X121937Y213377D01*
X123094Y212603D01*
X124460Y212331D01*
X125826Y212603D01*
X126983Y213377D01*
X127757Y214534D01*
X128029Y215900D01*
X127757Y217266D01*
X126983Y218423D01*
X125826Y219197D01*
X124460Y219469D01*
D02*
G37*
G36*
X395063Y215844D02*
X391447D01*
Y212228D01*
X392143Y212367D01*
X393810Y213480D01*
X394924Y215148D01*
X395063Y215844D01*
D02*
G37*
G36*
X388907D02*
X385291D01*
X385429Y215148D01*
X386543Y213480D01*
X388210Y212367D01*
X388907Y212228D01*
Y215844D01*
D02*
G37*
G36*
X294300Y216047D02*
X293603Y215908D01*
X291936Y214794D01*
X290822Y213127D01*
X290683Y212430D01*
X294300D01*
Y216047D01*
D02*
G37*
G36*
X468448Y219141D02*
X462280D01*
Y212973D01*
X462978Y213065D01*
X464813Y213825D01*
X466388Y215033D01*
X467596Y216609D01*
X468356Y218443D01*
X468448Y219141D01*
D02*
G37*
G36*
X459740D02*
X453572D01*
X453664Y218443D01*
X454424Y216609D01*
X455632Y215033D01*
X457207Y213825D01*
X459042Y213065D01*
X459740Y212973D01*
Y219141D01*
D02*
G37*
G36*
X296840Y216047D02*
Y212430D01*
X300456D01*
X300317Y213127D01*
X299203Y214794D01*
X297536Y215908D01*
X296840Y216047D01*
D02*
G37*
G36*
X636270Y225259D02*
X635574Y225120D01*
X633906Y224006D01*
X632792Y222339D01*
X632654Y221642D01*
X636270D01*
Y225259D01*
D02*
G37*
G36*
X651334Y224990D02*
Y221374D01*
X654950D01*
X654811Y222071D01*
X653697Y223738D01*
X652030Y224851D01*
X651334Y224990D01*
D02*
G37*
G36*
X648794D02*
X648097Y224851D01*
X646430Y223738D01*
X645316Y222071D01*
X645178Y221374D01*
X648794D01*
Y224990D01*
D02*
G37*
G36*
X638810Y225259D02*
Y221642D01*
X642426D01*
X642288Y222339D01*
X641174Y224006D01*
X639506Y225120D01*
X638810Y225259D01*
D02*
G37*
G36*
X459740Y227849D02*
X459042Y227757D01*
X457207Y226997D01*
X455632Y225789D01*
X454424Y224214D01*
X453664Y222379D01*
X453572Y221681D01*
X459740D01*
Y227849D01*
D02*
G37*
G36*
X663857Y225259D02*
Y221642D01*
X667473D01*
X667335Y222339D01*
X666221Y224006D01*
X664554Y225120D01*
X663857Y225259D01*
D02*
G37*
G36*
X661317D02*
X660621Y225120D01*
X658954Y224006D01*
X657840Y222339D01*
X657701Y221642D01*
X661317D01*
Y225259D01*
D02*
G37*
G36*
X388907Y222000D02*
X388210Y221862D01*
X386543Y220748D01*
X385429Y219081D01*
X385291Y218384D01*
X388907D01*
Y222000D01*
D02*
G37*
G36*
X102870Y220786D02*
Y217170D01*
X106486D01*
X106348Y217866D01*
X105234Y219534D01*
X103567Y220648D01*
X102870Y220786D01*
D02*
G37*
G36*
X100330D02*
X99634Y220648D01*
X97966Y219534D01*
X96852Y217866D01*
X96714Y217170D01*
X100330D01*
Y220786D01*
D02*
G37*
G36*
X391447Y222000D02*
Y218384D01*
X395063D01*
X394924Y219081D01*
X393810Y220748D01*
X392143Y221862D01*
X391447Y222000D01*
D02*
G37*
G36*
X182686Y224790D02*
X179070D01*
Y221174D01*
X179767Y221312D01*
X181434Y222426D01*
X182548Y224093D01*
X182686Y224790D01*
D02*
G37*
G36*
X165100D02*
X161484D01*
X161622Y224093D01*
X162736Y222426D01*
X164403Y221312D01*
X165100Y221174D01*
Y224790D01*
D02*
G37*
G36*
X133886Y226169D02*
X132520Y225897D01*
X131363Y225124D01*
X130589Y223966D01*
X130317Y222600D01*
X130589Y221235D01*
X131363Y220077D01*
X132520Y219304D01*
X133886Y219032D01*
X135252Y219304D01*
X136409Y220077D01*
X137183Y221235D01*
X137455Y222600D01*
X137183Y223966D01*
X136409Y225124D01*
X135252Y225897D01*
X133886Y226169D01*
D02*
G37*
G36*
X207679Y218199D02*
X206313Y217927D01*
X205156Y217153D01*
X204382Y215996D01*
X204110Y214630D01*
X204382Y213264D01*
X205156Y212107D01*
X206313Y211333D01*
X207679Y211061D01*
X209044Y211333D01*
X210202Y212107D01*
X210976Y213264D01*
X211248Y214630D01*
X210976Y215996D01*
X210202Y217153D01*
X209044Y217927D01*
X207679Y218199D01*
D02*
G37*
G36*
X648794Y206402D02*
X645178D01*
X645316Y205706D01*
X646430Y204039D01*
X648097Y202925D01*
X648794Y202786D01*
Y206402D01*
D02*
G37*
G36*
X642426D02*
X638810D01*
Y202786D01*
X639506Y202925D01*
X641174Y204039D01*
X642288Y205706D01*
X642426Y206402D01*
D02*
G37*
G36*
X636270D02*
X632654D01*
X632792Y205706D01*
X633906Y204039D01*
X635574Y202925D01*
X636270Y202786D01*
Y206402D01*
D02*
G37*
G36*
X654950D02*
X651334D01*
Y202786D01*
X652030Y202925D01*
X653697Y204039D01*
X654811Y205706D01*
X654950Y206402D01*
D02*
G37*
G36*
X607060Y210579D02*
X605694Y210307D01*
X604537Y209533D01*
X603763Y208376D01*
X603491Y207010D01*
X603763Y205644D01*
X604537Y204487D01*
X605694Y203713D01*
X607060Y203441D01*
X608426Y203713D01*
X609583Y204487D01*
X610357Y205644D01*
X610629Y207010D01*
X610357Y208376D01*
X609583Y209533D01*
X608426Y210307D01*
X607060Y210579D01*
D02*
G37*
G36*
X667473Y206402D02*
X663857D01*
Y202786D01*
X664554Y202925D01*
X666221Y204039D01*
X667335Y205706D01*
X667473Y206402D01*
D02*
G37*
G36*
X661317D02*
X657701D01*
X657840Y205706D01*
X658954Y204039D01*
X660621Y202925D01*
X661317Y202786D01*
Y206402D01*
D02*
G37*
G36*
X203200Y202229D02*
X201834Y201957D01*
X200677Y201184D01*
X199903Y200026D01*
X199631Y198661D01*
X199903Y197295D01*
X200677Y196137D01*
X201834Y195364D01*
X203200Y195092D01*
X204566Y195364D01*
X205723Y196137D01*
X206497Y197295D01*
X206769Y198661D01*
X206497Y200026D01*
X205723Y201184D01*
X204566Y201957D01*
X203200Y202229D01*
D02*
G37*
G36*
X433698Y197926D02*
Y194310D01*
X437314D01*
X437176Y195007D01*
X436062Y196674D01*
X434395Y197788D01*
X433698Y197926D01*
D02*
G37*
G36*
X431158D02*
X430462Y197788D01*
X428795Y196674D01*
X427681Y195007D01*
X427542Y194310D01*
X431158D01*
Y197926D01*
D02*
G37*
G36*
X549824Y204117D02*
X546208D01*
X546346Y203421D01*
X547460Y201754D01*
X549127Y200640D01*
X549824Y200501D01*
Y204117D01*
D02*
G37*
G36*
X568680D02*
X565064D01*
Y200501D01*
X565760Y200640D01*
X567427Y201754D01*
X568541Y203421D01*
X568680Y204117D01*
D02*
G37*
G36*
X562524D02*
X558908D01*
X559046Y203421D01*
X560160Y201754D01*
X561827Y200640D01*
X562524Y200501D01*
Y204117D01*
D02*
G37*
G36*
X555980D02*
X552364D01*
Y200501D01*
X553060Y200640D01*
X554728Y201754D01*
X555841Y203421D01*
X555980Y204117D01*
D02*
G37*
G36*
X651334Y212558D02*
Y208942D01*
X654950D01*
X654811Y209639D01*
X653697Y211306D01*
X652030Y212420D01*
X651334Y212558D01*
D02*
G37*
G36*
X648794D02*
X648097Y212420D01*
X646430Y211306D01*
X645316Y209639D01*
X645178Y208942D01*
X648794D01*
Y212558D01*
D02*
G37*
G36*
X638810D02*
Y208942D01*
X642426D01*
X642288Y209639D01*
X641174Y211306D01*
X639506Y212420D01*
X638810Y212558D01*
D02*
G37*
G36*
X661317D02*
X660621Y212420D01*
X658954Y211306D01*
X657840Y209639D01*
X657701Y208942D01*
X661317D01*
Y212558D01*
D02*
G37*
G36*
X106486Y214630D02*
X102870D01*
Y211014D01*
X103567Y211152D01*
X105234Y212266D01*
X106348Y213934D01*
X106486Y214630D01*
D02*
G37*
G36*
X100330D02*
X96714D01*
X96852Y213934D01*
X97966Y212266D01*
X99634Y211152D01*
X100330Y211014D01*
Y214630D01*
D02*
G37*
G36*
X663857Y212558D02*
Y208942D01*
X667473D01*
X667335Y209639D01*
X666221Y211306D01*
X664554Y212420D01*
X663857Y212558D01*
D02*
G37*
G36*
X549824Y210273D02*
X549127Y210135D01*
X547460Y209021D01*
X546346Y207354D01*
X546208Y206657D01*
X549824D01*
Y210273D01*
D02*
G37*
G36*
X73949Y208721D02*
Y205105D01*
X77565D01*
X77427Y205802D01*
X76313Y207469D01*
X74646Y208583D01*
X73949Y208721D01*
D02*
G37*
G36*
X71409D02*
X70712Y208583D01*
X69045Y207469D01*
X67931Y205802D01*
X67793Y205105D01*
X71409D01*
Y208721D01*
D02*
G37*
G36*
X552364Y210273D02*
Y206657D01*
X555980D01*
X555841Y207354D01*
X554728Y209021D01*
X553060Y210135D01*
X552364Y210273D01*
D02*
G37*
G36*
X636270Y212558D02*
X635574Y212420D01*
X633906Y211306D01*
X632792Y209639D01*
X632654Y208942D01*
X636270D01*
Y212558D01*
D02*
G37*
G36*
X565064Y210273D02*
Y206657D01*
X568680D01*
X568541Y207354D01*
X567427Y209021D01*
X565760Y210135D01*
X565064Y210273D01*
D02*
G37*
G36*
X562524D02*
X561827Y210135D01*
X560160Y209021D01*
X559046Y207354D01*
X558908Y206657D01*
X562524D01*
Y210273D01*
D02*
G37*
G36*
X645160Y267958D02*
X641544D01*
X641682Y267261D01*
X642796Y265594D01*
X644464Y264480D01*
X645160Y264342D01*
Y267958D01*
D02*
G37*
G36*
X85788Y270967D02*
X84423Y270695D01*
X83265Y269922D01*
X82492Y268764D01*
X82220Y267398D01*
X82492Y266033D01*
X83265Y264875D01*
X84423Y264102D01*
X85788Y263830D01*
X87154Y264102D01*
X88312Y264875D01*
X89085Y266033D01*
X89357Y267398D01*
X89085Y268764D01*
X88312Y269922D01*
X87154Y270695D01*
X85788Y270967D01*
D02*
G37*
G36*
X459740Y278065D02*
X457456Y277765D01*
X455327Y276883D01*
X453499Y275481D01*
X452097Y273653D01*
X451215Y271524D01*
X450914Y269240D01*
X451215Y266956D01*
X452097Y264827D01*
X453499Y262999D01*
X455327Y261597D01*
X457456Y260715D01*
X459740Y260415D01*
X462024Y260715D01*
X464153Y261597D01*
X465981Y262999D01*
X467383Y264827D01*
X468265Y266956D01*
X468565Y269240D01*
X468265Y271524D01*
X467383Y273653D01*
X465981Y275481D01*
X464153Y276883D01*
X462024Y277765D01*
X459740Y278065D01*
D02*
G37*
G36*
X651316Y267958D02*
X647700D01*
Y264342D01*
X648397Y264480D01*
X650064Y265594D01*
X651178Y267261D01*
X651316Y267958D01*
D02*
G37*
G36*
X106690Y268466D02*
X105994Y268327D01*
X104326Y267213D01*
X103213Y265546D01*
X103074Y264850D01*
X106690D01*
Y268466D01*
D02*
G37*
G36*
X664016Y267958D02*
X660400D01*
Y264342D01*
X661096Y264480D01*
X662764Y265594D01*
X663878Y267261D01*
X664016Y267958D01*
D02*
G37*
G36*
X657860D02*
X654244D01*
X654382Y267261D01*
X655496Y265594D01*
X657163Y264480D01*
X657860Y264342D01*
Y267958D01*
D02*
G37*
G36*
X494343Y267970D02*
X486410D01*
Y260037D01*
X487565Y260189D01*
X489825Y261125D01*
X491766Y262614D01*
X493255Y264555D01*
X494191Y266815D01*
X494343Y267970D01*
D02*
G37*
G36*
X483870D02*
X475937D01*
X476089Y266815D01*
X477025Y264555D01*
X478514Y262614D01*
X480455Y261125D01*
X482715Y260189D01*
X483870Y260037D01*
Y267970D01*
D02*
G37*
G36*
X341943D02*
X334010D01*
Y260037D01*
X335165Y260189D01*
X337425Y261125D01*
X339366Y262614D01*
X340855Y264555D01*
X341791Y266815D01*
X341943Y267970D01*
D02*
G37*
G36*
X358140Y278065D02*
X355856Y277765D01*
X353727Y276883D01*
X351899Y275481D01*
X350497Y273653D01*
X349615Y271524D01*
X349314Y269240D01*
X349615Y266956D01*
X350497Y264827D01*
X351899Y262999D01*
X353727Y261597D01*
X355856Y260715D01*
X358140Y260415D01*
X360424Y260715D01*
X362553Y261597D01*
X364381Y262999D01*
X365783Y264827D01*
X366665Y266956D01*
X366965Y269240D01*
X366665Y271524D01*
X365783Y273653D01*
X364381Y275481D01*
X362553Y276883D01*
X360424Y277765D01*
X358140Y278065D01*
D02*
G37*
G36*
X434340D02*
X432056Y277765D01*
X429927Y276883D01*
X428099Y275481D01*
X426697Y273653D01*
X425815Y271524D01*
X425514Y269240D01*
X425815Y266956D01*
X426697Y264827D01*
X428099Y262999D01*
X429927Y261597D01*
X432056Y260715D01*
X434340Y260415D01*
X436624Y260715D01*
X438753Y261597D01*
X440581Y262999D01*
X441983Y264827D01*
X442865Y266956D01*
X443166Y269240D01*
X442865Y271524D01*
X441983Y273653D01*
X440581Y275481D01*
X438753Y276883D01*
X436624Y277765D01*
X434340Y278065D01*
D02*
G37*
G36*
X408940D02*
X406656Y277765D01*
X404527Y276883D01*
X402699Y275481D01*
X401297Y273653D01*
X400415Y271524D01*
X400115Y269240D01*
X400415Y266956D01*
X401297Y264827D01*
X402699Y262999D01*
X404527Y261597D01*
X406656Y260715D01*
X408940Y260415D01*
X411224Y260715D01*
X413353Y261597D01*
X415181Y262999D01*
X416583Y264827D01*
X417465Y266956D01*
X417766Y269240D01*
X417465Y271524D01*
X416583Y273653D01*
X415181Y275481D01*
X413353Y276883D01*
X411224Y277765D01*
X408940Y278065D01*
D02*
G37*
G36*
X383540D02*
X381256Y277765D01*
X379127Y276883D01*
X377299Y275481D01*
X375897Y273653D01*
X375015Y271524D01*
X374715Y269240D01*
X375015Y266956D01*
X375897Y264827D01*
X377299Y262999D01*
X379127Y261597D01*
X381256Y260715D01*
X383540Y260415D01*
X385824Y260715D01*
X387953Y261597D01*
X389781Y262999D01*
X391183Y264827D01*
X392065Y266956D01*
X392365Y269240D01*
X392065Y271524D01*
X391183Y273653D01*
X389781Y275481D01*
X387953Y276883D01*
X385824Y277765D01*
X383540Y278065D01*
D02*
G37*
G36*
X657860Y274114D02*
X657163Y273975D01*
X655496Y272861D01*
X654382Y271194D01*
X654244Y270498D01*
X657860D01*
Y274114D01*
D02*
G37*
G36*
X647700D02*
Y270498D01*
X651316D01*
X651178Y271194D01*
X650064Y272861D01*
X648397Y273975D01*
X647700Y274114D01*
D02*
G37*
G36*
X645160D02*
X644464Y273975D01*
X642796Y272861D01*
X641682Y271194D01*
X641544Y270498D01*
X645160D01*
Y274114D01*
D02*
G37*
G36*
X660400D02*
Y270498D01*
X664016D01*
X663878Y271194D01*
X662764Y272861D01*
X661096Y273975D01*
X660400Y274114D01*
D02*
G37*
G36*
X483870Y278443D02*
X482715Y278291D01*
X480455Y277355D01*
X478514Y275866D01*
X477025Y273925D01*
X476089Y271665D01*
X475937Y270510D01*
X483870D01*
Y278443D01*
D02*
G37*
G36*
X334010D02*
Y270510D01*
X341943D01*
X341791Y271665D01*
X340855Y273925D01*
X339366Y275866D01*
X337425Y277355D01*
X335165Y278291D01*
X334010Y278443D01*
D02*
G37*
G36*
X331470D02*
X330315Y278291D01*
X328055Y277355D01*
X326114Y275866D01*
X324625Y273925D01*
X323689Y271665D01*
X323537Y270510D01*
X331470D01*
Y278443D01*
D02*
G37*
G36*
X149666Y269425D02*
X146050D01*
Y265809D01*
X146747Y265948D01*
X148414Y267062D01*
X149528Y268729D01*
X149666Y269425D01*
D02*
G37*
G36*
X143510D02*
X139894D01*
X140032Y268729D01*
X141146Y267062D01*
X142814Y265948D01*
X143510Y265809D01*
Y269425D01*
D02*
G37*
G36*
X109230Y268466D02*
Y264850D01*
X112846D01*
X112708Y265546D01*
X111594Y267213D01*
X109927Y268327D01*
X109230Y268466D01*
D02*
G37*
G36*
X202788Y270766D02*
X199172D01*
X199310Y270069D01*
X200424Y268402D01*
X202092Y267288D01*
X202788Y267150D01*
Y270766D01*
D02*
G37*
G36*
X184150Y275349D02*
X182784Y275077D01*
X181627Y274303D01*
X180853Y273146D01*
X180581Y271780D01*
X180853Y270414D01*
X181627Y269257D01*
X182784Y268483D01*
X184150Y268211D01*
X185516Y268483D01*
X186673Y269257D01*
X187447Y270414D01*
X187719Y271780D01*
X187447Y273146D01*
X186673Y274303D01*
X185516Y275077D01*
X184150Y275349D01*
D02*
G37*
G36*
X174719Y274620D02*
X173353Y274348D01*
X172196Y273574D01*
X171422Y272417D01*
X171150Y271051D01*
X171422Y269685D01*
X172196Y268528D01*
X173353Y267754D01*
X174719Y267482D01*
X176085Y267754D01*
X177242Y268528D01*
X178016Y269685D01*
X178288Y271051D01*
X178016Y272417D01*
X177242Y273574D01*
X176085Y274348D01*
X174719Y274620D01*
D02*
G37*
G36*
X208944Y270766D02*
X205328D01*
Y267150D01*
X206024Y267288D01*
X207692Y268402D01*
X208806Y270069D01*
X208944Y270766D01*
D02*
G37*
G36*
X331470Y267970D02*
X323537D01*
X323689Y266815D01*
X324625Y264555D01*
X326114Y262614D01*
X328055Y261125D01*
X330315Y260189D01*
X331470Y260037D01*
Y267970D01*
D02*
G37*
G36*
X214630Y242169D02*
X213264Y241897D01*
X212107Y241123D01*
X211333Y239966D01*
X211061Y238600D01*
X211333Y237234D01*
X212107Y236077D01*
X213264Y235303D01*
X214630Y235031D01*
X215996Y235303D01*
X217153Y236077D01*
X217927Y237234D01*
X218199Y238600D01*
X217927Y239966D01*
X217153Y241123D01*
X215996Y241897D01*
X214630Y242169D01*
D02*
G37*
G36*
X68899Y237490D02*
X65283D01*
Y233874D01*
X65980Y234012D01*
X67647Y235126D01*
X68761Y236793D01*
X68899Y237490D01*
D02*
G37*
G36*
X62743D02*
X59127D01*
X59265Y236793D01*
X60380Y235126D01*
X62047Y234012D01*
X62743Y233874D01*
Y237490D01*
D02*
G37*
G36*
X234135Y242169D02*
X232769Y241897D01*
X231612Y241123D01*
X230838Y239966D01*
X230566Y238600D01*
X230838Y237234D01*
X231612Y236077D01*
X232769Y235303D01*
X234135Y235031D01*
X235501Y235303D01*
X236658Y236077D01*
X237432Y237234D01*
X237704Y238600D01*
X237432Y239966D01*
X236658Y241123D01*
X235501Y241897D01*
X234135Y242169D01*
D02*
G37*
G36*
X165100Y240189D02*
X164403Y240051D01*
X162736Y238937D01*
X161622Y237270D01*
X161484Y236573D01*
X165100D01*
Y240189D01*
D02*
G37*
G36*
X176530D02*
X175833Y240051D01*
X174166Y238937D01*
X173052Y237270D01*
X172720Y235598D01*
X171450D01*
X171118Y237270D01*
X170004Y238937D01*
X168337Y240051D01*
X167640Y240189D01*
Y235303D01*
X166370D01*
Y234033D01*
X161484D01*
X161622Y233337D01*
X162736Y231669D01*
X163265Y231317D01*
Y230047D01*
X162736Y229694D01*
X161622Y228027D01*
X161484Y227330D01*
X166370D01*
Y226060D01*
X167640D01*
Y221174D01*
X168337Y221312D01*
X170004Y222426D01*
X171118Y224093D01*
X171450Y225765D01*
X172720D01*
X173052Y224093D01*
X174166Y222426D01*
X175833Y221312D01*
X176530Y221174D01*
Y226060D01*
X177800D01*
Y227330D01*
X182686D01*
X182548Y228027D01*
X181434Y229694D01*
X180905Y230047D01*
Y231317D01*
X181434Y231669D01*
X182548Y233337D01*
X182686Y234033D01*
X177800D01*
Y235303D01*
X176530D01*
Y240189D01*
D02*
G37*
G36*
X240030Y248679D02*
X238664Y248407D01*
X237507Y247633D01*
X236733Y246476D01*
X236461Y245110D01*
X236733Y243744D01*
X237507Y242587D01*
X238664Y241813D01*
X240030Y241541D01*
X241396Y241813D01*
X241674Y241999D01*
X241816Y241856D01*
D01*
X242572Y241101D01*
X241813Y239966D01*
X241541Y238600D01*
X241813Y237234D01*
X242587Y236077D01*
X243744Y235303D01*
X245110Y235031D01*
X246476Y235303D01*
X247633Y236077D01*
X248407Y237234D01*
X248679Y238600D01*
X248407Y239966D01*
X247633Y241123D01*
X246476Y241897D01*
X245110Y242169D01*
X243744Y241897D01*
X243466Y241711D01*
X243324Y241854D01*
D01*
X242568Y242609D01*
X243327Y243744D01*
X243599Y245110D01*
X243327Y246476D01*
X242553Y247633D01*
X241396Y248407D01*
X240030Y248679D01*
D02*
G37*
G36*
X313496Y225727D02*
X309880D01*
Y222111D01*
X310576Y222250D01*
X312244Y223364D01*
X313358Y225031D01*
X313496Y225727D01*
D02*
G37*
G36*
X307340D02*
X303724D01*
X303862Y225031D01*
X304976Y223364D01*
X306644Y222250D01*
X307340Y222111D01*
Y225727D01*
D02*
G37*
G36*
X462280Y227849D02*
Y221681D01*
X468448D01*
X468356Y222379D01*
X467596Y224214D01*
X466388Y225789D01*
X464813Y226997D01*
X462978Y227757D01*
X462280Y227849D01*
D02*
G37*
G36*
X124460Y233439D02*
X123094Y233167D01*
X121937Y232393D01*
X121163Y231236D01*
X120891Y229870D01*
X121163Y228504D01*
X121937Y227347D01*
X123094Y226573D01*
X124460Y226301D01*
X125826Y226573D01*
X126983Y227347D01*
X127757Y228504D01*
X128029Y229870D01*
X127757Y231236D01*
X126983Y232393D01*
X125826Y233167D01*
X124460Y233439D01*
D02*
G37*
G36*
X78050Y236668D02*
X76684Y236397D01*
X75527Y235623D01*
X74753Y234466D01*
X74482Y233100D01*
X74753Y231734D01*
X75527Y230576D01*
X76684Y229803D01*
X78050Y229531D01*
X79416Y229803D01*
X80574Y230576D01*
X81347Y231734D01*
X81619Y233100D01*
X81347Y234466D01*
X80574Y235623D01*
X79416Y236397D01*
X78050Y236668D01*
D02*
G37*
G36*
X309880Y231883D02*
Y228267D01*
X313496D01*
X313358Y228964D01*
X312244Y230631D01*
X310576Y231745D01*
X309880Y231883D01*
D02*
G37*
G36*
X307340D02*
X306644Y231745D01*
X304976Y230631D01*
X303862Y228964D01*
X303724Y228267D01*
X307340D01*
Y231883D01*
D02*
G37*
G36*
X392430Y255029D02*
X391064Y254757D01*
X389907Y253983D01*
X389133Y252826D01*
X388861Y251460D01*
X389133Y250094D01*
X389907Y248937D01*
X391064Y248163D01*
X392430Y247891D01*
X393796Y248163D01*
X394953Y248937D01*
X395727Y250094D01*
X395999Y251460D01*
X395727Y252826D01*
X394953Y253983D01*
X393796Y254757D01*
X392430Y255029D01*
D02*
G37*
G36*
X92710Y251266D02*
Y247650D01*
X96326D01*
X96188Y248347D01*
X95074Y250014D01*
X93406Y251128D01*
X92710Y251266D01*
D02*
G37*
G36*
X90170D02*
X89473Y251128D01*
X87806Y250014D01*
X86692Y248347D01*
X86554Y247650D01*
X90170D01*
Y251266D01*
D02*
G37*
G36*
X150266Y257162D02*
X148901Y256891D01*
X147743Y256117D01*
X146969Y254959D01*
X146698Y253594D01*
X146969Y252228D01*
X147743Y251070D01*
X148901Y250297D01*
X150266Y250025D01*
X151632Y250297D01*
X152790Y251070D01*
X153563Y252228D01*
X153835Y253594D01*
X153563Y254959D01*
X152790Y256117D01*
X151632Y256891D01*
X150266Y257162D01*
D02*
G37*
G36*
X112846Y262310D02*
X109230D01*
Y258694D01*
X109927Y258832D01*
X111594Y259946D01*
X112708Y261613D01*
X112846Y262310D01*
D02*
G37*
G36*
X106690D02*
X103074D01*
X103213Y261613D01*
X104326Y259946D01*
X105994Y258832D01*
X106690Y258694D01*
Y262310D01*
D02*
G37*
G36*
X516890Y261379D02*
X515524Y261107D01*
X514367Y260333D01*
X513593Y259176D01*
X513321Y257810D01*
X513593Y256444D01*
X514367Y255287D01*
X515524Y254513D01*
X516890Y254241D01*
X518256Y254513D01*
X519413Y255287D01*
X520187Y256444D01*
X520459Y257810D01*
X520187Y259176D01*
X519413Y260333D01*
X518256Y261107D01*
X516890Y261379D01*
D02*
G37*
G36*
X65283Y243646D02*
Y240030D01*
X68899D01*
X68761Y240727D01*
X67647Y242394D01*
X65980Y243508D01*
X65283Y243646D01*
D02*
G37*
G36*
X62743D02*
X62047Y243508D01*
X60380Y242394D01*
X59265Y240727D01*
X59127Y240030D01*
X62743D01*
Y243646D01*
D02*
G37*
G36*
X179070Y240189D02*
Y236573D01*
X182686D01*
X182548Y237270D01*
X181434Y238937D01*
X179767Y240051D01*
X179070Y240189D01*
D02*
G37*
G36*
X90170Y245110D02*
X86554D01*
X86692Y244414D01*
X87806Y242746D01*
X89473Y241632D01*
X90170Y241494D01*
Y245110D01*
D02*
G37*
G36*
X317970Y252829D02*
X316604Y252557D01*
X315447Y251784D01*
X314673Y250626D01*
X314401Y249261D01*
X314673Y247895D01*
X315447Y246737D01*
X316604Y245964D01*
X317970Y245692D01*
X319336Y245964D01*
X320493Y246737D01*
X321267Y247895D01*
X321539Y249261D01*
X321267Y250626D01*
X320493Y251784D01*
X319336Y252557D01*
X317970Y252829D01*
D02*
G37*
G36*
X228600Y248679D02*
X227234Y248407D01*
X226077Y247633D01*
X225303Y246476D01*
X225031Y245110D01*
X225303Y243744D01*
X226061Y242609D01*
X225306Y241854D01*
D01*
X225163Y241711D01*
X224886Y241897D01*
X223520Y242169D01*
X222154Y241897D01*
X220997Y241123D01*
X220223Y239966D01*
X219951Y238600D01*
X220223Y237234D01*
X220997Y236077D01*
X222154Y235303D01*
X223520Y235031D01*
X224886Y235303D01*
X226043Y236077D01*
X226817Y237234D01*
X227089Y238600D01*
X226817Y239966D01*
X226059Y241101D01*
X226814Y241856D01*
D01*
X226957Y241999D01*
X227234Y241813D01*
X228600Y241541D01*
X229966Y241813D01*
X231123Y242587D01*
X231897Y243744D01*
X232169Y245110D01*
X231897Y246476D01*
X231123Y247633D01*
X229966Y248407D01*
X228600Y248679D01*
D02*
G37*
G36*
X96326Y245110D02*
X92710D01*
Y241494D01*
X93406Y241632D01*
X95074Y242746D01*
X96188Y244414D01*
X96326Y245110D01*
D02*
G37*
%LPD*%
D28*
X461010Y220411D02*
D03*
D43*
X188343Y346840D02*
G03*
X190781Y345830I2438J2438D01*
G01*
X143510Y394195D02*
G03*
X145293Y389890I6088J0D01*
G01*
X184576Y343744D02*
G03*
X190500Y341290I5924J5924D01*
G01*
X106873Y338668D02*
G03*
X124834Y331229I17960J17960D01*
G01*
X67310Y388752D02*
G03*
X74749Y370792I25400J0D01*
G01*
X105912Y332560D02*
G03*
X123872Y325120I17960J17960D01*
G01*
X54610Y394382D02*
G03*
X62049Y376422I25400J0D01*
G01*
X405738Y339274D02*
G03*
X412390Y356410I-18748J17136D01*
G01*
X380257Y325120D02*
G03*
X398217Y332560I0J25400D01*
G01*
X373531Y331229D02*
G03*
X391491Y338668I0J25400D01*
G01*
X393517Y340694D02*
G03*
X398540Y352820I-12126J12126D01*
G01*
X339100Y341290D02*
G03*
X356990Y359180I0J17890D01*
G01*
X342772Y354592D02*
G03*
X343140Y357500I-11302J2908D01*
G01*
X334378Y346198D02*
G03*
X342772Y354592I-2908J11302D01*
G01*
X331470Y345830D02*
G03*
X334378Y346198I0J11670D01*
G01*
X145293Y389890D02*
X188343Y346840D01*
X190781Y345830D02*
X331470D01*
X143510Y394195D02*
Y397510D01*
X190500Y341290D02*
X339100D01*
X130810Y397510D02*
X184576Y343744D01*
X74749Y370792D02*
X106873Y338668D01*
X124834Y331229D02*
X373531D01*
X374227D01*
X67310Y388752D02*
Y397510D01*
X123872Y325120D02*
X380257D01*
X62049Y376422D02*
X105912Y332560D01*
X54610Y394382D02*
Y397510D01*
X405738Y339274D02*
X405738Y339274D01*
X397754Y331289D02*
X405738Y339274D01*
X391491Y338668D02*
X393517Y340694D01*
X412390Y356410D02*
Y359180D01*
X398540Y352820D02*
Y387580D01*
X338967Y341201D02*
X339011D01*
X343140Y357500D02*
Y387580D01*
D45*
X635000Y415896D02*
Y436880D01*
X649855Y422025D01*
X618490Y420370D02*
X635000Y436880D01*
D55*
X41910Y441919D02*
D03*
D56*
X635000Y436880D02*
D03*
D58*
X356990Y359180D02*
D03*
X412390D02*
D03*
X343140Y387580D02*
D03*
X398540D02*
D03*
D60*
X22000Y478000D02*
D03*
D62*
X485140Y269240D02*
D03*
X332740D02*
D03*
D64*
X229871Y203834D02*
D03*
X300989Y187959D02*
D03*
X300991Y86359D02*
D03*
D65*
X69849Y187960D02*
D03*
D66*
X123191Y86360D02*
D03*
D67*
X551094Y180340D02*
D03*
X563794D02*
D03*
X563526Y192864D02*
D03*
X563794Y205387D02*
D03*
X551094Y192864D02*
D03*
Y205387D02*
D03*
X125588Y355600D02*
D03*
X141788D02*
D03*
X653877Y321310D02*
D03*
X662587Y207672D02*
D03*
Y220372D02*
D03*
X650064Y220104D02*
D03*
X637540Y220372D02*
D03*
X650064Y207672D02*
D03*
X637540D02*
D03*
X646430Y269228D02*
D03*
X659130D02*
D03*
X658862Y281751D02*
D03*
X659130Y294275D02*
D03*
X646430Y281751D02*
D03*
Y294275D02*
D03*
X385566Y77470D02*
D03*
Y64770D02*
D03*
X398089Y65038D02*
D03*
X410613Y64770D02*
D03*
X398089Y77470D02*
D03*
X410613D02*
D03*
X369570Y439067D02*
D03*
X356870D02*
D03*
X369570Y426544D02*
D03*
X356870D02*
D03*
X369570Y414020D02*
D03*
X356870D02*
D03*
X409869Y408010D02*
D03*
X177800Y226060D02*
D03*
X166370D02*
D03*
X177800Y235303D02*
D03*
X166370D02*
D03*
X52070Y50800D02*
D03*
X69850D02*
D03*
X105490D02*
D03*
X121051Y116260D02*
D03*
X72679Y203835D02*
D03*
X390177Y217114D02*
D03*
X411480Y159039D02*
D03*
X551469Y154940D02*
D03*
X527050Y189519D02*
D03*
X261620Y157074D02*
D03*
Y169825D02*
D03*
X270510Y285750D02*
D03*
X205616Y314960D02*
D03*
X238640Y311270D02*
D03*
X101600Y215900D02*
D03*
X91440Y246380D02*
D03*
X107960Y263580D02*
D03*
X274320Y90170D02*
D03*
X223520Y87340D02*
D03*
X198120D02*
D03*
X384810Y114300D02*
D03*
X466165Y161579D02*
D03*
X454610Y86360D02*
D03*
Y60960D02*
D03*
Y137160D02*
D03*
Y111760D02*
D03*
X148590Y170180D02*
D03*
X87630Y156210D02*
D03*
X69850Y162560D02*
D03*
X154475Y128735D02*
D03*
X295569Y211161D02*
D03*
X166721Y170180D02*
D03*
X566690Y60960D02*
D03*
X676910Y53340D02*
D03*
X633730Y52070D02*
D03*
X432428Y193040D02*
D03*
X419905D02*
D03*
X432428Y180340D02*
D03*
X419905Y180608D02*
D03*
X407381Y180340D02*
D03*
Y193040D02*
D03*
X100330Y140970D02*
D03*
Y124460D02*
D03*
X81280D02*
D03*
X58420D02*
D03*
X218064Y276020D02*
D03*
X67310Y397510D02*
D03*
X54610D02*
D03*
X130810D02*
D03*
X143510D02*
D03*
X161973Y302260D02*
D03*
X144780Y270695D02*
D03*
X82581Y299720D02*
D03*
X204058Y272036D02*
D03*
X308610Y226997D02*
D03*
X64013Y238760D02*
D03*
X156210Y78740D02*
D03*
X275590Y312310D02*
D03*
X320040Y308156D02*
D03*
D69*
X229870Y203835D02*
X300990Y187960D01*
Y86360D02*
Y187960D01*
X22000Y478000D02*
X41910Y441919D01*
D70*
X353747Y427990D02*
D03*
M02*
