%FSLAX44Y44*%
%MOMM*%
G71*
G01*
G75*
G04 Layer_Color=8388736*
%ADD10R,0.6000X0.5000*%
%ADD11R,1.6000X1.2000*%
%ADD12R,0.5000X0.6000*%
%ADD13R,2.6200X3.5100*%
%ADD14O,2.0320X0.6096*%
%ADD15R,2.0320X0.6096*%
%ADD16R,1.2000X1.2500*%
%ADD17R,2.4000X1.2500*%
G04:AMPARAMS|DCode=18|XSize=1.5mm|YSize=1.4mm|CornerRadius=0mm|HoleSize=0mm|Usage=FLASHONLY|Rotation=45.000|XOffset=0mm|YOffset=0mm|HoleType=Round|Shape=Rectangle|*
%AMROTATEDRECTD18*
4,1,4,-0.0354,-1.0253,-1.0253,-0.0354,0.0354,1.0253,1.0253,0.0354,-0.0354,-1.0253,0.0*
%
%ADD18ROTATEDRECTD18*%

%ADD19R,1.2000X1.2000*%
%ADD20R,2.4000X0.8000*%
%ADD21R,5.0000X5.3000*%
%ADD22R,0.2000X0.8000*%
%ADD23R,0.1990X0.8000*%
%ADD24R,0.8000X0.2000*%
%ADD25R,0.8000X0.1990*%
%ADD26R,3.7000X3.7000*%
%ADD27R,0.8128X0.8128*%
%ADD28C,1.0000*%
%ADD29R,1.2954X1.6002*%
%ADD30R,0.7600X1.5600*%
%ADD31R,1.0668X0.8128*%
%ADD32R,1.2000X1.6000*%
G04:AMPARAMS|DCode=33|XSize=1.5mm|YSize=1.4mm|CornerRadius=0mm|HoleSize=0mm|Usage=FLASHONLY|Rotation=135.000|XOffset=0mm|YOffset=0mm|HoleType=Round|Shape=Rectangle|*
%AMROTATEDRECTD33*
4,1,4,1.0253,-0.0354,0.0354,-1.0253,-1.0253,0.0354,-0.0354,1.0253,1.0253,-0.0354,0.0*
%
%ADD33ROTATEDRECTD33*%

%ADD34R,1.1000X0.5000*%
%ADD35R,0.8890X1.0160*%
%ADD36R,1.3970X1.3970*%
%ADD37R,1.2000X1.4000*%
%ADD38R,1.2500X1.2000*%
%ADD39R,1.2500X2.4000*%
%ADD40R,0.8000X2.4000*%
%ADD41R,5.3000X5.0000*%
G04:AMPARAMS|DCode=42|XSize=2.4mm|YSize=2.8mm|CornerRadius=0mm|HoleSize=0mm|Usage=FLASHONLY|Rotation=135.000|XOffset=0mm|YOffset=0mm|HoleType=Round|Shape=Rectangle|*
%AMROTATEDRECTD42*
4,1,4,1.8385,0.1414,-0.1414,-1.8385,-1.8385,-0.1414,0.1414,1.8385,1.8385,0.1414,0.0*
%
%ADD42ROTATEDRECTD42*%

%ADD43C,0.2540*%
%ADD44C,0.1780*%
%ADD45C,0.6000*%
%ADD46C,4.1200*%
%ADD47C,0.4000*%
%ADD48C,0.3000*%
%ADD49C,0.2000*%
%ADD50C,0.2543*%
%ADD51C,1.0000*%
%ADD52C,0.1270*%
%ADD53C,0.8000*%
%ADD54C,0.1800*%
%ADD55C,1.2540*%
%ADD56C,2.8000*%
%ADD57C,4.5000*%
%ADD58C,1.8000*%
%ADD59R,1.8000X1.8000*%
G04:AMPARAMS|DCode=60|XSize=4mm|YSize=4mm|CornerRadius=2mm|HoleSize=0mm|Usage=FLASHONLY|Rotation=0.000|XOffset=0mm|YOffset=0mm|HoleType=Round|Shape=RoundedRectangle|*
%AMROUNDEDRECTD60*
21,1,4.0000,0.0000,0,0,0.0*
21,1,0.0000,4.0000,0,0,0.0*
1,1,4.0000,0.0000,0.0000*
1,1,4.0000,0.0000,0.0000*
1,1,4.0000,0.0000,0.0000*
1,1,4.0000,0.0000,0.0000*
%
%ADD60ROUNDEDRECTD60*%
%ADD61R,1.0000X1.0000*%
%ADD62C,1.3500*%
%ADD63R,1.3500X1.3500*%
%ADD64C,2.5400*%
%ADD65O,1.0160X1.5240*%
%ADD66R,1.0668X1.5240*%
%ADD67C,0.5000*%
%ADD68R,1.0729X7.6713*%
%ADD69C,2.0000*%
%ADD70R,8.9783X5.0800*%
%ADD71R,0.8128X0.8128*%
%ADD72R,0.8128X1.0668*%
%ADD73C,3.0000*%
%ADD74C,1.6000*%
%ADD75R,9.1983X4.5380*%
%ADD76C,0.1200*%
%ADD77C,0.1999*%
%ADD78C,0.1250*%
%ADD79C,0.1524*%
%ADD80C,0.2032*%
%ADD81R,0.8032X0.7032*%
%ADD82R,1.8032X1.4032*%
%ADD83R,0.7032X0.8032*%
%ADD84R,2.8232X3.7132*%
%ADD85O,2.2352X0.8128*%
%ADD86R,2.2352X0.8128*%
%ADD87R,1.4032X1.4532*%
%ADD88R,2.6032X1.4532*%
G04:AMPARAMS|DCode=89|XSize=1.7032mm|YSize=1.6032mm|CornerRadius=0mm|HoleSize=0mm|Usage=FLASHONLY|Rotation=45.000|XOffset=0mm|YOffset=0mm|HoleType=Round|Shape=Rectangle|*
%AMROTATEDRECTD89*
4,1,4,-0.0354,-1.1690,-1.1690,-0.0354,0.0354,1.1690,1.1690,0.0354,-0.0354,-1.1690,0.0*
%
%ADD89ROTATEDRECTD89*%

%ADD90R,1.4032X1.4032*%
%ADD91R,2.6032X1.0032*%
%ADD92R,5.2032X5.5032*%
%ADD93R,0.3000X0.9000*%
%ADD94R,0.2990X0.9000*%
%ADD95R,0.9000X0.3000*%
%ADD96R,0.9000X0.2990*%
%ADD97R,0.9000X0.2990*%
%ADD98R,0.9000X0.3000*%
%ADD99R,3.8000X3.8000*%
%ADD100R,1.0160X1.0160*%
%ADD101C,1.2032*%
%ADD102R,1.4986X1.8034*%
%ADD103R,0.9632X1.7632*%
%ADD104R,1.2700X1.0160*%
%ADD105R,1.4032X1.8032*%
G04:AMPARAMS|DCode=106|XSize=1.7032mm|YSize=1.6032mm|CornerRadius=0mm|HoleSize=0mm|Usage=FLASHONLY|Rotation=135.000|XOffset=0mm|YOffset=0mm|HoleType=Round|Shape=Rectangle|*
%AMROTATEDRECTD106*
4,1,4,1.1690,-0.0354,0.0354,-1.1690,-1.1690,0.0354,-0.0354,1.1690,1.1690,-0.0354,0.0*
%
%ADD106ROTATEDRECTD106*%

%ADD107R,1.3032X0.7032*%
%ADD108R,1.0922X1.2192*%
%ADD109R,1.6002X1.6002*%
%ADD110R,1.4032X1.6032*%
%ADD111R,1.4532X1.4032*%
%ADD112R,1.4532X2.6032*%
%ADD113R,1.0032X2.6032*%
%ADD114R,5.5032X5.2032*%
G04:AMPARAMS|DCode=115|XSize=2.6032mm|YSize=3.0032mm|CornerRadius=0mm|HoleSize=0mm|Usage=FLASHONLY|Rotation=135.000|XOffset=0mm|YOffset=0mm|HoleType=Round|Shape=Rectangle|*
%AMROTATEDRECTD115*
4,1,4,1.9822,0.1414,-0.1414,-1.9822,-1.9822,-0.1414,0.1414,1.9822,1.9822,0.1414,0.0*
%
%ADD115ROTATEDRECTD115*%

%ADD116C,1.4572*%
%ADD117C,3.0032*%
%ADD118C,4.7032*%
%ADD119C,2.0032*%
%ADD120R,2.0032X2.0032*%
G04:AMPARAMS|DCode=121|XSize=4.2032mm|YSize=4.2032mm|CornerRadius=2.1016mm|HoleSize=0mm|Usage=FLASHONLY|Rotation=0.000|XOffset=0mm|YOffset=0mm|HoleType=Round|Shape=RoundedRectangle|*
%AMROUNDEDRECTD121*
21,1,4.2032,0.0000,0,0,0.0*
21,1,0.0000,4.2032,0,0,0.0*
1,1,4.2032,0.0000,0.0000*
1,1,4.2032,0.0000,0.0000*
1,1,4.2032,0.0000,0.0000*
1,1,4.2032,0.0000,0.0000*
%
%ADD121ROUNDEDRECTD121*%
%ADD122R,1.2032X1.2032*%
%ADD123C,1.5532*%
%ADD124R,1.5532X1.5532*%
%ADD125C,2.6400*%
%ADD126O,1.1160X1.6240*%
%ADD127R,1.1668X1.6240*%
%ADD128C,0.7032*%
D46*
X22000Y478000D02*
X193500D01*
X22000Y250000D02*
Y478000D01*
X365000D02*
X536500D01*
X708000Y22059D02*
Y250000D01*
Y478000D01*
X193500D02*
X365000D01*
X22000Y22919D02*
Y250000D01*
X536500Y478000D02*
X708000D01*
X22860Y22059D02*
X708000D01*
D81*
X485140Y320730D02*
D03*
Y311730D02*
D03*
X459740Y320730D02*
D03*
Y311730D02*
D03*
X447040Y311730D02*
D03*
Y320730D02*
D03*
X434340Y311730D02*
D03*
Y320730D02*
D03*
X421640Y311730D02*
D03*
Y320730D02*
D03*
X408940Y311730D02*
D03*
Y320730D02*
D03*
X396240Y311730D02*
D03*
Y320730D02*
D03*
X383540Y311730D02*
D03*
Y320730D02*
D03*
X370840Y311730D02*
D03*
Y320730D02*
D03*
X358140Y311730D02*
D03*
Y320730D02*
D03*
X274320Y422220D02*
D03*
Y431220D02*
D03*
X287020Y422220D02*
D03*
Y431220D02*
D03*
X91440Y224210D02*
D03*
Y215210D02*
D03*
X78050D02*
D03*
Y224210D02*
D03*
X257810Y253420D02*
D03*
Y244420D02*
D03*
Y233100D02*
D03*
Y224100D02*
D03*
X161290Y137735D02*
D03*
Y128735D02*
D03*
X87630Y68000D02*
D03*
Y59000D02*
D03*
X411480Y139010D02*
D03*
Y148010D02*
D03*
X398780D02*
D03*
Y139010D02*
D03*
X386080Y148010D02*
D03*
Y139010D02*
D03*
X371310Y148010D02*
D03*
Y139010D02*
D03*
X87630Y163140D02*
D03*
Y172140D02*
D03*
X148590Y187380D02*
D03*
Y178380D02*
D03*
X166721Y186110D02*
D03*
Y177110D02*
D03*
X52070Y68000D02*
D03*
Y59000D02*
D03*
X69850Y68000D02*
D03*
Y59000D02*
D03*
X105410D02*
D03*
Y68000D02*
D03*
X132080Y116260D02*
D03*
Y107260D02*
D03*
X123190Y172140D02*
D03*
Y163140D02*
D03*
X105410Y172140D02*
D03*
Y163140D02*
D03*
X52070Y100649D02*
D03*
Y109650D02*
D03*
X70045Y100649D02*
D03*
Y109650D02*
D03*
X527050Y169490D02*
D03*
Y178490D02*
D03*
X174719Y137850D02*
D03*
Y128850D02*
D03*
X257810Y203780D02*
D03*
Y212780D02*
D03*
X360680Y236800D02*
D03*
Y245800D02*
D03*
X653530Y82197D02*
D03*
Y91197D02*
D03*
X666230Y82197D02*
D03*
Y91197D02*
D03*
X678930D02*
D03*
Y82197D02*
D03*
X168910Y435030D02*
D03*
Y426030D02*
D03*
X156210Y435030D02*
D03*
Y426030D02*
D03*
D82*
X549910Y417320D02*
D03*
Y385320D02*
D03*
X249500Y100840D02*
D03*
Y132840D02*
D03*
X223520Y100840D02*
D03*
Y132840D02*
D03*
X198120Y100840D02*
D03*
Y132840D02*
D03*
D83*
X301570Y433410D02*
D03*
X310570D02*
D03*
X301570Y420710D02*
D03*
X310570D02*
D03*
X523820Y245110D02*
D03*
X532820D02*
D03*
X523820Y257810D02*
D03*
X532820D02*
D03*
Y270510D02*
D03*
X523820D02*
D03*
X52650Y203835D02*
D03*
X61650D02*
D03*
X52650Y162560D02*
D03*
X61650D02*
D03*
X573601Y234950D02*
D03*
X564601D02*
D03*
X376500Y236560D02*
D03*
X385500D02*
D03*
X243800Y169825D02*
D03*
X252800D02*
D03*
X118800Y215900D02*
D03*
X109800D02*
D03*
X118800Y229870D02*
D03*
X109800D02*
D03*
X243800Y157125D02*
D03*
X252800D02*
D03*
X223612Y314960D02*
D03*
X214612D02*
D03*
X257120Y276020D02*
D03*
X266120D02*
D03*
X542035Y60960D02*
D03*
X551035D02*
D03*
X109910Y246380D02*
D03*
X100910D02*
D03*
X219625Y257810D02*
D03*
X210625D02*
D03*
X133980Y435030D02*
D03*
X142980D02*
D03*
X133930Y448310D02*
D03*
X142930D02*
D03*
X385500Y251460D02*
D03*
X376500D02*
D03*
D84*
X363220Y426720D02*
D03*
D85*
X391300Y446110D02*
D03*
Y433410D02*
D03*
Y420710D02*
D03*
Y408010D02*
D03*
X335420D02*
D03*
Y420710D02*
D03*
Y433410D02*
D03*
Y249261D02*
D03*
Y236560D02*
D03*
Y223860D02*
D03*
Y211161D02*
D03*
X279540D02*
D03*
Y223860D02*
D03*
Y236560D02*
D03*
D86*
X335420Y446110D02*
D03*
X279540Y249261D02*
D03*
D87*
X506387Y295545D02*
D03*
D88*
X537137D02*
D03*
D89*
X564680Y357670D02*
D03*
X537680Y330670D02*
D03*
D90*
X660380Y339446D02*
D03*
Y364846D02*
D03*
X598380D02*
D03*
Y339446D02*
D03*
D91*
X570140Y257445D02*
D03*
Y270145D02*
D03*
Y282845D02*
D03*
Y295545D02*
D03*
Y308245D02*
D03*
D92*
X654140Y282845D02*
D03*
D93*
X154719Y203606D02*
D03*
X158720D02*
D03*
X162720D02*
D03*
X166721D02*
D03*
X178720D02*
D03*
X182720D02*
D03*
X186721D02*
D03*
X190721D02*
D03*
Y253594D02*
D03*
X186721D02*
D03*
X182720D02*
D03*
X178720D02*
D03*
X166721D02*
D03*
X162720D02*
D03*
X158720D02*
D03*
X154719D02*
D03*
D94*
X170721Y203606D02*
D03*
X174719D02*
D03*
Y253594D02*
D03*
X170721D02*
D03*
D95*
X197714Y246601D02*
D03*
Y242600D02*
D03*
Y238600D02*
D03*
Y234599D02*
D03*
Y222600D02*
D03*
Y218600D02*
D03*
Y214599D02*
D03*
Y210599D02*
D03*
X147726D02*
D03*
Y214599D02*
D03*
Y218600D02*
D03*
Y222600D02*
D03*
Y234599D02*
D03*
Y238600D02*
D03*
D96*
X197714Y230599D02*
D03*
Y226601D02*
D03*
D97*
X147726D02*
D03*
Y230599D02*
D03*
D98*
Y242600D02*
D03*
Y246601D02*
D03*
D99*
X172720Y228600D02*
D03*
D100*
X73310Y146050D02*
D03*
X58071D02*
D03*
X148590Y104830D02*
D03*
X163830D02*
D03*
D101*
X281940Y152400D02*
D03*
X508000Y182880D02*
D03*
X368300Y191041D02*
D03*
X346595Y190500D02*
D03*
X461010Y220411D02*
D03*
D102*
X274320Y106680D02*
D03*
Y132080D02*
D03*
D103*
X54610Y319240D02*
D03*
X67310D02*
D03*
X80010D02*
D03*
X92710D02*
D03*
X105410D02*
D03*
X118110D02*
D03*
X130810D02*
D03*
X143510D02*
D03*
X156210D02*
D03*
X168910D02*
D03*
X181610D02*
D03*
X67310Y409740D02*
D03*
X54610D02*
D03*
X105410D02*
D03*
X92710D02*
D03*
X80010D02*
D03*
X143510D02*
D03*
X130810D02*
D03*
X118110D02*
D03*
X156210D02*
D03*
X168910D02*
D03*
X194310Y319240D02*
D03*
X181610Y409740D02*
D03*
X194310D02*
D03*
D104*
X401206Y236189D02*
D03*
Y217114D02*
D03*
X424142Y226652D02*
D03*
D105*
X472950Y111760D02*
D03*
X504950D02*
D03*
Y137160D02*
D03*
X472950D02*
D03*
Y86360D02*
D03*
X504950D02*
D03*
Y60960D02*
D03*
X472950D02*
D03*
D106*
X317970Y131610D02*
D03*
X344970Y104610D02*
D03*
X190091Y183325D02*
D03*
X217091Y156325D02*
D03*
D107*
X398310Y123800D02*
D03*
Y104800D02*
D03*
X371310D02*
D03*
Y114300D02*
D03*
Y123800D02*
D03*
D108*
X597281Y209550D02*
D03*
X581279D02*
D03*
Y191770D02*
D03*
X597281D02*
D03*
X581279Y173990D02*
D03*
X597281D02*
D03*
D109*
X484505Y161579D02*
D03*
X506095D02*
D03*
D110*
X228126Y298020D02*
D03*
Y276020D02*
D03*
X243126D02*
D03*
Y298020D02*
D03*
D111*
X635750Y65657D02*
D03*
D112*
Y96407D02*
D03*
D113*
X673850Y129787D02*
D03*
X661150D02*
D03*
X648450D02*
D03*
X635750D02*
D03*
X623050D02*
D03*
D114*
X648450Y213787D02*
D03*
D115*
X536257Y144840D02*
D03*
X592257Y88840D02*
D03*
D116*
X41910Y441919D02*
D03*
X92710Y441919D02*
D03*
D117*
X596900Y436880D02*
D03*
X635000D02*
D03*
X673100D02*
D03*
D118*
X245890Y373380D02*
D03*
X495790D02*
D03*
D119*
X329290Y359180D02*
D03*
X356990D02*
D03*
X384690D02*
D03*
X412390D02*
D03*
X315440Y387580D02*
D03*
X343140D02*
D03*
X370840D02*
D03*
X398540D02*
D03*
D120*
X426240D02*
D03*
D121*
X536500Y478000D02*
D03*
X708000Y22000D02*
D03*
X536500D02*
D03*
X365000D02*
D03*
X193500D02*
D03*
X22000D02*
D03*
X193500Y478000D02*
D03*
X708000D02*
D03*
X365000D02*
D03*
X22000Y250000D02*
D03*
X708000D02*
D03*
X22000Y478000D02*
D03*
D122*
X486410Y220411D02*
D03*
D123*
X459740Y269240D02*
D03*
Y294640D02*
D03*
X408940D02*
D03*
Y269240D02*
D03*
X434340Y294640D02*
D03*
X383540D02*
D03*
Y269240D02*
D03*
X485140D02*
D03*
X434340D02*
D03*
X358140D02*
D03*
Y294640D02*
D03*
X332740Y269240D02*
D03*
Y294640D02*
D03*
D124*
X485140D02*
D03*
D125*
X229871Y203834D02*
D03*
X16511Y187960D02*
D03*
X255271Y70486D02*
D03*
X16511Y86359D02*
D03*
X300989Y187959D02*
D03*
X300991Y86359D02*
D03*
D126*
X123189Y187961D02*
D03*
X105409Y187960D02*
D03*
X87629Y187959D02*
D03*
X69849Y187960D02*
D03*
X52071D02*
D03*
X52070Y86360D02*
D03*
X69849D02*
D03*
X87631D02*
D03*
X105411D02*
D03*
D127*
X123191D02*
D03*
D128*
X653877Y321310D02*
D03*
M02*
