%FSLAX44Y44*%
%MOMM*%
G71*
G01*
G75*
G04 Layer_Physical_Order=1*
G04 Layer_Color=255*
%ADD10R,0.6000X0.5000*%
%ADD11R,1.6000X1.2000*%
%ADD12R,0.5000X0.6000*%
%ADD13R,2.6200X3.5100*%
%ADD14O,2.0320X0.6096*%
%ADD15R,2.0320X0.6096*%
%ADD16R,1.2000X1.2500*%
%ADD17R,2.4000X1.2500*%
G04:AMPARAMS|DCode=18|XSize=1.5mm|YSize=1.4mm|CornerRadius=0mm|HoleSize=0mm|Usage=FLASHONLY|Rotation=45.000|XOffset=0mm|YOffset=0mm|HoleType=Round|Shape=Rectangle|*
%AMROTATEDRECTD18*
4,1,4,-0.0354,-1.0253,-1.0253,-0.0354,0.0354,1.0253,1.0253,0.0354,-0.0354,-1.0253,0.0*
%
%ADD18ROTATEDRECTD18*%

%ADD19R,1.2000X1.2000*%
%ADD20R,2.4000X0.8000*%
%ADD21R,5.0000X5.3000*%
%ADD22R,0.2000X0.8000*%
%ADD23R,0.1990X0.8000*%
%ADD24R,0.8000X0.2000*%
%ADD25R,0.8000X0.1990*%
%ADD26R,3.7000X3.7000*%
%ADD27R,0.8128X0.8128*%
%ADD28C,1.0000*%
%ADD29R,1.2954X1.6002*%
%ADD30R,0.7600X1.5600*%
%ADD31R,1.0668X0.8128*%
%ADD32R,1.2000X1.6000*%
G04:AMPARAMS|DCode=33|XSize=1.5mm|YSize=1.4mm|CornerRadius=0mm|HoleSize=0mm|Usage=FLASHONLY|Rotation=135.000|XOffset=0mm|YOffset=0mm|HoleType=Round|Shape=Rectangle|*
%AMROTATEDRECTD33*
4,1,4,1.0253,-0.0354,0.0354,-1.0253,-1.0253,0.0354,-0.0354,1.0253,1.0253,-0.0354,0.0*
%
%ADD33ROTATEDRECTD33*%

%ADD34R,1.1000X0.5000*%
%ADD35R,0.8890X1.0160*%
%ADD36R,1.3970X1.3970*%
%ADD37R,1.2000X1.4000*%
%ADD38R,1.2500X1.2000*%
%ADD39R,1.2500X2.4000*%
%ADD40R,0.8000X2.4000*%
%ADD41R,5.3000X5.0000*%
G04:AMPARAMS|DCode=42|XSize=2.4mm|YSize=2.8mm|CornerRadius=0mm|HoleSize=0mm|Usage=FLASHONLY|Rotation=135.000|XOffset=0mm|YOffset=0mm|HoleType=Round|Shape=Rectangle|*
%AMROTATEDRECTD42*
4,1,4,1.8385,0.1414,-0.1414,-1.8385,-1.8385,-0.1414,0.1414,1.8385,1.8385,0.1414,0.0*
%
%ADD42ROTATEDRECTD42*%

%ADD43C,0.2540*%
%ADD44C,0.1780*%
%ADD45C,0.6000*%
%ADD46C,4.1200*%
%ADD47C,0.4000*%
%ADD48C,0.3000*%
%ADD49C,0.2000*%
%ADD50C,0.2543*%
%ADD51C,1.0000*%
%ADD52C,0.1270*%
%ADD53C,0.8000*%
%ADD54C,0.1800*%
%ADD55C,1.2540*%
%ADD56C,2.8000*%
%ADD57C,4.5000*%
%ADD58C,1.8000*%
%ADD59R,1.8000X1.8000*%
G04:AMPARAMS|DCode=60|XSize=4mm|YSize=4mm|CornerRadius=2mm|HoleSize=0mm|Usage=FLASHONLY|Rotation=0.000|XOffset=0mm|YOffset=0mm|HoleType=Round|Shape=RoundedRectangle|*
%AMROUNDEDRECTD60*
21,1,4.0000,0.0000,0,0,0.0*
21,1,0.0000,4.0000,0,0,0.0*
1,1,4.0000,0.0000,0.0000*
1,1,4.0000,0.0000,0.0000*
1,1,4.0000,0.0000,0.0000*
1,1,4.0000,0.0000,0.0000*
%
%ADD60ROUNDEDRECTD60*%
%ADD61R,1.0000X1.0000*%
%ADD62C,1.3500*%
%ADD63R,1.3500X1.3500*%
%ADD64C,2.5400*%
%ADD65O,1.0160X1.5240*%
%ADD66R,1.0668X1.5240*%
%ADD67C,0.5000*%
G36*
X127863Y302464D02*
X127863Y302464D01*
X127863D01*
X128088Y301336D01*
X128726Y300380D01*
X149483Y279623D01*
Y274961D01*
X148363Y274363D01*
X146747Y275443D01*
X146050Y275581D01*
Y270695D01*
X143510D01*
Y275581D01*
X142814Y275443D01*
X141339Y274458D01*
X140219Y275056D01*
Y281091D01*
X139986Y282262D01*
X139323Y283254D01*
X121169Y301408D01*
Y309440D01*
X123910D01*
Y309440D01*
X123910D01*
X123910Y309440D01*
X125010D01*
Y309440D01*
X127863D01*
Y302464D01*
D02*
G37*
G36*
X102463Y307340D02*
X102463Y307340D01*
X102463D01*
X102688Y306212D01*
X103326Y305256D01*
X130323Y278260D01*
Y272547D01*
X130323Y272547D01*
Y262554D01*
X129150Y262068D01*
X107955Y283263D01*
X106999Y283902D01*
X105871Y284126D01*
X86222D01*
X70257Y300092D01*
Y309440D01*
X73110D01*
Y309440D01*
X73110D01*
X73110Y309440D01*
X74210D01*
Y309440D01*
X75760D01*
X76441Y308610D01*
X76713Y307244D01*
X77487Y306087D01*
X78644Y305313D01*
X79510Y305141D01*
X79758Y303895D01*
X78948Y303354D01*
X77834Y301686D01*
X77695Y300990D01*
X87467D01*
X87329Y301686D01*
X86215Y303354D01*
X84548Y304468D01*
X82756Y304824D01*
X82508Y306070D01*
X82533Y306087D01*
X83307Y307244D01*
X83579Y308610D01*
X84260Y309440D01*
X85810D01*
Y309440D01*
X85810D01*
X85810Y309440D01*
X86910D01*
Y309440D01*
X88460D01*
X89141Y308610D01*
X89413Y307244D01*
X90187Y306087D01*
X91344Y305313D01*
X92710Y305041D01*
X94076Y305313D01*
X95233Y306087D01*
X96007Y307244D01*
X96279Y308610D01*
X96960Y309440D01*
X98510D01*
Y309440D01*
X98510D01*
X98510Y309440D01*
X99610D01*
Y309440D01*
X102463D01*
Y307340D01*
D02*
G37*
G36*
X546196Y154440D02*
X523809Y131760D01*
Y85787D01*
X544039Y67537D01*
X544028Y53340D01*
X502920D01*
X500380Y55880D01*
Y166880D01*
X504950Y171450D01*
X529414D01*
X546196Y154440D01*
D02*
G37*
G36*
X622300Y143160D02*
Y120650D01*
X612140D01*
X608330Y124460D01*
Y142579D01*
X611801Y146050D01*
X619410D01*
X622300Y143160D01*
D02*
G37*
G36*
X178663Y302058D02*
X163046Y286441D01*
X162408Y285485D01*
X162183Y284358D01*
Y268562D01*
X161010Y268076D01*
X159157Y269929D01*
Y282409D01*
X158932Y283537D01*
X158294Y284493D01*
X146457Y296330D01*
Y309440D01*
X149310D01*
Y309440D01*
X149310D01*
X149310Y309440D01*
X150410D01*
Y309440D01*
X152729D01*
X152913Y308514D01*
X153687Y307357D01*
X154844Y306583D01*
X156210Y306311D01*
X157360Y306540D01*
X158066Y305484D01*
X157225Y304226D01*
X157087Y303530D01*
X160703D01*
Y307146D01*
X160007Y307008D01*
X159992Y306998D01*
X159094Y307896D01*
X159507Y308514D01*
X159691Y309440D01*
X162010D01*
Y309440D01*
X162010D01*
X162010Y309440D01*
X163110D01*
Y309440D01*
X165429D01*
X165613Y308514D01*
X166387Y307357D01*
X167544Y306583D01*
X168910Y306311D01*
X170276Y306583D01*
X171433Y307357D01*
X172207Y308514D01*
X172391Y309440D01*
X174710D01*
Y309440D01*
X174710D01*
X174710Y309440D01*
X175810D01*
Y309440D01*
X178663D01*
Y302058D01*
D02*
G37*
G36*
X51551Y306070D02*
X51551Y306070D01*
X51784Y304900D01*
X52447Y303907D01*
X81227Y275127D01*
X82220Y274464D01*
X83390Y274231D01*
X102993D01*
X107462Y269762D01*
X107094Y268546D01*
X105994Y268327D01*
X104326Y267213D01*
X103213Y265546D01*
X103074Y264850D01*
X107960D01*
Y263580D01*
X109230D01*
Y258694D01*
X109927Y258832D01*
X111594Y259946D01*
X112708Y261613D01*
X112927Y262713D01*
X114142Y263082D01*
X122541Y254683D01*
Y250049D01*
X121660Y249327D01*
X114410D01*
Y251380D01*
X105950D01*
Y251920D01*
X102180D01*
Y246380D01*
Y240840D01*
X105950D01*
Y241380D01*
X114410D01*
Y243433D01*
X120440D01*
X129883Y233990D01*
X129397Y232817D01*
X126350D01*
X125826Y233167D01*
X124460Y233439D01*
X124282Y233403D01*
X123300Y234209D01*
Y234870D01*
X114840D01*
Y235410D01*
X111070D01*
Y229870D01*
Y224330D01*
X114840D01*
Y224870D01*
X123300D01*
Y224870D01*
X123332Y225380D01*
X123332Y225380D01*
X124460Y225155D01*
X125588Y225380D01*
X126544Y226018D01*
X127449Y226923D01*
X130960D01*
X131813Y225982D01*
X131754Y225385D01*
X131363Y225124D01*
X130589Y223966D01*
X130317Y222600D01*
X130589Y221235D01*
X131363Y220077D01*
X131362Y220077D01*
X131362Y220077D01*
X130615Y218959D01*
X126182D01*
X125826Y219197D01*
X124460Y219469D01*
X124282Y219433D01*
X123300Y220239D01*
Y220900D01*
X114840D01*
Y221440D01*
X111070D01*
Y215900D01*
Y210360D01*
X114840D01*
Y210900D01*
X123300D01*
Y211561D01*
X124282Y212367D01*
X124460Y212331D01*
X125826Y212603D01*
X126182Y212841D01*
X132970D01*
X133741Y211902D01*
X133762Y211793D01*
X133716Y211562D01*
Y156456D01*
X132607Y155347D01*
X126981D01*
X126137Y156191D01*
Y158640D01*
X128190D01*
Y167640D01*
Y176640D01*
X125877D01*
Y178871D01*
X126759Y179237D01*
X128238Y180372D01*
X129373Y181851D01*
X130086Y183573D01*
X130330Y185421D01*
Y190501D01*
X130086Y192349D01*
X129373Y194072D01*
X128238Y195551D01*
X126759Y196686D01*
X125037Y197399D01*
X123189Y197642D01*
X121341Y197399D01*
X119618Y196686D01*
X118139Y195551D01*
X117004Y194072D01*
X116291Y192349D01*
X116048Y190501D01*
Y185421D01*
X116291Y183573D01*
X117004Y181851D01*
X118139Y180372D01*
X119618Y179237D01*
X120503Y178870D01*
Y176640D01*
X118190D01*
Y167640D01*
Y158640D01*
X120243D01*
Y154971D01*
X120243Y154971D01*
X120243D01*
X120468Y153843D01*
X121106Y152887D01*
X121283Y152710D01*
X120797Y151537D01*
X114250D01*
X108357Y157430D01*
Y158640D01*
X110410D01*
Y167640D01*
Y176640D01*
X108097D01*
Y178870D01*
X108979Y179236D01*
X110458Y180371D01*
X111593Y181850D01*
X112306Y183572D01*
X112550Y185420D01*
Y190500D01*
X112306Y192348D01*
X111593Y194071D01*
X110458Y195550D01*
X108979Y196685D01*
X108097Y197050D01*
Y201240D01*
X107892Y202268D01*
X107310Y203140D01*
X100760Y209689D01*
X101359Y210809D01*
X101600Y210761D01*
X103567Y211152D01*
X103640Y211202D01*
X104760Y210603D01*
Y210360D01*
X108530D01*
Y215900D01*
Y221440D01*
X104760D01*
Y221197D01*
X103640Y220598D01*
X103567Y220648D01*
X102870Y220786D01*
Y215900D01*
X100330D01*
Y220786D01*
X99634Y220648D01*
X98100Y219623D01*
X96980Y220222D01*
Y222940D01*
X85900D01*
Y219170D01*
X86440D01*
Y217897D01*
X83050D01*
Y219710D01*
Y228710D01*
X81619D01*
Y233100D01*
X81347Y234466D01*
X80574Y235623D01*
X80226Y235856D01*
X79993Y236203D01*
X78836Y236977D01*
X77470Y237249D01*
X76104Y236977D01*
X74947Y236203D01*
X74173Y235046D01*
X73901Y233680D01*
Y233100D01*
X74173Y231734D01*
X74482Y231273D01*
Y228710D01*
X73050D01*
Y227779D01*
X57840D01*
X56474Y227507D01*
X55317Y226733D01*
X49856Y221272D01*
X48682Y221758D01*
Y250000D01*
Y309440D01*
X48810D01*
Y309440D01*
X51551D01*
Y306070D01*
D02*
G37*
G36*
X658134Y450170D02*
X656390Y448045D01*
X654533Y444571D01*
X653389Y440801D01*
X653003Y436880D01*
X653389Y432959D01*
X654533Y429189D01*
X656390Y425715D01*
X658889Y422669D01*
X661935Y420170D01*
X665409Y418313D01*
X669179Y417169D01*
X673100Y416783D01*
X677021Y417169D01*
X680298Y418163D01*
X681318Y417407D01*
Y311885D01*
X655410D01*
Y282845D01*
Y253805D01*
X681318D01*
Y250000D01*
X681318Y250000D01*
X681318D01*
Y104002D01*
X680336Y103196D01*
X678930Y103476D01*
X665228D01*
Y115787D01*
X666952D01*
X666952Y115787D01*
Y115787D01*
X667150Y115787D01*
X667500D01*
X667850D01*
X668048Y115787D01*
X668048Y115787D01*
Y115787D01*
X669509D01*
X670315Y114805D01*
X670281Y114637D01*
X670553Y113272D01*
X671327Y112114D01*
X672484Y111340D01*
X673850Y111069D01*
X675216Y111340D01*
X676373Y112114D01*
X677147Y113272D01*
X677419Y114637D01*
X677385Y114805D01*
X678191Y115787D01*
X679850D01*
Y143787D01*
X668048D01*
X668048Y143787D01*
Y143787D01*
X667850Y143787D01*
X667500D01*
X667150D01*
X666952Y143787D01*
X666952Y143787D01*
Y143787D01*
X655888D01*
X655888Y143787D01*
Y143787D01*
X655150Y143787D01*
X654990Y144327D01*
X654252Y144327D01*
X654252Y144327D01*
Y144327D01*
X649720D01*
Y129787D01*
Y115247D01*
X654252D01*
X654252Y115247D01*
Y115247D01*
X654990Y115247D01*
X655150Y115787D01*
X655888Y115787D01*
X655888Y115787D01*
Y115787D01*
X657072D01*
Y103476D01*
X653530D01*
X651969Y103165D01*
X650646Y102281D01*
X649762Y100958D01*
X649452Y99397D01*
Y95697D01*
X648530D01*
Y86697D01*
Y77697D01*
X650471D01*
Y74220D01*
X650233Y73863D01*
X649961Y72498D01*
X650233Y71132D01*
X651007Y69974D01*
X652164Y69201D01*
X653530Y68929D01*
X654896Y69201D01*
X656053Y69974D01*
X656827Y71132D01*
X657099Y72498D01*
X656827Y73863D01*
X656589Y74220D01*
Y77697D01*
X658530D01*
Y79138D01*
X661230D01*
Y77697D01*
X671230D01*
Y86697D01*
Y95319D01*
X673930D01*
Y87237D01*
X673390D01*
Y83467D01*
X678930D01*
Y82197D01*
X680200D01*
Y77157D01*
X681318D01*
Y57803D01*
X680198Y57205D01*
X678876Y58088D01*
X678180Y58226D01*
Y53340D01*
X676910D01*
Y52070D01*
X672024D01*
X672162Y51374D01*
X673173Y49861D01*
X672574Y48741D01*
X638914D01*
X638316Y49861D01*
X638478Y50104D01*
X638616Y50800D01*
X628844D01*
X628982Y50104D01*
X629144Y49861D01*
X628546Y48741D01*
X546533D01*
X546164Y49956D01*
X546260Y50020D01*
X546910Y50454D01*
X546911Y50455D01*
X546912Y50456D01*
X547358Y51124D01*
X547795Y51776D01*
X547795Y51778D01*
X547796Y51779D01*
X547950Y52554D01*
X548107Y53337D01*
X548108Y55420D01*
X549765D01*
Y60960D01*
Y66500D01*
X549015D01*
X548117Y67398D01*
X548117Y67534D01*
X548096Y67640D01*
X548112Y67747D01*
X547942Y68418D01*
X547808Y69095D01*
X547748Y69185D01*
X547721Y69290D01*
X547308Y69844D01*
X546925Y70419D01*
X546835Y70479D01*
X546771Y70566D01*
X541129Y75655D01*
X541585Y76840D01*
X581629D01*
X590842Y67627D01*
X609445Y86229D01*
X627500D01*
Y82407D01*
X644000D01*
Y110407D01*
X640848D01*
Y115247D01*
X641910D01*
D01*
X642648Y115247D01*
X642648Y115247D01*
Y115247D01*
X647180D01*
Y129787D01*
Y144327D01*
X642648D01*
X642648Y144327D01*
Y144327D01*
X641910Y144327D01*
X641750Y143787D01*
X641012Y143787D01*
X641012Y143787D01*
Y143787D01*
X629750D01*
D01*
D01*
X629750Y143787D01*
X629050D01*
Y143787D01*
X626254D01*
X626119Y144462D01*
X626068Y144721D01*
X625184Y146044D01*
X625184Y146044D01*
X622294Y148934D01*
X620971Y149818D01*
X620712Y149869D01*
X619410Y150128D01*
X619410Y150128D01*
X611801D01*
X611801Y150128D01*
X610241Y149818D01*
X609802Y149525D01*
X608918Y148934D01*
X608918Y148934D01*
X605446Y145462D01*
X604257Y146257D01*
Y147090D01*
X594507Y156840D01*
X556230D01*
X556216Y156906D01*
X555103Y158574D01*
X553435Y159688D01*
X551469Y160079D01*
X549502Y159688D01*
X547843Y158579D01*
X532590Y174037D01*
Y177220D01*
X521510D01*
Y175528D01*
X512043D01*
X511530Y176765D01*
X512992Y177888D01*
X514114Y179350D01*
X514820Y181053D01*
X515060Y182880D01*
X514820Y184707D01*
X514114Y186410D01*
X512992Y187872D01*
X511530Y188995D01*
X509827Y189700D01*
X508000Y189940D01*
X506173Y189700D01*
X504470Y188995D01*
X503008Y187872D01*
X501885Y186410D01*
X501180Y184707D01*
X500940Y182880D01*
X501180Y181053D01*
X501885Y179350D01*
X503008Y177888D01*
X504470Y176765D01*
X504622Y176702D01*
X504498Y175438D01*
X503648Y175269D01*
X503389Y175218D01*
X502066Y174334D01*
X502066Y174334D01*
X498296Y170564D01*
X497110D01*
Y169186D01*
X496612Y168441D01*
X496561Y168182D01*
X496302Y166880D01*
X496302Y166880D01*
Y55880D01*
X496612Y54319D01*
X496950Y53814D01*
Y50960D01*
X499532D01*
X500036Y50456D01*
X500784Y49956D01*
X500415Y48741D01*
X111220D01*
X110573Y49530D01*
X100407D01*
X99760Y48741D01*
X75580D01*
X74933Y49530D01*
X64767D01*
X64120Y48741D01*
X57800D01*
X57153Y49530D01*
X52070D01*
Y52070D01*
X56956D01*
X56818Y52766D01*
X56768Y52840D01*
X57367Y53960D01*
X57610D01*
Y57730D01*
X52070D01*
Y60270D01*
X57610D01*
Y64040D01*
X57070D01*
Y72500D01*
X54757D01*
Y77270D01*
X55640Y77636D01*
X57119Y78770D01*
X58254Y80250D01*
X58967Y81972D01*
X59211Y83820D01*
Y88900D01*
X58967Y90748D01*
X58254Y92471D01*
X57119Y93949D01*
X55819Y94947D01*
X56228Y96149D01*
X57070D01*
Y105149D01*
D01*
Y105149D01*
X57070Y105149D01*
Y105150D01*
X57070D01*
X57070D01*
Y113863D01*
X57934Y114727D01*
X65045D01*
Y114150D01*
X65045D01*
Y105150D01*
D01*
X65045Y105150D01*
X65045Y105149D01*
D01*
D01*
Y105149D01*
X65045D01*
D01*
Y96149D01*
X65691D01*
X66099Y94947D01*
X64800Y93949D01*
X63665Y92471D01*
X62951Y90748D01*
X62708Y88900D01*
Y83820D01*
X62951Y81972D01*
X63665Y80250D01*
X64800Y78770D01*
X66279Y77636D01*
X67163Y77269D01*
Y72500D01*
X64850D01*
Y64040D01*
X64310D01*
Y60270D01*
X75390D01*
Y64040D01*
X74850D01*
Y72500D01*
X72537D01*
Y77270D01*
X73420Y77636D01*
X74899Y78770D01*
X76034Y80250D01*
X76747Y81972D01*
X76990Y83820D01*
Y88900D01*
X76747Y90748D01*
X76034Y92471D01*
X74899Y93949D01*
X73599Y94947D01*
X74007Y96149D01*
X75045D01*
Y105149D01*
D01*
Y105149D01*
X75045Y105149D01*
Y105150D01*
X75045D01*
X75045D01*
Y110483D01*
X75509Y110947D01*
X105003D01*
X106131Y111171D01*
X107087Y111810D01*
X120161Y124883D01*
X132367D01*
X133495Y125108D01*
X134451Y125746D01*
X134451Y125746D01*
X134451Y125746D01*
X160834Y152129D01*
X161472Y153085D01*
X161697Y154213D01*
X161697Y154213D01*
X161697Y154213D01*
Y154213D01*
Y166440D01*
X162912Y166808D01*
X163087Y166546D01*
X164754Y165432D01*
X165450Y165294D01*
Y170180D01*
X167990D01*
Y165294D01*
X168687Y165432D01*
X170354Y166546D01*
X170547Y166835D01*
X171762Y166466D01*
Y142350D01*
X169719D01*
Y140807D01*
X166290D01*
Y142235D01*
X156290D01*
Y134514D01*
X155745Y134066D01*
Y128735D01*
Y123699D01*
X155750Y123695D01*
Y123695D01*
X160020D01*
Y128735D01*
X161290D01*
Y130005D01*
X166830D01*
Y133775D01*
X166830D01*
Y133880D01*
X167728Y134778D01*
X169719D01*
Y133350D01*
Y124350D01*
X170525D01*
X171331Y123368D01*
X171150Y122461D01*
X171422Y121095D01*
X172196Y119938D01*
X173353Y119164D01*
X174719Y118892D01*
X176085Y119164D01*
X177242Y119938D01*
X178016Y121095D01*
X178288Y122461D01*
X178107Y123368D01*
X178913Y124350D01*
X179719D01*
Y133350D01*
Y142350D01*
X177676D01*
Y181353D01*
X178849Y181838D01*
X183727Y176961D01*
X183591Y176825D01*
Y159575D01*
X193341Y149825D01*
X210590D01*
X210727Y149961D01*
X216460Y144228D01*
Y140840D01*
X213520D01*
Y137727D01*
X208120D01*
Y140840D01*
X188120D01*
Y124840D01*
X208120D01*
Y125492D01*
X213520D01*
Y124840D01*
X221572D01*
X221693Y124790D01*
X223520Y124550D01*
X225347Y124790D01*
X225468Y124840D01*
X233520D01*
Y125492D01*
X239500D01*
Y124840D01*
X259500D01*
Y125492D01*
X265843D01*
Y122079D01*
X282797D01*
Y125492D01*
X311087D01*
X311470Y125110D01*
X311470D01*
X311470Y125110D01*
Y103196D01*
X310381Y102543D01*
X308181Y103719D01*
X304656Y104788D01*
X300991Y105149D01*
X297325Y104788D01*
X293800Y103719D01*
X290551Y101983D01*
X287704Y99646D01*
X285367Y96798D01*
X283630Y93550D01*
X282561Y90025D01*
X282200Y86359D01*
X282561Y82693D01*
X283630Y79168D01*
X285367Y75920D01*
X287704Y73072D01*
X290551Y70735D01*
X293800Y68999D01*
X297325Y67930D01*
X300991Y67568D01*
X304656Y67930D01*
X308181Y68999D01*
X311430Y70735D01*
X314277Y73072D01*
X316614Y75920D01*
X318351Y79168D01*
X319420Y82693D01*
X319781Y86359D01*
X319420Y90025D01*
X318351Y93550D01*
X316614Y96798D01*
X316278Y97208D01*
X316827Y98353D01*
X338470Y98110D01*
X338606Y98246D01*
X345323Y91529D01*
X354517Y100722D01*
X363810D01*
Y100300D01*
X378810D01*
Y109260D01*
X379350D01*
Y111212D01*
X380565Y111581D01*
X381176Y110666D01*
X382844Y109552D01*
X383540Y109414D01*
Y114300D01*
Y119186D01*
X382844Y119048D01*
X381176Y117934D01*
X380565Y117019D01*
X379350Y117388D01*
Y119340D01*
X378810D01*
Y128300D01*
X374879D01*
Y134510D01*
X376310D01*
Y143510D01*
Y152510D01*
X366310D01*
Y151069D01*
X363672D01*
X363316Y151307D01*
X361950Y151579D01*
X360584Y151307D01*
X359427Y150533D01*
X358653Y149376D01*
X358381Y148010D01*
X358653Y146644D01*
X359427Y145487D01*
X360584Y144713D01*
X361950Y144441D01*
X363316Y144713D01*
X363672Y144951D01*
X366310D01*
Y143510D01*
Y134510D01*
X367741D01*
Y128300D01*
X363810D01*
Y119340D01*
X363270D01*
Y115570D01*
X371310D01*
Y113030D01*
X363270D01*
Y109260D01*
D01*
Y109260D01*
X362888Y108878D01*
X353430D01*
X351334Y110974D01*
X351470Y111110D01*
Y128360D01*
X341720Y138110D01*
X324470D01*
X324334Y137974D01*
X321539Y140769D01*
Y159357D01*
X325618Y163436D01*
X378887D01*
X382511Y159812D01*
Y152510D01*
X381080D01*
Y143510D01*
Y134510D01*
X391080D01*
Y135441D01*
X393780D01*
Y134510D01*
X395211D01*
Y128300D01*
X390810D01*
Y119300D01*
X405810D01*
Y128300D01*
X402349D01*
Y134510D01*
X403780D01*
Y135441D01*
X406480D01*
Y134510D01*
X416480D01*
Y142970D01*
X417020D01*
Y146740D01*
X405940D01*
Y142970D01*
D01*
Y142970D01*
X405549Y142579D01*
X403780D01*
Y143510D01*
Y152510D01*
X393780D01*
Y151579D01*
X391080D01*
Y152510D01*
X389649D01*
Y161290D01*
X389377Y162656D01*
X388603Y163813D01*
X382888Y169528D01*
X381731Y170302D01*
X380365Y170574D01*
X324140D01*
X322774Y170302D01*
X321617Y169528D01*
X315447Y163358D01*
X314673Y162201D01*
X314401Y160835D01*
Y141476D01*
X310653Y137727D01*
X282797D01*
Y142081D01*
X277379D01*
Y143513D01*
X279641Y145775D01*
X280112Y145580D01*
X281940Y145339D01*
X283767Y145580D01*
X285470Y146285D01*
X286932Y147407D01*
X288054Y148870D01*
X288760Y150573D01*
X289000Y152400D01*
X288760Y154227D01*
X288054Y155930D01*
X286932Y157392D01*
X285470Y158514D01*
X283767Y159220D01*
X281940Y159460D01*
X280112Y159220D01*
X278410Y158514D01*
X276947Y157392D01*
X275825Y155930D01*
X275120Y154227D01*
X274879Y152400D01*
X275120Y150573D01*
X275315Y150101D01*
X272157Y146943D01*
X271494Y145950D01*
X271261Y144780D01*
X271261Y144780D01*
Y142081D01*
X265843D01*
Y137727D01*
X259500D01*
Y140840D01*
X239500D01*
Y137727D01*
X233520D01*
Y140840D01*
X233520Y140840D01*
X233520D01*
X233555Y141847D01*
X235116Y142157D01*
X236439Y143041D01*
X245454Y152056D01*
X245500Y152125D01*
X247760D01*
Y151585D01*
X251530D01*
Y157125D01*
Y162665D01*
X247760D01*
D01*
X247760D01*
X247369Y163056D01*
Y164285D01*
X247760D01*
Y164285D01*
X251530D01*
Y169825D01*
Y175365D01*
X247760D01*
Y174825D01*
X245554D01*
X245454Y174975D01*
X241015Y179414D01*
X239692Y180298D01*
X239433Y180349D01*
X238131Y180608D01*
X238131Y180608D01*
X226993D01*
X226993Y180608D01*
X225691Y180349D01*
X225432Y180298D01*
X224711Y179816D01*
X223591Y180415D01*
Y185132D01*
X224611Y185889D01*
X226205Y185405D01*
X229871Y185044D01*
X233537Y185405D01*
X237062Y186474D01*
X240310Y188211D01*
X243158Y190548D01*
X245494Y193395D01*
X247231Y196644D01*
X248300Y200169D01*
X248661Y203834D01*
X248300Y207500D01*
X247231Y211025D01*
X245494Y214274D01*
X243158Y217121D01*
X240310Y219458D01*
X237062Y221195D01*
X233979Y222129D01*
X233671Y223361D01*
X245398Y235089D01*
X246476Y235303D01*
X247633Y236077D01*
X248407Y237234D01*
X248679Y238600D01*
X248407Y239966D01*
X247633Y241123D01*
X246476Y241897D01*
X245110Y242169D01*
X243744Y241897D01*
X243361Y242102D01*
X243053Y243334D01*
X243327Y243744D01*
X243599Y245110D01*
X243327Y246476D01*
X242553Y247633D01*
X241396Y248407D01*
X240030Y248679D01*
X238664Y248407D01*
X237507Y247633D01*
X236733Y246476D01*
X236461Y245110D01*
X236733Y243744D01*
X237221Y243014D01*
X236912Y241782D01*
X236223Y241414D01*
X235501Y241897D01*
X234135Y242169D01*
X232769Y241897D01*
X232407Y241654D01*
X231836Y241959D01*
X231528Y243192D01*
X231897Y243744D01*
X232169Y245110D01*
X231897Y246476D01*
X231123Y247633D01*
X229966Y248407D01*
X228600Y248679D01*
X227234Y248407D01*
X226077Y247633D01*
X225303Y246476D01*
X225031Y245110D01*
X225303Y243744D01*
X225578Y243334D01*
X225269Y242102D01*
X224886Y241897D01*
X223520Y242169D01*
X222154Y241897D01*
X220997Y241123D01*
X220223Y239966D01*
X220060Y239145D01*
X219004Y238440D01*
X218664Y238507D01*
X218188Y238652D01*
X217927Y239966D01*
X217153Y241123D01*
X215996Y241897D01*
X214630Y242169D01*
X213748Y241993D01*
X213149Y243113D01*
X221788Y251752D01*
X221788Y251752D01*
X222451Y252745D01*
X222451Y252745D01*
X222582Y252810D01*
X224125D01*
Y254751D01*
X233343D01*
X233343Y254751D01*
X234513Y254984D01*
X235506Y255647D01*
X240803Y260944D01*
X240803Y260944D01*
X241201Y261539D01*
X241466Y261937D01*
X241699Y263107D01*
X241699Y263107D01*
X241699Y263107D01*
Y263107D01*
Y267020D01*
X251126D01*
Y272961D01*
X252620D01*
Y271020D01*
X261080D01*
Y270480D01*
X264850D01*
Y276020D01*
X266120D01*
Y277290D01*
X271160D01*
Y280741D01*
X272477Y281002D01*
X274144Y282116D01*
X275258Y283783D01*
X275396Y284480D01*
X265624D01*
X265762Y283783D01*
X266500Y282680D01*
X265901Y281560D01*
X261080D01*
Y281020D01*
X252620D01*
Y279079D01*
X251126D01*
Y285020D01*
X236666D01*
Y285560D01*
X229396D01*
Y276020D01*
X226856D01*
Y285560D01*
X219586D01*
Y281857D01*
X219334Y281650D01*
Y276020D01*
X216794D01*
Y280906D01*
X216097Y280767D01*
X214999Y280033D01*
X213879Y280632D01*
Y292103D01*
X216737Y294961D01*
X220126D01*
Y289020D01*
X234586D01*
Y288480D01*
X241856D01*
Y298020D01*
X243126D01*
Y299290D01*
X251666D01*
Y307560D01*
X243570D01*
X242971Y308680D01*
X243388Y309303D01*
X243526Y310000D01*
X233754D01*
X233892Y309303D01*
X234586Y308265D01*
Y307984D01*
X234071Y307020D01*
X227184D01*
Y309960D01*
X228112D01*
Y319960D01*
X219652D01*
Y320500D01*
X215882D01*
Y314960D01*
Y309420D01*
X219652D01*
Y309960D01*
X221066D01*
Y307020D01*
X220126D01*
Y301079D01*
X215470D01*
X214300Y300846D01*
X213307Y300183D01*
X213307Y300183D01*
X208657Y295533D01*
X207994Y294541D01*
X207761Y293370D01*
X207761Y293370D01*
Y276970D01*
X206641Y276371D01*
X206024Y276783D01*
X205328Y276922D01*
Y272036D01*
Y267150D01*
X206024Y267288D01*
X206641Y267700D01*
X207761Y267102D01*
Y262810D01*
X206125D01*
Y252994D01*
X202791Y249660D01*
X197714D01*
X197418Y249601D01*
X193760D01*
Y249640D01*
X193721D01*
Y253298D01*
X193780Y253594D01*
Y258150D01*
X199885Y264256D01*
X200548Y265248D01*
X200781Y266418D01*
Y266817D01*
X201901Y267416D01*
X202092Y267288D01*
X202788Y267150D01*
Y272036D01*
Y276922D01*
X202092Y276783D01*
X201901Y276656D01*
X200781Y277255D01*
Y289028D01*
X201019Y289384D01*
X201291Y290750D01*
X201019Y292116D01*
X200245Y293273D01*
X199088Y294047D01*
X197722Y294319D01*
X196357Y294047D01*
X195199Y293273D01*
X194425Y292116D01*
X194154Y290750D01*
X194425Y289384D01*
Y289384D01*
X194663Y288406D01*
X193448Y288038D01*
X193023Y288673D01*
X191866Y289447D01*
X190500Y289718D01*
X190005Y289620D01*
X189221Y289776D01*
X188051Y289543D01*
X187059Y288880D01*
X186396Y287887D01*
X186163Y286717D01*
X186333Y285861D01*
X185435Y284963D01*
X184150Y285218D01*
X182784Y284947D01*
X181627Y284173D01*
X180853Y283015D01*
X180581Y281650D01*
X180853Y280284D01*
X181627Y279126D01*
X182784Y278353D01*
X183205Y278269D01*
X185069Y276405D01*
X184471Y275285D01*
X184150Y275349D01*
X182784Y275077D01*
X181627Y274303D01*
X180853Y273146D01*
X180770Y272725D01*
X179374Y271330D01*
X178159Y271698D01*
X178016Y272417D01*
X177242Y273574D01*
X176085Y274348D01*
X174719Y274620D01*
X173353Y274348D01*
X172977Y274096D01*
X171857Y274695D01*
Y280720D01*
X196394Y305256D01*
X197032Y306212D01*
X197257Y307340D01*
X197257Y307340D01*
X197257Y307340D01*
Y307340D01*
Y309440D01*
X200110D01*
Y311941D01*
X201325Y312310D01*
X201983Y311326D01*
X203650Y310212D01*
X204346Y310074D01*
Y314960D01*
Y319846D01*
X203650Y319708D01*
X201983Y318594D01*
X201325Y317610D01*
X200110Y317979D01*
Y329040D01*
X188510D01*
D01*
D01*
X188510Y329040D01*
X187410D01*
Y329040D01*
X175810D01*
D01*
D01*
X175810Y329040D01*
X174710D01*
Y329040D01*
X163110D01*
D01*
D01*
X163110Y329040D01*
X162010D01*
Y329040D01*
X150410D01*
D01*
D01*
X150410Y329040D01*
X149310D01*
Y329040D01*
X137710D01*
D01*
D01*
X137710Y329040D01*
X136610D01*
Y329040D01*
X125010D01*
D01*
D01*
X125010Y329040D01*
X123910D01*
Y329040D01*
X112310D01*
D01*
D01*
X112310Y329040D01*
X111210D01*
Y329040D01*
X99610D01*
D01*
D01*
X99610Y329040D01*
X98510D01*
Y329040D01*
X86910D01*
D01*
D01*
X86910Y329040D01*
X85810D01*
Y329040D01*
X74210D01*
D01*
D01*
X74210Y329040D01*
X73110D01*
Y329040D01*
X61510D01*
D01*
D01*
X61510Y329040D01*
X60410D01*
Y329040D01*
X48810D01*
D01*
X48810D01*
X48682Y329168D01*
Y399940D01*
X48682D01*
X48810D01*
X49580Y399940D01*
X49580Y399940D01*
Y399940D01*
X51276D01*
Y398689D01*
X51041Y397510D01*
X51313Y396144D01*
X52087Y394987D01*
X53244Y394213D01*
X53328Y394197D01*
X53334Y394192D01*
X54610Y393938D01*
X55886Y394192D01*
X55892Y394197D01*
X55976Y394213D01*
X57133Y394987D01*
X57907Y396144D01*
X58179Y397510D01*
X57944Y398689D01*
Y399940D01*
X60410D01*
Y399940D01*
X60410D01*
X60410Y399940D01*
X61510D01*
Y399940D01*
X63976D01*
Y398689D01*
X63741Y397510D01*
X64013Y396144D01*
X64787Y394987D01*
X65944Y394213D01*
X67310Y393941D01*
X68676Y394213D01*
X69833Y394987D01*
X70607Y396144D01*
X70879Y397510D01*
X70644Y398689D01*
Y399940D01*
X73110D01*
Y399940D01*
X73110D01*
X73110Y399940D01*
X74210D01*
Y399940D01*
X76441D01*
Y384810D01*
X76713Y383444D01*
X77487Y382287D01*
X78644Y381513D01*
X80010Y381241D01*
X81376Y381513D01*
X82533Y382287D01*
X83307Y383444D01*
X83579Y384810D01*
Y399940D01*
X85810D01*
Y399940D01*
X85810D01*
X85810Y399940D01*
X86910D01*
Y399940D01*
X89237D01*
Y384906D01*
X89237Y384906D01*
X89237D01*
X89509Y383540D01*
X90282Y382382D01*
X91440Y381609D01*
X92806Y381337D01*
X94171Y381609D01*
X95329Y382382D01*
X96103Y383540D01*
X96374Y384906D01*
Y399940D01*
X98510D01*
Y399940D01*
X98510D01*
X98510Y399940D01*
X99610D01*
Y399940D01*
X102076D01*
Y399560D01*
X102330Y398284D01*
X103053Y397202D01*
X103052Y397202D01*
X103053Y397202D01*
X136852Y363402D01*
X136852D01*
X136852Y363402D01*
X136852D01*
X136853Y363402D01*
Y363402D01*
X136853Y363402D01*
Y363402D01*
X137934Y362680D01*
X139210Y362426D01*
X169998D01*
X209088Y323336D01*
X210170Y322613D01*
X211446Y322360D01*
X327034D01*
X328310Y322613D01*
X329392Y323336D01*
X329392Y323336D01*
X329392Y323336D01*
X338541Y332486D01*
X361646D01*
X362921Y332740D01*
X364003Y333462D01*
X364003Y333462D01*
X364003Y333462D01*
X379828Y349288D01*
X381818Y348463D01*
X384690Y348085D01*
X387562Y348463D01*
X390237Y349571D01*
X392535Y351335D01*
X394298Y353633D01*
X395407Y356308D01*
X395785Y359180D01*
X395407Y362052D01*
X394298Y364727D01*
X392535Y367025D01*
X390237Y368788D01*
X387562Y369897D01*
X384690Y370275D01*
X381818Y369897D01*
X379142Y368788D01*
X376845Y367025D01*
X375377Y365112D01*
X374174Y365520D01*
Y377055D01*
X376387Y377971D01*
X378685Y379735D01*
X380448Y382033D01*
X381557Y384708D01*
X381935Y387580D01*
X381557Y390452D01*
X380448Y393127D01*
X378685Y395425D01*
X376387Y397188D01*
X373712Y398297D01*
X370840Y398675D01*
X367968Y398297D01*
X365293Y397188D01*
X362995Y395425D01*
X361231Y393127D01*
X360123Y390452D01*
X359745Y387580D01*
X360123Y384708D01*
X361231Y382033D01*
X362995Y379735D01*
X365293Y377971D01*
X367506Y377055D01*
Y365520D01*
X366303Y365112D01*
X364835Y367025D01*
X362537Y368788D01*
X359862Y369897D01*
X356990Y370275D01*
X354118Y369897D01*
X351442Y368788D01*
X349145Y367025D01*
X347382Y364727D01*
X346273Y362052D01*
X345895Y359180D01*
X346273Y356308D01*
X347382Y353633D01*
X349145Y351335D01*
X351442Y349571D01*
X354118Y348463D01*
X356990Y348085D01*
X359862Y348463D01*
X362473Y349545D01*
X363179Y348489D01*
X358384Y343694D01*
X335280D01*
X334004Y343440D01*
X332923Y342718D01*
X323773Y333568D01*
X214708D01*
X175618Y372658D01*
X174536Y373380D01*
X173260Y373634D01*
X142472D01*
X121444Y394661D01*
Y399940D01*
X123910D01*
Y399940D01*
X123910D01*
X123910Y399940D01*
X125010D01*
Y399940D01*
X127476D01*
Y398689D01*
X127241Y397510D01*
X127513Y396144D01*
X128287Y394987D01*
X129444Y394213D01*
X130810Y393941D01*
X132176Y394213D01*
X133333Y394987D01*
X134107Y396144D01*
X134379Y397510D01*
X134144Y398689D01*
Y399940D01*
X136610D01*
Y399940D01*
X136610D01*
X136610Y399940D01*
X137710D01*
Y399940D01*
X140176D01*
Y398689D01*
X139941Y397510D01*
X140213Y396144D01*
X140987Y394987D01*
X142144Y394213D01*
X143510Y393941D01*
X144876Y394213D01*
X146033Y394987D01*
X146807Y396144D01*
X147079Y397510D01*
X146844Y398689D01*
Y399940D01*
X149310D01*
Y399940D01*
X149310D01*
X149310Y399940D01*
X150410D01*
Y399940D01*
X162010D01*
Y399940D01*
X162010D01*
X162010Y399940D01*
X163110D01*
Y399940D01*
X174710D01*
Y399940D01*
X174710D01*
X174710Y399940D01*
X175810D01*
Y399940D01*
X178276D01*
Y387350D01*
X178530Y386074D01*
X179252Y384992D01*
X179252Y384992D01*
X179252Y384992D01*
X227512Y336732D01*
X227512D01*
X227512Y336732D01*
X227512Y336732D01*
Y336732D01*
X228594Y336010D01*
X229870Y335756D01*
X309200D01*
X310476Y336010D01*
X311558Y336732D01*
X324205Y349380D01*
X326418Y348463D01*
X329290Y348085D01*
X332162Y348463D01*
X334837Y349571D01*
X337135Y351335D01*
X338899Y353633D01*
X340007Y356308D01*
X340385Y359180D01*
X340007Y362052D01*
X338899Y364727D01*
X337135Y367025D01*
X334837Y368788D01*
X332162Y369897D01*
X329290Y370275D01*
X326418Y369897D01*
X323743Y368788D01*
X321445Y367025D01*
X319681Y364727D01*
X318573Y362052D01*
X318195Y359180D01*
X318573Y356308D01*
X319490Y354095D01*
X307819Y342424D01*
X276658D01*
X276172Y343597D01*
X310355Y377780D01*
X312568Y376863D01*
X315440Y376485D01*
X318312Y376863D01*
X320988Y377971D01*
X323285Y379735D01*
X325048Y382033D01*
X326157Y384708D01*
X326535Y387580D01*
X326157Y390452D01*
X325048Y393127D01*
X323285Y395425D01*
X320988Y397188D01*
X318312Y398297D01*
X315440Y398675D01*
X312568Y398297D01*
X309893Y397188D01*
X307595Y395425D01*
X305832Y393127D01*
X304723Y390452D01*
X304345Y387580D01*
X304723Y384708D01*
X305640Y382495D01*
X270109Y346964D01*
X259668D01*
X259323Y348186D01*
X262694Y350252D01*
X266105Y353165D01*
X269018Y356576D01*
X271362Y360401D01*
X273079Y364546D01*
X274126Y368908D01*
X274478Y373380D01*
X274126Y377852D01*
X273079Y382214D01*
X271362Y386359D01*
X269018Y390184D01*
X266105Y393595D01*
X262694Y396508D01*
X258869Y398852D01*
X254724Y400569D01*
X250362Y401616D01*
X245890Y401968D01*
X241418Y401616D01*
X237056Y400569D01*
X232911Y398852D01*
X229086Y396508D01*
X225675Y393595D01*
X222762Y390184D01*
X220418Y386359D01*
X218701Y382214D01*
X217654Y377852D01*
X217302Y373380D01*
X217654Y368908D01*
X218701Y364546D01*
X219684Y362173D01*
X218628Y361468D01*
X197644Y382452D01*
Y399940D01*
X200110D01*
Y419540D01*
X188510D01*
D01*
D01*
X188510Y419540D01*
X187410D01*
Y419540D01*
X175810D01*
D01*
D01*
X175810Y419540D01*
X174710D01*
Y419540D01*
X172479D01*
Y420370D01*
Y421530D01*
X173910D01*
Y430530D01*
Y439530D01*
X172479D01*
Y441031D01*
X172207Y442396D01*
X171433Y443554D01*
X164843Y450145D01*
X165329Y451318D01*
X300187D01*
X300312Y450054D01*
X299429Y449878D01*
X298106Y448994D01*
X297222Y447671D01*
X296912Y446110D01*
Y437489D01*
X294981D01*
X294981Y437489D01*
X293679Y437230D01*
X293420Y437178D01*
X292097Y436294D01*
X292097Y436294D01*
X291522Y435720D01*
X282020D01*
Y435298D01*
X279320D01*
Y435720D01*
X269320D01*
Y426720D01*
Y425789D01*
X220746D01*
X219381Y425517D01*
X218223Y424743D01*
X212563Y419083D01*
X211789Y417926D01*
X211518Y416560D01*
X211789Y415194D01*
X212563Y414037D01*
X213721Y413263D01*
X215086Y412991D01*
X216452Y413263D01*
X217610Y414037D01*
X222225Y418651D01*
X269320D01*
Y417720D01*
X279320D01*
Y418651D01*
X282020D01*
Y417720D01*
X292020D01*
Y417720D01*
X292306Y417720D01*
X293274Y417073D01*
X294640Y416801D01*
X297070D01*
Y415710D01*
X298001D01*
Y408591D01*
X298273Y407225D01*
X299047Y406067D01*
X299627Y405487D01*
X300784Y404714D01*
X302150Y404442D01*
X324621D01*
X324669Y404371D01*
X326338Y403255D01*
X328308Y402864D01*
X342532D01*
X344502Y403255D01*
X346171Y404371D01*
X346823Y405346D01*
X347034Y405487D01*
X348717Y407170D01*
X374265D01*
X374265Y407170D01*
X374265Y407170D01*
X378320Y407170D01*
X378320D01*
X378658D01*
X378924Y405830D01*
X380159Y403982D01*
X382008Y402747D01*
X384188Y402313D01*
X390030D01*
Y408010D01*
Y413708D01*
X384188D01*
X382008Y413274D01*
X380159Y412039D01*
X379535Y411105D01*
X378320Y411474D01*
Y418219D01*
X379535Y418588D01*
X380549Y417071D01*
X382218Y415955D01*
X384188Y415564D01*
X398412D01*
X400382Y415955D01*
X402051Y417071D01*
X403167Y418741D01*
X403559Y420710D01*
X403167Y422680D01*
X402051Y424350D01*
X400382Y425466D01*
X398412Y425857D01*
X384188D01*
X382218Y425466D01*
X380549Y424350D01*
X379535Y422833D01*
X378320Y423202D01*
Y430919D01*
X379535Y431288D01*
X380549Y429771D01*
X382218Y428655D01*
X384188Y428264D01*
X398412D01*
X400382Y428655D01*
X402051Y429771D01*
X402439Y430352D01*
X428923D01*
X461761Y397513D01*
Y342900D01*
X461761Y342900D01*
X461994Y341730D01*
X462657Y340737D01*
X468111Y335283D01*
Y300079D01*
X466909Y299671D01*
X465981Y300881D01*
X464153Y302283D01*
X462799Y302844D01*
Y307230D01*
X464740D01*
Y316230D01*
Y325230D01*
X463818D01*
Y327660D01*
X463508Y329221D01*
X462624Y330544D01*
X461301Y331428D01*
X459740Y331738D01*
X458179Y331428D01*
X456856Y330544D01*
X455972Y329221D01*
X455662Y327660D01*
Y325230D01*
X454740D01*
Y316230D01*
Y307230D01*
X456681D01*
Y302844D01*
X455327Y302283D01*
X453499Y300881D01*
X452097Y299053D01*
X451344Y297236D01*
X450099Y297484D01*
Y307230D01*
X452040D01*
Y316230D01*
Y325230D01*
X451930D01*
X450337Y326294D01*
X450609Y327660D01*
X450337Y329026D01*
X449563Y330183D01*
X448406Y330957D01*
X447040Y331229D01*
X445674Y330957D01*
X444517Y330183D01*
X443743Y329026D01*
X443471Y327660D01*
X443743Y326294D01*
X442150Y325230D01*
X442040D01*
Y323789D01*
X439340D01*
Y325230D01*
X429340D01*
Y323789D01*
X426640D01*
Y325230D01*
X416640D01*
Y323789D01*
X413940D01*
Y325230D01*
X403940D01*
Y323789D01*
X401240D01*
Y325230D01*
X391240D01*
Y323789D01*
X388540D01*
Y325230D01*
X378540D01*
Y323789D01*
X375840D01*
Y325230D01*
X365840D01*
Y323789D01*
X363140D01*
Y325230D01*
X353140D01*
Y316230D01*
Y307230D01*
X354804D01*
Y302729D01*
X353727Y302283D01*
X351899Y300881D01*
X350497Y299053D01*
X349615Y296924D01*
X349314Y294640D01*
X349615Y292356D01*
X350497Y290227D01*
X351899Y288399D01*
X353727Y286997D01*
X355856Y286115D01*
X358140Y285814D01*
X360424Y286115D01*
X362553Y286997D01*
X364381Y288399D01*
X365783Y290227D01*
X366536Y292044D01*
X367781Y291796D01*
Y283207D01*
X361778Y277204D01*
X360424Y277765D01*
X358140Y278065D01*
X355856Y277765D01*
X353727Y276883D01*
X351899Y275481D01*
X350497Y273653D01*
X349615Y271524D01*
X349314Y269240D01*
X349615Y266956D01*
X350497Y264827D01*
X351899Y262999D01*
X353727Y261597D01*
X355856Y260715D01*
X358140Y260415D01*
X360424Y260715D01*
X362553Y261597D01*
X364381Y262999D01*
X365783Y264827D01*
X366665Y266956D01*
X366965Y269240D01*
X366665Y271524D01*
X366104Y272878D01*
X373003Y279777D01*
X373003Y279777D01*
X373666Y280770D01*
X373899Y281940D01*
X373899Y281940D01*
Y291796D01*
X375144Y292044D01*
X375897Y290227D01*
X377299Y288399D01*
X379127Y286997D01*
X381256Y286115D01*
X383540Y285814D01*
X385824Y286115D01*
X387953Y286997D01*
X389781Y288399D01*
X391183Y290227D01*
X391936Y292044D01*
X393181Y291796D01*
Y283207D01*
X387178Y277204D01*
X385824Y277765D01*
X383540Y278065D01*
X381256Y277765D01*
X379127Y276883D01*
X377299Y275481D01*
X375897Y273653D01*
X375015Y271524D01*
X374715Y269240D01*
X375015Y266956D01*
X375897Y264827D01*
X377299Y262999D01*
X379127Y261597D01*
X381256Y260715D01*
X383540Y260415D01*
X385824Y260715D01*
X387953Y261597D01*
X389781Y262999D01*
X391183Y264827D01*
X392065Y266956D01*
X392365Y269240D01*
X392065Y271524D01*
X391504Y272878D01*
X398403Y279777D01*
X398403Y279777D01*
X399066Y280770D01*
X399066Y280769D01*
X399066Y280770D01*
X399299Y281940D01*
X399299Y281940D01*
Y291796D01*
X400544Y292044D01*
X401297Y290227D01*
X402699Y288399D01*
X404527Y286997D01*
X406656Y286115D01*
X408940Y285814D01*
X411224Y286115D01*
X413353Y286997D01*
X415181Y288399D01*
X416583Y290227D01*
X417336Y292044D01*
X418581Y291796D01*
Y283207D01*
X412578Y277204D01*
X411224Y277765D01*
X408940Y278065D01*
X406656Y277765D01*
X404527Y276883D01*
X402699Y275481D01*
X401297Y273653D01*
X400415Y271524D01*
X400115Y269240D01*
X400415Y266956D01*
X401297Y264827D01*
X402699Y262999D01*
X404527Y261597D01*
X406656Y260715D01*
X408940Y260415D01*
X411224Y260715D01*
X413353Y261597D01*
X415181Y262999D01*
X416583Y264827D01*
X417465Y266956D01*
X417766Y269240D01*
X417465Y271524D01*
X416904Y272878D01*
X423803Y279777D01*
X423803Y279777D01*
X424466Y280770D01*
X424466Y280769D01*
X424466Y280770D01*
X424699Y281940D01*
X424699Y281940D01*
Y291796D01*
X425944Y292044D01*
X426697Y290227D01*
X428099Y288399D01*
X429927Y286997D01*
X432056Y286115D01*
X434340Y285814D01*
X436624Y286115D01*
X438753Y286997D01*
X440581Y288399D01*
X441983Y290227D01*
X442736Y292044D01*
X443981Y291796D01*
Y283207D01*
X437978Y277204D01*
X436624Y277765D01*
X434340Y278065D01*
X432056Y277765D01*
X429927Y276883D01*
X428099Y275481D01*
X426697Y273653D01*
X425815Y271524D01*
X425514Y269240D01*
X425815Y266956D01*
X426697Y264827D01*
X428099Y262999D01*
X429927Y261597D01*
X432056Y260715D01*
X434340Y260415D01*
X436624Y260715D01*
X438753Y261597D01*
X440581Y262999D01*
X441983Y264827D01*
X442865Y266956D01*
X443166Y269240D01*
X442865Y271524D01*
X442304Y272878D01*
X449203Y279777D01*
X449203Y279777D01*
X449866Y280770D01*
X450099Y281940D01*
X450099Y281940D01*
Y291796D01*
X451344Y292044D01*
X452097Y290227D01*
X453499Y288399D01*
X455327Y286997D01*
X457456Y286115D01*
X459740Y285814D01*
X462024Y286115D01*
X464153Y286997D01*
X465981Y288399D01*
X466909Y289609D01*
X468111Y289201D01*
Y281937D01*
X463378Y277204D01*
X462024Y277765D01*
X459740Y278065D01*
X457456Y277765D01*
X455327Y276883D01*
X453499Y275481D01*
X452097Y273653D01*
X451215Y271524D01*
X450914Y269240D01*
X451215Y266956D01*
X452097Y264827D01*
X453499Y262999D01*
X455327Y261597D01*
X457456Y260715D01*
X459740Y260415D01*
X462024Y260715D01*
X464153Y261597D01*
X465981Y262999D01*
X467383Y264827D01*
X468265Y266956D01*
X468565Y269240D01*
X468265Y271524D01*
X467704Y272878D01*
X473333Y278507D01*
X473996Y279499D01*
X474229Y280670D01*
X474229Y280670D01*
X474229Y280670D01*
Y280670D01*
Y336550D01*
X473996Y337721D01*
X473730Y338118D01*
X473333Y338713D01*
X473333Y338713D01*
X467879Y344167D01*
Y363035D01*
X469124Y363282D01*
X470318Y360401D01*
X472662Y356576D01*
X475575Y353165D01*
X478986Y350252D01*
X482811Y347908D01*
X486956Y346191D01*
X491318Y345144D01*
X495790Y344792D01*
X500262Y345144D01*
X504624Y346191D01*
X508769Y347908D01*
X512594Y350252D01*
X516005Y353165D01*
X518918Y356576D01*
X521262Y360401D01*
X522979Y364546D01*
X524026Y368908D01*
X524378Y373380D01*
X524026Y377852D01*
X522979Y382214D01*
X521262Y386359D01*
X518918Y390184D01*
X516005Y393595D01*
X512594Y396508D01*
X508769Y398852D01*
X504624Y400569D01*
X500262Y401616D01*
X495790Y401968D01*
X491318Y401616D01*
X486956Y400569D01*
X482811Y398852D01*
X478986Y396508D01*
X475575Y393595D01*
X472662Y390184D01*
X470318Y386359D01*
X469124Y383478D01*
X467879Y383725D01*
Y398780D01*
X467879Y398780D01*
X467646Y399950D01*
X466983Y400943D01*
X432352Y435573D01*
X431360Y436236D01*
X430190Y436469D01*
X430189Y436469D01*
X402439D01*
X402051Y437050D01*
X400382Y438166D01*
X398412Y438557D01*
X384188D01*
X382218Y438166D01*
X380549Y437050D01*
X379535Y435533D01*
X378320Y435902D01*
Y443619D01*
X379535Y443988D01*
X380549Y442471D01*
X382218Y441355D01*
X384188Y440964D01*
X398412D01*
X400382Y441355D01*
X402051Y442471D01*
X403167Y444141D01*
X403559Y446110D01*
X403167Y448080D01*
X402051Y449750D01*
X401524Y450103D01*
X401892Y451318D01*
X587387D01*
X587814Y450122D01*
X585532Y448248D01*
X583532Y445812D01*
X582046Y443033D01*
X581132Y440017D01*
X580823Y436880D01*
X581132Y433744D01*
X582046Y430727D01*
X583532Y427948D01*
X585532Y425512D01*
X587968Y423512D01*
X589840Y422512D01*
Y405233D01*
X590080Y403405D01*
X590785Y401702D01*
X591908Y400240D01*
X601834Y390314D01*
X603296Y389192D01*
X604999Y388486D01*
X606826Y388246D01*
X626996D01*
X652380Y362861D01*
Y356846D01*
X668380D01*
Y372846D01*
X662365D01*
X634912Y400299D01*
X633450Y401421D01*
X631747Y402126D01*
X629920Y402366D01*
X609751D01*
X603960Y408157D01*
Y422512D01*
X605832Y423512D01*
X608269Y425512D01*
X610268Y427948D01*
X611754Y430727D01*
X612668Y433744D01*
X612977Y436880D01*
X612668Y440017D01*
X611754Y443033D01*
X610268Y445812D01*
X608269Y448248D01*
X605985Y450122D01*
X606413Y451318D01*
X624636D01*
X625063Y450122D01*
X623248Y448632D01*
X621181Y446114D01*
X619645Y443240D01*
X618699Y440122D01*
X618505Y438150D01*
X651495D01*
X651301Y440122D01*
X650355Y443240D01*
X648819Y446114D01*
X646752Y448632D01*
X644937Y450122D01*
X645365Y451318D01*
X657591D01*
X658134Y450170D01*
D02*
G37*
G36*
X242570Y172091D02*
Y154940D01*
X233555Y145925D01*
X226178D01*
X225708Y146395D01*
X221568D01*
X213948Y154015D01*
Y163485D01*
X226993Y176530D01*
X238131D01*
X242570Y172091D01*
D02*
G37*
G36*
X73050Y219710D02*
Y210710D01*
X83050D01*
Y212523D01*
X86440D01*
Y210710D01*
X92141D01*
X102723Y200127D01*
Y197051D01*
X101838Y196685D01*
X100359Y195550D01*
X99224Y194071D01*
X98511Y192348D01*
X98268Y190500D01*
Y185420D01*
X98511Y183572D01*
X99224Y181850D01*
X100359Y180371D01*
X101838Y179236D01*
X102723Y178869D01*
Y176640D01*
X100410D01*
Y167640D01*
Y158640D01*
X102463D01*
Y156210D01*
X102463Y156210D01*
X102463D01*
X102688Y155082D01*
X103326Y154126D01*
X110946Y146506D01*
X111902Y145868D01*
X113030Y145643D01*
X135363D01*
X136491Y145868D01*
X137447Y146506D01*
X142527Y151586D01*
X143165Y152542D01*
X143390Y153670D01*
Y166704D01*
X144605Y167072D01*
X144956Y166546D01*
X146623Y165432D01*
X147320Y165294D01*
Y170180D01*
X149860D01*
Y165294D01*
X150556Y165432D01*
X150873Y165644D01*
X151993Y165046D01*
Y156969D01*
X129581Y134557D01*
X117044D01*
X115917Y134332D01*
X114960Y133694D01*
X106464Y125197D01*
X105249Y125566D01*
X105078Y126426D01*
X103964Y128094D01*
X102296Y129208D01*
X101600Y129346D01*
Y124460D01*
X100330D01*
Y123190D01*
X95444D01*
X95582Y122493D01*
X96086Y121740D01*
X95487Y120620D01*
X86123D01*
X85524Y121740D01*
X86028Y122493D01*
X86166Y123190D01*
X76394D01*
X76532Y122493D01*
X77036Y121740D01*
X76437Y120620D01*
X63263D01*
X62664Y121740D01*
X63168Y122493D01*
X63306Y123190D01*
X53534D01*
X53672Y122493D01*
X54786Y120826D01*
X54786Y119861D01*
X54630Y119757D01*
X49987Y115114D01*
X49897Y114980D01*
X48682Y115349D01*
Y145055D01*
X49856Y145541D01*
X52007Y143390D01*
Y139986D01*
X56683D01*
X57730Y139778D01*
X58777Y139986D01*
X64134D01*
Y152114D01*
X57701D01*
X57168Y152647D01*
Y157020D01*
X60380D01*
Y162560D01*
Y168100D01*
X57168D01*
Y180433D01*
X58255Y181849D01*
X58969Y183572D01*
X59212Y185420D01*
Y190500D01*
X58969Y192348D01*
X58255Y194070D01*
X57120Y195550D01*
X55641Y196684D01*
X55639Y196686D01*
Y198295D01*
X56610D01*
Y198295D01*
X60380D01*
Y203835D01*
Y209375D01*
X56610D01*
Y209375D01*
X56537D01*
X55639Y210273D01*
Y216962D01*
X59318Y220641D01*
X73050D01*
Y219710D01*
D02*
G37*
G36*
X201930Y209909D02*
Y208280D01*
X208280Y201930D01*
Y196850D01*
X205740Y194310D01*
X200660D01*
X194310Y200660D01*
X186690D01*
Y203576D01*
X186721Y203606D01*
X194074D01*
X197714Y207246D01*
Y210599D01*
X201240D01*
X201930Y209909D01*
D02*
G37*
%LPC*%
G36*
X79374Y152114D02*
X67246D01*
Y139986D01*
X69232D01*
Y135296D01*
X69543Y133735D01*
X70427Y132412D01*
X71750Y131528D01*
X73310Y131217D01*
X74871Y131528D01*
X76194Y132412D01*
X77078Y133735D01*
X77389Y135296D01*
Y139986D01*
X79374D01*
Y141972D01*
X85001D01*
X86562Y142282D01*
X87885Y143166D01*
X88769Y144489D01*
X89080Y146050D01*
X88769Y147611D01*
X87885Y148934D01*
X86562Y149818D01*
X85001Y150128D01*
X79374D01*
Y152114D01*
D02*
G37*
G36*
X453340Y135890D02*
X449724D01*
X449862Y135194D01*
X450976Y133526D01*
X452644Y132412D01*
X453340Y132274D01*
Y135890D01*
D02*
G37*
G36*
X459496D02*
X455880D01*
Y132274D01*
X456576Y132412D01*
X458244Y133526D01*
X459358Y135194D01*
X459496Y135890D01*
D02*
G37*
G36*
X99060Y129346D02*
X98364Y129208D01*
X96696Y128094D01*
X95582Y126426D01*
X95444Y125730D01*
X99060D01*
Y129346D01*
D02*
G37*
G36*
X471680Y135890D02*
X464410D01*
Y126620D01*
X471680D01*
Y135890D01*
D02*
G37*
G36*
X153205Y133621D02*
X152508Y133483D01*
X150841Y132369D01*
X149727Y130702D01*
X149589Y130005D01*
X153205D01*
Y133621D01*
D02*
G37*
G36*
X481490Y135890D02*
X474220D01*
Y126620D01*
X481490D01*
Y135890D01*
D02*
G37*
G36*
Y147700D02*
X474220D01*
Y138430D01*
X481490D01*
Y147700D01*
D02*
G37*
G36*
X471680D02*
X464410D01*
Y138430D01*
X471680D01*
Y147700D01*
D02*
G37*
G36*
X101600Y145856D02*
Y142240D01*
X105216D01*
X105078Y142936D01*
X103964Y144604D01*
X102296Y145718D01*
X101600Y145856D01*
D02*
G37*
G36*
X99060D02*
X98364Y145718D01*
X96696Y144604D01*
X95582Y142936D01*
X95444Y142240D01*
X99060D01*
Y145856D01*
D02*
G37*
G36*
X105216Y139700D02*
X101600D01*
Y136084D01*
X102296Y136222D01*
X103964Y137336D01*
X105078Y139003D01*
X105216Y139700D01*
D02*
G37*
G36*
X99060D02*
X95444D01*
X95582Y139003D01*
X96696Y137336D01*
X98364Y136222D01*
X99060Y136084D01*
Y139700D01*
D02*
G37*
G36*
X455880Y142046D02*
Y138430D01*
X459496D01*
X459358Y139127D01*
X458244Y140794D01*
X456576Y141908D01*
X455880Y142046D01*
D02*
G37*
G36*
X453340D02*
X452644Y141908D01*
X450976Y140794D01*
X449862Y139127D01*
X449724Y138430D01*
X453340D01*
Y142046D01*
D02*
G37*
G36*
X389696Y113030D02*
X386080D01*
Y109414D01*
X386777Y109552D01*
X388444Y110666D01*
X389558Y112333D01*
X389696Y113030D01*
D02*
G37*
G36*
X283337Y117221D02*
X275590D01*
Y107950D01*
X283337D01*
Y117221D01*
D02*
G37*
G36*
X453340Y116646D02*
X452644Y116508D01*
X450976Y115394D01*
X449862Y113727D01*
X449724Y113030D01*
X453340D01*
Y116646D01*
D02*
G37*
G36*
X471680Y122300D02*
X464410D01*
Y113030D01*
X471680D01*
Y122300D01*
D02*
G37*
G36*
X455880Y116646D02*
Y113030D01*
X459496D01*
X459358Y113727D01*
X458244Y115394D01*
X456576Y116508D01*
X455880Y116646D01*
D02*
G37*
G36*
X260040Y109380D02*
X250770D01*
Y102110D01*
X260040D01*
Y109380D01*
D02*
G37*
G36*
X248230D02*
X238960D01*
Y102110D01*
X248230D01*
Y109380D01*
D02*
G37*
G36*
X453340Y110490D02*
X449724D01*
X449862Y109794D01*
X450976Y108126D01*
X452644Y107012D01*
X453340Y106874D01*
Y110490D01*
D02*
G37*
G36*
X273050Y117221D02*
X265303D01*
Y107950D01*
X273050D01*
Y117221D01*
D02*
G37*
G36*
X459496Y110490D02*
X455880D01*
Y106874D01*
X456576Y107012D01*
X458244Y108126D01*
X459358Y109794D01*
X459496Y110490D01*
D02*
G37*
G36*
X481490Y122300D02*
X474220D01*
Y113030D01*
X481490D01*
Y122300D01*
D02*
G37*
G36*
X57150Y129346D02*
X56453Y129208D01*
X54786Y128094D01*
X53672Y126426D01*
X53534Y125730D01*
X57150D01*
Y129346D01*
D02*
G37*
G36*
X153205Y127465D02*
X149589D01*
X149727Y126769D01*
X150841Y125101D01*
X152508Y123987D01*
X153205Y123849D01*
Y127465D01*
D02*
G37*
G36*
X59690Y129346D02*
Y125730D01*
X63306D01*
X63168Y126426D01*
X62054Y128094D01*
X60387Y129208D01*
X59690Y129346D01*
D02*
G37*
G36*
X82550D02*
Y125730D01*
X86166D01*
X86028Y126426D01*
X84914Y128094D01*
X83246Y129208D01*
X82550Y129346D01*
D02*
G37*
G36*
X80010D02*
X79314Y129208D01*
X77646Y128094D01*
X76532Y126426D01*
X76394Y125730D01*
X80010D01*
Y129346D01*
D02*
G37*
G36*
X119781Y121146D02*
X119085Y121007D01*
X117417Y119894D01*
X116304Y118226D01*
X116165Y117530D01*
X119781D01*
Y121146D01*
D02*
G37*
G36*
X386080Y119186D02*
Y115570D01*
X389696D01*
X389558Y116266D01*
X388444Y117934D01*
X386777Y119048D01*
X386080Y119186D01*
D02*
G37*
G36*
X137620Y121300D02*
X133350D01*
Y117530D01*
X137620D01*
Y121300D01*
D02*
G37*
G36*
X166830Y127465D02*
X162560D01*
Y123695D01*
X166830D01*
Y127465D01*
D02*
G37*
G36*
X130810Y121300D02*
X126540D01*
Y119304D01*
X125325Y118936D01*
X124685Y119894D01*
X123018Y121007D01*
X122321Y121146D01*
Y116260D01*
X121051D01*
Y114990D01*
X116165D01*
X116304Y114293D01*
X117417Y112626D01*
X119085Y111512D01*
X120696Y111192D01*
X120572Y109928D01*
X113720D01*
X111769Y109540D01*
X110115Y108435D01*
X101805Y100125D01*
X100700Y98471D01*
X100312Y96520D01*
Y93885D01*
X99227Y92471D01*
X98513Y90748D01*
X98270Y88900D01*
Y83820D01*
X98513Y81972D01*
X99227Y80250D01*
X100361Y78770D01*
X101840Y77636D01*
X101841Y77635D01*
Y72500D01*
X100410D01*
Y71447D01*
X99654Y71297D01*
X98497Y70523D01*
X93803Y65830D01*
X92630Y66316D01*
Y72500D01*
X90317D01*
Y77269D01*
X91201Y77636D01*
X92680Y78770D01*
X93815Y80250D01*
X94529Y81972D01*
X94772Y83820D01*
Y88900D01*
X94529Y90748D01*
X93815Y92471D01*
X92680Y93949D01*
X91201Y95084D01*
X89479Y95798D01*
X87631Y96041D01*
X85782Y95798D01*
X84060Y95084D01*
X82581Y93949D01*
X81446Y92471D01*
X80733Y90748D01*
X80490Y88900D01*
Y83820D01*
X80733Y81972D01*
X81446Y80250D01*
X82581Y78770D01*
X84060Y77636D01*
X84943Y77270D01*
Y72500D01*
X82630D01*
Y63500D01*
Y54500D01*
X92630D01*
Y55553D01*
X93386Y55703D01*
X94543Y56477D01*
X98697Y60630D01*
X99565Y60270D01*
X110950D01*
Y64040D01*
X110410D01*
Y72500D01*
X108979D01*
Y77634D01*
X108982Y77636D01*
X110461Y78770D01*
X111595Y80250D01*
X112309Y81972D01*
X112552Y83820D01*
Y88900D01*
X112309Y90748D01*
X111595Y92471D01*
X110508Y93888D01*
Y94408D01*
X115831Y99732D01*
X142526D01*
Y98766D01*
X154654D01*
Y110894D01*
X142526D01*
Y109928D01*
X137080D01*
Y111220D01*
X137620D01*
Y114990D01*
X132080D01*
Y116260D01*
X130810D01*
Y121300D01*
D02*
G37*
G36*
X416366Y157769D02*
X406594D01*
X406732Y157072D01*
X407846Y155405D01*
X409514Y154291D01*
X409267Y153050D01*
X405940D01*
Y149280D01*
X417020D01*
Y153050D01*
X413693D01*
X413447Y154291D01*
X415114Y155405D01*
X416228Y157072D01*
X416366Y157769D01*
D02*
G37*
G36*
X580009Y181610D02*
X574294D01*
Y175260D01*
X580009D01*
Y181610D01*
D02*
G37*
G36*
X262890Y174711D02*
Y171095D01*
X266506D01*
X266368Y171791D01*
X265254Y173459D01*
X263587Y174573D01*
X262890Y174711D01*
D02*
G37*
G36*
X588264Y181610D02*
X582549D01*
Y175260D01*
X588264D01*
Y181610D01*
D02*
G37*
G36*
X412267Y179070D02*
X408651D01*
Y175454D01*
X409347Y175592D01*
X411015Y176706D01*
X412128Y178374D01*
X412267Y179070D01*
D02*
G37*
G36*
X406111D02*
X402495D01*
X402633Y178374D01*
X403747Y176706D01*
X405414Y175592D01*
X406111Y175454D01*
Y179070D01*
D02*
G37*
G36*
X266506Y168555D02*
X262890D01*
Y164939D01*
X263587Y165077D01*
X265254Y166191D01*
X266368Y167859D01*
X266506Y168555D01*
D02*
G37*
G36*
X257840Y175365D02*
X254070D01*
Y169825D01*
Y164285D01*
X257840D01*
Y164942D01*
X258960Y165541D01*
X259653Y165077D01*
X260350Y164939D01*
Y169825D01*
Y174711D01*
X259653Y174573D01*
X258960Y174109D01*
X257840Y174708D01*
Y175365D01*
D02*
G37*
G36*
X580009Y172720D02*
X574294D01*
Y166370D01*
X580009D01*
Y172720D01*
D02*
G37*
G36*
X286652Y216858D02*
X280810D01*
Y211161D01*
Y205463D01*
X286652D01*
X288832Y205897D01*
X290681Y207132D01*
X290752Y207238D01*
X291997Y207486D01*
X293572Y206433D01*
X293561Y206201D01*
X293336Y205072D01*
X290550Y203583D01*
X287702Y201246D01*
X285366Y198398D01*
X283629Y195150D01*
X282560Y191625D01*
X282199Y187959D01*
X282560Y184293D01*
X283629Y180768D01*
X285366Y177520D01*
X287702Y174672D01*
X290550Y172335D01*
X293798Y170599D01*
X297323Y169530D01*
X300989Y169168D01*
X304655Y169530D01*
X308180Y170599D01*
X311429Y172335D01*
X314276Y174672D01*
X316613Y177520D01*
X318349Y180768D01*
X319419Y184293D01*
X319780Y187959D01*
X319419Y191625D01*
X318349Y195150D01*
X316613Y198398D01*
X314276Y201246D01*
X311429Y203583D01*
X308180Y205319D01*
X304655Y206388D01*
X300989Y206749D01*
X299999Y206652D01*
X299346Y207741D01*
X300317Y209194D01*
X300456Y209890D01*
X295569D01*
Y211161D01*
X294300D01*
Y216047D01*
X293603Y215908D01*
X291997Y214835D01*
X290752Y215083D01*
X290681Y215189D01*
X288832Y216424D01*
X286652Y216858D01*
D02*
G37*
G36*
X588264Y172720D02*
X582549D01*
Y166370D01*
X588264D01*
Y172720D01*
D02*
G37*
G36*
X418634Y179338D02*
X415018D01*
X415157Y178642D01*
X416271Y176975D01*
X417938Y175861D01*
X418634Y175722D01*
Y179338D01*
D02*
G37*
G36*
X568680Y179070D02*
X565064D01*
Y175454D01*
X565760Y175592D01*
X567427Y176706D01*
X568541Y178374D01*
X568680Y179070D01*
D02*
G37*
G36*
X424791Y179338D02*
X421175D01*
Y175722D01*
X421871Y175861D01*
X423538Y176975D01*
X424652Y178642D01*
X424791Y179338D01*
D02*
G37*
G36*
X77535Y186690D02*
X71120D01*
Y177901D01*
X71838Y177996D01*
X73692Y178764D01*
X75284Y179985D01*
X76505Y181577D01*
X77273Y183431D01*
X77535Y185420D01*
Y186690D01*
D02*
G37*
G36*
X68580D02*
X62164D01*
Y185420D01*
X62425Y183431D01*
X63193Y181577D01*
X64415Y179985D01*
X66006Y178764D01*
X67860Y177996D01*
X68580Y177901D01*
Y186690D01*
D02*
G37*
G36*
X437314Y179070D02*
X433698D01*
Y175454D01*
X434395Y175592D01*
X436062Y176706D01*
X437176Y178374D01*
X437314Y179070D01*
D02*
G37*
G36*
X431158D02*
X427542D01*
X427681Y178374D01*
X428795Y176706D01*
X430462Y175592D01*
X431158Y175454D01*
Y179070D01*
D02*
G37*
G36*
X549824D02*
X546208D01*
X546346Y178374D01*
X547460Y176706D01*
X549127Y175592D01*
X549824Y175454D01*
Y179070D01*
D02*
G37*
G36*
X562524D02*
X558908D01*
X559046Y178374D01*
X560160Y176706D01*
X561827Y175592D01*
X562524Y175454D01*
Y179070D01*
D02*
G37*
G36*
X555980D02*
X552364D01*
Y175454D01*
X553060Y175592D01*
X554728Y176706D01*
X555841Y178374D01*
X555980Y179070D01*
D02*
G37*
G36*
X464895Y160309D02*
X461279D01*
X461417Y159613D01*
X462531Y157945D01*
X464198Y156831D01*
X464895Y156693D01*
Y160309D01*
D02*
G37*
G36*
X266506Y155804D02*
X262890D01*
Y152188D01*
X263587Y152326D01*
X265254Y153440D01*
X266368Y155107D01*
X266506Y155804D01*
D02*
G37*
G36*
X471051Y160309D02*
X467435D01*
Y156693D01*
X468131Y156831D01*
X469799Y157945D01*
X470913Y159613D01*
X471051Y160309D01*
D02*
G37*
G36*
X66690Y168100D02*
X62920D01*
Y162560D01*
Y157020D01*
X66690D01*
Y157263D01*
X67810Y157861D01*
X67884Y157812D01*
X68580Y157674D01*
Y162560D01*
Y167446D01*
X67884Y167308D01*
X67810Y167258D01*
X66690Y167857D01*
Y168100D01*
D02*
G37*
G36*
X93170Y161870D02*
X82090D01*
Y158100D01*
X82090D01*
X82599Y157480D01*
X92661D01*
X93170Y158100D01*
X93170D01*
Y161870D01*
D02*
G37*
G36*
X92516Y154940D02*
X88900D01*
Y151324D01*
X89597Y151462D01*
X91264Y152576D01*
X92378Y154243D01*
X92516Y154940D01*
D02*
G37*
G36*
X86360D02*
X82744D01*
X82882Y154243D01*
X83996Y152576D01*
X85663Y151462D01*
X86360Y151324D01*
Y154940D01*
D02*
G37*
G36*
X483235Y160309D02*
X474980D01*
Y152054D01*
X483235D01*
Y160309D01*
D02*
G37*
G36*
X257840Y162665D02*
X254070D01*
Y157125D01*
Y151585D01*
X257840D01*
Y152191D01*
X258960Y152789D01*
X259653Y152326D01*
X260350Y152188D01*
Y157074D01*
Y161960D01*
X259653Y161821D01*
X258960Y161358D01*
X257840Y161956D01*
Y162665D01*
D02*
G37*
G36*
X494030Y160309D02*
X485775D01*
Y152054D01*
X494030D01*
Y160309D01*
D02*
G37*
G36*
X483235Y171104D02*
X474980D01*
Y162849D01*
X483235D01*
Y171104D01*
D02*
G37*
G36*
X467435Y166465D02*
Y162849D01*
X471051D01*
X470913Y163545D01*
X469799Y165213D01*
X468131Y166327D01*
X467435Y166465D01*
D02*
G37*
G36*
X494030Y171104D02*
X485775D01*
Y162849D01*
X494030D01*
Y171104D01*
D02*
G37*
G36*
X87629Y197641D02*
X85780Y197397D01*
X84058Y196684D01*
X82579Y195549D01*
X81444Y194070D01*
X80731Y192348D01*
X80488Y190499D01*
Y185420D01*
X80731Y183571D01*
X81444Y181849D01*
X82579Y180370D01*
X84058Y179235D01*
X84683Y178976D01*
Y176640D01*
X82630D01*
Y168180D01*
X82090D01*
Y164410D01*
X93170D01*
Y168180D01*
X92630D01*
Y176640D01*
X90577D01*
Y178977D01*
X91199Y179235D01*
X92678Y180370D01*
X93813Y181849D01*
X94527Y183571D01*
X94770Y185420D01*
Y190499D01*
X94527Y192348D01*
X93813Y194070D01*
X92678Y195549D01*
X91199Y196684D01*
X89477Y197397D01*
X87629Y197641D01*
D02*
G37*
G36*
X71120Y167446D02*
Y163830D01*
X74736D01*
X74598Y164527D01*
X73484Y166194D01*
X71817Y167308D01*
X71120Y167446D01*
D02*
G37*
G36*
X262890Y161960D02*
Y158344D01*
X266506D01*
X266368Y159040D01*
X265254Y160707D01*
X263587Y161821D01*
X262890Y161960D01*
D02*
G37*
G36*
X74736Y161290D02*
X71120D01*
Y157674D01*
X71817Y157812D01*
X73484Y158926D01*
X74598Y160593D01*
X74736Y161290D01*
D02*
G37*
G36*
X410210Y163925D02*
X409514Y163787D01*
X407846Y162673D01*
X406732Y161005D01*
X406594Y160309D01*
X410210D01*
Y163925D01*
D02*
G37*
G36*
X464895Y166465D02*
X464198Y166327D01*
X462531Y165213D01*
X461417Y163545D01*
X461279Y162849D01*
X464895D01*
Y166465D01*
D02*
G37*
G36*
X412750Y163925D02*
Y160309D01*
X416366D01*
X416228Y161005D01*
X415114Y162673D01*
X413447Y163787D01*
X412750Y163925D01*
D02*
G37*
G36*
X386836Y69656D02*
Y66040D01*
X390452D01*
X390313Y66736D01*
X389199Y68404D01*
X387532Y69518D01*
X386836Y69656D01*
D02*
G37*
G36*
X384296D02*
X383599Y69518D01*
X381932Y68404D01*
X380818Y66736D01*
X380680Y66040D01*
X384296D01*
Y69656D01*
D02*
G37*
G36*
X409343D02*
X408646Y69518D01*
X406979Y68404D01*
X405865Y66736D01*
X405727Y66040D01*
X409343D01*
Y69656D01*
D02*
G37*
G36*
X396819Y69925D02*
X396123Y69786D01*
X394456Y68672D01*
X393342Y67005D01*
X393203Y66308D01*
X396819D01*
Y69925D01*
D02*
G37*
G36*
X411883Y69656D02*
Y66040D01*
X415499D01*
X415360Y66736D01*
X414246Y68404D01*
X412579Y69518D01*
X411883Y69656D01*
D02*
G37*
G36*
X481490Y71500D02*
X474220D01*
Y62230D01*
X481490D01*
Y71500D01*
D02*
G37*
G36*
X471680D02*
X464410D01*
Y62230D01*
X471680D01*
Y71500D01*
D02*
G37*
G36*
X556075Y66500D02*
X552305D01*
Y62230D01*
X556075D01*
Y66500D01*
D02*
G37*
G36*
X567960Y65846D02*
Y62230D01*
X571576D01*
X571438Y62927D01*
X570324Y64594D01*
X568657Y65708D01*
X567960Y65846D01*
D02*
G37*
G36*
X565420D02*
X564724Y65708D01*
X563056Y64594D01*
X561942Y62927D01*
X561804Y62230D01*
X565420D01*
Y65846D01*
D02*
G37*
G36*
X402975Y76200D02*
X399359D01*
Y72584D01*
X400056Y72722D01*
X401723Y73836D01*
X402837Y75504D01*
X402975Y76200D01*
D02*
G37*
G36*
X396819D02*
X393203D01*
X393342Y75504D01*
X394456Y73836D01*
X396123Y72722D01*
X396819Y72584D01*
Y76200D01*
D02*
G37*
G36*
X409343D02*
X405727D01*
X405865Y75504D01*
X406979Y73836D01*
X408646Y72722D01*
X409343Y72584D01*
Y76200D01*
D02*
G37*
G36*
X154940Y77470D02*
X151324D01*
X151462Y76774D01*
X152576Y75106D01*
X154243Y73992D01*
X154940Y73854D01*
Y77470D01*
D02*
G37*
G36*
X415499Y76200D02*
X411883D01*
Y72584D01*
X412579Y72722D01*
X414246Y73836D01*
X415360Y75504D01*
X415499Y76200D01*
D02*
G37*
G36*
X634480Y74197D02*
X626960D01*
Y66927D01*
X634480D01*
Y74197D01*
D02*
G37*
G36*
X399359Y69925D02*
Y66308D01*
X402975D01*
X402837Y67005D01*
X401723Y68672D01*
X400056Y69786D01*
X399359Y69925D01*
D02*
G37*
G36*
X644540Y74197D02*
X637020D01*
Y66927D01*
X644540D01*
Y74197D01*
D02*
G37*
G36*
X390452Y76200D02*
X386836D01*
Y72584D01*
X387532Y72722D01*
X389199Y73836D01*
X390313Y75504D01*
X390452Y76200D01*
D02*
G37*
G36*
X384296D02*
X380680D01*
X380818Y75504D01*
X381932Y73836D01*
X383599Y72722D01*
X384296Y72584D01*
Y76200D01*
D02*
G37*
G36*
X675640Y58226D02*
X674943Y58088D01*
X673276Y56974D01*
X672162Y55307D01*
X672024Y54610D01*
X675640D01*
Y58226D01*
D02*
G37*
G36*
X644540Y64387D02*
X626960D01*
Y57117D01*
X630024D01*
X630393Y55902D01*
X630096Y55704D01*
X628982Y54036D01*
X628844Y53340D01*
X638616D01*
X638478Y54036D01*
X637364Y55704D01*
X637067Y55902D01*
X637435Y57117D01*
X644540D01*
Y64387D01*
D02*
G37*
G36*
X556075Y59690D02*
X552305D01*
Y55420D01*
X556075D01*
Y59690D01*
D02*
G37*
G36*
X459496D02*
X455880D01*
Y56074D01*
X456576Y56212D01*
X458244Y57326D01*
X459358Y58994D01*
X459496Y59690D01*
D02*
G37*
G36*
X453340D02*
X449724D01*
X449862Y58994D01*
X450976Y57326D01*
X452644Y56212D01*
X453340Y56074D01*
Y59690D01*
D02*
G37*
G36*
X481490D02*
X474220D01*
Y50420D01*
X481490D01*
Y59690D01*
D02*
G37*
G36*
X471680D02*
X464410D01*
Y50420D01*
X471680D01*
Y59690D01*
D02*
G37*
G36*
X255271Y89277D02*
X251605Y88916D01*
X248081Y87846D01*
X244832Y86110D01*
X241984Y83773D01*
X239648Y80926D01*
X237911Y77677D01*
X236842Y74152D01*
X236481Y70486D01*
X236842Y66820D01*
X237911Y63295D01*
X239648Y60047D01*
X241984Y57199D01*
X244832Y54863D01*
X248081Y53126D01*
X251605Y52057D01*
X255271Y51696D01*
X258937Y52057D01*
X262462Y53126D01*
X265711Y54863D01*
X268558Y57199D01*
X270895Y60047D01*
X272631Y63295D01*
X273701Y66820D01*
X274062Y70486D01*
X273701Y74152D01*
X272631Y77677D01*
X270895Y80926D01*
X268558Y83773D01*
X265711Y86110D01*
X262462Y87846D01*
X258937Y88916D01*
X255271Y89277D01*
D02*
G37*
G36*
X110950Y57730D02*
X99870D01*
Y53960D01*
X100193D01*
X100792Y52840D01*
X100742Y52766D01*
X100604Y52070D01*
X110376D01*
X110238Y52766D01*
X110188Y52840D01*
X110787Y53960D01*
X110950D01*
Y57730D01*
D02*
G37*
G36*
X75390D02*
X64310D01*
Y53960D01*
X64553D01*
X65152Y52840D01*
X65102Y52766D01*
X64964Y52070D01*
X74736D01*
X74598Y52766D01*
X74548Y52840D01*
X75147Y53960D01*
X75390D01*
Y57730D01*
D02*
G37*
G36*
X396819Y63768D02*
X393203D01*
X393342Y63072D01*
X394456Y61405D01*
X396123Y60291D01*
X396819Y60152D01*
Y63768D01*
D02*
G37*
G36*
X415499Y63500D02*
X411883D01*
Y59884D01*
X412579Y60022D01*
X414246Y61136D01*
X415360Y62804D01*
X415499Y63500D01*
D02*
G37*
G36*
X402975Y63768D02*
X399359D01*
Y60152D01*
X400056Y60291D01*
X401723Y61405D01*
X402837Y63072D01*
X402975Y63768D01*
D02*
G37*
G36*
X455880Y65846D02*
Y62230D01*
X459496D01*
X459358Y62927D01*
X458244Y64594D01*
X456576Y65708D01*
X455880Y65846D01*
D02*
G37*
G36*
X453340D02*
X452644Y65708D01*
X450976Y64594D01*
X449862Y62927D01*
X449724Y62230D01*
X453340D01*
Y65846D01*
D02*
G37*
G36*
X571576Y59690D02*
X567960D01*
Y56074D01*
X568657Y56212D01*
X570324Y57326D01*
X571438Y58994D01*
X571576Y59690D01*
D02*
G37*
G36*
X565420D02*
X561804D01*
X561942Y58994D01*
X563056Y57326D01*
X564724Y56212D01*
X565420Y56074D01*
Y59690D01*
D02*
G37*
G36*
X384296Y63500D02*
X380680D01*
X380818Y62804D01*
X381932Y61136D01*
X383599Y60022D01*
X384296Y59884D01*
Y63500D01*
D02*
G37*
G36*
X409343D02*
X405727D01*
X405865Y62804D01*
X406979Y61136D01*
X408646Y60022D01*
X409343Y59884D01*
Y63500D01*
D02*
G37*
G36*
X390452D02*
X386836D01*
Y59884D01*
X387532Y60022D01*
X389199Y61136D01*
X390313Y62804D01*
X390452Y63500D01*
D02*
G37*
G36*
X161096Y77470D02*
X157480D01*
Y73854D01*
X158176Y73992D01*
X159844Y75106D01*
X160958Y76774D01*
X161096Y77470D01*
D02*
G37*
G36*
X481490Y96900D02*
X474220D01*
Y87630D01*
X481490D01*
Y96900D01*
D02*
G37*
G36*
X471680D02*
X464410D01*
Y87630D01*
X471680D01*
Y96900D01*
D02*
G37*
G36*
X208660Y99570D02*
X187580D01*
Y92300D01*
X194284D01*
X194653Y91085D01*
X194486Y90974D01*
X193372Y89306D01*
X193234Y88610D01*
X203006D01*
X202868Y89306D01*
X201754Y90974D01*
X201587Y91085D01*
X201956Y92300D01*
X208660D01*
Y99570D01*
D02*
G37*
G36*
X283337Y105410D02*
X265303D01*
Y96139D01*
X272111D01*
X272353Y94918D01*
X270686Y93804D01*
X269572Y92136D01*
X269434Y91440D01*
X279206D01*
X279068Y92136D01*
X277954Y93804D01*
X276287Y94918D01*
X276530Y96139D01*
X283337D01*
Y105410D01*
D02*
G37*
G36*
X234060Y99570D02*
X212980D01*
Y92300D01*
X219684D01*
X220053Y91085D01*
X219886Y90974D01*
X218772Y89306D01*
X218634Y88610D01*
X228406D01*
X228268Y89306D01*
X227154Y90974D01*
X226987Y91085D01*
X227356Y92300D01*
X234060D01*
Y99570D01*
D02*
G37*
G36*
X121920Y96520D02*
X115317D01*
Y87630D01*
X121920D01*
Y96520D01*
D02*
G37*
G36*
X279206Y88900D02*
X275590D01*
Y85284D01*
X276287Y85422D01*
X277954Y86536D01*
X279068Y88203D01*
X279206Y88900D01*
D02*
G37*
G36*
X131065Y96520D02*
X124460D01*
Y87630D01*
X131065D01*
Y96520D01*
D02*
G37*
G36*
X455880Y91246D02*
Y87630D01*
X459496D01*
X459358Y88327D01*
X458244Y89994D01*
X456576Y91108D01*
X455880Y91246D01*
D02*
G37*
G36*
X453340D02*
X452644Y91108D01*
X450976Y89994D01*
X449862Y88327D01*
X449724Y87630D01*
X453340D01*
Y91246D01*
D02*
G37*
G36*
X196850Y109380D02*
X187580D01*
Y102110D01*
X196850D01*
Y109380D01*
D02*
G37*
G36*
X405810Y109300D02*
X390810D01*
Y100300D01*
X405810D01*
Y100730D01*
X406798Y101528D01*
X406914Y101503D01*
X406914Y101503D01*
X406914Y101503D01*
X408280Y101231D01*
X409646Y101503D01*
X410803Y102277D01*
X411577Y103434D01*
X411849Y104800D01*
X411577Y106166D01*
X410803Y107323D01*
X409646Y108097D01*
X408280Y108369D01*
X406914Y108097D01*
X406914Y108097D01*
X406914Y108097D01*
X406798Y108072D01*
X405810Y108870D01*
Y109300D01*
D02*
G37*
G36*
X208660Y109380D02*
X199390D01*
Y102110D01*
X208660D01*
Y109380D01*
D02*
G37*
G36*
X234060D02*
X224790D01*
Y102110D01*
X234060D01*
Y109380D01*
D02*
G37*
G36*
X222250D02*
X212980D01*
Y102110D01*
X222250D01*
Y109380D01*
D02*
G37*
G36*
X260040Y99570D02*
X250770D01*
Y92300D01*
X260040D01*
Y99570D01*
D02*
G37*
G36*
X248230D02*
X238960D01*
Y92300D01*
X248230D01*
Y99570D01*
D02*
G37*
G36*
X169894Y110894D02*
X157766D01*
Y98766D01*
X159752D01*
Y96520D01*
X160062Y94959D01*
X160946Y93636D01*
X162269Y92752D01*
X163830Y92442D01*
X165391Y92752D01*
X166714Y93636D01*
X167598Y94959D01*
X167908Y96520D01*
Y98766D01*
X169894D01*
Y100532D01*
X171450D01*
X173011Y100842D01*
X174334Y101726D01*
X175218Y103049D01*
X175528Y104610D01*
X175218Y106171D01*
X174334Y107494D01*
X173011Y108378D01*
X171450Y108688D01*
X169894D01*
Y110894D01*
D02*
G37*
G36*
X481490Y110490D02*
X474220D01*
Y101220D01*
X481490D01*
Y110490D01*
D02*
G37*
G36*
X471680D02*
X464410D01*
Y101220D01*
X471680D01*
Y110490D01*
D02*
G37*
G36*
X386836Y82356D02*
Y78740D01*
X390452D01*
X390313Y79436D01*
X389199Y81104D01*
X387532Y82218D01*
X386836Y82356D01*
D02*
G37*
G36*
X384296D02*
X383599Y82218D01*
X381932Y81104D01*
X380818Y79436D01*
X380680Y78740D01*
X384296D01*
Y82356D01*
D02*
G37*
G36*
X396819D02*
X396123Y82218D01*
X394456Y81104D01*
X393342Y79436D01*
X393203Y78740D01*
X396819D01*
Y82356D01*
D02*
G37*
G36*
X409343D02*
X408646Y82218D01*
X406979Y81104D01*
X405865Y79436D01*
X405727Y78740D01*
X409343D01*
Y82356D01*
D02*
G37*
G36*
X399359D02*
Y78740D01*
X402975D01*
X402837Y79436D01*
X401723Y81104D01*
X400056Y82218D01*
X399359Y82356D01*
D02*
G37*
G36*
X481490Y85090D02*
X474220D01*
Y75820D01*
X481490D01*
Y85090D01*
D02*
G37*
G36*
X471680D02*
X464410D01*
Y75820D01*
X471680D01*
Y85090D01*
D02*
G37*
G36*
X121920D02*
X115317D01*
Y76200D01*
X121920D01*
Y85090D01*
D02*
G37*
G36*
X677660Y80927D02*
X673390D01*
Y77157D01*
X677660D01*
Y80927D01*
D02*
G37*
G36*
X131065Y85090D02*
X124460D01*
Y76200D01*
X131065D01*
Y85090D01*
D02*
G37*
G36*
X203006Y86070D02*
X199390D01*
Y82454D01*
X200086Y82592D01*
X201754Y83706D01*
X202868Y85373D01*
X203006Y86070D01*
D02*
G37*
G36*
X196850D02*
X193234D01*
X193372Y85373D01*
X194486Y83706D01*
X196154Y82592D01*
X196850Y82454D01*
Y86070D01*
D02*
G37*
G36*
X222250D02*
X218634D01*
X218772Y85373D01*
X219886Y83706D01*
X221553Y82592D01*
X222250Y82454D01*
Y86070D01*
D02*
G37*
G36*
X273050Y88900D02*
X269434D01*
X269572Y88203D01*
X270686Y86536D01*
X272353Y85422D01*
X273050Y85284D01*
Y88900D01*
D02*
G37*
G36*
X228406Y86070D02*
X224790D01*
Y82454D01*
X225487Y82592D01*
X227154Y83706D01*
X228268Y85373D01*
X228406Y86070D01*
D02*
G37*
G36*
X154940Y83626D02*
X154243Y83488D01*
X152576Y82374D01*
X151462Y80707D01*
X151324Y80010D01*
X154940D01*
Y83626D01*
D02*
G37*
G36*
X411883Y82356D02*
Y78740D01*
X415499D01*
X415360Y79436D01*
X414246Y81104D01*
X412579Y82218D01*
X411883Y82356D01*
D02*
G37*
G36*
X157480Y83626D02*
Y80010D01*
X161096D01*
X160958Y80707D01*
X159844Y82374D01*
X158176Y83488D01*
X157480Y83626D01*
D02*
G37*
G36*
X459496Y85090D02*
X455880D01*
Y81474D01*
X456576Y81612D01*
X458244Y82726D01*
X459358Y84394D01*
X459496Y85090D01*
D02*
G37*
G36*
X453340D02*
X449724D01*
X449862Y84394D01*
X450976Y82726D01*
X452644Y81612D01*
X453340Y81474D01*
Y85090D01*
D02*
G37*
G36*
X104180Y293129D02*
X102814Y292857D01*
X101657Y292083D01*
X100883Y290926D01*
X100611Y289560D01*
X100883Y288194D01*
X101657Y287037D01*
X102814Y286263D01*
X104180Y285991D01*
X105546Y286263D01*
X106703Y287037D01*
X107477Y288194D01*
X107748Y289560D01*
X107477Y290926D01*
X106703Y292083D01*
X105546Y292857D01*
X104180Y293129D01*
D02*
G37*
G36*
X485140Y331229D02*
X483774Y330957D01*
X482617Y330183D01*
X481843Y329026D01*
X481571Y327660D01*
X481843Y326294D01*
X480250Y325230D01*
X480140D01*
Y316230D01*
Y307230D01*
X482081D01*
Y303390D01*
X476390D01*
Y285890D01*
X493890D01*
Y303390D01*
X488199D01*
Y307230D01*
X490140D01*
Y316230D01*
Y325230D01*
X490030D01*
X488437Y326294D01*
X488709Y327660D01*
X488437Y329026D01*
X487663Y330183D01*
X486506Y330957D01*
X485140Y331229D01*
D02*
G37*
G36*
X505117Y294275D02*
X497847D01*
Y286755D01*
X505117D01*
Y294275D01*
D02*
G37*
G36*
X269240Y290636D02*
X268543Y290498D01*
X266876Y289384D01*
X265762Y287717D01*
X265624Y287020D01*
X269240D01*
Y290636D01*
D02*
G37*
G36*
X514927Y294275D02*
X507657D01*
Y286755D01*
X514927D01*
Y294275D01*
D02*
G37*
G36*
X522550Y276050D02*
X518780D01*
Y271780D01*
X522550D01*
Y276050D01*
D02*
G37*
G36*
X486410Y278443D02*
Y270510D01*
X494343D01*
X494191Y271665D01*
X493255Y273925D01*
X491766Y275866D01*
X489825Y277355D01*
X487565Y278291D01*
X486410Y278443D01*
D02*
G37*
G36*
X584680Y281575D02*
X555600D01*
Y277043D01*
X555600Y277043D01*
X555600D01*
X555600Y276305D01*
X556140Y276145D01*
X556140Y275407D01*
X556140Y275407D01*
X556140D01*
Y273091D01*
X537320D01*
Y275510D01*
X528860D01*
Y276050D01*
X525090D01*
Y270510D01*
Y264970D01*
X528860D01*
Y264970D01*
X528975D01*
X529873Y264072D01*
Y262810D01*
X519320D01*
Y261888D01*
X516890D01*
X515329Y261578D01*
X514006Y260694D01*
X513122Y259371D01*
X512812Y257810D01*
X513122Y256249D01*
X514006Y254926D01*
X515329Y254042D01*
X516890Y253732D01*
X519320D01*
Y252810D01*
X519742D01*
Y250110D01*
X519320D01*
Y240110D01*
X537320D01*
Y250110D01*
X535767D01*
Y252810D01*
X537320D01*
Y262810D01*
X535767D01*
Y265510D01*
X537320D01*
Y267198D01*
X556140D01*
Y264343D01*
X556140Y264343D01*
X556140D01*
X556140Y264145D01*
Y263795D01*
Y263445D01*
X556140Y263247D01*
X556140Y263247D01*
X556140D01*
Y251445D01*
X561542D01*
Y239950D01*
X560101D01*
Y238009D01*
X441271D01*
X441270Y238009D01*
X440100Y237776D01*
X439108Y237113D01*
X439108Y237113D01*
X432649Y230655D01*
X431476Y231140D01*
Y232716D01*
X416808D01*
Y220588D01*
X431476D01*
Y223593D01*
X432972D01*
X432972Y223593D01*
X434143Y223826D01*
X435135Y224489D01*
X442537Y231891D01*
X560101D01*
Y229950D01*
X578101D01*
Y231616D01*
X589169D01*
X593947Y226838D01*
Y216630D01*
X590836D01*
Y202470D01*
X593203D01*
Y198850D01*
X590836D01*
Y184690D01*
X593203D01*
Y181070D01*
X590836D01*
Y166910D01*
X598785D01*
X599530Y166412D01*
X599789Y166361D01*
X601091Y166102D01*
X601091Y166102D01*
X608431D01*
X609992Y166412D01*
X611315Y167296D01*
X611315Y167296D01*
X613855Y169836D01*
X614739Y171159D01*
X614790Y171418D01*
X615049Y172720D01*
X615049Y172720D01*
Y209449D01*
X614739Y211010D01*
X613855Y212333D01*
X613855Y212333D01*
X611214Y214974D01*
X609891Y215858D01*
X609632Y215909D01*
X608330Y216168D01*
X608330Y216168D01*
X603726D01*
Y216630D01*
X601928D01*
X601760Y216742D01*
X601289Y217126D01*
X601103Y217181D01*
X600942Y217289D01*
X600615Y217354D01*
Y228219D01*
X600361Y229495D01*
X599639Y230576D01*
X592907Y237307D01*
X591826Y238030D01*
X590550Y238284D01*
X578101D01*
Y239950D01*
X567660D01*
Y251445D01*
X584140D01*
Y263247D01*
X584140Y263247D01*
D01*
D01*
X584140Y263445D01*
Y263581D01*
Y263795D01*
Y263893D01*
Y264145D01*
X584140Y264288D01*
X584140Y264343D01*
X584140Y264343D01*
X584140D01*
Y275407D01*
X584140Y275407D01*
X584140D01*
X584140Y276145D01*
X584680Y276305D01*
X584680Y277043D01*
X584680Y277043D01*
X584680D01*
Y281575D01*
D02*
G37*
G36*
X332740Y303465D02*
X330456Y303165D01*
X328327Y302283D01*
X326499Y300881D01*
X325097Y299053D01*
X324215Y296924D01*
X323914Y294640D01*
X324215Y292356D01*
X325097Y290227D01*
X326499Y288399D01*
X328327Y286997D01*
X330456Y286115D01*
X332740Y285814D01*
X335024Y286115D01*
X337153Y286997D01*
X338981Y288399D01*
X340383Y290227D01*
X341265Y292356D01*
X341566Y294640D01*
X341265Y296924D01*
X340383Y299053D01*
X338981Y300881D01*
X337153Y302283D01*
X335024Y303165D01*
X332740Y303465D01*
D02*
G37*
G36*
X652870Y311885D02*
X626600D01*
Y284115D01*
X652870D01*
Y311885D01*
D02*
G37*
G36*
X160703Y300990D02*
X157087D01*
X157225Y300294D01*
X158339Y298626D01*
X160007Y297512D01*
X160703Y297374D01*
Y300990D01*
D02*
G37*
G36*
X514927Y304335D02*
X507657D01*
Y296815D01*
X514927D01*
Y304335D01*
D02*
G37*
G36*
X166859Y300990D02*
X163243D01*
Y297374D01*
X163939Y297512D01*
X165607Y298626D01*
X166721Y300294D01*
X166859Y300990D01*
D02*
G37*
G36*
X324926Y306886D02*
X321310D01*
Y303270D01*
X322006Y303409D01*
X323674Y304523D01*
X324788Y306190D01*
X324926Y306886D01*
D02*
G37*
G36*
X318770D02*
X315154D01*
X315292Y306190D01*
X316406Y304523D01*
X318074Y303409D01*
X318770Y303270D01*
Y306886D01*
D02*
G37*
G36*
X251666Y296750D02*
X244396D01*
Y288480D01*
X251666D01*
Y296750D01*
D02*
G37*
G36*
X271780Y290636D02*
Y287020D01*
X275396D01*
X275258Y287717D01*
X274144Y289384D01*
X272477Y290498D01*
X271780Y290636D01*
D02*
G37*
G36*
X81311Y298450D02*
X77695D01*
X77834Y297754D01*
X78948Y296086D01*
X80615Y294972D01*
X81311Y294834D01*
Y298450D01*
D02*
G37*
G36*
X505117Y304335D02*
X497847D01*
Y296815D01*
X505117D01*
Y304335D01*
D02*
G37*
G36*
X87467Y298450D02*
X83851D01*
Y294834D01*
X84548Y294972D01*
X86215Y296086D01*
X87329Y297754D01*
X87467Y298450D01*
D02*
G37*
G36*
X90170Y251266D02*
X89473Y251128D01*
X87806Y250014D01*
X86692Y248347D01*
X86554Y247650D01*
X90170D01*
Y251266D01*
D02*
G37*
G36*
X262810Y257920D02*
X252810D01*
Y248920D01*
Y239920D01*
X254751D01*
Y237600D01*
X252810D01*
Y228600D01*
Y219600D01*
X254751D01*
Y217280D01*
X252810D01*
Y208820D01*
X252270D01*
Y205050D01*
X263350D01*
Y208820D01*
X262810D01*
Y217280D01*
X260869D01*
Y219600D01*
X262810D01*
Y221041D01*
X268241D01*
X268789Y220221D01*
X270458Y219105D01*
X272428Y218714D01*
X286652D01*
X288622Y219105D01*
X290291Y220221D01*
X291407Y221891D01*
X291799Y223860D01*
X291407Y225830D01*
X290291Y227500D01*
X288622Y228616D01*
X286652Y229007D01*
X272428D01*
X270458Y228616D01*
X268789Y227500D01*
X268561Y227159D01*
X262810D01*
Y228600D01*
Y229271D01*
X263580Y230041D01*
X263580D01*
Y230041D01*
D01*
D01*
D01*
X264750Y230274D01*
X265743Y230937D01*
X267774Y232969D01*
X268789Y232921D01*
X268789Y232921D01*
Y232921D01*
D01*
D01*
D01*
X270458Y231805D01*
X272428Y231414D01*
X286652D01*
X288622Y231805D01*
X290291Y232921D01*
X291407Y234591D01*
X291799Y236560D01*
X291407Y238530D01*
X290291Y240200D01*
X288622Y241316D01*
X286652Y241707D01*
X272428D01*
X270458Y241316D01*
X268789Y240200D01*
X268401Y239619D01*
X267041D01*
X265870Y239386D01*
X265473Y239121D01*
X264878Y238723D01*
X264877Y238723D01*
X263478Y237323D01*
X262810Y237600D01*
Y237600D01*
X262810Y237600D01*
X260869D01*
Y239920D01*
X262810D01*
Y246825D01*
X263983Y247311D01*
X264197Y247098D01*
X264197Y247098D01*
X265189Y246435D01*
X266360Y246202D01*
X266360Y246202D01*
X267380D01*
Y244212D01*
X291700D01*
Y254308D01*
X267380D01*
Y254225D01*
X266207Y253739D01*
X264363Y255583D01*
X263370Y256246D01*
X262810Y256357D01*
Y257920D01*
D02*
G37*
G36*
X99640Y251920D02*
X95870D01*
Y250828D01*
X94750Y250230D01*
X93406Y251128D01*
X92710Y251266D01*
Y246380D01*
Y241494D01*
X93406Y241632D01*
X94750Y242530D01*
X95870Y241931D01*
Y240840D01*
X99640D01*
Y246380D01*
Y251920D01*
D02*
G37*
G36*
X106690Y262310D02*
X103074D01*
X103213Y261613D01*
X104326Y259946D01*
X105994Y258832D01*
X106690Y258694D01*
Y262310D01*
D02*
G37*
G36*
X652870Y281575D02*
X626600D01*
Y253805D01*
X652870D01*
Y281575D01*
D02*
G37*
G36*
X390000Y256460D02*
X372000D01*
Y246460D01*
X373441D01*
Y241560D01*
X372000D01*
Y239619D01*
X365680D01*
Y241300D01*
Y250300D01*
X355680D01*
Y248859D01*
X353637D01*
X351072Y251423D01*
X350080Y252086D01*
X348909Y252319D01*
X348909Y252319D01*
X346559D01*
X346171Y252900D01*
X344502Y254016D01*
X342532Y254407D01*
X328308D01*
X326338Y254016D01*
X324669Y252900D01*
X324621Y252829D01*
X317970D01*
X316604Y252557D01*
X315447Y251784D01*
X314673Y250626D01*
X314401Y249261D01*
X314673Y247895D01*
X315447Y246737D01*
X316604Y245964D01*
X317970Y245692D01*
X324621D01*
X324669Y245621D01*
X326338Y244505D01*
X328308Y244114D01*
X342532D01*
X344502Y244505D01*
X346171Y245621D01*
X346437Y246019D01*
X347701Y246143D01*
X350207Y243637D01*
X350207Y243637D01*
X351200Y242974D01*
X351200Y242974D01*
X351200Y242974D01*
D01*
X351200Y242974D01*
X351200Y242974D01*
X352370Y242741D01*
X352370Y242741D01*
X355680D01*
Y241300D01*
Y239619D01*
X346559D01*
X346171Y240200D01*
X344502Y241316D01*
X342532Y241707D01*
X328308D01*
X326338Y241316D01*
X324669Y240200D01*
X323553Y238530D01*
X323161Y236560D01*
X323553Y234591D01*
X324669Y232921D01*
X326338Y231805D01*
X328308Y231414D01*
X342532D01*
X344502Y231805D01*
X346171Y232921D01*
X346559Y233502D01*
X355680D01*
Y232300D01*
X365680D01*
Y233502D01*
X372000D01*
Y231560D01*
X390000D01*
Y233502D01*
X393872D01*
Y230126D01*
X408540D01*
Y242253D01*
X393872D01*
Y239619D01*
X390000D01*
Y241560D01*
X379559D01*
Y246460D01*
X390000D01*
Y246570D01*
X391064Y248163D01*
X392430Y247891D01*
X393796Y248163D01*
X394953Y248937D01*
X395727Y250094D01*
X395999Y251460D01*
X395727Y252826D01*
X394953Y253983D01*
X393796Y254757D01*
X392430Y255029D01*
X391064Y254757D01*
X390000Y256350D01*
Y256460D01*
D02*
G37*
G36*
X68899Y237490D02*
X65283D01*
Y233874D01*
X65980Y234012D01*
X67647Y235126D01*
X68761Y236793D01*
X68899Y237490D01*
D02*
G37*
G36*
X62743Y243646D02*
X62047Y243508D01*
X60380Y242394D01*
X59265Y240727D01*
X59127Y240030D01*
X62743D01*
Y243646D01*
D02*
G37*
G36*
X90170Y245110D02*
X86554D01*
X86692Y244414D01*
X87806Y242746D01*
X89473Y241632D01*
X90170Y241494D01*
Y245110D01*
D02*
G37*
G36*
X65283Y243646D02*
Y240030D01*
X68899D01*
X68761Y240727D01*
X67647Y242394D01*
X65980Y243508D01*
X65283Y243646D01*
D02*
G37*
G36*
X271160Y274750D02*
X267390D01*
Y270480D01*
X271160D01*
Y274750D01*
D02*
G37*
G36*
X522550Y269240D02*
X518780D01*
Y264970D01*
X522550D01*
Y269240D01*
D02*
G37*
G36*
X331470Y278443D02*
X330315Y278291D01*
X328055Y277355D01*
X326114Y275866D01*
X324625Y273925D01*
X323689Y271665D01*
X323537Y270510D01*
X331470D01*
Y278443D01*
D02*
G37*
G36*
X483870D02*
X482715Y278291D01*
X480455Y277355D01*
X478514Y275866D01*
X477025Y273925D01*
X476089Y271665D01*
X475937Y270510D01*
X483870D01*
Y278443D01*
D02*
G37*
G36*
X334010D02*
Y270510D01*
X341943D01*
X341791Y271665D01*
X340855Y273925D01*
X339366Y275866D01*
X337425Y277355D01*
X335165Y278291D01*
X334010Y278443D01*
D02*
G37*
G36*
X341943Y267970D02*
X334010D01*
Y260037D01*
X335165Y260189D01*
X337425Y261125D01*
X339366Y262614D01*
X340855Y264555D01*
X341791Y266815D01*
X341943Y267970D01*
D02*
G37*
G36*
X331470D02*
X323537D01*
X323689Y266815D01*
X324625Y264555D01*
X326114Y262614D01*
X328055Y261125D01*
X330315Y260189D01*
X331470Y260037D01*
Y267970D01*
D02*
G37*
G36*
X483870D02*
X475937D01*
X476089Y266815D01*
X477025Y264555D01*
X478514Y262614D01*
X480455Y261125D01*
X482715Y260189D01*
X483870Y260037D01*
Y267970D01*
D02*
G37*
G36*
X85788Y270967D02*
X84423Y270695D01*
X83265Y269922D01*
X82492Y268764D01*
X82220Y267398D01*
X82492Y266033D01*
X83265Y264875D01*
X84423Y264102D01*
X85788Y263830D01*
X87154Y264102D01*
X88312Y264875D01*
X89085Y266033D01*
X89357Y267398D01*
X89085Y268764D01*
X88312Y269922D01*
X87154Y270695D01*
X85788Y270967D01*
D02*
G37*
G36*
X494343Y267970D02*
X486410D01*
Y260037D01*
X487565Y260189D01*
X489825Y261125D01*
X491766Y262614D01*
X493255Y264555D01*
X494191Y266815D01*
X494343Y267970D01*
D02*
G37*
G36*
X163243Y307146D02*
Y303530D01*
X166859D01*
X166721Y304226D01*
X165607Y305894D01*
X163939Y307008D01*
X163243Y307146D01*
D02*
G37*
G36*
X343140Y398675D02*
X340268Y398297D01*
X337593Y397188D01*
X335295Y395425D01*
X333531Y393127D01*
X332423Y390452D01*
X332045Y387580D01*
X332423Y384708D01*
X333531Y382033D01*
X335295Y379735D01*
X337593Y377971D01*
X340268Y376863D01*
X343140Y376485D01*
X346012Y376863D01*
X348687Y377971D01*
X350985Y379735D01*
X352748Y382033D01*
X353857Y384708D01*
X354235Y387580D01*
X353857Y390452D01*
X352748Y393127D01*
X350985Y395425D01*
X348687Y397188D01*
X346012Y398297D01*
X343140Y398675D01*
D02*
G37*
G36*
X565033Y370751D02*
X558316Y364034D01*
X558180Y364170D01*
X534180D01*
X531453Y361443D01*
X531180Y337170D01*
X531316Y337034D01*
X524599Y330317D01*
X532039Y322876D01*
Y303795D01*
X523137D01*
Y287295D01*
X551137D01*
Y290447D01*
X555600D01*
Y289385D01*
D01*
X555600Y288647D01*
X555600Y288647D01*
X555600D01*
Y284115D01*
X584680D01*
Y288647D01*
X584680Y288647D01*
X584680D01*
X584680Y289385D01*
X584140Y289545D01*
X584140Y290283D01*
X584140Y290283D01*
X584140D01*
Y301347D01*
X584140Y301347D01*
D01*
D01*
X584140Y301545D01*
Y301681D01*
Y301895D01*
Y301993D01*
Y302245D01*
X584140Y302388D01*
X584140Y302443D01*
X584140Y302443D01*
X584140D01*
Y314245D01*
X575328D01*
Y316810D01*
X574940Y318761D01*
X573835Y320415D01*
X572942Y321012D01*
X572753Y321293D01*
X571596Y322067D01*
X570230Y322339D01*
X568864Y322067D01*
X567707Y321293D01*
X567518Y321012D01*
X566625Y320415D01*
X565520Y318761D01*
X565132Y316810D01*
Y314245D01*
X556140D01*
Y302443D01*
X556140Y302443D01*
X556140D01*
X556140Y302245D01*
Y301895D01*
Y301545D01*
Y301541D01*
X555242Y300643D01*
X551137D01*
Y303795D01*
X542235D01*
Y322497D01*
X544044Y324306D01*
X544180Y324170D01*
X561430D01*
X571180Y333920D01*
Y344487D01*
X572162Y345293D01*
X572770Y345172D01*
X574331Y345482D01*
X575654Y346366D01*
X576538Y347689D01*
X576848Y349250D01*
Y349580D01*
X576848Y349580D01*
X576589Y350882D01*
X576538Y351141D01*
X575654Y352464D01*
X575654Y352464D01*
X573928Y354190D01*
X577761Y358023D01*
X565033Y370751D01*
D02*
G37*
G36*
X398540Y398675D02*
X395668Y398297D01*
X392993Y397188D01*
X390695Y395425D01*
X388932Y393127D01*
X387823Y390452D01*
X387445Y387580D01*
X387823Y384708D01*
X388932Y382033D01*
X390695Y379735D01*
X392993Y377971D01*
X395668Y376863D01*
X398540Y376485D01*
X401412Y376863D01*
X404087Y377971D01*
X406385Y379735D01*
X408148Y382033D01*
X409257Y384708D01*
X409635Y387580D01*
X409257Y390452D01*
X408148Y393127D01*
X406385Y395425D01*
X404087Y397188D01*
X401412Y398297D01*
X398540Y398675D01*
D02*
G37*
G36*
X548640Y384050D02*
X539370D01*
Y376780D01*
X548640D01*
Y384050D01*
D02*
G37*
G36*
X437240Y398580D02*
X415240D01*
Y376580D01*
X437240D01*
Y398580D01*
D02*
G37*
G36*
X124318Y360486D02*
X123621Y360348D01*
X121954Y359234D01*
X120840Y357566D01*
X120702Y356870D01*
X124318D01*
Y360486D01*
D02*
G37*
G36*
X606380Y372846D02*
X590380D01*
Y356846D01*
X606380D01*
Y359748D01*
X608330D01*
X610281Y360136D01*
X611935Y361241D01*
X613040Y362895D01*
X613428Y364846D01*
X613040Y366797D01*
X611935Y368451D01*
X610281Y369556D01*
X608330Y369944D01*
X606380D01*
Y372846D01*
D02*
G37*
G36*
X126858Y360486D02*
Y356870D01*
X130474D01*
X130335Y357566D01*
X129221Y359234D01*
X127554Y360348D01*
X126858Y360486D01*
D02*
G37*
G36*
X143058D02*
Y356870D01*
X146674D01*
X146536Y357566D01*
X145422Y359234D01*
X143755Y360348D01*
X143058Y360486D01*
D02*
G37*
G36*
X140518D02*
X139822Y360348D01*
X138155Y359234D01*
X137041Y357566D01*
X136902Y356870D01*
X140518D01*
Y360486D01*
D02*
G37*
G36*
X549910Y433338D02*
X548349Y433028D01*
X547026Y432144D01*
X546142Y430821D01*
X545832Y429260D01*
Y425320D01*
X539910D01*
Y409320D01*
X559910D01*
Y425320D01*
X553988D01*
Y429260D01*
X553678Y430821D01*
X552794Y432144D01*
X551471Y433028D01*
X549910Y433338D01*
D02*
G37*
G36*
X411139Y412897D02*
Y409281D01*
X414756D01*
X414617Y409977D01*
X413503Y411644D01*
X411836Y412758D01*
X411139Y412897D01*
D02*
G37*
G36*
X633730Y435610D02*
X618505D01*
X618699Y433638D01*
X619645Y430520D01*
X621181Y427646D01*
X623248Y425128D01*
X625766Y423061D01*
X628640Y421525D01*
X631758Y420579D01*
X633730Y420385D01*
Y435610D01*
D02*
G37*
G36*
X191770Y445529D02*
X190404Y445257D01*
X189247Y444483D01*
X188473Y443326D01*
X188201Y441960D01*
X188473Y440594D01*
X189247Y439437D01*
X190404Y438663D01*
X191770Y438391D01*
X193136Y438663D01*
X194293Y439437D01*
X195067Y440594D01*
X195339Y441960D01*
X195067Y443326D01*
X194293Y444483D01*
X193136Y445257D01*
X191770Y445529D01*
D02*
G37*
G36*
X651495Y435610D02*
X636270D01*
Y420385D01*
X638242Y420579D01*
X641360Y421525D01*
X644234Y423061D01*
X646752Y425128D01*
X648819Y427646D01*
X650355Y430520D01*
X651301Y433638D01*
X651495Y435610D01*
D02*
G37*
G36*
X548640Y393860D02*
X539370D01*
Y386590D01*
X548640D01*
Y393860D01*
D02*
G37*
G36*
X560450Y384050D02*
X551180D01*
Y376780D01*
X560450D01*
Y384050D01*
D02*
G37*
G36*
Y393860D02*
X551180D01*
Y386590D01*
X560450D01*
Y393860D01*
D02*
G37*
G36*
X414756Y406740D02*
X411139D01*
Y403124D01*
X411836Y403263D01*
X413503Y404377D01*
X414617Y406044D01*
X414756Y406740D01*
D02*
G37*
G36*
X398412Y413708D02*
X392570D01*
Y408010D01*
Y402313D01*
X398412D01*
X400592Y402747D01*
X402441Y403982D01*
X403676Y405830D01*
X403785Y406380D01*
X405055D01*
X405122Y406044D01*
X406236Y404377D01*
X407903Y403263D01*
X408600Y403124D01*
Y408010D01*
Y412897D01*
X407903Y412758D01*
X406236Y411644D01*
X405122Y409977D01*
X405055Y409641D01*
X403785D01*
X403676Y410191D01*
X402441Y412039D01*
X400592Y413274D01*
X398412Y413708D01*
D02*
G37*
G36*
X274320Y317196D02*
X273624Y317058D01*
X271956Y315944D01*
X270842Y314277D01*
X270704Y313580D01*
X274320D01*
Y317196D01*
D02*
G37*
G36*
X239910Y316156D02*
Y312540D01*
X243526D01*
X243388Y313236D01*
X242274Y314904D01*
X240607Y316017D01*
X239910Y316156D01*
D02*
G37*
G36*
X276860Y317196D02*
Y313580D01*
X280476D01*
X280338Y314277D01*
X279224Y315944D01*
X277556Y317058D01*
X276860Y317196D01*
D02*
G37*
G36*
X658763Y320040D02*
X655147D01*
Y316424D01*
X655843Y316562D01*
X657510Y317676D01*
X658624Y319343D01*
X658763Y320040D01*
D02*
G37*
G36*
X652607D02*
X648990D01*
X649129Y319343D01*
X650243Y317676D01*
X651910Y316562D01*
X652607Y316424D01*
Y320040D01*
D02*
G37*
G36*
X280476Y311040D02*
X276860D01*
Y307424D01*
X277556Y307563D01*
X279224Y308676D01*
X280338Y310344D01*
X280476Y311040D01*
D02*
G37*
G36*
X274320D02*
X270704D01*
X270842Y310344D01*
X271956Y308676D01*
X273624Y307563D01*
X274320Y307424D01*
Y311040D01*
D02*
G37*
G36*
X318770Y313043D02*
X318074Y312904D01*
X316406Y311790D01*
X315292Y310123D01*
X315154Y309426D01*
X318770D01*
Y313043D01*
D02*
G37*
G36*
X237370Y316156D02*
X236674Y316017D01*
X235007Y314904D01*
X233892Y313236D01*
X233754Y312540D01*
X237370D01*
Y316156D01*
D02*
G37*
G36*
X321310Y313043D02*
Y309426D01*
X324926D01*
X324788Y310123D01*
X323674Y311790D01*
X322006Y312904D01*
X321310Y313043D01*
D02*
G37*
G36*
X124318Y354330D02*
X120702D01*
X120840Y353633D01*
X121954Y351966D01*
X123621Y350852D01*
X124318Y350714D01*
Y354330D01*
D02*
G37*
G36*
X412390Y370275D02*
X409518Y369897D01*
X406842Y368788D01*
X404545Y367025D01*
X402781Y364727D01*
X401673Y362052D01*
X401295Y359180D01*
X401673Y356308D01*
X402781Y353633D01*
X404545Y351335D01*
X406842Y349571D01*
X409518Y348463D01*
X412390Y348085D01*
X415262Y348463D01*
X417937Y349571D01*
X420235Y351335D01*
X421998Y353633D01*
X423107Y356308D01*
X423485Y359180D01*
X423107Y362052D01*
X421998Y364727D01*
X420235Y367025D01*
X417937Y368788D01*
X415262Y369897D01*
X412390Y370275D01*
D02*
G37*
G36*
X130474Y354330D02*
X126858D01*
Y350714D01*
X127554Y350852D01*
X129221Y351966D01*
X130335Y353633D01*
X130474Y354330D01*
D02*
G37*
G36*
X146674D02*
X143058D01*
Y350714D01*
X143755Y350852D01*
X145422Y351966D01*
X146536Y353633D01*
X146674Y354330D01*
D02*
G37*
G36*
X140518D02*
X136902D01*
X137041Y353633D01*
X138155Y351966D01*
X139822Y350852D01*
X140518Y350714D01*
Y354330D01*
D02*
G37*
G36*
X652607Y326196D02*
X651910Y326058D01*
X650243Y324944D01*
X649129Y323276D01*
X648990Y322580D01*
X652607D01*
Y326196D01*
D02*
G37*
G36*
X213342Y320500D02*
X209572D01*
Y319725D01*
X208452Y319127D01*
X207583Y319708D01*
X206886Y319846D01*
Y314960D01*
Y310074D01*
X207583Y310212D01*
X208452Y310793D01*
X209572Y310194D01*
Y309420D01*
X213342D01*
Y314960D01*
Y320500D01*
D02*
G37*
G36*
X655147Y326196D02*
Y322580D01*
X658763D01*
X658624Y323276D01*
X657510Y324944D01*
X655843Y326058D01*
X655147Y326196D01*
D02*
G37*
G36*
X644246Y350538D02*
X642295Y350150D01*
X640641Y349045D01*
X639536Y347391D01*
X639148Y345440D01*
X639536Y343489D01*
X640641Y341835D01*
X646635Y335841D01*
X646635Y335841D01*
X646635D01*
X646635Y335841D01*
X646635D01*
X646635Y335841D01*
Y335841D01*
Y335841D01*
D01*
D01*
X646635D01*
Y335841D01*
X648289Y334736D01*
X650240Y334348D01*
X652380D01*
Y331446D01*
X668380D01*
Y347446D01*
X652380D01*
Y346175D01*
X651207Y345689D01*
X647851Y349045D01*
X646197Y350150D01*
X644246Y350538D01*
D02*
G37*
G36*
X606380Y347446D02*
X590380D01*
Y331446D01*
X606380D01*
Y347446D01*
D02*
G37*
G36*
X62743Y237490D02*
X59127D01*
X59265Y236793D01*
X60380Y235126D01*
X62047Y234012D01*
X62743Y233874D01*
Y237490D01*
D02*
G37*
G36*
X437314Y191770D02*
X433698D01*
Y188154D01*
X434395Y188292D01*
X436062Y189406D01*
X437176Y191073D01*
X437314Y191770D01*
D02*
G37*
G36*
X431158D02*
X427542D01*
X427681Y191073D01*
X428795Y189406D01*
X430462Y188292D01*
X431158Y188154D01*
Y191770D01*
D02*
G37*
G36*
X66690Y209375D02*
X62920D01*
Y203835D01*
Y198295D01*
X65515D01*
X65923Y197092D01*
X64415Y195935D01*
X63193Y194343D01*
X62425Y192489D01*
X62164Y190500D01*
Y189230D01*
X77535D01*
Y190500D01*
X77273Y192489D01*
X76505Y194343D01*
X75284Y195935D01*
X73692Y197156D01*
X72872Y197496D01*
X72997Y198759D01*
X74646Y199087D01*
X76313Y200201D01*
X77427Y201868D01*
X77565Y202565D01*
X72679D01*
Y203835D01*
X71409D01*
Y208721D01*
X70712Y208583D01*
X69045Y207469D01*
X67931Y205802D01*
X66690Y206048D01*
Y209375D01*
D02*
G37*
G36*
X528320Y194405D02*
Y190789D01*
X531936D01*
X531798Y191485D01*
X530684Y193153D01*
X529016Y194266D01*
X528320Y194405D01*
D02*
G37*
G36*
X525780D02*
X525084Y194266D01*
X523416Y193153D01*
X522302Y191485D01*
X522164Y190789D01*
X525780D01*
Y194405D01*
D02*
G37*
G36*
X406111Y191770D02*
X402495D01*
X402633Y191073D01*
X403747Y189406D01*
X405414Y188292D01*
X406111Y188154D01*
Y191770D01*
D02*
G37*
G36*
X568412Y191594D02*
X564795D01*
Y187978D01*
X565492Y188116D01*
X567159Y189230D01*
X568273Y190897D01*
X568412Y191594D01*
D02*
G37*
G36*
X412267Y191770D02*
X408651D01*
Y188154D01*
X409347Y188292D01*
X411015Y189406D01*
X412128Y191073D01*
X412267Y191770D01*
D02*
G37*
G36*
X424791D02*
X421175D01*
Y188154D01*
X421871Y188292D01*
X423538Y189406D01*
X424652Y191073D01*
X424791Y191770D01*
D02*
G37*
G36*
X418634D02*
X415018D01*
X415157Y191073D01*
X416271Y189406D01*
X417938Y188292D01*
X418634Y188154D01*
Y191770D01*
D02*
G37*
G36*
X406111Y197926D02*
X405414Y197788D01*
X403747Y196674D01*
X402633Y195007D01*
X402495Y194310D01*
X406111D01*
Y197926D01*
D02*
G37*
G36*
X564795Y197750D02*
Y194134D01*
X568412D01*
X568273Y194830D01*
X567159Y196497D01*
X565492Y197611D01*
X564795Y197750D01*
D02*
G37*
G36*
X408651Y197926D02*
Y194310D01*
X412267D01*
X412128Y195007D01*
X411015Y196674D01*
X409347Y197788D01*
X408651Y197926D01*
D02*
G37*
G36*
X421175D02*
Y194310D01*
X424791D01*
X424652Y195007D01*
X423538Y196674D01*
X421871Y197788D01*
X421175Y197926D01*
D02*
G37*
G36*
X418634D02*
X417938Y197788D01*
X416271Y196674D01*
X415157Y195007D01*
X415018Y194310D01*
X418634D01*
Y197926D01*
D02*
G37*
G36*
X588264Y199390D02*
X582549D01*
Y193040D01*
X588264D01*
Y199390D01*
D02*
G37*
G36*
X580009D02*
X574294D01*
Y193040D01*
X580009D01*
Y199390D01*
D02*
G37*
G36*
X549824Y197750D02*
X549127Y197611D01*
X547460Y196497D01*
X546346Y194830D01*
X546208Y194134D01*
X549824D01*
Y197750D01*
D02*
G37*
G36*
X562256D02*
X561559Y197611D01*
X559892Y196497D01*
X558778Y194830D01*
X558639Y194134D01*
X562256D01*
Y197750D01*
D02*
G37*
G36*
X552364D02*
Y194134D01*
X555980D01*
X555841Y194830D01*
X554728Y196497D01*
X553060Y197611D01*
X552364Y197750D01*
D02*
G37*
G36*
Y185226D02*
Y181610D01*
X555980D01*
X555841Y182306D01*
X554728Y183974D01*
X553060Y185088D01*
X552364Y185226D01*
D02*
G37*
G36*
X549824D02*
X549127Y185088D01*
X547460Y183974D01*
X546346Y182306D01*
X546208Y181610D01*
X549824D01*
Y185226D01*
D02*
G37*
G36*
X562524D02*
X561827Y185088D01*
X560160Y183974D01*
X559046Y182306D01*
X558908Y181610D01*
X562524D01*
Y185226D01*
D02*
G37*
G36*
X418634Y185494D02*
X417938Y185356D01*
X416271Y184242D01*
X415157Y182575D01*
X415018Y181878D01*
X418634D01*
Y185494D01*
D02*
G37*
G36*
X565064Y185226D02*
Y181610D01*
X568680D01*
X568541Y182306D01*
X567427Y183974D01*
X565760Y185088D01*
X565064Y185226D01*
D02*
G37*
G36*
X406111D02*
X405414Y185088D01*
X403747Y183974D01*
X402633Y182306D01*
X402495Y181610D01*
X406111D01*
Y185226D01*
D02*
G37*
G36*
X531936Y188249D02*
X522164D01*
X522302Y187552D01*
X523416Y185885D01*
X525084Y184771D01*
X524837Y183530D01*
X521510D01*
Y179760D01*
X532590D01*
Y183530D01*
X529263D01*
X529016Y184771D01*
X530684Y185885D01*
X531798Y187552D01*
X531936Y188249D01*
D02*
G37*
G36*
X408651Y185226D02*
Y181610D01*
X412267D01*
X412128Y182306D01*
X411015Y183974D01*
X409347Y185088D01*
X408651Y185226D01*
D02*
G37*
G36*
X433698D02*
Y181610D01*
X437314D01*
X437176Y182306D01*
X436062Y183974D01*
X434395Y185088D01*
X433698Y185226D01*
D02*
G37*
G36*
X431158D02*
X430462Y185088D01*
X428795Y183974D01*
X427681Y182306D01*
X427542Y181610D01*
X431158D01*
Y185226D01*
D02*
G37*
G36*
X677490Y212517D02*
X649720D01*
Y186247D01*
X677490D01*
Y212517D01*
D02*
G37*
G36*
X647180D02*
X619410D01*
Y186247D01*
X647180D01*
Y212517D01*
D02*
G37*
G36*
X549824Y191594D02*
X546208D01*
X546346Y190897D01*
X547460Y189230D01*
X549127Y188116D01*
X549824Y187978D01*
Y191594D01*
D02*
G37*
G36*
X562256D02*
X558639D01*
X558778Y190897D01*
X559892Y189230D01*
X561559Y188116D01*
X562256Y187978D01*
Y191594D01*
D02*
G37*
G36*
X555980D02*
X552364D01*
Y187978D01*
X553060Y188116D01*
X554728Y189230D01*
X555841Y190897D01*
X555980Y191594D01*
D02*
G37*
G36*
X342532Y216307D02*
X328308D01*
X326338Y215916D01*
X324669Y214800D01*
X323553Y213130D01*
X323161Y211161D01*
X323553Y209191D01*
X324669Y207521D01*
X326338Y206405D01*
X328308Y206014D01*
X332361D01*
Y201675D01*
X332361Y201675D01*
X332594Y200504D01*
X333257Y199512D01*
X339971Y192799D01*
X339775Y192327D01*
X339535Y190500D01*
X339775Y188673D01*
X340480Y186970D01*
X341603Y185508D01*
X343065Y184386D01*
X344768Y183680D01*
X346595Y183440D01*
X348422Y183680D01*
X350125Y184386D01*
X351587Y185508D01*
X352710Y186970D01*
X353415Y188673D01*
X353655Y190500D01*
X353415Y192327D01*
X352710Y194030D01*
X351587Y195492D01*
X350125Y196614D01*
X348422Y197320D01*
X346595Y197560D01*
X344768Y197320D01*
X344296Y197125D01*
X338479Y202942D01*
Y206014D01*
X342532D01*
X344502Y206405D01*
X346171Y207521D01*
X347287Y209191D01*
X347679Y211161D01*
X347287Y213130D01*
X346171Y214800D01*
X344502Y215916D01*
X342532Y216307D01*
D02*
G37*
G36*
X421175Y185494D02*
Y181878D01*
X424791D01*
X424652Y182575D01*
X423538Y184242D01*
X421871Y185356D01*
X421175Y185494D01*
D02*
G37*
G36*
X342532Y229007D02*
X328308D01*
X326338Y228616D01*
X324669Y227500D01*
X323553Y225830D01*
X323161Y223860D01*
X323553Y221891D01*
X324669Y220221D01*
X326338Y219105D01*
X328308Y218714D01*
X342532D01*
X344502Y219105D01*
X346171Y220221D01*
X346559Y220802D01*
X348682D01*
X365241Y204242D01*
Y197351D01*
X364770Y197155D01*
X363308Y196033D01*
X362186Y194571D01*
X361480Y192868D01*
X361240Y191041D01*
X361480Y189214D01*
X362186Y187511D01*
X363308Y186049D01*
X364770Y184927D01*
X366473Y184221D01*
X368300Y183981D01*
X370127Y184221D01*
X371830Y184927D01*
X373292Y186049D01*
X374414Y187511D01*
X375120Y189214D01*
X375360Y191041D01*
X375120Y192868D01*
X374414Y194571D01*
X373292Y196033D01*
X371830Y197155D01*
X371359Y197351D01*
Y205509D01*
X371126Y206680D01*
X370860Y207078D01*
X370463Y207672D01*
X370463Y207672D01*
X352112Y226023D01*
X351119Y226686D01*
X349949Y226919D01*
X349949Y226919D01*
X346559D01*
X346171Y227500D01*
X344502Y228616D01*
X342532Y229007D01*
D02*
G37*
G36*
X588264Y190500D02*
X582549D01*
Y184150D01*
X588264D01*
Y190500D01*
D02*
G37*
G36*
X580009D02*
X574294D01*
Y184150D01*
X580009D01*
Y190500D01*
D02*
G37*
G36*
X677490Y241327D02*
X649720D01*
Y215057D01*
X677490D01*
Y241327D01*
D02*
G37*
G36*
X647180D02*
X619410D01*
Y215057D01*
X647180D01*
Y241327D01*
D02*
G37*
G36*
X388907Y222000D02*
X388210Y221862D01*
X386543Y220748D01*
X385429Y219081D01*
X385291Y218384D01*
X388907D01*
Y222000D01*
D02*
G37*
G36*
X459740Y227849D02*
X459042Y227757D01*
X457207Y226997D01*
X455632Y225789D01*
X454424Y224214D01*
X453664Y222379D01*
X453572Y221681D01*
X459740D01*
Y227849D01*
D02*
G37*
G36*
X409080Y223718D02*
X402476D01*
Y218384D01*
X409080D01*
Y223718D01*
D02*
G37*
G36*
X296840Y216047D02*
Y212430D01*
X300456D01*
X300317Y213127D01*
X299203Y214794D01*
X297536Y215908D01*
X296840Y216047D01*
D02*
G37*
G36*
X278270Y216858D02*
X272428D01*
X270248Y216424D01*
X268399Y215189D01*
X267164Y213341D01*
X266983Y212430D01*
X278270D01*
Y216858D01*
D02*
G37*
G36*
X459740Y219141D02*
X453572D01*
X453664Y218443D01*
X454424Y216609D01*
X455632Y215033D01*
X457207Y213825D01*
X459042Y213065D01*
X459740Y212973D01*
Y219141D01*
D02*
G37*
G36*
X493410Y227411D02*
X479410D01*
Y213411D01*
X493410D01*
Y227411D01*
D02*
G37*
G36*
X468448Y219141D02*
X462280D01*
Y212973D01*
X462978Y213065D01*
X464813Y213825D01*
X466388Y215033D01*
X467596Y216609D01*
X468356Y218443D01*
X468448Y219141D01*
D02*
G37*
G36*
X96980Y229250D02*
X92710D01*
Y225480D01*
X96980D01*
Y229250D01*
D02*
G37*
G36*
X90170D02*
X85900D01*
Y225480D01*
X90170D01*
Y229250D01*
D02*
G37*
G36*
X307340Y231883D02*
X306644Y231745D01*
X304976Y230631D01*
X303862Y228964D01*
X303724Y228267D01*
X307340D01*
Y231883D01*
D02*
G37*
G36*
X108530Y235410D02*
X104760D01*
Y231140D01*
X108530D01*
Y235410D01*
D02*
G37*
G36*
X309880Y231883D02*
Y228267D01*
X313496D01*
X313358Y228964D01*
X312244Y230631D01*
X310576Y231745D01*
X309880Y231883D01*
D02*
G37*
G36*
X399936Y223718D02*
X393332D01*
Y222415D01*
X392212Y221816D01*
X392143Y221862D01*
X391447Y222000D01*
Y217114D01*
Y212228D01*
X392143Y212367D01*
X392212Y212412D01*
X393332Y211814D01*
Y210510D01*
X399936D01*
Y217114D01*
Y223718D01*
D02*
G37*
G36*
X462280Y227849D02*
Y221681D01*
X468448D01*
X468356Y222379D01*
X467596Y224214D01*
X466388Y225789D01*
X464813Y226997D01*
X462978Y227757D01*
X462280Y227849D01*
D02*
G37*
G36*
X307340Y225727D02*
X303724D01*
X303862Y225031D01*
X304976Y223364D01*
X306644Y222250D01*
X307340Y222111D01*
Y225727D01*
D02*
G37*
G36*
X108530Y228600D02*
X104760D01*
Y224330D01*
X108530D01*
Y228600D01*
D02*
G37*
G36*
X313496Y225727D02*
X309880D01*
Y222111D01*
X310576Y222250D01*
X312244Y223364D01*
X313358Y225031D01*
X313496Y225727D01*
D02*
G37*
G36*
X562524Y204117D02*
X558908D01*
X559046Y203421D01*
X560160Y201754D01*
X561827Y200640D01*
X562524Y200501D01*
Y204117D01*
D02*
G37*
G36*
X555980D02*
X552364D01*
Y200501D01*
X553060Y200640D01*
X554728Y201754D01*
X555841Y203421D01*
X555980Y204117D01*
D02*
G37*
G36*
X568680D02*
X565064D01*
Y200501D01*
X565760Y200640D01*
X567427Y201754D01*
X568541Y203421D01*
X568680Y204117D01*
D02*
G37*
G36*
X588264Y208280D02*
X582549D01*
Y201930D01*
X588264D01*
Y208280D01*
D02*
G37*
G36*
X580009D02*
X574294D01*
Y201930D01*
X580009D01*
Y208280D01*
D02*
G37*
G36*
X433698Y197926D02*
Y194310D01*
X437314D01*
X437176Y195007D01*
X436062Y196674D01*
X434395Y197788D01*
X433698Y197926D01*
D02*
G37*
G36*
X431158D02*
X430462Y197788D01*
X428795Y196674D01*
X427681Y195007D01*
X427542Y194310D01*
X431158D01*
Y197926D01*
D02*
G37*
G36*
X256540Y202510D02*
X252270D01*
Y198740D01*
X256540D01*
Y202510D01*
D02*
G37*
G36*
X549824Y204117D02*
X546208D01*
X546346Y203421D01*
X547460Y201754D01*
X549127Y200640D01*
X549824Y200501D01*
Y204117D01*
D02*
G37*
G36*
X263350Y202510D02*
X259080D01*
Y198740D01*
X263350D01*
Y202510D01*
D02*
G37*
G36*
X73949Y208721D02*
Y205105D01*
X77565D01*
X77427Y205802D01*
X76313Y207469D01*
X74646Y208583D01*
X73949Y208721D01*
D02*
G37*
G36*
X409080Y215844D02*
X402476D01*
Y210510D01*
X409080D01*
Y215844D01*
D02*
G37*
G36*
X565064Y210273D02*
Y206657D01*
X568680D01*
X568541Y207354D01*
X567427Y209021D01*
X565760Y210135D01*
X565064Y210273D01*
D02*
G37*
G36*
X588264Y217170D02*
X582549D01*
Y210820D01*
X588264D01*
Y217170D01*
D02*
G37*
G36*
X580009D02*
X574294D01*
Y210820D01*
X580009D01*
Y217170D01*
D02*
G37*
G36*
X388907Y215844D02*
X385291D01*
X385429Y215148D01*
X386543Y213480D01*
X388210Y212367D01*
X388907Y212228D01*
Y215844D01*
D02*
G37*
G36*
X549824Y210273D02*
X549127Y210135D01*
X547460Y209021D01*
X546346Y207354D01*
X546208Y206657D01*
X549824D01*
Y210273D01*
D02*
G37*
G36*
X278270Y209890D02*
X266983D01*
X267164Y208980D01*
X268399Y207132D01*
X270248Y205897D01*
X272428Y205463D01*
X278270D01*
Y209890D01*
D02*
G37*
G36*
X562524Y210273D02*
X561827Y210135D01*
X560160Y209021D01*
X559046Y207354D01*
X558908Y206657D01*
X562524D01*
Y210273D01*
D02*
G37*
G36*
X552364D02*
Y206657D01*
X555980D01*
X555841Y207354D01*
X554728Y209021D01*
X553060Y210135D01*
X552364Y210273D01*
D02*
G37*
%LPD*%
G36*
X600812Y212090D02*
X608330D01*
X610971Y209449D01*
Y172720D01*
X608431Y170180D01*
X601091D01*
X597281Y173990D01*
Y209550D01*
X599382Y213521D01*
X600812Y212090D01*
D02*
G37*
D10*
X485140Y320730D02*
D03*
Y311730D02*
D03*
X459740Y320730D02*
D03*
Y311730D02*
D03*
X447040Y311730D02*
D03*
Y320730D02*
D03*
X434340Y311730D02*
D03*
Y320730D02*
D03*
X421640Y311730D02*
D03*
Y320730D02*
D03*
X408940Y311730D02*
D03*
Y320730D02*
D03*
X396240Y311730D02*
D03*
Y320730D02*
D03*
X383540Y311730D02*
D03*
Y320730D02*
D03*
X370840Y311730D02*
D03*
Y320730D02*
D03*
X358140Y311730D02*
D03*
Y320730D02*
D03*
X274320Y422220D02*
D03*
Y431220D02*
D03*
X287020Y422220D02*
D03*
Y431220D02*
D03*
X91440Y224210D02*
D03*
Y215210D02*
D03*
X78050D02*
D03*
Y224210D02*
D03*
X257810Y253420D02*
D03*
Y244420D02*
D03*
Y233100D02*
D03*
Y224100D02*
D03*
X161290Y137735D02*
D03*
Y128735D02*
D03*
X87630Y68000D02*
D03*
Y59000D02*
D03*
X411480Y139010D02*
D03*
Y148010D02*
D03*
X398780D02*
D03*
Y139010D02*
D03*
X386080Y148010D02*
D03*
Y139010D02*
D03*
X371310Y148010D02*
D03*
Y139010D02*
D03*
X87630Y163140D02*
D03*
Y172140D02*
D03*
X148590Y187380D02*
D03*
Y178380D02*
D03*
X166721Y186110D02*
D03*
Y177110D02*
D03*
X52070Y68000D02*
D03*
Y59000D02*
D03*
X69850Y68000D02*
D03*
Y59000D02*
D03*
X105410D02*
D03*
Y68000D02*
D03*
X132080Y116260D02*
D03*
Y107260D02*
D03*
X123190Y172140D02*
D03*
Y163140D02*
D03*
X105410Y172140D02*
D03*
Y163140D02*
D03*
X52070Y100649D02*
D03*
Y109650D02*
D03*
X70045Y100649D02*
D03*
Y109650D02*
D03*
X527050Y169490D02*
D03*
Y178490D02*
D03*
X174719Y137850D02*
D03*
Y128850D02*
D03*
X257810Y203780D02*
D03*
Y212780D02*
D03*
X360680Y236800D02*
D03*
Y245800D02*
D03*
X653530Y82197D02*
D03*
Y91197D02*
D03*
X666230Y82197D02*
D03*
Y91197D02*
D03*
X678930D02*
D03*
Y82197D02*
D03*
X168910Y435030D02*
D03*
Y426030D02*
D03*
X156210Y435030D02*
D03*
Y426030D02*
D03*
D11*
X549910Y417320D02*
D03*
Y385320D02*
D03*
X249500Y100840D02*
D03*
Y132840D02*
D03*
X223520Y100840D02*
D03*
Y132840D02*
D03*
X198120Y100840D02*
D03*
Y132840D02*
D03*
D12*
X301570Y433410D02*
D03*
X310570D02*
D03*
X301570Y420710D02*
D03*
X310570D02*
D03*
X523820Y245110D02*
D03*
X532820D02*
D03*
X523820Y257810D02*
D03*
X532820D02*
D03*
Y270510D02*
D03*
X523820D02*
D03*
X52650Y203835D02*
D03*
X61650D02*
D03*
X52650Y162560D02*
D03*
X61650D02*
D03*
X573601Y234950D02*
D03*
X564601D02*
D03*
X376500Y236560D02*
D03*
X385500D02*
D03*
X243800Y169825D02*
D03*
X252800D02*
D03*
X118800Y215900D02*
D03*
X109800D02*
D03*
X118800Y229870D02*
D03*
X109800D02*
D03*
X243800Y157125D02*
D03*
X252800D02*
D03*
X223612Y314960D02*
D03*
X214612D02*
D03*
X257120Y276020D02*
D03*
X266120D02*
D03*
X542035Y60960D02*
D03*
X551035D02*
D03*
X109910Y246380D02*
D03*
X100910D02*
D03*
X219625Y257810D02*
D03*
X210625D02*
D03*
X133980Y435030D02*
D03*
X142980D02*
D03*
X133930Y448310D02*
D03*
X142930D02*
D03*
X385500Y251460D02*
D03*
X376500D02*
D03*
D13*
X363220Y426720D02*
D03*
D14*
X391300Y446110D02*
D03*
Y433410D02*
D03*
Y420710D02*
D03*
Y408010D02*
D03*
X335420D02*
D03*
Y420710D02*
D03*
Y433410D02*
D03*
Y249261D02*
D03*
Y236560D02*
D03*
Y223860D02*
D03*
Y211161D02*
D03*
X279540D02*
D03*
Y223860D02*
D03*
Y236560D02*
D03*
D15*
X335420Y446110D02*
D03*
X279540Y249261D02*
D03*
D16*
X506387Y295545D02*
D03*
D17*
X537137D02*
D03*
D18*
X564680Y357670D02*
D03*
X537680Y330670D02*
D03*
D19*
X660380Y339446D02*
D03*
Y364846D02*
D03*
X598380D02*
D03*
Y339446D02*
D03*
D20*
X570140Y257445D02*
D03*
Y270145D02*
D03*
Y282845D02*
D03*
Y295545D02*
D03*
Y308245D02*
D03*
D21*
X654140Y282845D02*
D03*
D22*
X154719Y203606D02*
D03*
X158720D02*
D03*
X162720D02*
D03*
X166721D02*
D03*
X178720D02*
D03*
X182720D02*
D03*
X186721D02*
D03*
X190721D02*
D03*
Y253594D02*
D03*
X186721D02*
D03*
X182720D02*
D03*
X178720D02*
D03*
X166721D02*
D03*
X162720D02*
D03*
X158720D02*
D03*
X154719D02*
D03*
D23*
X170721Y203606D02*
D03*
X174719D02*
D03*
Y253594D02*
D03*
X170721D02*
D03*
D24*
X197714Y246601D02*
D03*
Y242600D02*
D03*
Y238600D02*
D03*
Y234599D02*
D03*
Y222600D02*
D03*
Y218600D02*
D03*
Y214599D02*
D03*
Y210599D02*
D03*
X147726D02*
D03*
Y214599D02*
D03*
Y218600D02*
D03*
Y222600D02*
D03*
Y234599D02*
D03*
Y238600D02*
D03*
Y242600D02*
D03*
Y246601D02*
D03*
D25*
X197714Y230599D02*
D03*
Y226601D02*
D03*
X147726D02*
D03*
Y230599D02*
D03*
D26*
X172720Y228600D02*
D03*
D27*
X73310Y146050D02*
D03*
X58071D02*
D03*
X148590Y104830D02*
D03*
X163830D02*
D03*
D28*
X281940Y152400D02*
D03*
X508000Y182880D02*
D03*
X368300Y191041D02*
D03*
X346595Y190500D02*
D03*
X461010Y220411D02*
D03*
D29*
X274320Y106680D02*
D03*
Y132080D02*
D03*
D30*
X54610Y319240D02*
D03*
X67310D02*
D03*
X80010D02*
D03*
X92710D02*
D03*
X105410D02*
D03*
X118110D02*
D03*
X130810D02*
D03*
X143510D02*
D03*
X156210D02*
D03*
X168910D02*
D03*
X181610D02*
D03*
X67310Y409740D02*
D03*
X54610D02*
D03*
X105410D02*
D03*
X92710D02*
D03*
X80010D02*
D03*
X143510D02*
D03*
X130810D02*
D03*
X118110D02*
D03*
X156210D02*
D03*
X168910D02*
D03*
X194310Y319240D02*
D03*
X181610Y409740D02*
D03*
X194310D02*
D03*
D31*
X401206Y236189D02*
D03*
Y217114D02*
D03*
X424142Y226652D02*
D03*
D32*
X472950Y111760D02*
D03*
X504950D02*
D03*
Y137160D02*
D03*
X472950D02*
D03*
Y86360D02*
D03*
X504950D02*
D03*
Y60960D02*
D03*
X472950D02*
D03*
D33*
X317970Y131610D02*
D03*
X344970Y104610D02*
D03*
X190091Y183325D02*
D03*
X217091Y156325D02*
D03*
D34*
X398310Y123800D02*
D03*
Y104800D02*
D03*
X371310D02*
D03*
Y114300D02*
D03*
Y123800D02*
D03*
D35*
X597281Y209550D02*
D03*
X581279D02*
D03*
Y191770D02*
D03*
X597281D02*
D03*
X581279Y173990D02*
D03*
X597281D02*
D03*
D36*
X484505Y161579D02*
D03*
X506095D02*
D03*
D37*
X228126Y298020D02*
D03*
Y276020D02*
D03*
X243126D02*
D03*
Y298020D02*
D03*
D38*
X635750Y65657D02*
D03*
D39*
Y96407D02*
D03*
D40*
X673850Y129787D02*
D03*
X661150D02*
D03*
X648450D02*
D03*
X635750D02*
D03*
X623050D02*
D03*
D41*
X648450Y213787D02*
D03*
D42*
X536257Y144840D02*
D03*
X592257Y88840D02*
D03*
D43*
X325154Y330233D02*
X335280Y340360D01*
X213326Y330233D02*
X325154D01*
X173260Y370300D02*
X213326Y330233D01*
X327034Y325694D02*
X337160Y335820D01*
X211446Y325694D02*
X327034D01*
X171380Y365760D02*
X211446Y325694D01*
X141090Y370300D02*
X173260D01*
X118110Y393280D02*
X141090Y370300D01*
X118110Y393280D02*
Y409740D01*
X139210Y365760D02*
X171380D01*
X105410Y399560D02*
X139210Y365760D01*
X105410Y399560D02*
Y409740D01*
X271490Y343630D02*
X315440Y387580D01*
X408940Y294640D02*
Y311730D01*
X383540Y294640D02*
Y311730D01*
X337160Y335820D02*
X361646D01*
X335280Y340360D02*
X359765D01*
X194310Y381071D02*
Y409740D01*
Y381071D02*
X231751Y343630D01*
X271490D01*
X229870Y339090D02*
X309200D01*
X181610Y387350D02*
X229870Y339090D01*
X181610Y387350D02*
Y409740D01*
X361646Y335820D02*
X384690Y358865D01*
X359765Y340360D02*
X370840Y351435D01*
X384690Y358865D02*
Y359180D01*
X370840Y351435D02*
Y387580D01*
X310570Y433410D02*
X335420D01*
X310570Y420710D02*
X335420D01*
X309200Y339090D02*
X329290Y359180D01*
X597281Y209550D02*
Y228219D01*
X590550Y234950D02*
X597281Y228219D01*
X573601Y234950D02*
X590550D01*
X67310Y397510D02*
Y409740D01*
X54610Y397273D02*
Y397510D01*
Y409740D01*
X143510Y397510D02*
Y409740D01*
X130810Y397510D02*
Y409740D01*
D44*
X135363Y148590D02*
X140443Y153670D01*
X113030Y148590D02*
X135363D01*
X105410Y156210D02*
X113030Y148590D01*
X158750Y154213D02*
Y190008D01*
X118940Y127830D02*
X132367D01*
X158750Y154213D01*
X154940Y155749D02*
Y191544D01*
X130801Y131610D02*
X154940Y155749D01*
X117044Y131610D02*
X130801D01*
X52070Y113030D02*
X56713Y117673D01*
X532820Y245110D02*
Y269780D01*
X533185Y270145D01*
X570140D01*
X537137Y330127D02*
X537680Y330670D01*
X103107Y117673D02*
X117044Y131610D01*
X56713Y117673D02*
X103107D01*
X105003Y113893D02*
X118940Y127830D01*
X74289Y113893D02*
X105003D01*
X70045Y109650D02*
X74289Y113893D01*
X52070Y109650D02*
Y113030D01*
X136094Y226601D02*
X147726D01*
X132825Y229870D02*
X136094Y226601D01*
X137442Y230599D02*
X147726D01*
X121660Y246380D02*
X137442Y230599D01*
X109910Y246380D02*
X121660D01*
X152430Y267143D02*
X158720Y260853D01*
X124460Y228102D02*
X126228Y229870D01*
X132825D01*
X124460D02*
X126228D01*
X87630Y172140D02*
Y187960D01*
X139700Y214599D02*
X147726D01*
X136663Y211562D02*
X139700Y214599D01*
X136663Y155236D02*
Y211562D01*
X133827Y152400D02*
X136663Y155236D01*
X125760Y152400D02*
X133827D01*
X123190Y154971D02*
X125760Y152400D01*
X123190Y154971D02*
Y163140D01*
X105410Y156210D02*
Y163140D01*
X142240Y210599D02*
X147726D01*
X140443Y208802D02*
X142240Y210599D01*
X140443Y153670D02*
Y208802D01*
X158750Y190008D02*
X162720Y193978D01*
X154940Y191544D02*
X158720Y195323D01*
Y203606D01*
X162720Y193978D02*
Y203606D01*
X156210Y268709D02*
X162720Y262199D01*
Y253594D02*
Y262199D01*
X165130Y265134D02*
X166721Y263544D01*
X168910Y266700D02*
X170721Y264889D01*
X133270Y251119D02*
X141788Y242600D01*
X147726D01*
X129490Y249553D02*
X140443Y238600D01*
X147726D01*
X174719Y253594D02*
Y259809D01*
X158720Y253594D02*
Y260853D01*
X166721Y253594D02*
Y263544D01*
X170721Y253594D02*
Y264889D01*
X105410Y307340D02*
Y319240D01*
Y307340D02*
X133270Y279480D01*
Y272547D02*
Y279480D01*
X133270Y251119D02*
Y272547D01*
X130810Y302464D02*
X152430Y280844D01*
Y267143D02*
Y280844D01*
X130810Y302464D02*
Y319240D01*
X143510Y295109D02*
X156210Y282409D01*
Y268709D02*
Y282409D01*
X143510Y295109D02*
Y319240D01*
X67310Y298871D02*
X85001Y281180D01*
X67310Y298871D02*
Y319240D01*
X85001Y281180D02*
X105871D01*
X129490Y257561D01*
Y249553D02*
Y257561D01*
X194310Y307340D02*
Y319240D01*
X168910Y266700D02*
Y281940D01*
X194310Y307340D01*
X165130Y265134D02*
Y284358D01*
X181610Y300838D01*
Y319240D01*
D45*
X635000Y436880D02*
X649211Y422669D01*
X635000Y416560D02*
Y436880D01*
X615950Y417830D02*
X635000Y436880D01*
X644246Y345440D02*
X650240Y339446D01*
X391300Y408010D02*
X409869D01*
X599824Y91327D02*
X635750D01*
X614927Y129787D02*
X623050D01*
X613410Y128270D02*
X614927Y129787D01*
X570140Y308245D02*
X570230Y308335D01*
Y316810D01*
X598380Y364846D02*
X608330D01*
X650240Y339446D02*
X660380D01*
X537137Y295545D02*
Y330127D01*
Y295545D02*
X570140D01*
X52070Y187960D02*
Y190500D01*
Y150536D02*
Y187960D01*
Y150536D02*
X57730Y144876D01*
X223520Y100840D02*
X249500D01*
X274320Y90170D02*
Y103670D01*
X223520Y87340D02*
Y100840D01*
X198120Y87340D02*
Y100840D01*
X105410Y96520D02*
X113720Y104830D01*
X105410Y86360D02*
Y96520D01*
X113720Y104830D02*
X140443D01*
X148590D01*
X371310Y114300D02*
X384810D01*
X466165Y161579D02*
X484505D01*
X454610Y86360D02*
X472950D01*
X454610Y60960D02*
X472950D01*
X454610Y137160D02*
X472950D01*
X454610Y111760D02*
X472950D01*
X148590Y170180D02*
Y177110D01*
X87630Y156210D02*
Y163140D01*
X61650Y162560D02*
X69850D01*
X154475Y128735D02*
X161290D01*
X279540Y211161D02*
X295569D01*
X272691D02*
X279540D01*
X166721Y169600D02*
Y176530D01*
X635750Y91327D02*
Y129787D01*
X218064Y276020D02*
X228126D01*
D46*
X22000Y478000D02*
X193500D01*
X22000Y250000D02*
Y478000D01*
X365000D02*
X536500D01*
X708000Y22059D02*
Y250000D01*
Y478000D01*
X193500D02*
X365000D01*
X22000Y22919D02*
Y250000D01*
X536500Y478000D02*
X708000D01*
X22860Y22059D02*
X708000D01*
D47*
X73310Y146050D02*
X85001D01*
X549910Y417320D02*
Y429260D01*
X459740Y320730D02*
Y327660D01*
X300990Y433991D02*
X301570Y433410D01*
X300990Y433991D02*
Y446110D01*
X335420D01*
X294981Y433410D02*
X301570D01*
X292790Y431220D02*
X294981Y433410D01*
X287020Y431220D02*
X292790D01*
X274320D02*
X287020D01*
X564680Y357670D02*
X572770Y349580D01*
Y349250D02*
Y349580D01*
X523820Y245110D02*
Y257810D01*
X516890D02*
X523820D01*
X163830Y96520D02*
Y104830D01*
X164050Y104610D02*
X171450D01*
X73310Y135296D02*
Y146050D01*
X345160Y104800D02*
X371310D01*
X653530Y91197D02*
Y99397D01*
X678930Y91197D02*
Y99397D01*
X666230D02*
X678930D01*
X666230Y91197D02*
Y99397D01*
X661150Y100667D02*
Y129787D01*
X653530Y99397D02*
X666230D01*
D48*
X114990Y448310D02*
X133930D01*
X114990Y441960D02*
Y448310D01*
Y435030D02*
Y441960D01*
X114949Y441919D02*
X114990Y441960D01*
X92710Y441919D02*
X114949D01*
X168910Y435030D02*
Y441031D01*
X161630Y448310D02*
X168910Y441031D01*
X142930Y448310D02*
X161630D01*
X80010Y384810D02*
Y409740D01*
X92710D02*
X92806Y409644D01*
Y384906D02*
Y409644D01*
X335420Y408010D02*
X344510D01*
X363220Y426720D01*
X220746Y422220D02*
X287020D01*
X215086Y416560D02*
X220746Y422220D01*
X302150Y408010D02*
X335420D01*
X301570Y408591D02*
X302150Y408010D01*
X301570Y408591D02*
Y420710D01*
X301229Y420370D02*
X301570Y420710D01*
X294640Y420370D02*
X301229D01*
X292790Y422220D02*
X294640Y420370D01*
X287020Y422220D02*
X292790D01*
X52070Y190500D02*
Y218440D01*
Y50800D02*
Y59000D01*
X69850Y50800D02*
Y59000D01*
X105410D02*
X105490Y50800D01*
X121051Y116260D02*
X132080D01*
X61650Y203835D02*
X72679D01*
X390177Y217114D02*
X401206D01*
X411480Y148010D02*
Y159039D01*
X527050Y178490D02*
Y189519D01*
X252800Y157125D02*
X261620D01*
X252800Y169825D02*
X261620D01*
X91440Y246380D02*
X100910D01*
X266120Y281360D02*
X270510Y285750D01*
X266120Y276020D02*
Y281360D01*
X205616Y314960D02*
X215086D01*
X238640Y294520D02*
Y311270D01*
X317970Y249261D02*
X333009D01*
X101600Y215900D02*
X109800D01*
Y229870D01*
X91440Y224210D02*
Y246380D01*
X101020Y68000D02*
X105410D01*
X92020Y59000D02*
X101020Y68000D01*
X87630Y59000D02*
X92020D01*
X371310Y123800D02*
Y139010D01*
X398780D02*
X411480D01*
X386080D02*
X398780D01*
Y124270D02*
Y139010D01*
X324140Y167005D02*
X380365D01*
X317970Y160835D02*
X324140Y167005D01*
X317970Y131610D02*
Y160835D01*
X380365Y167005D02*
X386080Y161290D01*
Y148010D02*
Y161290D01*
Y148010D02*
X398780D01*
X77470Y233100D02*
Y233680D01*
X52070Y218440D02*
X57840Y224210D01*
X78050D01*
Y233100D01*
X243800Y157125D02*
Y169825D01*
X154220Y201210D02*
Y203606D01*
X148590Y195580D02*
X154220Y201210D01*
X105410Y68000D02*
Y86360D01*
X182720Y195740D02*
X190500Y187960D01*
X178720Y193391D02*
X186690Y185420D01*
X156210Y409740D02*
Y420370D01*
Y426030D01*
X168910Y409740D02*
Y420370D01*
Y426030D01*
X143620Y435030D02*
X156210D01*
X114990D02*
X133980D01*
D49*
X485140Y320730D02*
Y327660D01*
X447040Y320730D02*
Y327660D01*
X358140Y320730D02*
X447040D01*
X391300Y433410D02*
X430190D01*
X459740Y269240D02*
X471170Y280670D01*
Y336550D01*
X464820Y342900D02*
X471170Y336550D01*
X464820Y342900D02*
Y398780D01*
X430190Y433410D02*
X464820Y398780D01*
X485140Y294640D02*
Y311730D01*
X459740Y294640D02*
Y311730D01*
X434340Y269240D02*
X447040Y281940D01*
Y311730D01*
X434340Y294640D02*
Y311730D01*
X408940Y269240D02*
X421640Y281940D01*
Y311730D01*
X383540Y269240D02*
X396240Y281940D01*
Y311730D01*
X358140Y269240D02*
X370840Y281940D01*
Y311730D01*
X441270Y234950D02*
X564601D01*
X432972Y226652D02*
X441270Y234950D01*
X424142Y226652D02*
X432972D01*
X564601Y234950D02*
Y256461D01*
X565585Y257445D01*
X570140D01*
X136254Y218600D02*
X147726D01*
X335420Y249261D02*
X348909D01*
X352370Y245800D01*
X360680D01*
X197714Y214599D02*
X207679D01*
X274320Y132080D02*
Y144780D01*
X281940Y152400D01*
X186721Y203606D02*
X194074D01*
X197714Y207246D02*
Y210599D01*
X194074Y203606D02*
X197714Y207246D01*
X174719Y203606D02*
Y226601D01*
Y122461D02*
Y128850D01*
X361950Y148010D02*
X369805D01*
X398310Y104800D02*
X408280D01*
X385500Y236560D02*
X400835D01*
X335420D02*
X376500D01*
X335420Y223860D02*
X349949D01*
X368300Y205509D01*
Y191041D02*
Y205509D01*
X335420Y201675D02*
Y211161D01*
Y201675D02*
X346595Y190500D01*
X266360Y249261D02*
X279540D01*
X262200Y253420D02*
X266360Y249261D01*
X257810Y253420D02*
X262200D01*
X257810Y233100D02*
X263580D01*
X267041Y236560D01*
X279540D01*
X257810Y233100D02*
Y244420D01*
X279301Y224100D02*
X279540Y223860D01*
X257810Y224100D02*
X279301D01*
X257810Y212780D02*
Y224100D01*
X238640Y276020D02*
X257120D01*
X224125Y298505D02*
Y314960D01*
X219625Y257810D02*
X233343D01*
X238640Y263107D01*
Y276020D01*
X210820Y257810D02*
Y293370D01*
X215470Y298020D01*
X223640D01*
X210625Y253168D02*
Y257810D01*
X204058Y246601D02*
X210625Y253168D01*
X197714Y246601D02*
X204058D01*
X219625Y253915D02*
Y257810D01*
X208311Y242600D02*
X219625Y253915D01*
X197714Y242600D02*
X208311D01*
X148590Y187380D02*
Y195580D01*
X166721Y185420D02*
Y191770D01*
X197714Y238600D02*
X214630D01*
X124460Y215900D02*
X133554D01*
X118800D02*
X124460D01*
X133554D02*
X136254Y218600D01*
X118800Y229870D02*
X124460D01*
X137160Y252730D02*
X143289Y246601D01*
X174719Y259809D02*
Y271051D01*
X150266Y253594D02*
X154719D01*
X166721Y191770D02*
Y203606D01*
X190721Y253594D02*
Y259417D01*
X186721Y253594D02*
Y261074D01*
X182720Y253594D02*
Y262730D01*
X133886Y222600D02*
X147726D01*
X143289Y246601D02*
X147726D01*
X125600Y247942D02*
X138942Y234599D01*
X147726D01*
X178720Y266350D02*
X184150Y271780D01*
X178720Y253594D02*
Y266350D01*
X182720Y195740D02*
Y203606D01*
X178720Y193391D02*
Y203606D01*
X673850Y114637D02*
Y129787D01*
X508000Y163484D02*
Y182880D01*
X54610Y306070D02*
Y319240D01*
X118110Y300141D02*
X137160Y281091D01*
Y252730D02*
Y281091D01*
X118110Y300141D02*
Y319240D01*
X376500Y236560D02*
Y251460D01*
X385500D02*
X392430D01*
X653530Y82197D02*
X666230D01*
X653530Y72498D02*
Y82197D01*
X92710Y308610D02*
Y319240D01*
X168910Y309880D02*
Y319240D01*
X156210Y309880D02*
Y319240D01*
X80010Y308610D02*
Y319240D01*
X54610Y306070D02*
X83390Y277290D01*
X104260D01*
X125600Y255950D01*
Y247942D02*
Y255950D01*
X189221Y286717D02*
X190144Y285794D01*
X182720Y262730D02*
X189510Y269520D01*
Y276290D01*
X184150Y281650D02*
X189510Y276290D01*
X190721Y259417D02*
X197722Y266418D01*
Y290750D01*
X186721Y261074D02*
X193722Y268075D01*
Y282928D01*
X190500Y286150D02*
X193722Y282928D01*
D50*
X358140Y294640D02*
Y311730D01*
D51*
X596900Y405233D02*
Y436880D01*
X629920Y395306D02*
X660380Y364846D01*
X606826Y395306D02*
X629920D01*
X596900Y405233D02*
X606826Y395306D01*
X223520Y132840D02*
Y148245D01*
Y131610D02*
Y132840D01*
X218329Y153436D02*
X223520Y148245D01*
X218329Y153436D02*
Y157370D01*
X217170D02*
X218329D01*
D52*
X52070Y86360D02*
Y100649D01*
X70045Y86555D02*
Y100649D01*
X87630Y68000D02*
Y86360D01*
X69850Y68000D02*
Y86360D01*
X52070Y68000D02*
Y86360D01*
X225989Y219480D02*
X245110Y238600D01*
X204470Y219480D02*
X225989D01*
X197862Y222750D02*
X224600D01*
X240030Y238180D01*
Y245110D01*
X207010Y226019D02*
X221989D01*
X234135Y238165D01*
Y238600D01*
X208365Y229289D02*
X220635D01*
X228600Y237254D01*
Y245110D01*
X209719Y232560D02*
X217479D01*
X223520Y238600D01*
X105410Y187960D02*
Y201240D01*
X91440Y215210D02*
X105410Y201240D01*
X78050Y215210D02*
X91440D01*
X203591Y218600D02*
X204470Y219480D01*
X197714Y218600D02*
X203591D01*
X207679Y234599D02*
X209719Y232560D01*
X197714Y234599D02*
X207679D01*
X207055Y230599D02*
X208365Y229289D01*
X197714Y230599D02*
X207055D01*
X197714Y226601D02*
X206428D01*
X207010Y226019D01*
X197714Y222600D02*
X197862Y222750D01*
X123190Y172140D02*
Y187960D01*
X105410Y172140D02*
Y187960D01*
D53*
X223520Y131610D02*
X317970D01*
X199350D02*
X223520D01*
D54*
X170721Y195039D02*
Y203606D01*
X163830Y137735D02*
X174719D01*
X161290D02*
X161405Y137850D01*
X174719D01*
Y191041D01*
X170721Y195039D02*
X174719Y191041D01*
D55*
X41910Y441919D02*
D03*
X92710Y441919D02*
D03*
D56*
X596900Y436880D02*
D03*
X635000D02*
D03*
X673100D02*
D03*
D57*
X245890Y373380D02*
D03*
X495790D02*
D03*
D58*
X329290Y359180D02*
D03*
X356990D02*
D03*
X384690D02*
D03*
X412390D02*
D03*
X315440Y387580D02*
D03*
X343140D02*
D03*
X370840D02*
D03*
X398540D02*
D03*
D59*
X426240D02*
D03*
D60*
X536500Y478000D02*
D03*
X708000Y22000D02*
D03*
X536500D02*
D03*
X365000D02*
D03*
X193500D02*
D03*
X22000D02*
D03*
X193500Y478000D02*
D03*
X708000D02*
D03*
X365000D02*
D03*
X22000Y250000D02*
D03*
X708000D02*
D03*
X22000Y478000D02*
D03*
D61*
X486410Y220411D02*
D03*
D62*
X459740Y269240D02*
D03*
Y294640D02*
D03*
X408940D02*
D03*
Y269240D02*
D03*
X434340Y294640D02*
D03*
X383540D02*
D03*
Y269240D02*
D03*
X485140D02*
D03*
X434340D02*
D03*
X358140D02*
D03*
Y294640D02*
D03*
X332740Y269240D02*
D03*
Y294640D02*
D03*
D63*
X485140D02*
D03*
D64*
X229871Y203834D02*
D03*
X16511Y187960D02*
D03*
X255271Y70486D02*
D03*
X16511Y86359D02*
D03*
X300989Y187959D02*
D03*
X300991Y86359D02*
D03*
D65*
X123189Y187961D02*
D03*
X105409Y187960D02*
D03*
X87629Y187959D02*
D03*
X69849Y187960D02*
D03*
X52071D02*
D03*
X52070Y86360D02*
D03*
X69849D02*
D03*
X87631D02*
D03*
X105411D02*
D03*
D66*
X123191D02*
D03*
D67*
X551094Y180340D02*
D03*
X563794D02*
D03*
X563526Y192864D02*
D03*
X563794Y205387D02*
D03*
X551094Y192864D02*
D03*
Y205387D02*
D03*
X125588Y355600D02*
D03*
X141788D02*
D03*
X644246Y345440D02*
D03*
X653877Y321310D02*
D03*
X15614Y292453D02*
D03*
X28314D02*
D03*
X15614Y304976D02*
D03*
X28045D02*
D03*
X15614Y317500D02*
D03*
Y343076D02*
D03*
Y330553D02*
D03*
Y355600D02*
D03*
X27940Y368653D02*
D03*
X28314Y330553D02*
D03*
Y317500D02*
D03*
X28045Y343076D02*
D03*
X28314Y355600D02*
D03*
X15240Y393700D02*
D03*
Y381176D02*
D03*
Y368653D02*
D03*
X24130Y410245D02*
D03*
X27672Y381176D02*
D03*
X27940Y393700D02*
D03*
X94171Y472440D02*
D03*
X106695D02*
D03*
Y484872D02*
D03*
X119219Y472440D02*
D03*
X94171Y485140D02*
D03*
X119219D02*
D03*
X264273Y472440D02*
D03*
Y485140D02*
D03*
X276796Y472440D02*
D03*
X289320D02*
D03*
X276796Y484872D02*
D03*
X289320Y485140D02*
D03*
X442865Y471170D02*
D03*
Y483870D02*
D03*
X455388Y471170D02*
D03*
Y483602D02*
D03*
X467912Y471170D02*
D03*
Y483870D02*
D03*
X610870Y471170D02*
D03*
Y483870D02*
D03*
X623394Y471170D02*
D03*
X635917D02*
D03*
X623394Y483602D02*
D03*
X635917Y483870D02*
D03*
X701686Y336550D02*
D03*
X701955Y349074D02*
D03*
X714386Y336550D02*
D03*
X701686Y361597D02*
D03*
X714386Y349074D02*
D03*
Y361597D02*
D03*
X701040Y142240D02*
D03*
X701308Y154764D02*
D03*
X713740Y142240D02*
D03*
X701040Y167287D02*
D03*
X713740Y154764D02*
D03*
Y167287D02*
D03*
X613763Y13970D02*
D03*
X626286Y14238D02*
D03*
X613763Y26670D02*
D03*
X626286D02*
D03*
X638810Y13970D02*
D03*
Y26670D02*
D03*
X89940Y13970D02*
D03*
Y26670D02*
D03*
X102464Y14238D02*
D03*
X114987Y13970D02*
D03*
X275943D02*
D03*
X102464Y26670D02*
D03*
X275943D02*
D03*
X114987D02*
D03*
X288467Y14238D02*
D03*
X300991Y13970D02*
D03*
X288467Y26670D02*
D03*
X300991D02*
D03*
X444491Y13970D02*
D03*
X469538D02*
D03*
X457015Y14238D02*
D03*
X469538Y26670D02*
D03*
X444491D02*
D03*
X457015D02*
D03*
X13540Y123543D02*
D03*
Y136066D02*
D03*
X26240Y123543D02*
D03*
X13540Y148590D02*
D03*
X25972Y136066D02*
D03*
X662587Y207672D02*
D03*
Y220372D02*
D03*
X650064Y220104D02*
D03*
X637540Y220372D02*
D03*
X650064Y207672D02*
D03*
X637540D02*
D03*
X646430Y269228D02*
D03*
X659130D02*
D03*
X658862Y281751D02*
D03*
X659130Y294275D02*
D03*
X646430Y281751D02*
D03*
Y294275D02*
D03*
X385566Y77470D02*
D03*
Y64770D02*
D03*
X398089Y65038D02*
D03*
X410613Y64770D02*
D03*
X398089Y77470D02*
D03*
X410613D02*
D03*
X26240Y148590D02*
D03*
X613410Y138430D02*
D03*
X80010Y384810D02*
D03*
X92806Y384906D02*
D03*
X549910Y429260D02*
D03*
X485140Y327660D02*
D03*
X447040D02*
D03*
X459740D02*
D03*
X369570Y439067D02*
D03*
X356870D02*
D03*
X369570Y426544D02*
D03*
X356870D02*
D03*
X369570Y414020D02*
D03*
X356870D02*
D03*
X409869Y408010D02*
D03*
X215086Y416560D02*
D03*
X300990Y446110D02*
D03*
X607060Y207010D02*
D03*
Y189230D02*
D03*
Y173990D02*
D03*
X518160Y161290D02*
D03*
Y129540D02*
D03*
Y118110D02*
D03*
Y106680D02*
D03*
X613410Y128270D02*
D03*
X570230Y318770D02*
D03*
X608330Y364846D02*
D03*
X650240Y339446D02*
D03*
X516890Y257810D02*
D03*
X85001Y146050D02*
D03*
X190500Y286150D02*
D03*
X171450Y104610D02*
D03*
X197722Y290750D02*
D03*
X184150Y281650D02*
D03*
X177800Y226060D02*
D03*
X166370D02*
D03*
X177800Y235303D02*
D03*
X166370D02*
D03*
X52070Y50800D02*
D03*
X69850D02*
D03*
X105490D02*
D03*
X121051Y116260D02*
D03*
X72679Y203835D02*
D03*
X390177Y217114D02*
D03*
X411480Y159039D02*
D03*
X551469Y154940D02*
D03*
X527050Y189519D02*
D03*
X261620Y157074D02*
D03*
Y169825D02*
D03*
X104180Y289560D02*
D03*
X270510Y285750D02*
D03*
X205616Y314960D02*
D03*
X238640Y311270D02*
D03*
X317970Y249261D02*
D03*
X101600Y215900D02*
D03*
X91440Y246380D02*
D03*
X107960Y263580D02*
D03*
X232710Y171450D02*
D03*
X231476Y161290D02*
D03*
X223520Y168102D02*
D03*
X274320Y90170D02*
D03*
X223520Y87340D02*
D03*
X198120D02*
D03*
X203200Y198661D02*
D03*
X384810Y114300D02*
D03*
X466165Y161579D02*
D03*
X454610Y86360D02*
D03*
Y60960D02*
D03*
Y137160D02*
D03*
Y111760D02*
D03*
X148590Y170180D02*
D03*
X87630Y156210D02*
D03*
X73310Y135296D02*
D03*
X69850Y162560D02*
D03*
X174719Y122461D02*
D03*
X154475Y128735D02*
D03*
X163830Y96520D02*
D03*
X361950Y148010D02*
D03*
X408280Y104800D02*
D03*
X518160Y62230D02*
D03*
Y73660D02*
D03*
Y83820D02*
D03*
Y95250D02*
D03*
X295569Y211161D02*
D03*
X245110Y238600D02*
D03*
X240030Y245110D02*
D03*
X228600D02*
D03*
X234135Y238600D02*
D03*
X223520D02*
D03*
X78050Y233100D02*
D03*
X166721Y170180D02*
D03*
X124460Y215900D02*
D03*
Y229870D02*
D03*
X150266Y253594D02*
D03*
X148590Y195580D02*
D03*
X166721Y191770D02*
D03*
X184150Y271780D02*
D03*
X174719Y271051D02*
D03*
X133886Y222600D02*
D03*
X207679Y214630D02*
D03*
X214630Y238600D02*
D03*
X673850Y114637D02*
D03*
X156210Y420370D02*
D03*
X168910D02*
D03*
X191770Y441960D02*
D03*
X572770Y349250D02*
D03*
X392430Y251460D02*
D03*
X85788Y267398D02*
D03*
X653530Y72498D02*
D03*
X92710Y308610D02*
D03*
X80010D02*
D03*
X156210Y309880D02*
D03*
X168910D02*
D03*
X566690Y60960D02*
D03*
X676910Y53340D02*
D03*
X633730Y52070D02*
D03*
X432428Y193040D02*
D03*
X419905D02*
D03*
X432428Y180340D02*
D03*
X419905Y180608D02*
D03*
X407381Y180340D02*
D03*
Y193040D02*
D03*
X100330Y140970D02*
D03*
Y124460D02*
D03*
X81280D02*
D03*
X58420D02*
D03*
X218064Y276020D02*
D03*
X67310Y397510D02*
D03*
X54610D02*
D03*
X130810D02*
D03*
X143510D02*
D03*
X161973Y302260D02*
D03*
X144780Y270695D02*
D03*
X82581Y299720D02*
D03*
X204058Y272036D02*
D03*
X308610Y226997D02*
D03*
X64013Y238760D02*
D03*
X156210Y78740D02*
D03*
X275590Y312310D02*
D03*
X320040Y308156D02*
D03*
M02*
